%TF.GenerationSoftware,KiCad,Pcbnew,9.0.3*%
%TF.CreationDate,2025-07-24T11:08:29+02:00*%
%TF.ProjectId,USBtoUART,55534274-6f55-4415-9254-2e6b69636164,v1.0*%
%TF.SameCoordinates,Original*%
%TF.FileFunction,Plated,1,2,PTH,Mixed*%
%TF.FilePolarity,Positive*%
%FSLAX46Y46*%
G04 Gerber Fmt 4.6, Leading zero omitted, Abs format (unit mm)*
G04 Created by KiCad (PCBNEW 9.0.3) date 2025-07-24 11:08:29*
%MOMM*%
%LPD*%
G01*
G04 APERTURE LIST*
%TA.AperFunction,ComponentDrill*%
%ADD10C,0.200000*%
%TD*%
%TA.AperFunction,ViaDrill*%
%ADD11C,0.400000*%
%TD*%
%TA.AperFunction,ViaDrill*%
%ADD12C,0.600000*%
%TD*%
G04 aperture for slot hole*
%TA.AperFunction,ComponentDrill*%
%ADD13C,0.600000*%
%TD*%
%TA.AperFunction,ViaDrill*%
%ADD14C,0.800000*%
%TD*%
%TA.AperFunction,ViaDrill*%
%ADD15C,1.000000*%
%TD*%
%TA.AperFunction,ComponentDrill*%
%ADD16C,1.000000*%
%TD*%
G04 APERTURE END LIST*
D10*
%TO.C,U1*%
X129120000Y-106860000D03*
X129120000Y-107860000D03*
X129120000Y-108860000D03*
X130120000Y-106860000D03*
X130120000Y-107860000D03*
X130120000Y-108860000D03*
X131120000Y-106860000D03*
X131120000Y-107860000D03*
X131120000Y-108860000D03*
%TD*%
D11*
X110870000Y-102790000D03*
X114930000Y-102790000D03*
X115040451Y-107724951D03*
X115180000Y-110650000D03*
X116220000Y-105530000D03*
X116840000Y-106400000D03*
X118341734Y-108720344D03*
X119338003Y-108640000D03*
X123350000Y-109920000D03*
X123650000Y-106280000D03*
X128644489Y-104080000D03*
X129550000Y-102980000D03*
X129550000Y-111600000D03*
X130093490Y-103950000D03*
X130620000Y-111600000D03*
X131660000Y-111600000D03*
X131930000Y-103330000D03*
X132760000Y-111600000D03*
X132760000Y-112694030D03*
X132843357Y-103735937D03*
X132850000Y-102690000D03*
X133080000Y-115370000D03*
X133209531Y-113760000D03*
X133474265Y-104720545D03*
X134134500Y-106180268D03*
X134180000Y-115370000D03*
X134533192Y-107096809D03*
X135200000Y-115370000D03*
X137106454Y-110760000D03*
X137619999Y-105890001D03*
X138501480Y-104102619D03*
X138570000Y-103009500D03*
X138677716Y-106035912D03*
X138950000Y-110760000D03*
X139311814Y-105401814D03*
X140870000Y-108950000D03*
D12*
X121404500Y-106880618D03*
X125870000Y-113200000D03*
D13*
%TO.C,J1*%
X108140000Y-103600000D02*
X109340000Y-103600000D01*
X108140000Y-114840000D02*
X109340000Y-114840000D01*
X112340000Y-103600000D02*
X113140000Y-103600000D01*
X112340000Y-114840000D02*
X113140000Y-114840000D01*
%TD*%
D14*
X115650000Y-112110000D03*
X116619760Y-104161774D03*
D15*
X126519757Y-110856870D03*
X142610000Y-109540000D03*
D16*
%TO.C,J4*%
X117965000Y-100330000D03*
%TO.C,J2*%
X117965000Y-118110000D03*
%TO.C,J4*%
X120505000Y-100330000D03*
%TO.C,J2*%
X120505000Y-118110000D03*
%TO.C,J4*%
X123045000Y-100330000D03*
%TO.C,J2*%
X123045000Y-118110000D03*
%TO.C,J4*%
X125585000Y-100330000D03*
%TO.C,J2*%
X125585000Y-118110000D03*
%TO.C,J4*%
X128125000Y-100330000D03*
%TO.C,J2*%
X128125000Y-118110000D03*
%TO.C,J4*%
X130665000Y-100330000D03*
%TO.C,J2*%
X130665000Y-118110000D03*
%TO.C,J4*%
X133205000Y-100330000D03*
%TO.C,J2*%
X133205000Y-118110000D03*
%TO.C,J4*%
X135745000Y-100330000D03*
%TO.C,J2*%
X135745000Y-118110000D03*
%TO.C,J4*%
X138285000Y-100330000D03*
%TO.C,J2*%
X138285000Y-118110000D03*
%TO.C,J4*%
X140825000Y-100330000D03*
%TO.C,J2*%
X140825000Y-118110000D03*
%TO.C,J3*%
X145100000Y-102860000D03*
X145100000Y-105400000D03*
X145100000Y-107940000D03*
X145100000Y-110480000D03*
X145100000Y-113020000D03*
X145100000Y-115560000D03*
M02*
