%TF.GenerationSoftware,KiCad,Pcbnew,9.0.3*%
%TF.CreationDate,2025-07-24T11:07:31+02:00*%
%TF.ProjectId,USBtoUART,55534274-6f55-4415-9254-2e6b69636164,v1.0*%
%TF.SameCoordinates,Original*%
%TF.FileFunction,Drillmap*%
%TF.FilePolarity,Positive*%
%FSLAX45Y45*%
G04 Gerber Fmt 4.5, Leading zero omitted, Abs format (unit mm)*
G04 Created by KiCad (PCBNEW 9.0.3) date 2025-07-24 11:07:31*
%MOMM*%
%LPD*%
G01*
G04 APERTURE LIST*
%ADD10C,0.100000*%
%ADD11C,0.120000*%
%ADD12C,0.200000*%
G04 APERTURE END LIST*
D10*
X14532000Y-11955000D02*
X11618000Y-11955000D01*
X10664000Y-11562000D02*
X10664000Y-11834000D01*
X10785000Y-11955000D02*
G75*
G02*
X10664000Y-11834000I0J121000D01*
G01*
X10664000Y-10010000D02*
G75*
G02*
X10785000Y-9889000I121000J0D01*
G01*
X10664000Y-10010000D02*
X10664000Y-10282000D01*
X11618000Y-11955000D02*
X10785000Y-11955000D01*
X14532000Y-9889000D02*
G75*
G02*
X14653000Y-10010000I0J-121000D01*
G01*
X14653000Y-10922000D02*
X14653000Y-10010000D01*
X11618000Y-9889000D02*
X14532000Y-9889000D01*
X14653000Y-11834000D02*
G75*
G02*
X14532000Y-11955000I-121000J0D01*
G01*
X14653000Y-11834000D02*
X14653000Y-10922000D01*
X10785000Y-9889000D02*
X11618000Y-9889000D01*
X11341500Y-11327000D02*
G75*
G02*
X11334000Y-11383999I-4196J-28441D01*
G01*
X11341500Y-11327000D02*
G75*
G02*
X11324000Y-11312000I190J17930D01*
G01*
X11334000Y-10460000D02*
G75*
G02*
X11341500Y-10517000I3304J-28559D01*
G01*
X11324000Y-10532000D02*
G75*
G02*
X11341500Y-10517000I17693J-2934D01*
G01*
X11334000Y-11384000D02*
X10664000Y-11384000D01*
X11334000Y-10460000D02*
X10664000Y-10460000D01*
X11324000Y-10532000D02*
X11324000Y-11312000D01*
D11*
X10664000Y-11562000D02*
X10664000Y-11384000D01*
X10664000Y-10460000D02*
X10664000Y-10282000D01*
D12*
D10*
X12902000Y-10676000D02*
X12922000Y-10696000D01*
X12922000Y-10676000D02*
X12902000Y-10696000D01*
X12902000Y-10776000D02*
X12922000Y-10796000D01*
X12922000Y-10776000D02*
X12902000Y-10796000D01*
X12902000Y-10876000D02*
X12922000Y-10896000D01*
X12922000Y-10876000D02*
X12902000Y-10896000D01*
X13002000Y-10676000D02*
X13022000Y-10696000D01*
X13022000Y-10676000D02*
X13002000Y-10696000D01*
X13002000Y-10776000D02*
X13022000Y-10796000D01*
X13022000Y-10776000D02*
X13002000Y-10796000D01*
X13002000Y-10876000D02*
X13022000Y-10896000D01*
X13022000Y-10876000D02*
X13002000Y-10896000D01*
X13102000Y-10676000D02*
X13122000Y-10696000D01*
X13122000Y-10676000D02*
X13102000Y-10696000D01*
X13102000Y-10776000D02*
X13122000Y-10796000D01*
X13122000Y-10776000D02*
X13102000Y-10796000D01*
X13102000Y-10876000D02*
X13122000Y-10896000D01*
X13122000Y-10876000D02*
X13102000Y-10896000D01*
X11107000Y-10279000D02*
G75*
G02*
X11067000Y-10279000I-20000J0D01*
G01*
X11067000Y-10279000D02*
G75*
G02*
X11107000Y-10279000I20000J0D01*
G01*
X11513000Y-10279000D02*
G75*
G02*
X11473000Y-10279000I-20000J0D01*
G01*
X11473000Y-10279000D02*
G75*
G02*
X11513000Y-10279000I20000J0D01*
G01*
X11524045Y-10772495D02*
G75*
G02*
X11484045Y-10772495I-20000J0D01*
G01*
X11484045Y-10772495D02*
G75*
G02*
X11524045Y-10772495I20000J0D01*
G01*
X11538000Y-11065000D02*
G75*
G02*
X11498000Y-11065000I-20000J0D01*
G01*
X11498000Y-11065000D02*
G75*
G02*
X11538000Y-11065000I20000J0D01*
G01*
X11642000Y-10553000D02*
G75*
G02*
X11602000Y-10553000I-20000J0D01*
G01*
X11602000Y-10553000D02*
G75*
G02*
X11642000Y-10553000I20000J0D01*
G01*
X11704000Y-10640000D02*
G75*
G02*
X11664000Y-10640000I-20000J0D01*
G01*
X11664000Y-10640000D02*
G75*
G02*
X11704000Y-10640000I20000J0D01*
G01*
X11854173Y-10872034D02*
G75*
G02*
X11814173Y-10872034I-20000J0D01*
G01*
X11814173Y-10872034D02*
G75*
G02*
X11854173Y-10872034I20000J0D01*
G01*
X11953800Y-10864000D02*
G75*
G02*
X11913800Y-10864000I-20000J0D01*
G01*
X11913800Y-10864000D02*
G75*
G02*
X11953800Y-10864000I20000J0D01*
G01*
X12355000Y-10992000D02*
G75*
G02*
X12315000Y-10992000I-20000J0D01*
G01*
X12315000Y-10992000D02*
G75*
G02*
X12355000Y-10992000I20000J0D01*
G01*
X12385000Y-10628000D02*
G75*
G02*
X12345000Y-10628000I-20000J0D01*
G01*
X12345000Y-10628000D02*
G75*
G02*
X12385000Y-10628000I20000J0D01*
G01*
X12884449Y-10408000D02*
G75*
G02*
X12844449Y-10408000I-20000J0D01*
G01*
X12844449Y-10408000D02*
G75*
G02*
X12884449Y-10408000I20000J0D01*
G01*
X12975000Y-10298000D02*
G75*
G02*
X12935000Y-10298000I-20000J0D01*
G01*
X12935000Y-10298000D02*
G75*
G02*
X12975000Y-10298000I20000J0D01*
G01*
X12975000Y-11160000D02*
G75*
G02*
X12935000Y-11160000I-20000J0D01*
G01*
X12935000Y-11160000D02*
G75*
G02*
X12975000Y-11160000I20000J0D01*
G01*
X13029349Y-10395000D02*
G75*
G02*
X12989349Y-10395000I-20000J0D01*
G01*
X12989349Y-10395000D02*
G75*
G02*
X13029349Y-10395000I20000J0D01*
G01*
X13082000Y-11160000D02*
G75*
G02*
X13042000Y-11160000I-20000J0D01*
G01*
X13042000Y-11160000D02*
G75*
G02*
X13082000Y-11160000I20000J0D01*
G01*
X13186000Y-11160000D02*
G75*
G02*
X13146000Y-11160000I-20000J0D01*
G01*
X13146000Y-11160000D02*
G75*
G02*
X13186000Y-11160000I20000J0D01*
G01*
X13213000Y-10333000D02*
G75*
G02*
X13173000Y-10333000I-20000J0D01*
G01*
X13173000Y-10333000D02*
G75*
G02*
X13213000Y-10333000I20000J0D01*
G01*
X13296000Y-11160000D02*
G75*
G02*
X13256000Y-11160000I-20000J0D01*
G01*
X13256000Y-11160000D02*
G75*
G02*
X13296000Y-11160000I20000J0D01*
G01*
X13296000Y-11269403D02*
G75*
G02*
X13256000Y-11269403I-20000J0D01*
G01*
X13256000Y-11269403D02*
G75*
G02*
X13296000Y-11269403I20000J0D01*
G01*
X13304336Y-10373594D02*
G75*
G02*
X13264336Y-10373594I-20000J0D01*
G01*
X13264336Y-10373594D02*
G75*
G02*
X13304336Y-10373594I20000J0D01*
G01*
X13305000Y-10269000D02*
G75*
G02*
X13265000Y-10269000I-20000J0D01*
G01*
X13265000Y-10269000D02*
G75*
G02*
X13305000Y-10269000I20000J0D01*
G01*
X13328000Y-11537000D02*
G75*
G02*
X13288000Y-11537000I-20000J0D01*
G01*
X13288000Y-11537000D02*
G75*
G02*
X13328000Y-11537000I20000J0D01*
G01*
X13340953Y-11376000D02*
G75*
G02*
X13300953Y-11376000I-20000J0D01*
G01*
X13300953Y-11376000D02*
G75*
G02*
X13340953Y-11376000I20000J0D01*
G01*
X13367426Y-10472055D02*
G75*
G02*
X13327426Y-10472055I-20000J0D01*
G01*
X13327426Y-10472055D02*
G75*
G02*
X13367426Y-10472055I20000J0D01*
G01*
X13433450Y-10618027D02*
G75*
G02*
X13393450Y-10618027I-20000J0D01*
G01*
X13393450Y-10618027D02*
G75*
G02*
X13433450Y-10618027I20000J0D01*
G01*
X13438000Y-11537000D02*
G75*
G02*
X13398000Y-11537000I-20000J0D01*
G01*
X13398000Y-11537000D02*
G75*
G02*
X13438000Y-11537000I20000J0D01*
G01*
X13473319Y-10709681D02*
G75*
G02*
X13433319Y-10709681I-20000J0D01*
G01*
X13433319Y-10709681D02*
G75*
G02*
X13473319Y-10709681I20000J0D01*
G01*
X13540000Y-11537000D02*
G75*
G02*
X13500000Y-11537000I-20000J0D01*
G01*
X13500000Y-11537000D02*
G75*
G02*
X13540000Y-11537000I20000J0D01*
G01*
X13730645Y-11076000D02*
G75*
G02*
X13690645Y-11076000I-20000J0D01*
G01*
X13690645Y-11076000D02*
G75*
G02*
X13730645Y-11076000I20000J0D01*
G01*
X13782000Y-10589000D02*
G75*
G02*
X13742000Y-10589000I-20000J0D01*
G01*
X13742000Y-10589000D02*
G75*
G02*
X13782000Y-10589000I20000J0D01*
G01*
X13870148Y-10410262D02*
G75*
G02*
X13830148Y-10410262I-20000J0D01*
G01*
X13830148Y-10410262D02*
G75*
G02*
X13870148Y-10410262I20000J0D01*
G01*
X13877000Y-10300950D02*
G75*
G02*
X13837000Y-10300950I-20000J0D01*
G01*
X13837000Y-10300950D02*
G75*
G02*
X13877000Y-10300950I20000J0D01*
G01*
X13887772Y-10603591D02*
G75*
G02*
X13847772Y-10603591I-20000J0D01*
G01*
X13847772Y-10603591D02*
G75*
G02*
X13887772Y-10603591I20000J0D01*
G01*
X13915000Y-11076000D02*
G75*
G02*
X13875000Y-11076000I-20000J0D01*
G01*
X13875000Y-11076000D02*
G75*
G02*
X13915000Y-11076000I20000J0D01*
G01*
X13951181Y-10540181D02*
G75*
G02*
X13911181Y-10540181I-20000J0D01*
G01*
X13911181Y-10540181D02*
G75*
G02*
X13951181Y-10540181I20000J0D01*
G01*
X14107000Y-10895000D02*
G75*
G02*
X14067000Y-10895000I-20000J0D01*
G01*
X14067000Y-10895000D02*
G75*
G02*
X14107000Y-10895000I20000J0D01*
G01*
X12140450Y-10658062D02*
X12140450Y-10718062D01*
X12110450Y-10688062D02*
X12170450Y-10688062D01*
X12587000Y-11290000D02*
X12587000Y-11350000D01*
X12557000Y-11320000D02*
X12617000Y-11320000D01*
X10895213Y-10381213D02*
X10895213Y-10338787D01*
X10852787Y-10338787D01*
X10852787Y-10381213D01*
X10895213Y-10381213D01*
X10934000Y-10330000D02*
X10814000Y-10330000D01*
X10814000Y-10390000D02*
G75*
G02*
X10814000Y-10330000I0J30000D01*
G01*
X10814000Y-10390000D02*
X10934000Y-10390000D01*
X10934000Y-10390000D02*
G75*
G03*
X10934000Y-10330000I0J30000D01*
G01*
X10895213Y-11505213D02*
X10895213Y-11462787D01*
X10852787Y-11462787D01*
X10852787Y-11505213D01*
X10895213Y-11505213D01*
X10934000Y-11454000D02*
X10814000Y-11454000D01*
X10814000Y-11514000D02*
G75*
G02*
X10814000Y-11454000I0J30000D01*
G01*
X10814000Y-11514000D02*
X10934000Y-11514000D01*
X10934000Y-11514000D02*
G75*
G03*
X10934000Y-11454000I0J30000D01*
G01*
X11295213Y-10381213D02*
X11295213Y-10338787D01*
X11252787Y-10338787D01*
X11252787Y-10381213D01*
X11295213Y-10381213D01*
X11314000Y-10330000D02*
X11234000Y-10330000D01*
X11234000Y-10390000D02*
G75*
G02*
X11234000Y-10330000I0J30000D01*
G01*
X11234000Y-10390000D02*
X11314000Y-10390000D01*
X11314000Y-10390000D02*
G75*
G03*
X11314000Y-10330000I0J30000D01*
G01*
X11295213Y-11505213D02*
X11295213Y-11462787D01*
X11252787Y-11462787D01*
X11252787Y-11505213D01*
X11295213Y-11505213D01*
X11314000Y-11454000D02*
X11234000Y-11454000D01*
X11234000Y-11514000D02*
G75*
G02*
X11234000Y-11454000I0J30000D01*
G01*
X11234000Y-11514000D02*
X11314000Y-11514000D01*
X11314000Y-11514000D02*
G75*
G03*
X11314000Y-11454000I0J30000D01*
G01*
X11565000Y-11251000D02*
X11605000Y-11211000D01*
X11565000Y-11171000D01*
X11525000Y-11211000D01*
X11565000Y-11251000D01*
X11661976Y-10456177D02*
X11701976Y-10416177D01*
X11661976Y-10376177D01*
X11621976Y-10416177D01*
X11661976Y-10456177D01*
X12601976Y-11035687D02*
X12701976Y-11135687D01*
X12701976Y-11035687D02*
X12601976Y-11135687D01*
X12701976Y-11085687D02*
G75*
G02*
X12601976Y-11085687I-50000J0D01*
G01*
X12601976Y-11085687D02*
G75*
G02*
X12701976Y-11085687I50000J0D01*
G01*
X14211000Y-10904000D02*
X14311000Y-11004000D01*
X14311000Y-10904000D02*
X14211000Y-11004000D01*
X14311000Y-10954000D02*
G75*
G02*
X14211000Y-10954000I-50000J0D01*
G01*
X14211000Y-10954000D02*
G75*
G02*
X14311000Y-10954000I50000J0D01*
G01*
X11746500Y-9983000D02*
X11846500Y-10083000D01*
X11846500Y-9983000D02*
X11746500Y-10083000D01*
X11796500Y-9983000D02*
X11796500Y-10083000D01*
X11746500Y-10033000D02*
X11846500Y-10033000D01*
X11746500Y-11761000D02*
X11846500Y-11861000D01*
X11846500Y-11761000D02*
X11746500Y-11861000D01*
X11796500Y-11761000D02*
X11796500Y-11861000D01*
X11746500Y-11811000D02*
X11846500Y-11811000D01*
X12000500Y-9983000D02*
X12100500Y-10083000D01*
X12100500Y-9983000D02*
X12000500Y-10083000D01*
X12050500Y-9983000D02*
X12050500Y-10083000D01*
X12000500Y-10033000D02*
X12100500Y-10033000D01*
X12000500Y-11761000D02*
X12100500Y-11861000D01*
X12100500Y-11761000D02*
X12000500Y-11861000D01*
X12050500Y-11761000D02*
X12050500Y-11861000D01*
X12000500Y-11811000D02*
X12100500Y-11811000D01*
X12254500Y-9983000D02*
X12354500Y-10083000D01*
X12354500Y-9983000D02*
X12254500Y-10083000D01*
X12304500Y-9983000D02*
X12304500Y-10083000D01*
X12254500Y-10033000D02*
X12354500Y-10033000D01*
X12254500Y-11761000D02*
X12354500Y-11861000D01*
X12354500Y-11761000D02*
X12254500Y-11861000D01*
X12304500Y-11761000D02*
X12304500Y-11861000D01*
X12254500Y-11811000D02*
X12354500Y-11811000D01*
X12508500Y-9983000D02*
X12608500Y-10083000D01*
X12608500Y-9983000D02*
X12508500Y-10083000D01*
X12558500Y-9983000D02*
X12558500Y-10083000D01*
X12508500Y-10033000D02*
X12608500Y-10033000D01*
X12508500Y-11761000D02*
X12608500Y-11861000D01*
X12608500Y-11761000D02*
X12508500Y-11861000D01*
X12558500Y-11761000D02*
X12558500Y-11861000D01*
X12508500Y-11811000D02*
X12608500Y-11811000D01*
X12762500Y-9983000D02*
X12862500Y-10083000D01*
X12862500Y-9983000D02*
X12762500Y-10083000D01*
X12812500Y-9983000D02*
X12812500Y-10083000D01*
X12762500Y-10033000D02*
X12862500Y-10033000D01*
X12762500Y-11761000D02*
X12862500Y-11861000D01*
X12862500Y-11761000D02*
X12762500Y-11861000D01*
X12812500Y-11761000D02*
X12812500Y-11861000D01*
X12762500Y-11811000D02*
X12862500Y-11811000D01*
X13016500Y-9983000D02*
X13116500Y-10083000D01*
X13116500Y-9983000D02*
X13016500Y-10083000D01*
X13066500Y-9983000D02*
X13066500Y-10083000D01*
X13016500Y-10033000D02*
X13116500Y-10033000D01*
X13016500Y-11761000D02*
X13116500Y-11861000D01*
X13116500Y-11761000D02*
X13016500Y-11861000D01*
X13066500Y-11761000D02*
X13066500Y-11861000D01*
X13016500Y-11811000D02*
X13116500Y-11811000D01*
X13270500Y-9983000D02*
X13370500Y-10083000D01*
X13370500Y-9983000D02*
X13270500Y-10083000D01*
X13320500Y-9983000D02*
X13320500Y-10083000D01*
X13270500Y-10033000D02*
X13370500Y-10033000D01*
X13270500Y-11761000D02*
X13370500Y-11861000D01*
X13370500Y-11761000D02*
X13270500Y-11861000D01*
X13320500Y-11761000D02*
X13320500Y-11861000D01*
X13270500Y-11811000D02*
X13370500Y-11811000D01*
X13524500Y-9983000D02*
X13624500Y-10083000D01*
X13624500Y-9983000D02*
X13524500Y-10083000D01*
X13574500Y-9983000D02*
X13574500Y-10083000D01*
X13524500Y-10033000D02*
X13624500Y-10033000D01*
X13524500Y-11761000D02*
X13624500Y-11861000D01*
X13624500Y-11761000D02*
X13524500Y-11861000D01*
X13574500Y-11761000D02*
X13574500Y-11861000D01*
X13524500Y-11811000D02*
X13624500Y-11811000D01*
X13778500Y-9983000D02*
X13878500Y-10083000D01*
X13878500Y-9983000D02*
X13778500Y-10083000D01*
X13828500Y-9983000D02*
X13828500Y-10083000D01*
X13778500Y-10033000D02*
X13878500Y-10033000D01*
X13778500Y-11761000D02*
X13878500Y-11861000D01*
X13878500Y-11761000D02*
X13778500Y-11861000D01*
X13828500Y-11761000D02*
X13828500Y-11861000D01*
X13778500Y-11811000D02*
X13878500Y-11811000D01*
X14032500Y-9983000D02*
X14132500Y-10083000D01*
X14132500Y-9983000D02*
X14032500Y-10083000D01*
X14082500Y-9983000D02*
X14082500Y-10083000D01*
X14032500Y-10033000D02*
X14132500Y-10033000D01*
X14032500Y-11761000D02*
X14132500Y-11861000D01*
X14132500Y-11761000D02*
X14032500Y-11861000D01*
X14082500Y-11761000D02*
X14082500Y-11861000D01*
X14032500Y-11811000D02*
X14132500Y-11811000D01*
X14460000Y-10236000D02*
X14560000Y-10336000D01*
X14560000Y-10236000D02*
X14460000Y-10336000D01*
X14510000Y-10236000D02*
X14510000Y-10336000D01*
X14460000Y-10286000D02*
X14560000Y-10286000D01*
X14460000Y-10490000D02*
X14560000Y-10590000D01*
X14560000Y-10490000D02*
X14460000Y-10590000D01*
X14510000Y-10490000D02*
X14510000Y-10590000D01*
X14460000Y-10540000D02*
X14560000Y-10540000D01*
X14460000Y-10744000D02*
X14560000Y-10844000D01*
X14560000Y-10744000D02*
X14460000Y-10844000D01*
X14510000Y-10744000D02*
X14510000Y-10844000D01*
X14460000Y-10794000D02*
X14560000Y-10794000D01*
X14460000Y-10998000D02*
X14560000Y-11098000D01*
X14560000Y-10998000D02*
X14460000Y-11098000D01*
X14510000Y-10998000D02*
X14510000Y-11098000D01*
X14460000Y-11048000D02*
X14560000Y-11048000D01*
X14460000Y-11252000D02*
X14560000Y-11352000D01*
X14560000Y-11252000D02*
X14460000Y-11352000D01*
X14510000Y-11252000D02*
X14510000Y-11352000D01*
X14460000Y-11302000D02*
X14560000Y-11302000D01*
X14460000Y-11506000D02*
X14560000Y-11606000D01*
X14560000Y-11506000D02*
X14460000Y-11606000D01*
X14510000Y-11506000D02*
X14510000Y-11606000D01*
X14460000Y-11556000D02*
X14560000Y-11556000D01*
D12*
X10918777Y-12271484D02*
X10918777Y-12071484D01*
X10918777Y-12071484D02*
X10966396Y-12071484D01*
X10966396Y-12071484D02*
X10994967Y-12081008D01*
X10994967Y-12081008D02*
X11014015Y-12100055D01*
X11014015Y-12100055D02*
X11023539Y-12119103D01*
X11023539Y-12119103D02*
X11033063Y-12157198D01*
X11033063Y-12157198D02*
X11033063Y-12185769D01*
X11033063Y-12185769D02*
X11023539Y-12223865D01*
X11023539Y-12223865D02*
X11014015Y-12242912D01*
X11014015Y-12242912D02*
X10994967Y-12261960D01*
X10994967Y-12261960D02*
X10966396Y-12271484D01*
X10966396Y-12271484D02*
X10918777Y-12271484D01*
X11118777Y-12271484D02*
X11118777Y-12138150D01*
X11118777Y-12176246D02*
X11128301Y-12157198D01*
X11128301Y-12157198D02*
X11137824Y-12147674D01*
X11137824Y-12147674D02*
X11156872Y-12138150D01*
X11156872Y-12138150D02*
X11175920Y-12138150D01*
X11242586Y-12271484D02*
X11242586Y-12138150D01*
X11242586Y-12071484D02*
X11233062Y-12081008D01*
X11233062Y-12081008D02*
X11242586Y-12090531D01*
X11242586Y-12090531D02*
X11252110Y-12081008D01*
X11252110Y-12081008D02*
X11242586Y-12071484D01*
X11242586Y-12071484D02*
X11242586Y-12090531D01*
X11366396Y-12271484D02*
X11347348Y-12261960D01*
X11347348Y-12261960D02*
X11337824Y-12242912D01*
X11337824Y-12242912D02*
X11337824Y-12071484D01*
X11471158Y-12271484D02*
X11452110Y-12261960D01*
X11452110Y-12261960D02*
X11442586Y-12242912D01*
X11442586Y-12242912D02*
X11442586Y-12071484D01*
X11699729Y-12271484D02*
X11699729Y-12071484D01*
X11699729Y-12071484D02*
X11766396Y-12214341D01*
X11766396Y-12214341D02*
X11833062Y-12071484D01*
X11833062Y-12071484D02*
X11833062Y-12271484D01*
X12014015Y-12271484D02*
X12014015Y-12166722D01*
X12014015Y-12166722D02*
X12004491Y-12147674D01*
X12004491Y-12147674D02*
X11985443Y-12138150D01*
X11985443Y-12138150D02*
X11947348Y-12138150D01*
X11947348Y-12138150D02*
X11928301Y-12147674D01*
X12014015Y-12261960D02*
X11994967Y-12271484D01*
X11994967Y-12271484D02*
X11947348Y-12271484D01*
X11947348Y-12271484D02*
X11928301Y-12261960D01*
X11928301Y-12261960D02*
X11918777Y-12242912D01*
X11918777Y-12242912D02*
X11918777Y-12223865D01*
X11918777Y-12223865D02*
X11928301Y-12204817D01*
X11928301Y-12204817D02*
X11947348Y-12195293D01*
X11947348Y-12195293D02*
X11994967Y-12195293D01*
X11994967Y-12195293D02*
X12014015Y-12185769D01*
X12109253Y-12138150D02*
X12109253Y-12338150D01*
X12109253Y-12147674D02*
X12128301Y-12138150D01*
X12128301Y-12138150D02*
X12166396Y-12138150D01*
X12166396Y-12138150D02*
X12185443Y-12147674D01*
X12185443Y-12147674D02*
X12194967Y-12157198D01*
X12194967Y-12157198D02*
X12204491Y-12176246D01*
X12204491Y-12176246D02*
X12204491Y-12233388D01*
X12204491Y-12233388D02*
X12194967Y-12252436D01*
X12194967Y-12252436D02*
X12185443Y-12261960D01*
X12185443Y-12261960D02*
X12166396Y-12271484D01*
X12166396Y-12271484D02*
X12128301Y-12271484D01*
X12128301Y-12271484D02*
X12109253Y-12261960D01*
X12290205Y-12252436D02*
X12299729Y-12261960D01*
X12299729Y-12261960D02*
X12290205Y-12271484D01*
X12290205Y-12271484D02*
X12280682Y-12261960D01*
X12280682Y-12261960D02*
X12290205Y-12252436D01*
X12290205Y-12252436D02*
X12290205Y-12271484D01*
X12290205Y-12147674D02*
X12299729Y-12157198D01*
X12299729Y-12157198D02*
X12290205Y-12166722D01*
X12290205Y-12166722D02*
X12280682Y-12157198D01*
X12280682Y-12157198D02*
X12290205Y-12147674D01*
X12290205Y-12147674D02*
X12290205Y-12166722D01*
D10*
X10638000Y-12590000D02*
X10658000Y-12610000D01*
X10658000Y-12590000D02*
X10638000Y-12610000D01*
D12*
X10956872Y-12491484D02*
X10975920Y-12491484D01*
X10975920Y-12491484D02*
X10994967Y-12501008D01*
X10994967Y-12501008D02*
X11004491Y-12510531D01*
X11004491Y-12510531D02*
X11014015Y-12529579D01*
X11014015Y-12529579D02*
X11023539Y-12567674D01*
X11023539Y-12567674D02*
X11023539Y-12615293D01*
X11023539Y-12615293D02*
X11014015Y-12653388D01*
X11014015Y-12653388D02*
X11004491Y-12672436D01*
X11004491Y-12672436D02*
X10994967Y-12681960D01*
X10994967Y-12681960D02*
X10975920Y-12691484D01*
X10975920Y-12691484D02*
X10956872Y-12691484D01*
X10956872Y-12691484D02*
X10937824Y-12681960D01*
X10937824Y-12681960D02*
X10928301Y-12672436D01*
X10928301Y-12672436D02*
X10918777Y-12653388D01*
X10918777Y-12653388D02*
X10909253Y-12615293D01*
X10909253Y-12615293D02*
X10909253Y-12567674D01*
X10909253Y-12567674D02*
X10918777Y-12529579D01*
X10918777Y-12529579D02*
X10928301Y-12510531D01*
X10928301Y-12510531D02*
X10937824Y-12501008D01*
X10937824Y-12501008D02*
X10956872Y-12491484D01*
X11109253Y-12672436D02*
X11118777Y-12681960D01*
X11118777Y-12681960D02*
X11109253Y-12691484D01*
X11109253Y-12691484D02*
X11099729Y-12681960D01*
X11099729Y-12681960D02*
X11109253Y-12672436D01*
X11109253Y-12672436D02*
X11109253Y-12691484D01*
X11194967Y-12510531D02*
X11204491Y-12501008D01*
X11204491Y-12501008D02*
X11223539Y-12491484D01*
X11223539Y-12491484D02*
X11271158Y-12491484D01*
X11271158Y-12491484D02*
X11290205Y-12501008D01*
X11290205Y-12501008D02*
X11299729Y-12510531D01*
X11299729Y-12510531D02*
X11309253Y-12529579D01*
X11309253Y-12529579D02*
X11309253Y-12548627D01*
X11309253Y-12548627D02*
X11299729Y-12577198D01*
X11299729Y-12577198D02*
X11185443Y-12691484D01*
X11185443Y-12691484D02*
X11309253Y-12691484D01*
X11433062Y-12491484D02*
X11452110Y-12491484D01*
X11452110Y-12491484D02*
X11471158Y-12501008D01*
X11471158Y-12501008D02*
X11480682Y-12510531D01*
X11480682Y-12510531D02*
X11490205Y-12529579D01*
X11490205Y-12529579D02*
X11499729Y-12567674D01*
X11499729Y-12567674D02*
X11499729Y-12615293D01*
X11499729Y-12615293D02*
X11490205Y-12653388D01*
X11490205Y-12653388D02*
X11480682Y-12672436D01*
X11480682Y-12672436D02*
X11471158Y-12681960D01*
X11471158Y-12681960D02*
X11452110Y-12691484D01*
X11452110Y-12691484D02*
X11433062Y-12691484D01*
X11433062Y-12691484D02*
X11414015Y-12681960D01*
X11414015Y-12681960D02*
X11404491Y-12672436D01*
X11404491Y-12672436D02*
X11394967Y-12653388D01*
X11394967Y-12653388D02*
X11385443Y-12615293D01*
X11385443Y-12615293D02*
X11385443Y-12567674D01*
X11385443Y-12567674D02*
X11394967Y-12529579D01*
X11394967Y-12529579D02*
X11404491Y-12510531D01*
X11404491Y-12510531D02*
X11414015Y-12501008D01*
X11414015Y-12501008D02*
X11433062Y-12491484D01*
X11623539Y-12491484D02*
X11642586Y-12491484D01*
X11642586Y-12491484D02*
X11661634Y-12501008D01*
X11661634Y-12501008D02*
X11671158Y-12510531D01*
X11671158Y-12510531D02*
X11680682Y-12529579D01*
X11680682Y-12529579D02*
X11690205Y-12567674D01*
X11690205Y-12567674D02*
X11690205Y-12615293D01*
X11690205Y-12615293D02*
X11680682Y-12653388D01*
X11680682Y-12653388D02*
X11671158Y-12672436D01*
X11671158Y-12672436D02*
X11661634Y-12681960D01*
X11661634Y-12681960D02*
X11642586Y-12691484D01*
X11642586Y-12691484D02*
X11623539Y-12691484D01*
X11623539Y-12691484D02*
X11604491Y-12681960D01*
X11604491Y-12681960D02*
X11594967Y-12672436D01*
X11594967Y-12672436D02*
X11585443Y-12653388D01*
X11585443Y-12653388D02*
X11575920Y-12615293D01*
X11575920Y-12615293D02*
X11575920Y-12567674D01*
X11575920Y-12567674D02*
X11585443Y-12529579D01*
X11585443Y-12529579D02*
X11594967Y-12510531D01*
X11594967Y-12510531D02*
X11604491Y-12501008D01*
X11604491Y-12501008D02*
X11623539Y-12491484D01*
X11775920Y-12691484D02*
X11775920Y-12558150D01*
X11775920Y-12577198D02*
X11785443Y-12567674D01*
X11785443Y-12567674D02*
X11804491Y-12558150D01*
X11804491Y-12558150D02*
X11833063Y-12558150D01*
X11833063Y-12558150D02*
X11852110Y-12567674D01*
X11852110Y-12567674D02*
X11861634Y-12586722D01*
X11861634Y-12586722D02*
X11861634Y-12691484D01*
X11861634Y-12586722D02*
X11871158Y-12567674D01*
X11871158Y-12567674D02*
X11890205Y-12558150D01*
X11890205Y-12558150D02*
X11918777Y-12558150D01*
X11918777Y-12558150D02*
X11937824Y-12567674D01*
X11937824Y-12567674D02*
X11947348Y-12586722D01*
X11947348Y-12586722D02*
X11947348Y-12691484D01*
X12042586Y-12691484D02*
X12042586Y-12558150D01*
X12042586Y-12577198D02*
X12052110Y-12567674D01*
X12052110Y-12567674D02*
X12071158Y-12558150D01*
X12071158Y-12558150D02*
X12099729Y-12558150D01*
X12099729Y-12558150D02*
X12118777Y-12567674D01*
X12118777Y-12567674D02*
X12128301Y-12586722D01*
X12128301Y-12586722D02*
X12128301Y-12691484D01*
X12128301Y-12586722D02*
X12137824Y-12567674D01*
X12137824Y-12567674D02*
X12156872Y-12558150D01*
X12156872Y-12558150D02*
X12185443Y-12558150D01*
X12185443Y-12558150D02*
X12204491Y-12567674D01*
X12204491Y-12567674D02*
X12214015Y-12586722D01*
X12214015Y-12586722D02*
X12214015Y-12691484D01*
X12604491Y-12481960D02*
X12433063Y-12739103D01*
X12861634Y-12491484D02*
X12880682Y-12491484D01*
X12880682Y-12491484D02*
X12899729Y-12501008D01*
X12899729Y-12501008D02*
X12909253Y-12510531D01*
X12909253Y-12510531D02*
X12918777Y-12529579D01*
X12918777Y-12529579D02*
X12928301Y-12567674D01*
X12928301Y-12567674D02*
X12928301Y-12615293D01*
X12928301Y-12615293D02*
X12918777Y-12653388D01*
X12918777Y-12653388D02*
X12909253Y-12672436D01*
X12909253Y-12672436D02*
X12899729Y-12681960D01*
X12899729Y-12681960D02*
X12880682Y-12691484D01*
X12880682Y-12691484D02*
X12861634Y-12691484D01*
X12861634Y-12691484D02*
X12842586Y-12681960D01*
X12842586Y-12681960D02*
X12833063Y-12672436D01*
X12833063Y-12672436D02*
X12823539Y-12653388D01*
X12823539Y-12653388D02*
X12814015Y-12615293D01*
X12814015Y-12615293D02*
X12814015Y-12567674D01*
X12814015Y-12567674D02*
X12823539Y-12529579D01*
X12823539Y-12529579D02*
X12833063Y-12510531D01*
X12833063Y-12510531D02*
X12842586Y-12501008D01*
X12842586Y-12501008D02*
X12861634Y-12491484D01*
X13014015Y-12672436D02*
X13023539Y-12681960D01*
X13023539Y-12681960D02*
X13014015Y-12691484D01*
X13014015Y-12691484D02*
X13004491Y-12681960D01*
X13004491Y-12681960D02*
X13014015Y-12672436D01*
X13014015Y-12672436D02*
X13014015Y-12691484D01*
X13147348Y-12491484D02*
X13166396Y-12491484D01*
X13166396Y-12491484D02*
X13185444Y-12501008D01*
X13185444Y-12501008D02*
X13194967Y-12510531D01*
X13194967Y-12510531D02*
X13204491Y-12529579D01*
X13204491Y-12529579D02*
X13214015Y-12567674D01*
X13214015Y-12567674D02*
X13214015Y-12615293D01*
X13214015Y-12615293D02*
X13204491Y-12653388D01*
X13204491Y-12653388D02*
X13194967Y-12672436D01*
X13194967Y-12672436D02*
X13185444Y-12681960D01*
X13185444Y-12681960D02*
X13166396Y-12691484D01*
X13166396Y-12691484D02*
X13147348Y-12691484D01*
X13147348Y-12691484D02*
X13128301Y-12681960D01*
X13128301Y-12681960D02*
X13118777Y-12672436D01*
X13118777Y-12672436D02*
X13109253Y-12653388D01*
X13109253Y-12653388D02*
X13099729Y-12615293D01*
X13099729Y-12615293D02*
X13099729Y-12567674D01*
X13099729Y-12567674D02*
X13109253Y-12529579D01*
X13109253Y-12529579D02*
X13118777Y-12510531D01*
X13118777Y-12510531D02*
X13128301Y-12501008D01*
X13128301Y-12501008D02*
X13147348Y-12491484D01*
X13337825Y-12491484D02*
X13356872Y-12491484D01*
X13356872Y-12491484D02*
X13375920Y-12501008D01*
X13375920Y-12501008D02*
X13385444Y-12510531D01*
X13385444Y-12510531D02*
X13394967Y-12529579D01*
X13394967Y-12529579D02*
X13404491Y-12567674D01*
X13404491Y-12567674D02*
X13404491Y-12615293D01*
X13404491Y-12615293D02*
X13394967Y-12653388D01*
X13394967Y-12653388D02*
X13385444Y-12672436D01*
X13385444Y-12672436D02*
X13375920Y-12681960D01*
X13375920Y-12681960D02*
X13356872Y-12691484D01*
X13356872Y-12691484D02*
X13337825Y-12691484D01*
X13337825Y-12691484D02*
X13318777Y-12681960D01*
X13318777Y-12681960D02*
X13309253Y-12672436D01*
X13309253Y-12672436D02*
X13299729Y-12653388D01*
X13299729Y-12653388D02*
X13290206Y-12615293D01*
X13290206Y-12615293D02*
X13290206Y-12567674D01*
X13290206Y-12567674D02*
X13299729Y-12529579D01*
X13299729Y-12529579D02*
X13309253Y-12510531D01*
X13309253Y-12510531D02*
X13318777Y-12501008D01*
X13318777Y-12501008D02*
X13337825Y-12491484D01*
X13471158Y-12491484D02*
X13604491Y-12491484D01*
X13604491Y-12491484D02*
X13518777Y-12691484D01*
X13690206Y-12691484D02*
X13728301Y-12691484D01*
X13728301Y-12691484D02*
X13747348Y-12681960D01*
X13747348Y-12681960D02*
X13756872Y-12672436D01*
X13756872Y-12672436D02*
X13775920Y-12643865D01*
X13775920Y-12643865D02*
X13785444Y-12605769D01*
X13785444Y-12605769D02*
X13785444Y-12529579D01*
X13785444Y-12529579D02*
X13775920Y-12510531D01*
X13775920Y-12510531D02*
X13766396Y-12501008D01*
X13766396Y-12501008D02*
X13747348Y-12491484D01*
X13747348Y-12491484D02*
X13709253Y-12491484D01*
X13709253Y-12491484D02*
X13690206Y-12501008D01*
X13690206Y-12501008D02*
X13680682Y-12510531D01*
X13680682Y-12510531D02*
X13671158Y-12529579D01*
X13671158Y-12529579D02*
X13671158Y-12577198D01*
X13671158Y-12577198D02*
X13680682Y-12596246D01*
X13680682Y-12596246D02*
X13690206Y-12605769D01*
X13690206Y-12605769D02*
X13709253Y-12615293D01*
X13709253Y-12615293D02*
X13747348Y-12615293D01*
X13747348Y-12615293D02*
X13766396Y-12605769D01*
X13766396Y-12605769D02*
X13775920Y-12596246D01*
X13775920Y-12596246D02*
X13785444Y-12577198D01*
X13861634Y-12491484D02*
X13861634Y-12529579D01*
X13937825Y-12491484D02*
X13937825Y-12529579D01*
X14233063Y-12767674D02*
X14223539Y-12758150D01*
X14223539Y-12758150D02*
X14204491Y-12729579D01*
X14204491Y-12729579D02*
X14194968Y-12710531D01*
X14194968Y-12710531D02*
X14185444Y-12681960D01*
X14185444Y-12681960D02*
X14175920Y-12634341D01*
X14175920Y-12634341D02*
X14175920Y-12596246D01*
X14175920Y-12596246D02*
X14185444Y-12548627D01*
X14185444Y-12548627D02*
X14194968Y-12520055D01*
X14194968Y-12520055D02*
X14204491Y-12501008D01*
X14204491Y-12501008D02*
X14223539Y-12472436D01*
X14223539Y-12472436D02*
X14233063Y-12462912D01*
X14318777Y-12691484D02*
X14356872Y-12691484D01*
X14356872Y-12691484D02*
X14375920Y-12681960D01*
X14375920Y-12681960D02*
X14385444Y-12672436D01*
X14385444Y-12672436D02*
X14404491Y-12643865D01*
X14404491Y-12643865D02*
X14414015Y-12605769D01*
X14414015Y-12605769D02*
X14414015Y-12529579D01*
X14414015Y-12529579D02*
X14404491Y-12510531D01*
X14404491Y-12510531D02*
X14394968Y-12501008D01*
X14394968Y-12501008D02*
X14375920Y-12491484D01*
X14375920Y-12491484D02*
X14337825Y-12491484D01*
X14337825Y-12491484D02*
X14318777Y-12501008D01*
X14318777Y-12501008D02*
X14309253Y-12510531D01*
X14309253Y-12510531D02*
X14299729Y-12529579D01*
X14299729Y-12529579D02*
X14299729Y-12577198D01*
X14299729Y-12577198D02*
X14309253Y-12596246D01*
X14309253Y-12596246D02*
X14318777Y-12605769D01*
X14318777Y-12605769D02*
X14337825Y-12615293D01*
X14337825Y-12615293D02*
X14375920Y-12615293D01*
X14375920Y-12615293D02*
X14394968Y-12605769D01*
X14394968Y-12605769D02*
X14404491Y-12596246D01*
X14404491Y-12596246D02*
X14414015Y-12577198D01*
X14652110Y-12691484D02*
X14652110Y-12491484D01*
X14737825Y-12691484D02*
X14737825Y-12586722D01*
X14737825Y-12586722D02*
X14728301Y-12567674D01*
X14728301Y-12567674D02*
X14709253Y-12558150D01*
X14709253Y-12558150D02*
X14680682Y-12558150D01*
X14680682Y-12558150D02*
X14661634Y-12567674D01*
X14661634Y-12567674D02*
X14652110Y-12577198D01*
X14861634Y-12691484D02*
X14842587Y-12681960D01*
X14842587Y-12681960D02*
X14833063Y-12672436D01*
X14833063Y-12672436D02*
X14823539Y-12653388D01*
X14823539Y-12653388D02*
X14823539Y-12596246D01*
X14823539Y-12596246D02*
X14833063Y-12577198D01*
X14833063Y-12577198D02*
X14842587Y-12567674D01*
X14842587Y-12567674D02*
X14861634Y-12558150D01*
X14861634Y-12558150D02*
X14890206Y-12558150D01*
X14890206Y-12558150D02*
X14909253Y-12567674D01*
X14909253Y-12567674D02*
X14918777Y-12577198D01*
X14918777Y-12577198D02*
X14928301Y-12596246D01*
X14928301Y-12596246D02*
X14928301Y-12653388D01*
X14928301Y-12653388D02*
X14918777Y-12672436D01*
X14918777Y-12672436D02*
X14909253Y-12681960D01*
X14909253Y-12681960D02*
X14890206Y-12691484D01*
X14890206Y-12691484D02*
X14861634Y-12691484D01*
X15042587Y-12691484D02*
X15023539Y-12681960D01*
X15023539Y-12681960D02*
X15014015Y-12662912D01*
X15014015Y-12662912D02*
X15014015Y-12491484D01*
X15194968Y-12681960D02*
X15175920Y-12691484D01*
X15175920Y-12691484D02*
X15137825Y-12691484D01*
X15137825Y-12691484D02*
X15118777Y-12681960D01*
X15118777Y-12681960D02*
X15109253Y-12662912D01*
X15109253Y-12662912D02*
X15109253Y-12586722D01*
X15109253Y-12586722D02*
X15118777Y-12567674D01*
X15118777Y-12567674D02*
X15137825Y-12558150D01*
X15137825Y-12558150D02*
X15175920Y-12558150D01*
X15175920Y-12558150D02*
X15194968Y-12567674D01*
X15194968Y-12567674D02*
X15204491Y-12586722D01*
X15204491Y-12586722D02*
X15204491Y-12605769D01*
X15204491Y-12605769D02*
X15109253Y-12624817D01*
X15280682Y-12681960D02*
X15299730Y-12691484D01*
X15299730Y-12691484D02*
X15337825Y-12691484D01*
X15337825Y-12691484D02*
X15356872Y-12681960D01*
X15356872Y-12681960D02*
X15366396Y-12662912D01*
X15366396Y-12662912D02*
X15366396Y-12653388D01*
X15366396Y-12653388D02*
X15356872Y-12634341D01*
X15356872Y-12634341D02*
X15337825Y-12624817D01*
X15337825Y-12624817D02*
X15309253Y-12624817D01*
X15309253Y-12624817D02*
X15290206Y-12615293D01*
X15290206Y-12615293D02*
X15280682Y-12596246D01*
X15280682Y-12596246D02*
X15280682Y-12586722D01*
X15280682Y-12586722D02*
X15290206Y-12567674D01*
X15290206Y-12567674D02*
X15309253Y-12558150D01*
X15309253Y-12558150D02*
X15337825Y-12558150D01*
X15337825Y-12558150D02*
X15356872Y-12567674D01*
X15433063Y-12767674D02*
X15442587Y-12758150D01*
X15442587Y-12758150D02*
X15461634Y-12729579D01*
X15461634Y-12729579D02*
X15471158Y-12710531D01*
X15471158Y-12710531D02*
X15480682Y-12681960D01*
X15480682Y-12681960D02*
X15490206Y-12634341D01*
X15490206Y-12634341D02*
X15490206Y-12596246D01*
X15490206Y-12596246D02*
X15480682Y-12548627D01*
X15480682Y-12548627D02*
X15471158Y-12520055D01*
X15471158Y-12520055D02*
X15461634Y-12501008D01*
X15461634Y-12501008D02*
X15442587Y-12472436D01*
X15442587Y-12472436D02*
X15433063Y-12462912D01*
D10*
X10658000Y-12864000D02*
G75*
G02*
X10618000Y-12864000I-20000J0D01*
G01*
X10618000Y-12864000D02*
G75*
G02*
X10658000Y-12864000I20000J0D01*
G01*
D12*
X10956872Y-12755484D02*
X10975920Y-12755484D01*
X10975920Y-12755484D02*
X10994967Y-12765008D01*
X10994967Y-12765008D02*
X11004491Y-12774531D01*
X11004491Y-12774531D02*
X11014015Y-12793579D01*
X11014015Y-12793579D02*
X11023539Y-12831674D01*
X11023539Y-12831674D02*
X11023539Y-12879293D01*
X11023539Y-12879293D02*
X11014015Y-12917388D01*
X11014015Y-12917388D02*
X11004491Y-12936436D01*
X11004491Y-12936436D02*
X10994967Y-12945960D01*
X10994967Y-12945960D02*
X10975920Y-12955484D01*
X10975920Y-12955484D02*
X10956872Y-12955484D01*
X10956872Y-12955484D02*
X10937824Y-12945960D01*
X10937824Y-12945960D02*
X10928301Y-12936436D01*
X10928301Y-12936436D02*
X10918777Y-12917388D01*
X10918777Y-12917388D02*
X10909253Y-12879293D01*
X10909253Y-12879293D02*
X10909253Y-12831674D01*
X10909253Y-12831674D02*
X10918777Y-12793579D01*
X10918777Y-12793579D02*
X10928301Y-12774531D01*
X10928301Y-12774531D02*
X10937824Y-12765008D01*
X10937824Y-12765008D02*
X10956872Y-12755484D01*
X11109253Y-12936436D02*
X11118777Y-12945960D01*
X11118777Y-12945960D02*
X11109253Y-12955484D01*
X11109253Y-12955484D02*
X11099729Y-12945960D01*
X11099729Y-12945960D02*
X11109253Y-12936436D01*
X11109253Y-12936436D02*
X11109253Y-12955484D01*
X11290205Y-12822150D02*
X11290205Y-12955484D01*
X11242586Y-12745960D02*
X11194967Y-12888817D01*
X11194967Y-12888817D02*
X11318777Y-12888817D01*
X11433062Y-12755484D02*
X11452110Y-12755484D01*
X11452110Y-12755484D02*
X11471158Y-12765008D01*
X11471158Y-12765008D02*
X11480682Y-12774531D01*
X11480682Y-12774531D02*
X11490205Y-12793579D01*
X11490205Y-12793579D02*
X11499729Y-12831674D01*
X11499729Y-12831674D02*
X11499729Y-12879293D01*
X11499729Y-12879293D02*
X11490205Y-12917388D01*
X11490205Y-12917388D02*
X11480682Y-12936436D01*
X11480682Y-12936436D02*
X11471158Y-12945960D01*
X11471158Y-12945960D02*
X11452110Y-12955484D01*
X11452110Y-12955484D02*
X11433062Y-12955484D01*
X11433062Y-12955484D02*
X11414015Y-12945960D01*
X11414015Y-12945960D02*
X11404491Y-12936436D01*
X11404491Y-12936436D02*
X11394967Y-12917388D01*
X11394967Y-12917388D02*
X11385443Y-12879293D01*
X11385443Y-12879293D02*
X11385443Y-12831674D01*
X11385443Y-12831674D02*
X11394967Y-12793579D01*
X11394967Y-12793579D02*
X11404491Y-12774531D01*
X11404491Y-12774531D02*
X11414015Y-12765008D01*
X11414015Y-12765008D02*
X11433062Y-12755484D01*
X11623539Y-12755484D02*
X11642586Y-12755484D01*
X11642586Y-12755484D02*
X11661634Y-12765008D01*
X11661634Y-12765008D02*
X11671158Y-12774531D01*
X11671158Y-12774531D02*
X11680682Y-12793579D01*
X11680682Y-12793579D02*
X11690205Y-12831674D01*
X11690205Y-12831674D02*
X11690205Y-12879293D01*
X11690205Y-12879293D02*
X11680682Y-12917388D01*
X11680682Y-12917388D02*
X11671158Y-12936436D01*
X11671158Y-12936436D02*
X11661634Y-12945960D01*
X11661634Y-12945960D02*
X11642586Y-12955484D01*
X11642586Y-12955484D02*
X11623539Y-12955484D01*
X11623539Y-12955484D02*
X11604491Y-12945960D01*
X11604491Y-12945960D02*
X11594967Y-12936436D01*
X11594967Y-12936436D02*
X11585443Y-12917388D01*
X11585443Y-12917388D02*
X11575920Y-12879293D01*
X11575920Y-12879293D02*
X11575920Y-12831674D01*
X11575920Y-12831674D02*
X11585443Y-12793579D01*
X11585443Y-12793579D02*
X11594967Y-12774531D01*
X11594967Y-12774531D02*
X11604491Y-12765008D01*
X11604491Y-12765008D02*
X11623539Y-12755484D01*
X11775920Y-12955484D02*
X11775920Y-12822150D01*
X11775920Y-12841198D02*
X11785443Y-12831674D01*
X11785443Y-12831674D02*
X11804491Y-12822150D01*
X11804491Y-12822150D02*
X11833063Y-12822150D01*
X11833063Y-12822150D02*
X11852110Y-12831674D01*
X11852110Y-12831674D02*
X11861634Y-12850722D01*
X11861634Y-12850722D02*
X11861634Y-12955484D01*
X11861634Y-12850722D02*
X11871158Y-12831674D01*
X11871158Y-12831674D02*
X11890205Y-12822150D01*
X11890205Y-12822150D02*
X11918777Y-12822150D01*
X11918777Y-12822150D02*
X11937824Y-12831674D01*
X11937824Y-12831674D02*
X11947348Y-12850722D01*
X11947348Y-12850722D02*
X11947348Y-12955484D01*
X12042586Y-12955484D02*
X12042586Y-12822150D01*
X12042586Y-12841198D02*
X12052110Y-12831674D01*
X12052110Y-12831674D02*
X12071158Y-12822150D01*
X12071158Y-12822150D02*
X12099729Y-12822150D01*
X12099729Y-12822150D02*
X12118777Y-12831674D01*
X12118777Y-12831674D02*
X12128301Y-12850722D01*
X12128301Y-12850722D02*
X12128301Y-12955484D01*
X12128301Y-12850722D02*
X12137824Y-12831674D01*
X12137824Y-12831674D02*
X12156872Y-12822150D01*
X12156872Y-12822150D02*
X12185443Y-12822150D01*
X12185443Y-12822150D02*
X12204491Y-12831674D01*
X12204491Y-12831674D02*
X12214015Y-12850722D01*
X12214015Y-12850722D02*
X12214015Y-12955484D01*
X12604491Y-12745960D02*
X12433063Y-13003103D01*
X12861634Y-12755484D02*
X12880682Y-12755484D01*
X12880682Y-12755484D02*
X12899729Y-12765008D01*
X12899729Y-12765008D02*
X12909253Y-12774531D01*
X12909253Y-12774531D02*
X12918777Y-12793579D01*
X12918777Y-12793579D02*
X12928301Y-12831674D01*
X12928301Y-12831674D02*
X12928301Y-12879293D01*
X12928301Y-12879293D02*
X12918777Y-12917388D01*
X12918777Y-12917388D02*
X12909253Y-12936436D01*
X12909253Y-12936436D02*
X12899729Y-12945960D01*
X12899729Y-12945960D02*
X12880682Y-12955484D01*
X12880682Y-12955484D02*
X12861634Y-12955484D01*
X12861634Y-12955484D02*
X12842586Y-12945960D01*
X12842586Y-12945960D02*
X12833063Y-12936436D01*
X12833063Y-12936436D02*
X12823539Y-12917388D01*
X12823539Y-12917388D02*
X12814015Y-12879293D01*
X12814015Y-12879293D02*
X12814015Y-12831674D01*
X12814015Y-12831674D02*
X12823539Y-12793579D01*
X12823539Y-12793579D02*
X12833063Y-12774531D01*
X12833063Y-12774531D02*
X12842586Y-12765008D01*
X12842586Y-12765008D02*
X12861634Y-12755484D01*
X13014015Y-12936436D02*
X13023539Y-12945960D01*
X13023539Y-12945960D02*
X13014015Y-12955484D01*
X13014015Y-12955484D02*
X13004491Y-12945960D01*
X13004491Y-12945960D02*
X13014015Y-12936436D01*
X13014015Y-12936436D02*
X13014015Y-12955484D01*
X13147348Y-12755484D02*
X13166396Y-12755484D01*
X13166396Y-12755484D02*
X13185444Y-12765008D01*
X13185444Y-12765008D02*
X13194967Y-12774531D01*
X13194967Y-12774531D02*
X13204491Y-12793579D01*
X13204491Y-12793579D02*
X13214015Y-12831674D01*
X13214015Y-12831674D02*
X13214015Y-12879293D01*
X13214015Y-12879293D02*
X13204491Y-12917388D01*
X13204491Y-12917388D02*
X13194967Y-12936436D01*
X13194967Y-12936436D02*
X13185444Y-12945960D01*
X13185444Y-12945960D02*
X13166396Y-12955484D01*
X13166396Y-12955484D02*
X13147348Y-12955484D01*
X13147348Y-12955484D02*
X13128301Y-12945960D01*
X13128301Y-12945960D02*
X13118777Y-12936436D01*
X13118777Y-12936436D02*
X13109253Y-12917388D01*
X13109253Y-12917388D02*
X13099729Y-12879293D01*
X13099729Y-12879293D02*
X13099729Y-12831674D01*
X13099729Y-12831674D02*
X13109253Y-12793579D01*
X13109253Y-12793579D02*
X13118777Y-12774531D01*
X13118777Y-12774531D02*
X13128301Y-12765008D01*
X13128301Y-12765008D02*
X13147348Y-12755484D01*
X13404491Y-12955484D02*
X13290206Y-12955484D01*
X13347348Y-12955484D02*
X13347348Y-12755484D01*
X13347348Y-12755484D02*
X13328301Y-12784055D01*
X13328301Y-12784055D02*
X13309253Y-12803103D01*
X13309253Y-12803103D02*
X13290206Y-12812627D01*
X13585444Y-12755484D02*
X13490206Y-12755484D01*
X13490206Y-12755484D02*
X13480682Y-12850722D01*
X13480682Y-12850722D02*
X13490206Y-12841198D01*
X13490206Y-12841198D02*
X13509253Y-12831674D01*
X13509253Y-12831674D02*
X13556872Y-12831674D01*
X13556872Y-12831674D02*
X13575920Y-12841198D01*
X13575920Y-12841198D02*
X13585444Y-12850722D01*
X13585444Y-12850722D02*
X13594967Y-12869769D01*
X13594967Y-12869769D02*
X13594967Y-12917388D01*
X13594967Y-12917388D02*
X13585444Y-12936436D01*
X13585444Y-12936436D02*
X13575920Y-12945960D01*
X13575920Y-12945960D02*
X13556872Y-12955484D01*
X13556872Y-12955484D02*
X13509253Y-12955484D01*
X13509253Y-12955484D02*
X13490206Y-12945960D01*
X13490206Y-12945960D02*
X13480682Y-12936436D01*
X13661634Y-12755484D02*
X13794967Y-12755484D01*
X13794967Y-12755484D02*
X13709253Y-12955484D01*
X13861634Y-12755484D02*
X13861634Y-12793579D01*
X13937825Y-12755484D02*
X13937825Y-12793579D01*
X14233063Y-13031674D02*
X14223539Y-13022150D01*
X14223539Y-13022150D02*
X14204491Y-12993579D01*
X14204491Y-12993579D02*
X14194968Y-12974531D01*
X14194968Y-12974531D02*
X14185444Y-12945960D01*
X14185444Y-12945960D02*
X14175920Y-12898341D01*
X14175920Y-12898341D02*
X14175920Y-12860246D01*
X14175920Y-12860246D02*
X14185444Y-12812627D01*
X14185444Y-12812627D02*
X14194968Y-12784055D01*
X14194968Y-12784055D02*
X14204491Y-12765008D01*
X14204491Y-12765008D02*
X14223539Y-12736436D01*
X14223539Y-12736436D02*
X14233063Y-12726912D01*
X14290206Y-12755484D02*
X14414015Y-12755484D01*
X14414015Y-12755484D02*
X14347348Y-12831674D01*
X14347348Y-12831674D02*
X14375920Y-12831674D01*
X14375920Y-12831674D02*
X14394968Y-12841198D01*
X14394968Y-12841198D02*
X14404491Y-12850722D01*
X14404491Y-12850722D02*
X14414015Y-12869769D01*
X14414015Y-12869769D02*
X14414015Y-12917388D01*
X14414015Y-12917388D02*
X14404491Y-12936436D01*
X14404491Y-12936436D02*
X14394968Y-12945960D01*
X14394968Y-12945960D02*
X14375920Y-12955484D01*
X14375920Y-12955484D02*
X14318777Y-12955484D01*
X14318777Y-12955484D02*
X14299729Y-12945960D01*
X14299729Y-12945960D02*
X14290206Y-12936436D01*
X14585444Y-12755484D02*
X14547348Y-12755484D01*
X14547348Y-12755484D02*
X14528301Y-12765008D01*
X14528301Y-12765008D02*
X14518777Y-12774531D01*
X14518777Y-12774531D02*
X14499729Y-12803103D01*
X14499729Y-12803103D02*
X14490206Y-12841198D01*
X14490206Y-12841198D02*
X14490206Y-12917388D01*
X14490206Y-12917388D02*
X14499729Y-12936436D01*
X14499729Y-12936436D02*
X14509253Y-12945960D01*
X14509253Y-12945960D02*
X14528301Y-12955484D01*
X14528301Y-12955484D02*
X14566396Y-12955484D01*
X14566396Y-12955484D02*
X14585444Y-12945960D01*
X14585444Y-12945960D02*
X14594968Y-12936436D01*
X14594968Y-12936436D02*
X14604491Y-12917388D01*
X14604491Y-12917388D02*
X14604491Y-12869769D01*
X14604491Y-12869769D02*
X14594968Y-12850722D01*
X14594968Y-12850722D02*
X14585444Y-12841198D01*
X14585444Y-12841198D02*
X14566396Y-12831674D01*
X14566396Y-12831674D02*
X14528301Y-12831674D01*
X14528301Y-12831674D02*
X14509253Y-12841198D01*
X14509253Y-12841198D02*
X14499729Y-12850722D01*
X14499729Y-12850722D02*
X14490206Y-12869769D01*
X14842587Y-12955484D02*
X14842587Y-12755484D01*
X14928301Y-12955484D02*
X14928301Y-12850722D01*
X14928301Y-12850722D02*
X14918777Y-12831674D01*
X14918777Y-12831674D02*
X14899730Y-12822150D01*
X14899730Y-12822150D02*
X14871158Y-12822150D01*
X14871158Y-12822150D02*
X14852110Y-12831674D01*
X14852110Y-12831674D02*
X14842587Y-12841198D01*
X15052110Y-12955484D02*
X15033063Y-12945960D01*
X15033063Y-12945960D02*
X15023539Y-12936436D01*
X15023539Y-12936436D02*
X15014015Y-12917388D01*
X15014015Y-12917388D02*
X15014015Y-12860246D01*
X15014015Y-12860246D02*
X15023539Y-12841198D01*
X15023539Y-12841198D02*
X15033063Y-12831674D01*
X15033063Y-12831674D02*
X15052110Y-12822150D01*
X15052110Y-12822150D02*
X15080682Y-12822150D01*
X15080682Y-12822150D02*
X15099730Y-12831674D01*
X15099730Y-12831674D02*
X15109253Y-12841198D01*
X15109253Y-12841198D02*
X15118777Y-12860246D01*
X15118777Y-12860246D02*
X15118777Y-12917388D01*
X15118777Y-12917388D02*
X15109253Y-12936436D01*
X15109253Y-12936436D02*
X15099730Y-12945960D01*
X15099730Y-12945960D02*
X15080682Y-12955484D01*
X15080682Y-12955484D02*
X15052110Y-12955484D01*
X15233063Y-12955484D02*
X15214015Y-12945960D01*
X15214015Y-12945960D02*
X15204491Y-12926912D01*
X15204491Y-12926912D02*
X15204491Y-12755484D01*
X15385444Y-12945960D02*
X15366396Y-12955484D01*
X15366396Y-12955484D02*
X15328301Y-12955484D01*
X15328301Y-12955484D02*
X15309253Y-12945960D01*
X15309253Y-12945960D02*
X15299730Y-12926912D01*
X15299730Y-12926912D02*
X15299730Y-12850722D01*
X15299730Y-12850722D02*
X15309253Y-12831674D01*
X15309253Y-12831674D02*
X15328301Y-12822150D01*
X15328301Y-12822150D02*
X15366396Y-12822150D01*
X15366396Y-12822150D02*
X15385444Y-12831674D01*
X15385444Y-12831674D02*
X15394968Y-12850722D01*
X15394968Y-12850722D02*
X15394968Y-12869769D01*
X15394968Y-12869769D02*
X15299730Y-12888817D01*
X15471158Y-12945960D02*
X15490206Y-12955484D01*
X15490206Y-12955484D02*
X15528301Y-12955484D01*
X15528301Y-12955484D02*
X15547349Y-12945960D01*
X15547349Y-12945960D02*
X15556872Y-12926912D01*
X15556872Y-12926912D02*
X15556872Y-12917388D01*
X15556872Y-12917388D02*
X15547349Y-12898341D01*
X15547349Y-12898341D02*
X15528301Y-12888817D01*
X15528301Y-12888817D02*
X15499730Y-12888817D01*
X15499730Y-12888817D02*
X15480682Y-12879293D01*
X15480682Y-12879293D02*
X15471158Y-12860246D01*
X15471158Y-12860246D02*
X15471158Y-12850722D01*
X15471158Y-12850722D02*
X15480682Y-12831674D01*
X15480682Y-12831674D02*
X15499730Y-12822150D01*
X15499730Y-12822150D02*
X15528301Y-12822150D01*
X15528301Y-12822150D02*
X15547349Y-12831674D01*
X15623539Y-13031674D02*
X15633063Y-13022150D01*
X15633063Y-13022150D02*
X15652111Y-12993579D01*
X15652111Y-12993579D02*
X15661634Y-12974531D01*
X15661634Y-12974531D02*
X15671158Y-12945960D01*
X15671158Y-12945960D02*
X15680682Y-12898341D01*
X15680682Y-12898341D02*
X15680682Y-12860246D01*
X15680682Y-12860246D02*
X15671158Y-12812627D01*
X15671158Y-12812627D02*
X15661634Y-12784055D01*
X15661634Y-12784055D02*
X15652111Y-12765008D01*
X15652111Y-12765008D02*
X15633063Y-12736436D01*
X15633063Y-12736436D02*
X15623539Y-12726912D01*
D10*
X10628000Y-13098000D02*
X10628000Y-13158000D01*
X10598000Y-13128000D02*
X10658000Y-13128000D01*
D12*
X10956872Y-13019484D02*
X10975920Y-13019484D01*
X10975920Y-13019484D02*
X10994967Y-13029008D01*
X10994967Y-13029008D02*
X11004491Y-13038531D01*
X11004491Y-13038531D02*
X11014015Y-13057579D01*
X11014015Y-13057579D02*
X11023539Y-13095674D01*
X11023539Y-13095674D02*
X11023539Y-13143293D01*
X11023539Y-13143293D02*
X11014015Y-13181388D01*
X11014015Y-13181388D02*
X11004491Y-13200436D01*
X11004491Y-13200436D02*
X10994967Y-13209960D01*
X10994967Y-13209960D02*
X10975920Y-13219484D01*
X10975920Y-13219484D02*
X10956872Y-13219484D01*
X10956872Y-13219484D02*
X10937824Y-13209960D01*
X10937824Y-13209960D02*
X10928301Y-13200436D01*
X10928301Y-13200436D02*
X10918777Y-13181388D01*
X10918777Y-13181388D02*
X10909253Y-13143293D01*
X10909253Y-13143293D02*
X10909253Y-13095674D01*
X10909253Y-13095674D02*
X10918777Y-13057579D01*
X10918777Y-13057579D02*
X10928301Y-13038531D01*
X10928301Y-13038531D02*
X10937824Y-13029008D01*
X10937824Y-13029008D02*
X10956872Y-13019484D01*
X11109253Y-13200436D02*
X11118777Y-13209960D01*
X11118777Y-13209960D02*
X11109253Y-13219484D01*
X11109253Y-13219484D02*
X11099729Y-13209960D01*
X11099729Y-13209960D02*
X11109253Y-13200436D01*
X11109253Y-13200436D02*
X11109253Y-13219484D01*
X11290205Y-13019484D02*
X11252110Y-13019484D01*
X11252110Y-13019484D02*
X11233062Y-13029008D01*
X11233062Y-13029008D02*
X11223539Y-13038531D01*
X11223539Y-13038531D02*
X11204491Y-13067103D01*
X11204491Y-13067103D02*
X11194967Y-13105198D01*
X11194967Y-13105198D02*
X11194967Y-13181388D01*
X11194967Y-13181388D02*
X11204491Y-13200436D01*
X11204491Y-13200436D02*
X11214015Y-13209960D01*
X11214015Y-13209960D02*
X11233062Y-13219484D01*
X11233062Y-13219484D02*
X11271158Y-13219484D01*
X11271158Y-13219484D02*
X11290205Y-13209960D01*
X11290205Y-13209960D02*
X11299729Y-13200436D01*
X11299729Y-13200436D02*
X11309253Y-13181388D01*
X11309253Y-13181388D02*
X11309253Y-13133769D01*
X11309253Y-13133769D02*
X11299729Y-13114722D01*
X11299729Y-13114722D02*
X11290205Y-13105198D01*
X11290205Y-13105198D02*
X11271158Y-13095674D01*
X11271158Y-13095674D02*
X11233062Y-13095674D01*
X11233062Y-13095674D02*
X11214015Y-13105198D01*
X11214015Y-13105198D02*
X11204491Y-13114722D01*
X11204491Y-13114722D02*
X11194967Y-13133769D01*
X11433062Y-13019484D02*
X11452110Y-13019484D01*
X11452110Y-13019484D02*
X11471158Y-13029008D01*
X11471158Y-13029008D02*
X11480682Y-13038531D01*
X11480682Y-13038531D02*
X11490205Y-13057579D01*
X11490205Y-13057579D02*
X11499729Y-13095674D01*
X11499729Y-13095674D02*
X11499729Y-13143293D01*
X11499729Y-13143293D02*
X11490205Y-13181388D01*
X11490205Y-13181388D02*
X11480682Y-13200436D01*
X11480682Y-13200436D02*
X11471158Y-13209960D01*
X11471158Y-13209960D02*
X11452110Y-13219484D01*
X11452110Y-13219484D02*
X11433062Y-13219484D01*
X11433062Y-13219484D02*
X11414015Y-13209960D01*
X11414015Y-13209960D02*
X11404491Y-13200436D01*
X11404491Y-13200436D02*
X11394967Y-13181388D01*
X11394967Y-13181388D02*
X11385443Y-13143293D01*
X11385443Y-13143293D02*
X11385443Y-13095674D01*
X11385443Y-13095674D02*
X11394967Y-13057579D01*
X11394967Y-13057579D02*
X11404491Y-13038531D01*
X11404491Y-13038531D02*
X11414015Y-13029008D01*
X11414015Y-13029008D02*
X11433062Y-13019484D01*
X11623539Y-13019484D02*
X11642586Y-13019484D01*
X11642586Y-13019484D02*
X11661634Y-13029008D01*
X11661634Y-13029008D02*
X11671158Y-13038531D01*
X11671158Y-13038531D02*
X11680682Y-13057579D01*
X11680682Y-13057579D02*
X11690205Y-13095674D01*
X11690205Y-13095674D02*
X11690205Y-13143293D01*
X11690205Y-13143293D02*
X11680682Y-13181388D01*
X11680682Y-13181388D02*
X11671158Y-13200436D01*
X11671158Y-13200436D02*
X11661634Y-13209960D01*
X11661634Y-13209960D02*
X11642586Y-13219484D01*
X11642586Y-13219484D02*
X11623539Y-13219484D01*
X11623539Y-13219484D02*
X11604491Y-13209960D01*
X11604491Y-13209960D02*
X11594967Y-13200436D01*
X11594967Y-13200436D02*
X11585443Y-13181388D01*
X11585443Y-13181388D02*
X11575920Y-13143293D01*
X11575920Y-13143293D02*
X11575920Y-13095674D01*
X11575920Y-13095674D02*
X11585443Y-13057579D01*
X11585443Y-13057579D02*
X11594967Y-13038531D01*
X11594967Y-13038531D02*
X11604491Y-13029008D01*
X11604491Y-13029008D02*
X11623539Y-13019484D01*
X11775920Y-13219484D02*
X11775920Y-13086150D01*
X11775920Y-13105198D02*
X11785443Y-13095674D01*
X11785443Y-13095674D02*
X11804491Y-13086150D01*
X11804491Y-13086150D02*
X11833063Y-13086150D01*
X11833063Y-13086150D02*
X11852110Y-13095674D01*
X11852110Y-13095674D02*
X11861634Y-13114722D01*
X11861634Y-13114722D02*
X11861634Y-13219484D01*
X11861634Y-13114722D02*
X11871158Y-13095674D01*
X11871158Y-13095674D02*
X11890205Y-13086150D01*
X11890205Y-13086150D02*
X11918777Y-13086150D01*
X11918777Y-13086150D02*
X11937824Y-13095674D01*
X11937824Y-13095674D02*
X11947348Y-13114722D01*
X11947348Y-13114722D02*
X11947348Y-13219484D01*
X12042586Y-13219484D02*
X12042586Y-13086150D01*
X12042586Y-13105198D02*
X12052110Y-13095674D01*
X12052110Y-13095674D02*
X12071158Y-13086150D01*
X12071158Y-13086150D02*
X12099729Y-13086150D01*
X12099729Y-13086150D02*
X12118777Y-13095674D01*
X12118777Y-13095674D02*
X12128301Y-13114722D01*
X12128301Y-13114722D02*
X12128301Y-13219484D01*
X12128301Y-13114722D02*
X12137824Y-13095674D01*
X12137824Y-13095674D02*
X12156872Y-13086150D01*
X12156872Y-13086150D02*
X12185443Y-13086150D01*
X12185443Y-13086150D02*
X12204491Y-13095674D01*
X12204491Y-13095674D02*
X12214015Y-13114722D01*
X12214015Y-13114722D02*
X12214015Y-13219484D01*
X12604491Y-13009960D02*
X12433063Y-13267103D01*
X12861634Y-13019484D02*
X12880682Y-13019484D01*
X12880682Y-13019484D02*
X12899729Y-13029008D01*
X12899729Y-13029008D02*
X12909253Y-13038531D01*
X12909253Y-13038531D02*
X12918777Y-13057579D01*
X12918777Y-13057579D02*
X12928301Y-13095674D01*
X12928301Y-13095674D02*
X12928301Y-13143293D01*
X12928301Y-13143293D02*
X12918777Y-13181388D01*
X12918777Y-13181388D02*
X12909253Y-13200436D01*
X12909253Y-13200436D02*
X12899729Y-13209960D01*
X12899729Y-13209960D02*
X12880682Y-13219484D01*
X12880682Y-13219484D02*
X12861634Y-13219484D01*
X12861634Y-13219484D02*
X12842586Y-13209960D01*
X12842586Y-13209960D02*
X12833063Y-13200436D01*
X12833063Y-13200436D02*
X12823539Y-13181388D01*
X12823539Y-13181388D02*
X12814015Y-13143293D01*
X12814015Y-13143293D02*
X12814015Y-13095674D01*
X12814015Y-13095674D02*
X12823539Y-13057579D01*
X12823539Y-13057579D02*
X12833063Y-13038531D01*
X12833063Y-13038531D02*
X12842586Y-13029008D01*
X12842586Y-13029008D02*
X12861634Y-13019484D01*
X13014015Y-13200436D02*
X13023539Y-13209960D01*
X13023539Y-13209960D02*
X13014015Y-13219484D01*
X13014015Y-13219484D02*
X13004491Y-13209960D01*
X13004491Y-13209960D02*
X13014015Y-13200436D01*
X13014015Y-13200436D02*
X13014015Y-13219484D01*
X13147348Y-13019484D02*
X13166396Y-13019484D01*
X13166396Y-13019484D02*
X13185444Y-13029008D01*
X13185444Y-13029008D02*
X13194967Y-13038531D01*
X13194967Y-13038531D02*
X13204491Y-13057579D01*
X13204491Y-13057579D02*
X13214015Y-13095674D01*
X13214015Y-13095674D02*
X13214015Y-13143293D01*
X13214015Y-13143293D02*
X13204491Y-13181388D01*
X13204491Y-13181388D02*
X13194967Y-13200436D01*
X13194967Y-13200436D02*
X13185444Y-13209960D01*
X13185444Y-13209960D02*
X13166396Y-13219484D01*
X13166396Y-13219484D02*
X13147348Y-13219484D01*
X13147348Y-13219484D02*
X13128301Y-13209960D01*
X13128301Y-13209960D02*
X13118777Y-13200436D01*
X13118777Y-13200436D02*
X13109253Y-13181388D01*
X13109253Y-13181388D02*
X13099729Y-13143293D01*
X13099729Y-13143293D02*
X13099729Y-13095674D01*
X13099729Y-13095674D02*
X13109253Y-13057579D01*
X13109253Y-13057579D02*
X13118777Y-13038531D01*
X13118777Y-13038531D02*
X13128301Y-13029008D01*
X13128301Y-13029008D02*
X13147348Y-13019484D01*
X13290206Y-13038531D02*
X13299729Y-13029008D01*
X13299729Y-13029008D02*
X13318777Y-13019484D01*
X13318777Y-13019484D02*
X13366396Y-13019484D01*
X13366396Y-13019484D02*
X13385444Y-13029008D01*
X13385444Y-13029008D02*
X13394967Y-13038531D01*
X13394967Y-13038531D02*
X13404491Y-13057579D01*
X13404491Y-13057579D02*
X13404491Y-13076627D01*
X13404491Y-13076627D02*
X13394967Y-13105198D01*
X13394967Y-13105198D02*
X13280682Y-13219484D01*
X13280682Y-13219484D02*
X13404491Y-13219484D01*
X13471158Y-13019484D02*
X13594967Y-13019484D01*
X13594967Y-13019484D02*
X13528301Y-13095674D01*
X13528301Y-13095674D02*
X13556872Y-13095674D01*
X13556872Y-13095674D02*
X13575920Y-13105198D01*
X13575920Y-13105198D02*
X13585444Y-13114722D01*
X13585444Y-13114722D02*
X13594967Y-13133769D01*
X13594967Y-13133769D02*
X13594967Y-13181388D01*
X13594967Y-13181388D02*
X13585444Y-13200436D01*
X13585444Y-13200436D02*
X13575920Y-13209960D01*
X13575920Y-13209960D02*
X13556872Y-13219484D01*
X13556872Y-13219484D02*
X13499729Y-13219484D01*
X13499729Y-13219484D02*
X13480682Y-13209960D01*
X13480682Y-13209960D02*
X13471158Y-13200436D01*
X13766396Y-13019484D02*
X13728301Y-13019484D01*
X13728301Y-13019484D02*
X13709253Y-13029008D01*
X13709253Y-13029008D02*
X13699729Y-13038531D01*
X13699729Y-13038531D02*
X13680682Y-13067103D01*
X13680682Y-13067103D02*
X13671158Y-13105198D01*
X13671158Y-13105198D02*
X13671158Y-13181388D01*
X13671158Y-13181388D02*
X13680682Y-13200436D01*
X13680682Y-13200436D02*
X13690206Y-13209960D01*
X13690206Y-13209960D02*
X13709253Y-13219484D01*
X13709253Y-13219484D02*
X13747348Y-13219484D01*
X13747348Y-13219484D02*
X13766396Y-13209960D01*
X13766396Y-13209960D02*
X13775920Y-13200436D01*
X13775920Y-13200436D02*
X13785444Y-13181388D01*
X13785444Y-13181388D02*
X13785444Y-13133769D01*
X13785444Y-13133769D02*
X13775920Y-13114722D01*
X13775920Y-13114722D02*
X13766396Y-13105198D01*
X13766396Y-13105198D02*
X13747348Y-13095674D01*
X13747348Y-13095674D02*
X13709253Y-13095674D01*
X13709253Y-13095674D02*
X13690206Y-13105198D01*
X13690206Y-13105198D02*
X13680682Y-13114722D01*
X13680682Y-13114722D02*
X13671158Y-13133769D01*
X13861634Y-13019484D02*
X13861634Y-13057579D01*
X13937825Y-13019484D02*
X13937825Y-13057579D01*
X14233063Y-13295674D02*
X14223539Y-13286150D01*
X14223539Y-13286150D02*
X14204491Y-13257579D01*
X14204491Y-13257579D02*
X14194968Y-13238531D01*
X14194968Y-13238531D02*
X14185444Y-13209960D01*
X14185444Y-13209960D02*
X14175920Y-13162341D01*
X14175920Y-13162341D02*
X14175920Y-13124246D01*
X14175920Y-13124246D02*
X14185444Y-13076627D01*
X14185444Y-13076627D02*
X14194968Y-13048055D01*
X14194968Y-13048055D02*
X14204491Y-13029008D01*
X14204491Y-13029008D02*
X14223539Y-13000436D01*
X14223539Y-13000436D02*
X14233063Y-12990912D01*
X14299729Y-13038531D02*
X14309253Y-13029008D01*
X14309253Y-13029008D02*
X14328301Y-13019484D01*
X14328301Y-13019484D02*
X14375920Y-13019484D01*
X14375920Y-13019484D02*
X14394968Y-13029008D01*
X14394968Y-13029008D02*
X14404491Y-13038531D01*
X14404491Y-13038531D02*
X14414015Y-13057579D01*
X14414015Y-13057579D02*
X14414015Y-13076627D01*
X14414015Y-13076627D02*
X14404491Y-13105198D01*
X14404491Y-13105198D02*
X14290206Y-13219484D01*
X14290206Y-13219484D02*
X14414015Y-13219484D01*
X14652110Y-13219484D02*
X14652110Y-13019484D01*
X14737825Y-13219484D02*
X14737825Y-13114722D01*
X14737825Y-13114722D02*
X14728301Y-13095674D01*
X14728301Y-13095674D02*
X14709253Y-13086150D01*
X14709253Y-13086150D02*
X14680682Y-13086150D01*
X14680682Y-13086150D02*
X14661634Y-13095674D01*
X14661634Y-13095674D02*
X14652110Y-13105198D01*
X14861634Y-13219484D02*
X14842587Y-13209960D01*
X14842587Y-13209960D02*
X14833063Y-13200436D01*
X14833063Y-13200436D02*
X14823539Y-13181388D01*
X14823539Y-13181388D02*
X14823539Y-13124246D01*
X14823539Y-13124246D02*
X14833063Y-13105198D01*
X14833063Y-13105198D02*
X14842587Y-13095674D01*
X14842587Y-13095674D02*
X14861634Y-13086150D01*
X14861634Y-13086150D02*
X14890206Y-13086150D01*
X14890206Y-13086150D02*
X14909253Y-13095674D01*
X14909253Y-13095674D02*
X14918777Y-13105198D01*
X14918777Y-13105198D02*
X14928301Y-13124246D01*
X14928301Y-13124246D02*
X14928301Y-13181388D01*
X14928301Y-13181388D02*
X14918777Y-13200436D01*
X14918777Y-13200436D02*
X14909253Y-13209960D01*
X14909253Y-13209960D02*
X14890206Y-13219484D01*
X14890206Y-13219484D02*
X14861634Y-13219484D01*
X15042587Y-13219484D02*
X15023539Y-13209960D01*
X15023539Y-13209960D02*
X15014015Y-13190912D01*
X15014015Y-13190912D02*
X15014015Y-13019484D01*
X15194968Y-13209960D02*
X15175920Y-13219484D01*
X15175920Y-13219484D02*
X15137825Y-13219484D01*
X15137825Y-13219484D02*
X15118777Y-13209960D01*
X15118777Y-13209960D02*
X15109253Y-13190912D01*
X15109253Y-13190912D02*
X15109253Y-13114722D01*
X15109253Y-13114722D02*
X15118777Y-13095674D01*
X15118777Y-13095674D02*
X15137825Y-13086150D01*
X15137825Y-13086150D02*
X15175920Y-13086150D01*
X15175920Y-13086150D02*
X15194968Y-13095674D01*
X15194968Y-13095674D02*
X15204491Y-13114722D01*
X15204491Y-13114722D02*
X15204491Y-13133769D01*
X15204491Y-13133769D02*
X15109253Y-13152817D01*
X15280682Y-13209960D02*
X15299730Y-13219484D01*
X15299730Y-13219484D02*
X15337825Y-13219484D01*
X15337825Y-13219484D02*
X15356872Y-13209960D01*
X15356872Y-13209960D02*
X15366396Y-13190912D01*
X15366396Y-13190912D02*
X15366396Y-13181388D01*
X15366396Y-13181388D02*
X15356872Y-13162341D01*
X15356872Y-13162341D02*
X15337825Y-13152817D01*
X15337825Y-13152817D02*
X15309253Y-13152817D01*
X15309253Y-13152817D02*
X15290206Y-13143293D01*
X15290206Y-13143293D02*
X15280682Y-13124246D01*
X15280682Y-13124246D02*
X15280682Y-13114722D01*
X15280682Y-13114722D02*
X15290206Y-13095674D01*
X15290206Y-13095674D02*
X15309253Y-13086150D01*
X15309253Y-13086150D02*
X15337825Y-13086150D01*
X15337825Y-13086150D02*
X15356872Y-13095674D01*
X15433063Y-13295674D02*
X15442587Y-13286150D01*
X15442587Y-13286150D02*
X15461634Y-13257579D01*
X15461634Y-13257579D02*
X15471158Y-13238531D01*
X15471158Y-13238531D02*
X15480682Y-13209960D01*
X15480682Y-13209960D02*
X15490206Y-13162341D01*
X15490206Y-13162341D02*
X15490206Y-13124246D01*
X15490206Y-13124246D02*
X15480682Y-13076627D01*
X15480682Y-13076627D02*
X15471158Y-13048055D01*
X15471158Y-13048055D02*
X15461634Y-13029008D01*
X15461634Y-13029008D02*
X15442587Y-13000436D01*
X15442587Y-13000436D02*
X15433063Y-12990912D01*
D10*
X10649213Y-13413213D02*
X10649213Y-13370787D01*
X10606787Y-13370787D01*
X10606787Y-13413213D01*
X10649213Y-13413213D01*
D12*
X10956872Y-13283484D02*
X10975920Y-13283484D01*
X10975920Y-13283484D02*
X10994967Y-13293008D01*
X10994967Y-13293008D02*
X11004491Y-13302531D01*
X11004491Y-13302531D02*
X11014015Y-13321579D01*
X11014015Y-13321579D02*
X11023539Y-13359674D01*
X11023539Y-13359674D02*
X11023539Y-13407293D01*
X11023539Y-13407293D02*
X11014015Y-13445388D01*
X11014015Y-13445388D02*
X11004491Y-13464436D01*
X11004491Y-13464436D02*
X10994967Y-13473960D01*
X10994967Y-13473960D02*
X10975920Y-13483484D01*
X10975920Y-13483484D02*
X10956872Y-13483484D01*
X10956872Y-13483484D02*
X10937824Y-13473960D01*
X10937824Y-13473960D02*
X10928301Y-13464436D01*
X10928301Y-13464436D02*
X10918777Y-13445388D01*
X10918777Y-13445388D02*
X10909253Y-13407293D01*
X10909253Y-13407293D02*
X10909253Y-13359674D01*
X10909253Y-13359674D02*
X10918777Y-13321579D01*
X10918777Y-13321579D02*
X10928301Y-13302531D01*
X10928301Y-13302531D02*
X10937824Y-13293008D01*
X10937824Y-13293008D02*
X10956872Y-13283484D01*
X11109253Y-13464436D02*
X11118777Y-13473960D01*
X11118777Y-13473960D02*
X11109253Y-13483484D01*
X11109253Y-13483484D02*
X11099729Y-13473960D01*
X11099729Y-13473960D02*
X11109253Y-13464436D01*
X11109253Y-13464436D02*
X11109253Y-13483484D01*
X11290205Y-13283484D02*
X11252110Y-13283484D01*
X11252110Y-13283484D02*
X11233062Y-13293008D01*
X11233062Y-13293008D02*
X11223539Y-13302531D01*
X11223539Y-13302531D02*
X11204491Y-13331103D01*
X11204491Y-13331103D02*
X11194967Y-13369198D01*
X11194967Y-13369198D02*
X11194967Y-13445388D01*
X11194967Y-13445388D02*
X11204491Y-13464436D01*
X11204491Y-13464436D02*
X11214015Y-13473960D01*
X11214015Y-13473960D02*
X11233062Y-13483484D01*
X11233062Y-13483484D02*
X11271158Y-13483484D01*
X11271158Y-13483484D02*
X11290205Y-13473960D01*
X11290205Y-13473960D02*
X11299729Y-13464436D01*
X11299729Y-13464436D02*
X11309253Y-13445388D01*
X11309253Y-13445388D02*
X11309253Y-13397769D01*
X11309253Y-13397769D02*
X11299729Y-13378722D01*
X11299729Y-13378722D02*
X11290205Y-13369198D01*
X11290205Y-13369198D02*
X11271158Y-13359674D01*
X11271158Y-13359674D02*
X11233062Y-13359674D01*
X11233062Y-13359674D02*
X11214015Y-13369198D01*
X11214015Y-13369198D02*
X11204491Y-13378722D01*
X11204491Y-13378722D02*
X11194967Y-13397769D01*
X11433062Y-13283484D02*
X11452110Y-13283484D01*
X11452110Y-13283484D02*
X11471158Y-13293008D01*
X11471158Y-13293008D02*
X11480682Y-13302531D01*
X11480682Y-13302531D02*
X11490205Y-13321579D01*
X11490205Y-13321579D02*
X11499729Y-13359674D01*
X11499729Y-13359674D02*
X11499729Y-13407293D01*
X11499729Y-13407293D02*
X11490205Y-13445388D01*
X11490205Y-13445388D02*
X11480682Y-13464436D01*
X11480682Y-13464436D02*
X11471158Y-13473960D01*
X11471158Y-13473960D02*
X11452110Y-13483484D01*
X11452110Y-13483484D02*
X11433062Y-13483484D01*
X11433062Y-13483484D02*
X11414015Y-13473960D01*
X11414015Y-13473960D02*
X11404491Y-13464436D01*
X11404491Y-13464436D02*
X11394967Y-13445388D01*
X11394967Y-13445388D02*
X11385443Y-13407293D01*
X11385443Y-13407293D02*
X11385443Y-13359674D01*
X11385443Y-13359674D02*
X11394967Y-13321579D01*
X11394967Y-13321579D02*
X11404491Y-13302531D01*
X11404491Y-13302531D02*
X11414015Y-13293008D01*
X11414015Y-13293008D02*
X11433062Y-13283484D01*
X11623539Y-13283484D02*
X11642586Y-13283484D01*
X11642586Y-13283484D02*
X11661634Y-13293008D01*
X11661634Y-13293008D02*
X11671158Y-13302531D01*
X11671158Y-13302531D02*
X11680682Y-13321579D01*
X11680682Y-13321579D02*
X11690205Y-13359674D01*
X11690205Y-13359674D02*
X11690205Y-13407293D01*
X11690205Y-13407293D02*
X11680682Y-13445388D01*
X11680682Y-13445388D02*
X11671158Y-13464436D01*
X11671158Y-13464436D02*
X11661634Y-13473960D01*
X11661634Y-13473960D02*
X11642586Y-13483484D01*
X11642586Y-13483484D02*
X11623539Y-13483484D01*
X11623539Y-13483484D02*
X11604491Y-13473960D01*
X11604491Y-13473960D02*
X11594967Y-13464436D01*
X11594967Y-13464436D02*
X11585443Y-13445388D01*
X11585443Y-13445388D02*
X11575920Y-13407293D01*
X11575920Y-13407293D02*
X11575920Y-13359674D01*
X11575920Y-13359674D02*
X11585443Y-13321579D01*
X11585443Y-13321579D02*
X11594967Y-13302531D01*
X11594967Y-13302531D02*
X11604491Y-13293008D01*
X11604491Y-13293008D02*
X11623539Y-13283484D01*
X11775920Y-13483484D02*
X11775920Y-13350150D01*
X11775920Y-13369198D02*
X11785443Y-13359674D01*
X11785443Y-13359674D02*
X11804491Y-13350150D01*
X11804491Y-13350150D02*
X11833063Y-13350150D01*
X11833063Y-13350150D02*
X11852110Y-13359674D01*
X11852110Y-13359674D02*
X11861634Y-13378722D01*
X11861634Y-13378722D02*
X11861634Y-13483484D01*
X11861634Y-13378722D02*
X11871158Y-13359674D01*
X11871158Y-13359674D02*
X11890205Y-13350150D01*
X11890205Y-13350150D02*
X11918777Y-13350150D01*
X11918777Y-13350150D02*
X11937824Y-13359674D01*
X11937824Y-13359674D02*
X11947348Y-13378722D01*
X11947348Y-13378722D02*
X11947348Y-13483484D01*
X12042586Y-13483484D02*
X12042586Y-13350150D01*
X12042586Y-13369198D02*
X12052110Y-13359674D01*
X12052110Y-13359674D02*
X12071158Y-13350150D01*
X12071158Y-13350150D02*
X12099729Y-13350150D01*
X12099729Y-13350150D02*
X12118777Y-13359674D01*
X12118777Y-13359674D02*
X12128301Y-13378722D01*
X12128301Y-13378722D02*
X12128301Y-13483484D01*
X12128301Y-13378722D02*
X12137824Y-13359674D01*
X12137824Y-13359674D02*
X12156872Y-13350150D01*
X12156872Y-13350150D02*
X12185443Y-13350150D01*
X12185443Y-13350150D02*
X12204491Y-13359674D01*
X12204491Y-13359674D02*
X12214015Y-13378722D01*
X12214015Y-13378722D02*
X12214015Y-13483484D01*
X12604491Y-13273960D02*
X12433063Y-13531103D01*
X12861634Y-13283484D02*
X12880682Y-13283484D01*
X12880682Y-13283484D02*
X12899729Y-13293008D01*
X12899729Y-13293008D02*
X12909253Y-13302531D01*
X12909253Y-13302531D02*
X12918777Y-13321579D01*
X12918777Y-13321579D02*
X12928301Y-13359674D01*
X12928301Y-13359674D02*
X12928301Y-13407293D01*
X12928301Y-13407293D02*
X12918777Y-13445388D01*
X12918777Y-13445388D02*
X12909253Y-13464436D01*
X12909253Y-13464436D02*
X12899729Y-13473960D01*
X12899729Y-13473960D02*
X12880682Y-13483484D01*
X12880682Y-13483484D02*
X12861634Y-13483484D01*
X12861634Y-13483484D02*
X12842586Y-13473960D01*
X12842586Y-13473960D02*
X12833063Y-13464436D01*
X12833063Y-13464436D02*
X12823539Y-13445388D01*
X12823539Y-13445388D02*
X12814015Y-13407293D01*
X12814015Y-13407293D02*
X12814015Y-13359674D01*
X12814015Y-13359674D02*
X12823539Y-13321579D01*
X12823539Y-13321579D02*
X12833063Y-13302531D01*
X12833063Y-13302531D02*
X12842586Y-13293008D01*
X12842586Y-13293008D02*
X12861634Y-13283484D01*
X13014015Y-13464436D02*
X13023539Y-13473960D01*
X13023539Y-13473960D02*
X13014015Y-13483484D01*
X13014015Y-13483484D02*
X13004491Y-13473960D01*
X13004491Y-13473960D02*
X13014015Y-13464436D01*
X13014015Y-13464436D02*
X13014015Y-13483484D01*
X13147348Y-13283484D02*
X13166396Y-13283484D01*
X13166396Y-13283484D02*
X13185444Y-13293008D01*
X13185444Y-13293008D02*
X13194967Y-13302531D01*
X13194967Y-13302531D02*
X13204491Y-13321579D01*
X13204491Y-13321579D02*
X13214015Y-13359674D01*
X13214015Y-13359674D02*
X13214015Y-13407293D01*
X13214015Y-13407293D02*
X13204491Y-13445388D01*
X13204491Y-13445388D02*
X13194967Y-13464436D01*
X13194967Y-13464436D02*
X13185444Y-13473960D01*
X13185444Y-13473960D02*
X13166396Y-13483484D01*
X13166396Y-13483484D02*
X13147348Y-13483484D01*
X13147348Y-13483484D02*
X13128301Y-13473960D01*
X13128301Y-13473960D02*
X13118777Y-13464436D01*
X13118777Y-13464436D02*
X13109253Y-13445388D01*
X13109253Y-13445388D02*
X13099729Y-13407293D01*
X13099729Y-13407293D02*
X13099729Y-13359674D01*
X13099729Y-13359674D02*
X13109253Y-13321579D01*
X13109253Y-13321579D02*
X13118777Y-13302531D01*
X13118777Y-13302531D02*
X13128301Y-13293008D01*
X13128301Y-13293008D02*
X13147348Y-13283484D01*
X13290206Y-13302531D02*
X13299729Y-13293008D01*
X13299729Y-13293008D02*
X13318777Y-13283484D01*
X13318777Y-13283484D02*
X13366396Y-13283484D01*
X13366396Y-13283484D02*
X13385444Y-13293008D01*
X13385444Y-13293008D02*
X13394967Y-13302531D01*
X13394967Y-13302531D02*
X13404491Y-13321579D01*
X13404491Y-13321579D02*
X13404491Y-13340627D01*
X13404491Y-13340627D02*
X13394967Y-13369198D01*
X13394967Y-13369198D02*
X13280682Y-13483484D01*
X13280682Y-13483484D02*
X13404491Y-13483484D01*
X13471158Y-13283484D02*
X13594967Y-13283484D01*
X13594967Y-13283484D02*
X13528301Y-13359674D01*
X13528301Y-13359674D02*
X13556872Y-13359674D01*
X13556872Y-13359674D02*
X13575920Y-13369198D01*
X13575920Y-13369198D02*
X13585444Y-13378722D01*
X13585444Y-13378722D02*
X13594967Y-13397769D01*
X13594967Y-13397769D02*
X13594967Y-13445388D01*
X13594967Y-13445388D02*
X13585444Y-13464436D01*
X13585444Y-13464436D02*
X13575920Y-13473960D01*
X13575920Y-13473960D02*
X13556872Y-13483484D01*
X13556872Y-13483484D02*
X13499729Y-13483484D01*
X13499729Y-13483484D02*
X13480682Y-13473960D01*
X13480682Y-13473960D02*
X13471158Y-13464436D01*
X13766396Y-13283484D02*
X13728301Y-13283484D01*
X13728301Y-13283484D02*
X13709253Y-13293008D01*
X13709253Y-13293008D02*
X13699729Y-13302531D01*
X13699729Y-13302531D02*
X13680682Y-13331103D01*
X13680682Y-13331103D02*
X13671158Y-13369198D01*
X13671158Y-13369198D02*
X13671158Y-13445388D01*
X13671158Y-13445388D02*
X13680682Y-13464436D01*
X13680682Y-13464436D02*
X13690206Y-13473960D01*
X13690206Y-13473960D02*
X13709253Y-13483484D01*
X13709253Y-13483484D02*
X13747348Y-13483484D01*
X13747348Y-13483484D02*
X13766396Y-13473960D01*
X13766396Y-13473960D02*
X13775920Y-13464436D01*
X13775920Y-13464436D02*
X13785444Y-13445388D01*
X13785444Y-13445388D02*
X13785444Y-13397769D01*
X13785444Y-13397769D02*
X13775920Y-13378722D01*
X13775920Y-13378722D02*
X13766396Y-13369198D01*
X13766396Y-13369198D02*
X13747348Y-13359674D01*
X13747348Y-13359674D02*
X13709253Y-13359674D01*
X13709253Y-13359674D02*
X13690206Y-13369198D01*
X13690206Y-13369198D02*
X13680682Y-13378722D01*
X13680682Y-13378722D02*
X13671158Y-13397769D01*
X13861634Y-13283484D02*
X13861634Y-13321579D01*
X13937825Y-13283484D02*
X13937825Y-13321579D01*
X14233063Y-13559674D02*
X14223539Y-13550150D01*
X14223539Y-13550150D02*
X14204491Y-13521579D01*
X14204491Y-13521579D02*
X14194968Y-13502531D01*
X14194968Y-13502531D02*
X14185444Y-13473960D01*
X14185444Y-13473960D02*
X14175920Y-13426341D01*
X14175920Y-13426341D02*
X14175920Y-13388246D01*
X14175920Y-13388246D02*
X14185444Y-13340627D01*
X14185444Y-13340627D02*
X14194968Y-13312055D01*
X14194968Y-13312055D02*
X14204491Y-13293008D01*
X14204491Y-13293008D02*
X14223539Y-13264436D01*
X14223539Y-13264436D02*
X14233063Y-13254912D01*
X14347348Y-13283484D02*
X14366396Y-13283484D01*
X14366396Y-13283484D02*
X14385444Y-13293008D01*
X14385444Y-13293008D02*
X14394968Y-13302531D01*
X14394968Y-13302531D02*
X14404491Y-13321579D01*
X14404491Y-13321579D02*
X14414015Y-13359674D01*
X14414015Y-13359674D02*
X14414015Y-13407293D01*
X14414015Y-13407293D02*
X14404491Y-13445388D01*
X14404491Y-13445388D02*
X14394968Y-13464436D01*
X14394968Y-13464436D02*
X14385444Y-13473960D01*
X14385444Y-13473960D02*
X14366396Y-13483484D01*
X14366396Y-13483484D02*
X14347348Y-13483484D01*
X14347348Y-13483484D02*
X14328301Y-13473960D01*
X14328301Y-13473960D02*
X14318777Y-13464436D01*
X14318777Y-13464436D02*
X14309253Y-13445388D01*
X14309253Y-13445388D02*
X14299729Y-13407293D01*
X14299729Y-13407293D02*
X14299729Y-13359674D01*
X14299729Y-13359674D02*
X14309253Y-13321579D01*
X14309253Y-13321579D02*
X14318777Y-13302531D01*
X14318777Y-13302531D02*
X14328301Y-13293008D01*
X14328301Y-13293008D02*
X14347348Y-13283484D01*
X14652110Y-13483484D02*
X14652110Y-13283484D01*
X14737825Y-13483484D02*
X14737825Y-13378722D01*
X14737825Y-13378722D02*
X14728301Y-13359674D01*
X14728301Y-13359674D02*
X14709253Y-13350150D01*
X14709253Y-13350150D02*
X14680682Y-13350150D01*
X14680682Y-13350150D02*
X14661634Y-13359674D01*
X14661634Y-13359674D02*
X14652110Y-13369198D01*
X14861634Y-13483484D02*
X14842587Y-13473960D01*
X14842587Y-13473960D02*
X14833063Y-13464436D01*
X14833063Y-13464436D02*
X14823539Y-13445388D01*
X14823539Y-13445388D02*
X14823539Y-13388246D01*
X14823539Y-13388246D02*
X14833063Y-13369198D01*
X14833063Y-13369198D02*
X14842587Y-13359674D01*
X14842587Y-13359674D02*
X14861634Y-13350150D01*
X14861634Y-13350150D02*
X14890206Y-13350150D01*
X14890206Y-13350150D02*
X14909253Y-13359674D01*
X14909253Y-13359674D02*
X14918777Y-13369198D01*
X14918777Y-13369198D02*
X14928301Y-13388246D01*
X14928301Y-13388246D02*
X14928301Y-13445388D01*
X14928301Y-13445388D02*
X14918777Y-13464436D01*
X14918777Y-13464436D02*
X14909253Y-13473960D01*
X14909253Y-13473960D02*
X14890206Y-13483484D01*
X14890206Y-13483484D02*
X14861634Y-13483484D01*
X15042587Y-13483484D02*
X15023539Y-13473960D01*
X15023539Y-13473960D02*
X15014015Y-13454912D01*
X15014015Y-13454912D02*
X15014015Y-13283484D01*
X15194968Y-13473960D02*
X15175920Y-13483484D01*
X15175920Y-13483484D02*
X15137825Y-13483484D01*
X15137825Y-13483484D02*
X15118777Y-13473960D01*
X15118777Y-13473960D02*
X15109253Y-13454912D01*
X15109253Y-13454912D02*
X15109253Y-13378722D01*
X15109253Y-13378722D02*
X15118777Y-13359674D01*
X15118777Y-13359674D02*
X15137825Y-13350150D01*
X15137825Y-13350150D02*
X15175920Y-13350150D01*
X15175920Y-13350150D02*
X15194968Y-13359674D01*
X15194968Y-13359674D02*
X15204491Y-13378722D01*
X15204491Y-13378722D02*
X15204491Y-13397769D01*
X15204491Y-13397769D02*
X15109253Y-13416817D01*
X15280682Y-13473960D02*
X15299730Y-13483484D01*
X15299730Y-13483484D02*
X15337825Y-13483484D01*
X15337825Y-13483484D02*
X15356872Y-13473960D01*
X15356872Y-13473960D02*
X15366396Y-13454912D01*
X15366396Y-13454912D02*
X15366396Y-13445388D01*
X15366396Y-13445388D02*
X15356872Y-13426341D01*
X15356872Y-13426341D02*
X15337825Y-13416817D01*
X15337825Y-13416817D02*
X15309253Y-13416817D01*
X15309253Y-13416817D02*
X15290206Y-13407293D01*
X15290206Y-13407293D02*
X15280682Y-13388246D01*
X15280682Y-13388246D02*
X15280682Y-13378722D01*
X15280682Y-13378722D02*
X15290206Y-13359674D01*
X15290206Y-13359674D02*
X15309253Y-13350150D01*
X15309253Y-13350150D02*
X15337825Y-13350150D01*
X15337825Y-13350150D02*
X15356872Y-13359674D01*
X15604492Y-13407293D02*
X15756873Y-13407293D01*
X15680682Y-13483484D02*
X15680682Y-13331103D01*
X16090206Y-13350150D02*
X16090206Y-13483484D01*
X16042587Y-13273960D02*
X15994968Y-13416817D01*
X15994968Y-13416817D02*
X16118777Y-13416817D01*
X16337825Y-13473960D02*
X16356873Y-13483484D01*
X16356873Y-13483484D02*
X16394968Y-13483484D01*
X16394968Y-13483484D02*
X16414015Y-13473960D01*
X16414015Y-13473960D02*
X16423539Y-13454912D01*
X16423539Y-13454912D02*
X16423539Y-13445388D01*
X16423539Y-13445388D02*
X16414015Y-13426341D01*
X16414015Y-13426341D02*
X16394968Y-13416817D01*
X16394968Y-13416817D02*
X16366396Y-13416817D01*
X16366396Y-13416817D02*
X16347349Y-13407293D01*
X16347349Y-13407293D02*
X16337825Y-13388246D01*
X16337825Y-13388246D02*
X16337825Y-13378722D01*
X16337825Y-13378722D02*
X16347349Y-13359674D01*
X16347349Y-13359674D02*
X16366396Y-13350150D01*
X16366396Y-13350150D02*
X16394968Y-13350150D01*
X16394968Y-13350150D02*
X16414015Y-13359674D01*
X16537825Y-13483484D02*
X16518777Y-13473960D01*
X16518777Y-13473960D02*
X16509254Y-13454912D01*
X16509254Y-13454912D02*
X16509254Y-13283484D01*
X16642587Y-13483484D02*
X16623539Y-13473960D01*
X16623539Y-13473960D02*
X16614015Y-13464436D01*
X16614015Y-13464436D02*
X16604492Y-13445388D01*
X16604492Y-13445388D02*
X16604492Y-13388246D01*
X16604492Y-13388246D02*
X16614015Y-13369198D01*
X16614015Y-13369198D02*
X16623539Y-13359674D01*
X16623539Y-13359674D02*
X16642587Y-13350150D01*
X16642587Y-13350150D02*
X16671158Y-13350150D01*
X16671158Y-13350150D02*
X16690206Y-13359674D01*
X16690206Y-13359674D02*
X16699730Y-13369198D01*
X16699730Y-13369198D02*
X16709254Y-13388246D01*
X16709254Y-13388246D02*
X16709254Y-13445388D01*
X16709254Y-13445388D02*
X16699730Y-13464436D01*
X16699730Y-13464436D02*
X16690206Y-13473960D01*
X16690206Y-13473960D02*
X16671158Y-13483484D01*
X16671158Y-13483484D02*
X16642587Y-13483484D01*
X16766396Y-13350150D02*
X16842587Y-13350150D01*
X16794968Y-13283484D02*
X16794968Y-13454912D01*
X16794968Y-13454912D02*
X16804492Y-13473960D01*
X16804492Y-13473960D02*
X16823539Y-13483484D01*
X16823539Y-13483484D02*
X16842587Y-13483484D01*
X16899730Y-13473960D02*
X16918777Y-13483484D01*
X16918777Y-13483484D02*
X16956873Y-13483484D01*
X16956873Y-13483484D02*
X16975920Y-13473960D01*
X16975920Y-13473960D02*
X16985444Y-13454912D01*
X16985444Y-13454912D02*
X16985444Y-13445388D01*
X16985444Y-13445388D02*
X16975920Y-13426341D01*
X16975920Y-13426341D02*
X16956873Y-13416817D01*
X16956873Y-13416817D02*
X16928301Y-13416817D01*
X16928301Y-13416817D02*
X16909254Y-13407293D01*
X16909254Y-13407293D02*
X16899730Y-13388246D01*
X16899730Y-13388246D02*
X16899730Y-13378722D01*
X16899730Y-13378722D02*
X16909254Y-13359674D01*
X16909254Y-13359674D02*
X16928301Y-13350150D01*
X16928301Y-13350150D02*
X16956873Y-13350150D01*
X16956873Y-13350150D02*
X16975920Y-13359674D01*
X17052111Y-13559674D02*
X17061635Y-13550150D01*
X17061635Y-13550150D02*
X17080682Y-13521579D01*
X17080682Y-13521579D02*
X17090206Y-13502531D01*
X17090206Y-13502531D02*
X17099730Y-13473960D01*
X17099730Y-13473960D02*
X17109254Y-13426341D01*
X17109254Y-13426341D02*
X17109254Y-13388246D01*
X17109254Y-13388246D02*
X17099730Y-13340627D01*
X17099730Y-13340627D02*
X17090206Y-13312055D01*
X17090206Y-13312055D02*
X17080682Y-13293008D01*
X17080682Y-13293008D02*
X17061635Y-13264436D01*
X17061635Y-13264436D02*
X17052111Y-13254912D01*
D10*
X10618000Y-13696000D02*
X10658000Y-13656000D01*
X10618000Y-13616000D01*
X10578000Y-13656000D01*
X10618000Y-13696000D01*
D12*
X10956872Y-13547484D02*
X10975920Y-13547484D01*
X10975920Y-13547484D02*
X10994967Y-13557008D01*
X10994967Y-13557008D02*
X11004491Y-13566531D01*
X11004491Y-13566531D02*
X11014015Y-13585579D01*
X11014015Y-13585579D02*
X11023539Y-13623674D01*
X11023539Y-13623674D02*
X11023539Y-13671293D01*
X11023539Y-13671293D02*
X11014015Y-13709388D01*
X11014015Y-13709388D02*
X11004491Y-13728436D01*
X11004491Y-13728436D02*
X10994967Y-13737960D01*
X10994967Y-13737960D02*
X10975920Y-13747484D01*
X10975920Y-13747484D02*
X10956872Y-13747484D01*
X10956872Y-13747484D02*
X10937824Y-13737960D01*
X10937824Y-13737960D02*
X10928301Y-13728436D01*
X10928301Y-13728436D02*
X10918777Y-13709388D01*
X10918777Y-13709388D02*
X10909253Y-13671293D01*
X10909253Y-13671293D02*
X10909253Y-13623674D01*
X10909253Y-13623674D02*
X10918777Y-13585579D01*
X10918777Y-13585579D02*
X10928301Y-13566531D01*
X10928301Y-13566531D02*
X10937824Y-13557008D01*
X10937824Y-13557008D02*
X10956872Y-13547484D01*
X11109253Y-13728436D02*
X11118777Y-13737960D01*
X11118777Y-13737960D02*
X11109253Y-13747484D01*
X11109253Y-13747484D02*
X11099729Y-13737960D01*
X11099729Y-13737960D02*
X11109253Y-13728436D01*
X11109253Y-13728436D02*
X11109253Y-13747484D01*
X11233062Y-13633198D02*
X11214015Y-13623674D01*
X11214015Y-13623674D02*
X11204491Y-13614150D01*
X11204491Y-13614150D02*
X11194967Y-13595103D01*
X11194967Y-13595103D02*
X11194967Y-13585579D01*
X11194967Y-13585579D02*
X11204491Y-13566531D01*
X11204491Y-13566531D02*
X11214015Y-13557008D01*
X11214015Y-13557008D02*
X11233062Y-13547484D01*
X11233062Y-13547484D02*
X11271158Y-13547484D01*
X11271158Y-13547484D02*
X11290205Y-13557008D01*
X11290205Y-13557008D02*
X11299729Y-13566531D01*
X11299729Y-13566531D02*
X11309253Y-13585579D01*
X11309253Y-13585579D02*
X11309253Y-13595103D01*
X11309253Y-13595103D02*
X11299729Y-13614150D01*
X11299729Y-13614150D02*
X11290205Y-13623674D01*
X11290205Y-13623674D02*
X11271158Y-13633198D01*
X11271158Y-13633198D02*
X11233062Y-13633198D01*
X11233062Y-13633198D02*
X11214015Y-13642722D01*
X11214015Y-13642722D02*
X11204491Y-13652246D01*
X11204491Y-13652246D02*
X11194967Y-13671293D01*
X11194967Y-13671293D02*
X11194967Y-13709388D01*
X11194967Y-13709388D02*
X11204491Y-13728436D01*
X11204491Y-13728436D02*
X11214015Y-13737960D01*
X11214015Y-13737960D02*
X11233062Y-13747484D01*
X11233062Y-13747484D02*
X11271158Y-13747484D01*
X11271158Y-13747484D02*
X11290205Y-13737960D01*
X11290205Y-13737960D02*
X11299729Y-13728436D01*
X11299729Y-13728436D02*
X11309253Y-13709388D01*
X11309253Y-13709388D02*
X11309253Y-13671293D01*
X11309253Y-13671293D02*
X11299729Y-13652246D01*
X11299729Y-13652246D02*
X11290205Y-13642722D01*
X11290205Y-13642722D02*
X11271158Y-13633198D01*
X11433062Y-13547484D02*
X11452110Y-13547484D01*
X11452110Y-13547484D02*
X11471158Y-13557008D01*
X11471158Y-13557008D02*
X11480682Y-13566531D01*
X11480682Y-13566531D02*
X11490205Y-13585579D01*
X11490205Y-13585579D02*
X11499729Y-13623674D01*
X11499729Y-13623674D02*
X11499729Y-13671293D01*
X11499729Y-13671293D02*
X11490205Y-13709388D01*
X11490205Y-13709388D02*
X11480682Y-13728436D01*
X11480682Y-13728436D02*
X11471158Y-13737960D01*
X11471158Y-13737960D02*
X11452110Y-13747484D01*
X11452110Y-13747484D02*
X11433062Y-13747484D01*
X11433062Y-13747484D02*
X11414015Y-13737960D01*
X11414015Y-13737960D02*
X11404491Y-13728436D01*
X11404491Y-13728436D02*
X11394967Y-13709388D01*
X11394967Y-13709388D02*
X11385443Y-13671293D01*
X11385443Y-13671293D02*
X11385443Y-13623674D01*
X11385443Y-13623674D02*
X11394967Y-13585579D01*
X11394967Y-13585579D02*
X11404491Y-13566531D01*
X11404491Y-13566531D02*
X11414015Y-13557008D01*
X11414015Y-13557008D02*
X11433062Y-13547484D01*
X11623539Y-13547484D02*
X11642586Y-13547484D01*
X11642586Y-13547484D02*
X11661634Y-13557008D01*
X11661634Y-13557008D02*
X11671158Y-13566531D01*
X11671158Y-13566531D02*
X11680682Y-13585579D01*
X11680682Y-13585579D02*
X11690205Y-13623674D01*
X11690205Y-13623674D02*
X11690205Y-13671293D01*
X11690205Y-13671293D02*
X11680682Y-13709388D01*
X11680682Y-13709388D02*
X11671158Y-13728436D01*
X11671158Y-13728436D02*
X11661634Y-13737960D01*
X11661634Y-13737960D02*
X11642586Y-13747484D01*
X11642586Y-13747484D02*
X11623539Y-13747484D01*
X11623539Y-13747484D02*
X11604491Y-13737960D01*
X11604491Y-13737960D02*
X11594967Y-13728436D01*
X11594967Y-13728436D02*
X11585443Y-13709388D01*
X11585443Y-13709388D02*
X11575920Y-13671293D01*
X11575920Y-13671293D02*
X11575920Y-13623674D01*
X11575920Y-13623674D02*
X11585443Y-13585579D01*
X11585443Y-13585579D02*
X11594967Y-13566531D01*
X11594967Y-13566531D02*
X11604491Y-13557008D01*
X11604491Y-13557008D02*
X11623539Y-13547484D01*
X11775920Y-13747484D02*
X11775920Y-13614150D01*
X11775920Y-13633198D02*
X11785443Y-13623674D01*
X11785443Y-13623674D02*
X11804491Y-13614150D01*
X11804491Y-13614150D02*
X11833063Y-13614150D01*
X11833063Y-13614150D02*
X11852110Y-13623674D01*
X11852110Y-13623674D02*
X11861634Y-13642722D01*
X11861634Y-13642722D02*
X11861634Y-13747484D01*
X11861634Y-13642722D02*
X11871158Y-13623674D01*
X11871158Y-13623674D02*
X11890205Y-13614150D01*
X11890205Y-13614150D02*
X11918777Y-13614150D01*
X11918777Y-13614150D02*
X11937824Y-13623674D01*
X11937824Y-13623674D02*
X11947348Y-13642722D01*
X11947348Y-13642722D02*
X11947348Y-13747484D01*
X12042586Y-13747484D02*
X12042586Y-13614150D01*
X12042586Y-13633198D02*
X12052110Y-13623674D01*
X12052110Y-13623674D02*
X12071158Y-13614150D01*
X12071158Y-13614150D02*
X12099729Y-13614150D01*
X12099729Y-13614150D02*
X12118777Y-13623674D01*
X12118777Y-13623674D02*
X12128301Y-13642722D01*
X12128301Y-13642722D02*
X12128301Y-13747484D01*
X12128301Y-13642722D02*
X12137824Y-13623674D01*
X12137824Y-13623674D02*
X12156872Y-13614150D01*
X12156872Y-13614150D02*
X12185443Y-13614150D01*
X12185443Y-13614150D02*
X12204491Y-13623674D01*
X12204491Y-13623674D02*
X12214015Y-13642722D01*
X12214015Y-13642722D02*
X12214015Y-13747484D01*
X12604491Y-13537960D02*
X12433063Y-13795103D01*
X12861634Y-13547484D02*
X12880682Y-13547484D01*
X12880682Y-13547484D02*
X12899729Y-13557008D01*
X12899729Y-13557008D02*
X12909253Y-13566531D01*
X12909253Y-13566531D02*
X12918777Y-13585579D01*
X12918777Y-13585579D02*
X12928301Y-13623674D01*
X12928301Y-13623674D02*
X12928301Y-13671293D01*
X12928301Y-13671293D02*
X12918777Y-13709388D01*
X12918777Y-13709388D02*
X12909253Y-13728436D01*
X12909253Y-13728436D02*
X12899729Y-13737960D01*
X12899729Y-13737960D02*
X12880682Y-13747484D01*
X12880682Y-13747484D02*
X12861634Y-13747484D01*
X12861634Y-13747484D02*
X12842586Y-13737960D01*
X12842586Y-13737960D02*
X12833063Y-13728436D01*
X12833063Y-13728436D02*
X12823539Y-13709388D01*
X12823539Y-13709388D02*
X12814015Y-13671293D01*
X12814015Y-13671293D02*
X12814015Y-13623674D01*
X12814015Y-13623674D02*
X12823539Y-13585579D01*
X12823539Y-13585579D02*
X12833063Y-13566531D01*
X12833063Y-13566531D02*
X12842586Y-13557008D01*
X12842586Y-13557008D02*
X12861634Y-13547484D01*
X13014015Y-13728436D02*
X13023539Y-13737960D01*
X13023539Y-13737960D02*
X13014015Y-13747484D01*
X13014015Y-13747484D02*
X13004491Y-13737960D01*
X13004491Y-13737960D02*
X13014015Y-13728436D01*
X13014015Y-13728436D02*
X13014015Y-13747484D01*
X13147348Y-13547484D02*
X13166396Y-13547484D01*
X13166396Y-13547484D02*
X13185444Y-13557008D01*
X13185444Y-13557008D02*
X13194967Y-13566531D01*
X13194967Y-13566531D02*
X13204491Y-13585579D01*
X13204491Y-13585579D02*
X13214015Y-13623674D01*
X13214015Y-13623674D02*
X13214015Y-13671293D01*
X13214015Y-13671293D02*
X13204491Y-13709388D01*
X13204491Y-13709388D02*
X13194967Y-13728436D01*
X13194967Y-13728436D02*
X13185444Y-13737960D01*
X13185444Y-13737960D02*
X13166396Y-13747484D01*
X13166396Y-13747484D02*
X13147348Y-13747484D01*
X13147348Y-13747484D02*
X13128301Y-13737960D01*
X13128301Y-13737960D02*
X13118777Y-13728436D01*
X13118777Y-13728436D02*
X13109253Y-13709388D01*
X13109253Y-13709388D02*
X13099729Y-13671293D01*
X13099729Y-13671293D02*
X13099729Y-13623674D01*
X13099729Y-13623674D02*
X13109253Y-13585579D01*
X13109253Y-13585579D02*
X13118777Y-13566531D01*
X13118777Y-13566531D02*
X13128301Y-13557008D01*
X13128301Y-13557008D02*
X13147348Y-13547484D01*
X13280682Y-13547484D02*
X13404491Y-13547484D01*
X13404491Y-13547484D02*
X13337825Y-13623674D01*
X13337825Y-13623674D02*
X13366396Y-13623674D01*
X13366396Y-13623674D02*
X13385444Y-13633198D01*
X13385444Y-13633198D02*
X13394967Y-13642722D01*
X13394967Y-13642722D02*
X13404491Y-13661769D01*
X13404491Y-13661769D02*
X13404491Y-13709388D01*
X13404491Y-13709388D02*
X13394967Y-13728436D01*
X13394967Y-13728436D02*
X13385444Y-13737960D01*
X13385444Y-13737960D02*
X13366396Y-13747484D01*
X13366396Y-13747484D02*
X13309253Y-13747484D01*
X13309253Y-13747484D02*
X13290206Y-13737960D01*
X13290206Y-13737960D02*
X13280682Y-13728436D01*
X13594967Y-13747484D02*
X13480682Y-13747484D01*
X13537825Y-13747484D02*
X13537825Y-13547484D01*
X13537825Y-13547484D02*
X13518777Y-13576055D01*
X13518777Y-13576055D02*
X13499729Y-13595103D01*
X13499729Y-13595103D02*
X13480682Y-13604627D01*
X13775920Y-13547484D02*
X13680682Y-13547484D01*
X13680682Y-13547484D02*
X13671158Y-13642722D01*
X13671158Y-13642722D02*
X13680682Y-13633198D01*
X13680682Y-13633198D02*
X13699729Y-13623674D01*
X13699729Y-13623674D02*
X13747348Y-13623674D01*
X13747348Y-13623674D02*
X13766396Y-13633198D01*
X13766396Y-13633198D02*
X13775920Y-13642722D01*
X13775920Y-13642722D02*
X13785444Y-13661769D01*
X13785444Y-13661769D02*
X13785444Y-13709388D01*
X13785444Y-13709388D02*
X13775920Y-13728436D01*
X13775920Y-13728436D02*
X13766396Y-13737960D01*
X13766396Y-13737960D02*
X13747348Y-13747484D01*
X13747348Y-13747484D02*
X13699729Y-13747484D01*
X13699729Y-13747484D02*
X13680682Y-13737960D01*
X13680682Y-13737960D02*
X13671158Y-13728436D01*
X13861634Y-13547484D02*
X13861634Y-13585579D01*
X13937825Y-13547484D02*
X13937825Y-13585579D01*
X14233063Y-13823674D02*
X14223539Y-13814150D01*
X14223539Y-13814150D02*
X14204491Y-13785579D01*
X14204491Y-13785579D02*
X14194968Y-13766531D01*
X14194968Y-13766531D02*
X14185444Y-13737960D01*
X14185444Y-13737960D02*
X14175920Y-13690341D01*
X14175920Y-13690341D02*
X14175920Y-13652246D01*
X14175920Y-13652246D02*
X14185444Y-13604627D01*
X14185444Y-13604627D02*
X14194968Y-13576055D01*
X14194968Y-13576055D02*
X14204491Y-13557008D01*
X14204491Y-13557008D02*
X14223539Y-13528436D01*
X14223539Y-13528436D02*
X14233063Y-13518912D01*
X14299729Y-13566531D02*
X14309253Y-13557008D01*
X14309253Y-13557008D02*
X14328301Y-13547484D01*
X14328301Y-13547484D02*
X14375920Y-13547484D01*
X14375920Y-13547484D02*
X14394968Y-13557008D01*
X14394968Y-13557008D02*
X14404491Y-13566531D01*
X14404491Y-13566531D02*
X14414015Y-13585579D01*
X14414015Y-13585579D02*
X14414015Y-13604627D01*
X14414015Y-13604627D02*
X14404491Y-13633198D01*
X14404491Y-13633198D02*
X14290206Y-13747484D01*
X14290206Y-13747484D02*
X14414015Y-13747484D01*
X14652110Y-13747484D02*
X14652110Y-13547484D01*
X14737825Y-13747484D02*
X14737825Y-13642722D01*
X14737825Y-13642722D02*
X14728301Y-13623674D01*
X14728301Y-13623674D02*
X14709253Y-13614150D01*
X14709253Y-13614150D02*
X14680682Y-13614150D01*
X14680682Y-13614150D02*
X14661634Y-13623674D01*
X14661634Y-13623674D02*
X14652110Y-13633198D01*
X14861634Y-13747484D02*
X14842587Y-13737960D01*
X14842587Y-13737960D02*
X14833063Y-13728436D01*
X14833063Y-13728436D02*
X14823539Y-13709388D01*
X14823539Y-13709388D02*
X14823539Y-13652246D01*
X14823539Y-13652246D02*
X14833063Y-13633198D01*
X14833063Y-13633198D02*
X14842587Y-13623674D01*
X14842587Y-13623674D02*
X14861634Y-13614150D01*
X14861634Y-13614150D02*
X14890206Y-13614150D01*
X14890206Y-13614150D02*
X14909253Y-13623674D01*
X14909253Y-13623674D02*
X14918777Y-13633198D01*
X14918777Y-13633198D02*
X14928301Y-13652246D01*
X14928301Y-13652246D02*
X14928301Y-13709388D01*
X14928301Y-13709388D02*
X14918777Y-13728436D01*
X14918777Y-13728436D02*
X14909253Y-13737960D01*
X14909253Y-13737960D02*
X14890206Y-13747484D01*
X14890206Y-13747484D02*
X14861634Y-13747484D01*
X15042587Y-13747484D02*
X15023539Y-13737960D01*
X15023539Y-13737960D02*
X15014015Y-13718912D01*
X15014015Y-13718912D02*
X15014015Y-13547484D01*
X15194968Y-13737960D02*
X15175920Y-13747484D01*
X15175920Y-13747484D02*
X15137825Y-13747484D01*
X15137825Y-13747484D02*
X15118777Y-13737960D01*
X15118777Y-13737960D02*
X15109253Y-13718912D01*
X15109253Y-13718912D02*
X15109253Y-13642722D01*
X15109253Y-13642722D02*
X15118777Y-13623674D01*
X15118777Y-13623674D02*
X15137825Y-13614150D01*
X15137825Y-13614150D02*
X15175920Y-13614150D01*
X15175920Y-13614150D02*
X15194968Y-13623674D01*
X15194968Y-13623674D02*
X15204491Y-13642722D01*
X15204491Y-13642722D02*
X15204491Y-13661769D01*
X15204491Y-13661769D02*
X15109253Y-13680817D01*
X15280682Y-13737960D02*
X15299730Y-13747484D01*
X15299730Y-13747484D02*
X15337825Y-13747484D01*
X15337825Y-13747484D02*
X15356872Y-13737960D01*
X15356872Y-13737960D02*
X15366396Y-13718912D01*
X15366396Y-13718912D02*
X15366396Y-13709388D01*
X15366396Y-13709388D02*
X15356872Y-13690341D01*
X15356872Y-13690341D02*
X15337825Y-13680817D01*
X15337825Y-13680817D02*
X15309253Y-13680817D01*
X15309253Y-13680817D02*
X15290206Y-13671293D01*
X15290206Y-13671293D02*
X15280682Y-13652246D01*
X15280682Y-13652246D02*
X15280682Y-13642722D01*
X15280682Y-13642722D02*
X15290206Y-13623674D01*
X15290206Y-13623674D02*
X15309253Y-13614150D01*
X15309253Y-13614150D02*
X15337825Y-13614150D01*
X15337825Y-13614150D02*
X15356872Y-13623674D01*
X15433063Y-13823674D02*
X15442587Y-13814150D01*
X15442587Y-13814150D02*
X15461634Y-13785579D01*
X15461634Y-13785579D02*
X15471158Y-13766531D01*
X15471158Y-13766531D02*
X15480682Y-13737960D01*
X15480682Y-13737960D02*
X15490206Y-13690341D01*
X15490206Y-13690341D02*
X15490206Y-13652246D01*
X15490206Y-13652246D02*
X15480682Y-13604627D01*
X15480682Y-13604627D02*
X15471158Y-13576055D01*
X15471158Y-13576055D02*
X15461634Y-13557008D01*
X15461634Y-13557008D02*
X15442587Y-13528436D01*
X15442587Y-13528436D02*
X15433063Y-13518912D01*
D10*
X10558000Y-13870000D02*
X10658000Y-13970000D01*
X10658000Y-13870000D02*
X10558000Y-13970000D01*
X10658000Y-13920000D02*
G75*
G02*
X10558000Y-13920000I-50000J0D01*
G01*
X10558000Y-13920000D02*
G75*
G02*
X10658000Y-13920000I50000J0D01*
G01*
D12*
X11023539Y-14011484D02*
X10909253Y-14011484D01*
X10966396Y-14011484D02*
X10966396Y-13811484D01*
X10966396Y-13811484D02*
X10947348Y-13840055D01*
X10947348Y-13840055D02*
X10928301Y-13859103D01*
X10928301Y-13859103D02*
X10909253Y-13868627D01*
X11109253Y-13992436D02*
X11118777Y-14001960D01*
X11118777Y-14001960D02*
X11109253Y-14011484D01*
X11109253Y-14011484D02*
X11099729Y-14001960D01*
X11099729Y-14001960D02*
X11109253Y-13992436D01*
X11109253Y-13992436D02*
X11109253Y-14011484D01*
X11242586Y-13811484D02*
X11261634Y-13811484D01*
X11261634Y-13811484D02*
X11280682Y-13821008D01*
X11280682Y-13821008D02*
X11290205Y-13830531D01*
X11290205Y-13830531D02*
X11299729Y-13849579D01*
X11299729Y-13849579D02*
X11309253Y-13887674D01*
X11309253Y-13887674D02*
X11309253Y-13935293D01*
X11309253Y-13935293D02*
X11299729Y-13973388D01*
X11299729Y-13973388D02*
X11290205Y-13992436D01*
X11290205Y-13992436D02*
X11280682Y-14001960D01*
X11280682Y-14001960D02*
X11261634Y-14011484D01*
X11261634Y-14011484D02*
X11242586Y-14011484D01*
X11242586Y-14011484D02*
X11223539Y-14001960D01*
X11223539Y-14001960D02*
X11214015Y-13992436D01*
X11214015Y-13992436D02*
X11204491Y-13973388D01*
X11204491Y-13973388D02*
X11194967Y-13935293D01*
X11194967Y-13935293D02*
X11194967Y-13887674D01*
X11194967Y-13887674D02*
X11204491Y-13849579D01*
X11204491Y-13849579D02*
X11214015Y-13830531D01*
X11214015Y-13830531D02*
X11223539Y-13821008D01*
X11223539Y-13821008D02*
X11242586Y-13811484D01*
X11433062Y-13811484D02*
X11452110Y-13811484D01*
X11452110Y-13811484D02*
X11471158Y-13821008D01*
X11471158Y-13821008D02*
X11480682Y-13830531D01*
X11480682Y-13830531D02*
X11490205Y-13849579D01*
X11490205Y-13849579D02*
X11499729Y-13887674D01*
X11499729Y-13887674D02*
X11499729Y-13935293D01*
X11499729Y-13935293D02*
X11490205Y-13973388D01*
X11490205Y-13973388D02*
X11480682Y-13992436D01*
X11480682Y-13992436D02*
X11471158Y-14001960D01*
X11471158Y-14001960D02*
X11452110Y-14011484D01*
X11452110Y-14011484D02*
X11433062Y-14011484D01*
X11433062Y-14011484D02*
X11414015Y-14001960D01*
X11414015Y-14001960D02*
X11404491Y-13992436D01*
X11404491Y-13992436D02*
X11394967Y-13973388D01*
X11394967Y-13973388D02*
X11385443Y-13935293D01*
X11385443Y-13935293D02*
X11385443Y-13887674D01*
X11385443Y-13887674D02*
X11394967Y-13849579D01*
X11394967Y-13849579D02*
X11404491Y-13830531D01*
X11404491Y-13830531D02*
X11414015Y-13821008D01*
X11414015Y-13821008D02*
X11433062Y-13811484D01*
X11623539Y-13811484D02*
X11642586Y-13811484D01*
X11642586Y-13811484D02*
X11661634Y-13821008D01*
X11661634Y-13821008D02*
X11671158Y-13830531D01*
X11671158Y-13830531D02*
X11680682Y-13849579D01*
X11680682Y-13849579D02*
X11690205Y-13887674D01*
X11690205Y-13887674D02*
X11690205Y-13935293D01*
X11690205Y-13935293D02*
X11680682Y-13973388D01*
X11680682Y-13973388D02*
X11671158Y-13992436D01*
X11671158Y-13992436D02*
X11661634Y-14001960D01*
X11661634Y-14001960D02*
X11642586Y-14011484D01*
X11642586Y-14011484D02*
X11623539Y-14011484D01*
X11623539Y-14011484D02*
X11604491Y-14001960D01*
X11604491Y-14001960D02*
X11594967Y-13992436D01*
X11594967Y-13992436D02*
X11585443Y-13973388D01*
X11585443Y-13973388D02*
X11575920Y-13935293D01*
X11575920Y-13935293D02*
X11575920Y-13887674D01*
X11575920Y-13887674D02*
X11585443Y-13849579D01*
X11585443Y-13849579D02*
X11594967Y-13830531D01*
X11594967Y-13830531D02*
X11604491Y-13821008D01*
X11604491Y-13821008D02*
X11623539Y-13811484D01*
X11775920Y-14011484D02*
X11775920Y-13878150D01*
X11775920Y-13897198D02*
X11785443Y-13887674D01*
X11785443Y-13887674D02*
X11804491Y-13878150D01*
X11804491Y-13878150D02*
X11833063Y-13878150D01*
X11833063Y-13878150D02*
X11852110Y-13887674D01*
X11852110Y-13887674D02*
X11861634Y-13906722D01*
X11861634Y-13906722D02*
X11861634Y-14011484D01*
X11861634Y-13906722D02*
X11871158Y-13887674D01*
X11871158Y-13887674D02*
X11890205Y-13878150D01*
X11890205Y-13878150D02*
X11918777Y-13878150D01*
X11918777Y-13878150D02*
X11937824Y-13887674D01*
X11937824Y-13887674D02*
X11947348Y-13906722D01*
X11947348Y-13906722D02*
X11947348Y-14011484D01*
X12042586Y-14011484D02*
X12042586Y-13878150D01*
X12042586Y-13897198D02*
X12052110Y-13887674D01*
X12052110Y-13887674D02*
X12071158Y-13878150D01*
X12071158Y-13878150D02*
X12099729Y-13878150D01*
X12099729Y-13878150D02*
X12118777Y-13887674D01*
X12118777Y-13887674D02*
X12128301Y-13906722D01*
X12128301Y-13906722D02*
X12128301Y-14011484D01*
X12128301Y-13906722D02*
X12137824Y-13887674D01*
X12137824Y-13887674D02*
X12156872Y-13878150D01*
X12156872Y-13878150D02*
X12185443Y-13878150D01*
X12185443Y-13878150D02*
X12204491Y-13887674D01*
X12204491Y-13887674D02*
X12214015Y-13906722D01*
X12214015Y-13906722D02*
X12214015Y-14011484D01*
X12604491Y-13801960D02*
X12433063Y-14059103D01*
X12861634Y-13811484D02*
X12880682Y-13811484D01*
X12880682Y-13811484D02*
X12899729Y-13821008D01*
X12899729Y-13821008D02*
X12909253Y-13830531D01*
X12909253Y-13830531D02*
X12918777Y-13849579D01*
X12918777Y-13849579D02*
X12928301Y-13887674D01*
X12928301Y-13887674D02*
X12928301Y-13935293D01*
X12928301Y-13935293D02*
X12918777Y-13973388D01*
X12918777Y-13973388D02*
X12909253Y-13992436D01*
X12909253Y-13992436D02*
X12899729Y-14001960D01*
X12899729Y-14001960D02*
X12880682Y-14011484D01*
X12880682Y-14011484D02*
X12861634Y-14011484D01*
X12861634Y-14011484D02*
X12842586Y-14001960D01*
X12842586Y-14001960D02*
X12833063Y-13992436D01*
X12833063Y-13992436D02*
X12823539Y-13973388D01*
X12823539Y-13973388D02*
X12814015Y-13935293D01*
X12814015Y-13935293D02*
X12814015Y-13887674D01*
X12814015Y-13887674D02*
X12823539Y-13849579D01*
X12823539Y-13849579D02*
X12833063Y-13830531D01*
X12833063Y-13830531D02*
X12842586Y-13821008D01*
X12842586Y-13821008D02*
X12861634Y-13811484D01*
X13014015Y-13992436D02*
X13023539Y-14001960D01*
X13023539Y-14001960D02*
X13014015Y-14011484D01*
X13014015Y-14011484D02*
X13004491Y-14001960D01*
X13004491Y-14001960D02*
X13014015Y-13992436D01*
X13014015Y-13992436D02*
X13014015Y-14011484D01*
X13147348Y-13811484D02*
X13166396Y-13811484D01*
X13166396Y-13811484D02*
X13185444Y-13821008D01*
X13185444Y-13821008D02*
X13194967Y-13830531D01*
X13194967Y-13830531D02*
X13204491Y-13849579D01*
X13204491Y-13849579D02*
X13214015Y-13887674D01*
X13214015Y-13887674D02*
X13214015Y-13935293D01*
X13214015Y-13935293D02*
X13204491Y-13973388D01*
X13204491Y-13973388D02*
X13194967Y-13992436D01*
X13194967Y-13992436D02*
X13185444Y-14001960D01*
X13185444Y-14001960D02*
X13166396Y-14011484D01*
X13166396Y-14011484D02*
X13147348Y-14011484D01*
X13147348Y-14011484D02*
X13128301Y-14001960D01*
X13128301Y-14001960D02*
X13118777Y-13992436D01*
X13118777Y-13992436D02*
X13109253Y-13973388D01*
X13109253Y-13973388D02*
X13099729Y-13935293D01*
X13099729Y-13935293D02*
X13099729Y-13887674D01*
X13099729Y-13887674D02*
X13109253Y-13849579D01*
X13109253Y-13849579D02*
X13118777Y-13830531D01*
X13118777Y-13830531D02*
X13128301Y-13821008D01*
X13128301Y-13821008D02*
X13147348Y-13811484D01*
X13280682Y-13811484D02*
X13404491Y-13811484D01*
X13404491Y-13811484D02*
X13337825Y-13887674D01*
X13337825Y-13887674D02*
X13366396Y-13887674D01*
X13366396Y-13887674D02*
X13385444Y-13897198D01*
X13385444Y-13897198D02*
X13394967Y-13906722D01*
X13394967Y-13906722D02*
X13404491Y-13925769D01*
X13404491Y-13925769D02*
X13404491Y-13973388D01*
X13404491Y-13973388D02*
X13394967Y-13992436D01*
X13394967Y-13992436D02*
X13385444Y-14001960D01*
X13385444Y-14001960D02*
X13366396Y-14011484D01*
X13366396Y-14011484D02*
X13309253Y-14011484D01*
X13309253Y-14011484D02*
X13290206Y-14001960D01*
X13290206Y-14001960D02*
X13280682Y-13992436D01*
X13499729Y-14011484D02*
X13537825Y-14011484D01*
X13537825Y-14011484D02*
X13556872Y-14001960D01*
X13556872Y-14001960D02*
X13566396Y-13992436D01*
X13566396Y-13992436D02*
X13585444Y-13963865D01*
X13585444Y-13963865D02*
X13594967Y-13925769D01*
X13594967Y-13925769D02*
X13594967Y-13849579D01*
X13594967Y-13849579D02*
X13585444Y-13830531D01*
X13585444Y-13830531D02*
X13575920Y-13821008D01*
X13575920Y-13821008D02*
X13556872Y-13811484D01*
X13556872Y-13811484D02*
X13518777Y-13811484D01*
X13518777Y-13811484D02*
X13499729Y-13821008D01*
X13499729Y-13821008D02*
X13490206Y-13830531D01*
X13490206Y-13830531D02*
X13480682Y-13849579D01*
X13480682Y-13849579D02*
X13480682Y-13897198D01*
X13480682Y-13897198D02*
X13490206Y-13916246D01*
X13490206Y-13916246D02*
X13499729Y-13925769D01*
X13499729Y-13925769D02*
X13518777Y-13935293D01*
X13518777Y-13935293D02*
X13556872Y-13935293D01*
X13556872Y-13935293D02*
X13575920Y-13925769D01*
X13575920Y-13925769D02*
X13585444Y-13916246D01*
X13585444Y-13916246D02*
X13594967Y-13897198D01*
X13766396Y-13878150D02*
X13766396Y-14011484D01*
X13718777Y-13801960D02*
X13671158Y-13944817D01*
X13671158Y-13944817D02*
X13794967Y-13944817D01*
X13861634Y-13811484D02*
X13861634Y-13849579D01*
X13937825Y-13811484D02*
X13937825Y-13849579D01*
X14233063Y-14087674D02*
X14223539Y-14078150D01*
X14223539Y-14078150D02*
X14204491Y-14049579D01*
X14204491Y-14049579D02*
X14194968Y-14030531D01*
X14194968Y-14030531D02*
X14185444Y-14001960D01*
X14185444Y-14001960D02*
X14175920Y-13954341D01*
X14175920Y-13954341D02*
X14175920Y-13916246D01*
X14175920Y-13916246D02*
X14185444Y-13868627D01*
X14185444Y-13868627D02*
X14194968Y-13840055D01*
X14194968Y-13840055D02*
X14204491Y-13821008D01*
X14204491Y-13821008D02*
X14223539Y-13792436D01*
X14223539Y-13792436D02*
X14233063Y-13782912D01*
X14299729Y-13830531D02*
X14309253Y-13821008D01*
X14309253Y-13821008D02*
X14328301Y-13811484D01*
X14328301Y-13811484D02*
X14375920Y-13811484D01*
X14375920Y-13811484D02*
X14394968Y-13821008D01*
X14394968Y-13821008D02*
X14404491Y-13830531D01*
X14404491Y-13830531D02*
X14414015Y-13849579D01*
X14414015Y-13849579D02*
X14414015Y-13868627D01*
X14414015Y-13868627D02*
X14404491Y-13897198D01*
X14404491Y-13897198D02*
X14290206Y-14011484D01*
X14290206Y-14011484D02*
X14414015Y-14011484D01*
X14652110Y-14011484D02*
X14652110Y-13811484D01*
X14737825Y-14011484D02*
X14737825Y-13906722D01*
X14737825Y-13906722D02*
X14728301Y-13887674D01*
X14728301Y-13887674D02*
X14709253Y-13878150D01*
X14709253Y-13878150D02*
X14680682Y-13878150D01*
X14680682Y-13878150D02*
X14661634Y-13887674D01*
X14661634Y-13887674D02*
X14652110Y-13897198D01*
X14861634Y-14011484D02*
X14842587Y-14001960D01*
X14842587Y-14001960D02*
X14833063Y-13992436D01*
X14833063Y-13992436D02*
X14823539Y-13973388D01*
X14823539Y-13973388D02*
X14823539Y-13916246D01*
X14823539Y-13916246D02*
X14833063Y-13897198D01*
X14833063Y-13897198D02*
X14842587Y-13887674D01*
X14842587Y-13887674D02*
X14861634Y-13878150D01*
X14861634Y-13878150D02*
X14890206Y-13878150D01*
X14890206Y-13878150D02*
X14909253Y-13887674D01*
X14909253Y-13887674D02*
X14918777Y-13897198D01*
X14918777Y-13897198D02*
X14928301Y-13916246D01*
X14928301Y-13916246D02*
X14928301Y-13973388D01*
X14928301Y-13973388D02*
X14918777Y-13992436D01*
X14918777Y-13992436D02*
X14909253Y-14001960D01*
X14909253Y-14001960D02*
X14890206Y-14011484D01*
X14890206Y-14011484D02*
X14861634Y-14011484D01*
X15042587Y-14011484D02*
X15023539Y-14001960D01*
X15023539Y-14001960D02*
X15014015Y-13982912D01*
X15014015Y-13982912D02*
X15014015Y-13811484D01*
X15194968Y-14001960D02*
X15175920Y-14011484D01*
X15175920Y-14011484D02*
X15137825Y-14011484D01*
X15137825Y-14011484D02*
X15118777Y-14001960D01*
X15118777Y-14001960D02*
X15109253Y-13982912D01*
X15109253Y-13982912D02*
X15109253Y-13906722D01*
X15109253Y-13906722D02*
X15118777Y-13887674D01*
X15118777Y-13887674D02*
X15137825Y-13878150D01*
X15137825Y-13878150D02*
X15175920Y-13878150D01*
X15175920Y-13878150D02*
X15194968Y-13887674D01*
X15194968Y-13887674D02*
X15204491Y-13906722D01*
X15204491Y-13906722D02*
X15204491Y-13925769D01*
X15204491Y-13925769D02*
X15109253Y-13944817D01*
X15280682Y-14001960D02*
X15299730Y-14011484D01*
X15299730Y-14011484D02*
X15337825Y-14011484D01*
X15337825Y-14011484D02*
X15356872Y-14001960D01*
X15356872Y-14001960D02*
X15366396Y-13982912D01*
X15366396Y-13982912D02*
X15366396Y-13973388D01*
X15366396Y-13973388D02*
X15356872Y-13954341D01*
X15356872Y-13954341D02*
X15337825Y-13944817D01*
X15337825Y-13944817D02*
X15309253Y-13944817D01*
X15309253Y-13944817D02*
X15290206Y-13935293D01*
X15290206Y-13935293D02*
X15280682Y-13916246D01*
X15280682Y-13916246D02*
X15280682Y-13906722D01*
X15280682Y-13906722D02*
X15290206Y-13887674D01*
X15290206Y-13887674D02*
X15309253Y-13878150D01*
X15309253Y-13878150D02*
X15337825Y-13878150D01*
X15337825Y-13878150D02*
X15356872Y-13887674D01*
X15433063Y-14087674D02*
X15442587Y-14078150D01*
X15442587Y-14078150D02*
X15461634Y-14049579D01*
X15461634Y-14049579D02*
X15471158Y-14030531D01*
X15471158Y-14030531D02*
X15480682Y-14001960D01*
X15480682Y-14001960D02*
X15490206Y-13954341D01*
X15490206Y-13954341D02*
X15490206Y-13916246D01*
X15490206Y-13916246D02*
X15480682Y-13868627D01*
X15480682Y-13868627D02*
X15471158Y-13840055D01*
X15471158Y-13840055D02*
X15461634Y-13821008D01*
X15461634Y-13821008D02*
X15442587Y-13792436D01*
X15442587Y-13792436D02*
X15433063Y-13782912D01*
D10*
X10558000Y-14134000D02*
X10658000Y-14234000D01*
X10658000Y-14134000D02*
X10558000Y-14234000D01*
X10608000Y-14134000D02*
X10608000Y-14234000D01*
X10558000Y-14184000D02*
X10658000Y-14184000D01*
D12*
X11023539Y-14275484D02*
X10909253Y-14275484D01*
X10966396Y-14275484D02*
X10966396Y-14075484D01*
X10966396Y-14075484D02*
X10947348Y-14104055D01*
X10947348Y-14104055D02*
X10928301Y-14123103D01*
X10928301Y-14123103D02*
X10909253Y-14132627D01*
X11109253Y-14256436D02*
X11118777Y-14265960D01*
X11118777Y-14265960D02*
X11109253Y-14275484D01*
X11109253Y-14275484D02*
X11099729Y-14265960D01*
X11099729Y-14265960D02*
X11109253Y-14256436D01*
X11109253Y-14256436D02*
X11109253Y-14275484D01*
X11242586Y-14075484D02*
X11261634Y-14075484D01*
X11261634Y-14075484D02*
X11280682Y-14085008D01*
X11280682Y-14085008D02*
X11290205Y-14094531D01*
X11290205Y-14094531D02*
X11299729Y-14113579D01*
X11299729Y-14113579D02*
X11309253Y-14151674D01*
X11309253Y-14151674D02*
X11309253Y-14199293D01*
X11309253Y-14199293D02*
X11299729Y-14237388D01*
X11299729Y-14237388D02*
X11290205Y-14256436D01*
X11290205Y-14256436D02*
X11280682Y-14265960D01*
X11280682Y-14265960D02*
X11261634Y-14275484D01*
X11261634Y-14275484D02*
X11242586Y-14275484D01*
X11242586Y-14275484D02*
X11223539Y-14265960D01*
X11223539Y-14265960D02*
X11214015Y-14256436D01*
X11214015Y-14256436D02*
X11204491Y-14237388D01*
X11204491Y-14237388D02*
X11194967Y-14199293D01*
X11194967Y-14199293D02*
X11194967Y-14151674D01*
X11194967Y-14151674D02*
X11204491Y-14113579D01*
X11204491Y-14113579D02*
X11214015Y-14094531D01*
X11214015Y-14094531D02*
X11223539Y-14085008D01*
X11223539Y-14085008D02*
X11242586Y-14075484D01*
X11433062Y-14075484D02*
X11452110Y-14075484D01*
X11452110Y-14075484D02*
X11471158Y-14085008D01*
X11471158Y-14085008D02*
X11480682Y-14094531D01*
X11480682Y-14094531D02*
X11490205Y-14113579D01*
X11490205Y-14113579D02*
X11499729Y-14151674D01*
X11499729Y-14151674D02*
X11499729Y-14199293D01*
X11499729Y-14199293D02*
X11490205Y-14237388D01*
X11490205Y-14237388D02*
X11480682Y-14256436D01*
X11480682Y-14256436D02*
X11471158Y-14265960D01*
X11471158Y-14265960D02*
X11452110Y-14275484D01*
X11452110Y-14275484D02*
X11433062Y-14275484D01*
X11433062Y-14275484D02*
X11414015Y-14265960D01*
X11414015Y-14265960D02*
X11404491Y-14256436D01*
X11404491Y-14256436D02*
X11394967Y-14237388D01*
X11394967Y-14237388D02*
X11385443Y-14199293D01*
X11385443Y-14199293D02*
X11385443Y-14151674D01*
X11385443Y-14151674D02*
X11394967Y-14113579D01*
X11394967Y-14113579D02*
X11404491Y-14094531D01*
X11404491Y-14094531D02*
X11414015Y-14085008D01*
X11414015Y-14085008D02*
X11433062Y-14075484D01*
X11623539Y-14075484D02*
X11642586Y-14075484D01*
X11642586Y-14075484D02*
X11661634Y-14085008D01*
X11661634Y-14085008D02*
X11671158Y-14094531D01*
X11671158Y-14094531D02*
X11680682Y-14113579D01*
X11680682Y-14113579D02*
X11690205Y-14151674D01*
X11690205Y-14151674D02*
X11690205Y-14199293D01*
X11690205Y-14199293D02*
X11680682Y-14237388D01*
X11680682Y-14237388D02*
X11671158Y-14256436D01*
X11671158Y-14256436D02*
X11661634Y-14265960D01*
X11661634Y-14265960D02*
X11642586Y-14275484D01*
X11642586Y-14275484D02*
X11623539Y-14275484D01*
X11623539Y-14275484D02*
X11604491Y-14265960D01*
X11604491Y-14265960D02*
X11594967Y-14256436D01*
X11594967Y-14256436D02*
X11585443Y-14237388D01*
X11585443Y-14237388D02*
X11575920Y-14199293D01*
X11575920Y-14199293D02*
X11575920Y-14151674D01*
X11575920Y-14151674D02*
X11585443Y-14113579D01*
X11585443Y-14113579D02*
X11594967Y-14094531D01*
X11594967Y-14094531D02*
X11604491Y-14085008D01*
X11604491Y-14085008D02*
X11623539Y-14075484D01*
X11775920Y-14275484D02*
X11775920Y-14142150D01*
X11775920Y-14161198D02*
X11785443Y-14151674D01*
X11785443Y-14151674D02*
X11804491Y-14142150D01*
X11804491Y-14142150D02*
X11833063Y-14142150D01*
X11833063Y-14142150D02*
X11852110Y-14151674D01*
X11852110Y-14151674D02*
X11861634Y-14170722D01*
X11861634Y-14170722D02*
X11861634Y-14275484D01*
X11861634Y-14170722D02*
X11871158Y-14151674D01*
X11871158Y-14151674D02*
X11890205Y-14142150D01*
X11890205Y-14142150D02*
X11918777Y-14142150D01*
X11918777Y-14142150D02*
X11937824Y-14151674D01*
X11937824Y-14151674D02*
X11947348Y-14170722D01*
X11947348Y-14170722D02*
X11947348Y-14275484D01*
X12042586Y-14275484D02*
X12042586Y-14142150D01*
X12042586Y-14161198D02*
X12052110Y-14151674D01*
X12052110Y-14151674D02*
X12071158Y-14142150D01*
X12071158Y-14142150D02*
X12099729Y-14142150D01*
X12099729Y-14142150D02*
X12118777Y-14151674D01*
X12118777Y-14151674D02*
X12128301Y-14170722D01*
X12128301Y-14170722D02*
X12128301Y-14275484D01*
X12128301Y-14170722D02*
X12137824Y-14151674D01*
X12137824Y-14151674D02*
X12156872Y-14142150D01*
X12156872Y-14142150D02*
X12185443Y-14142150D01*
X12185443Y-14142150D02*
X12204491Y-14151674D01*
X12204491Y-14151674D02*
X12214015Y-14170722D01*
X12214015Y-14170722D02*
X12214015Y-14275484D01*
X12604491Y-14065960D02*
X12433063Y-14323103D01*
X12861634Y-14075484D02*
X12880682Y-14075484D01*
X12880682Y-14075484D02*
X12899729Y-14085008D01*
X12899729Y-14085008D02*
X12909253Y-14094531D01*
X12909253Y-14094531D02*
X12918777Y-14113579D01*
X12918777Y-14113579D02*
X12928301Y-14151674D01*
X12928301Y-14151674D02*
X12928301Y-14199293D01*
X12928301Y-14199293D02*
X12918777Y-14237388D01*
X12918777Y-14237388D02*
X12909253Y-14256436D01*
X12909253Y-14256436D02*
X12899729Y-14265960D01*
X12899729Y-14265960D02*
X12880682Y-14275484D01*
X12880682Y-14275484D02*
X12861634Y-14275484D01*
X12861634Y-14275484D02*
X12842586Y-14265960D01*
X12842586Y-14265960D02*
X12833063Y-14256436D01*
X12833063Y-14256436D02*
X12823539Y-14237388D01*
X12823539Y-14237388D02*
X12814015Y-14199293D01*
X12814015Y-14199293D02*
X12814015Y-14151674D01*
X12814015Y-14151674D02*
X12823539Y-14113579D01*
X12823539Y-14113579D02*
X12833063Y-14094531D01*
X12833063Y-14094531D02*
X12842586Y-14085008D01*
X12842586Y-14085008D02*
X12861634Y-14075484D01*
X13014015Y-14256436D02*
X13023539Y-14265960D01*
X13023539Y-14265960D02*
X13014015Y-14275484D01*
X13014015Y-14275484D02*
X13004491Y-14265960D01*
X13004491Y-14265960D02*
X13014015Y-14256436D01*
X13014015Y-14256436D02*
X13014015Y-14275484D01*
X13147348Y-14075484D02*
X13166396Y-14075484D01*
X13166396Y-14075484D02*
X13185444Y-14085008D01*
X13185444Y-14085008D02*
X13194967Y-14094531D01*
X13194967Y-14094531D02*
X13204491Y-14113579D01*
X13204491Y-14113579D02*
X13214015Y-14151674D01*
X13214015Y-14151674D02*
X13214015Y-14199293D01*
X13214015Y-14199293D02*
X13204491Y-14237388D01*
X13204491Y-14237388D02*
X13194967Y-14256436D01*
X13194967Y-14256436D02*
X13185444Y-14265960D01*
X13185444Y-14265960D02*
X13166396Y-14275484D01*
X13166396Y-14275484D02*
X13147348Y-14275484D01*
X13147348Y-14275484D02*
X13128301Y-14265960D01*
X13128301Y-14265960D02*
X13118777Y-14256436D01*
X13118777Y-14256436D02*
X13109253Y-14237388D01*
X13109253Y-14237388D02*
X13099729Y-14199293D01*
X13099729Y-14199293D02*
X13099729Y-14151674D01*
X13099729Y-14151674D02*
X13109253Y-14113579D01*
X13109253Y-14113579D02*
X13118777Y-14094531D01*
X13118777Y-14094531D02*
X13128301Y-14085008D01*
X13128301Y-14085008D02*
X13147348Y-14075484D01*
X13280682Y-14075484D02*
X13404491Y-14075484D01*
X13404491Y-14075484D02*
X13337825Y-14151674D01*
X13337825Y-14151674D02*
X13366396Y-14151674D01*
X13366396Y-14151674D02*
X13385444Y-14161198D01*
X13385444Y-14161198D02*
X13394967Y-14170722D01*
X13394967Y-14170722D02*
X13404491Y-14189769D01*
X13404491Y-14189769D02*
X13404491Y-14237388D01*
X13404491Y-14237388D02*
X13394967Y-14256436D01*
X13394967Y-14256436D02*
X13385444Y-14265960D01*
X13385444Y-14265960D02*
X13366396Y-14275484D01*
X13366396Y-14275484D02*
X13309253Y-14275484D01*
X13309253Y-14275484D02*
X13290206Y-14265960D01*
X13290206Y-14265960D02*
X13280682Y-14256436D01*
X13499729Y-14275484D02*
X13537825Y-14275484D01*
X13537825Y-14275484D02*
X13556872Y-14265960D01*
X13556872Y-14265960D02*
X13566396Y-14256436D01*
X13566396Y-14256436D02*
X13585444Y-14227865D01*
X13585444Y-14227865D02*
X13594967Y-14189769D01*
X13594967Y-14189769D02*
X13594967Y-14113579D01*
X13594967Y-14113579D02*
X13585444Y-14094531D01*
X13585444Y-14094531D02*
X13575920Y-14085008D01*
X13575920Y-14085008D02*
X13556872Y-14075484D01*
X13556872Y-14075484D02*
X13518777Y-14075484D01*
X13518777Y-14075484D02*
X13499729Y-14085008D01*
X13499729Y-14085008D02*
X13490206Y-14094531D01*
X13490206Y-14094531D02*
X13480682Y-14113579D01*
X13480682Y-14113579D02*
X13480682Y-14161198D01*
X13480682Y-14161198D02*
X13490206Y-14180246D01*
X13490206Y-14180246D02*
X13499729Y-14189769D01*
X13499729Y-14189769D02*
X13518777Y-14199293D01*
X13518777Y-14199293D02*
X13556872Y-14199293D01*
X13556872Y-14199293D02*
X13575920Y-14189769D01*
X13575920Y-14189769D02*
X13585444Y-14180246D01*
X13585444Y-14180246D02*
X13594967Y-14161198D01*
X13766396Y-14142150D02*
X13766396Y-14275484D01*
X13718777Y-14065960D02*
X13671158Y-14208817D01*
X13671158Y-14208817D02*
X13794967Y-14208817D01*
X13861634Y-14075484D02*
X13861634Y-14113579D01*
X13937825Y-14075484D02*
X13937825Y-14113579D01*
X14233063Y-14351674D02*
X14223539Y-14342150D01*
X14223539Y-14342150D02*
X14204491Y-14313579D01*
X14204491Y-14313579D02*
X14194968Y-14294531D01*
X14194968Y-14294531D02*
X14185444Y-14265960D01*
X14185444Y-14265960D02*
X14175920Y-14218341D01*
X14175920Y-14218341D02*
X14175920Y-14180246D01*
X14175920Y-14180246D02*
X14185444Y-14132627D01*
X14185444Y-14132627D02*
X14194968Y-14104055D01*
X14194968Y-14104055D02*
X14204491Y-14085008D01*
X14204491Y-14085008D02*
X14223539Y-14056436D01*
X14223539Y-14056436D02*
X14233063Y-14046912D01*
X14299729Y-14094531D02*
X14309253Y-14085008D01*
X14309253Y-14085008D02*
X14328301Y-14075484D01*
X14328301Y-14075484D02*
X14375920Y-14075484D01*
X14375920Y-14075484D02*
X14394968Y-14085008D01*
X14394968Y-14085008D02*
X14404491Y-14094531D01*
X14404491Y-14094531D02*
X14414015Y-14113579D01*
X14414015Y-14113579D02*
X14414015Y-14132627D01*
X14414015Y-14132627D02*
X14404491Y-14161198D01*
X14404491Y-14161198D02*
X14290206Y-14275484D01*
X14290206Y-14275484D02*
X14414015Y-14275484D01*
X14585444Y-14075484D02*
X14547348Y-14075484D01*
X14547348Y-14075484D02*
X14528301Y-14085008D01*
X14528301Y-14085008D02*
X14518777Y-14094531D01*
X14518777Y-14094531D02*
X14499729Y-14123103D01*
X14499729Y-14123103D02*
X14490206Y-14161198D01*
X14490206Y-14161198D02*
X14490206Y-14237388D01*
X14490206Y-14237388D02*
X14499729Y-14256436D01*
X14499729Y-14256436D02*
X14509253Y-14265960D01*
X14509253Y-14265960D02*
X14528301Y-14275484D01*
X14528301Y-14275484D02*
X14566396Y-14275484D01*
X14566396Y-14275484D02*
X14585444Y-14265960D01*
X14585444Y-14265960D02*
X14594968Y-14256436D01*
X14594968Y-14256436D02*
X14604491Y-14237388D01*
X14604491Y-14237388D02*
X14604491Y-14189769D01*
X14604491Y-14189769D02*
X14594968Y-14170722D01*
X14594968Y-14170722D02*
X14585444Y-14161198D01*
X14585444Y-14161198D02*
X14566396Y-14151674D01*
X14566396Y-14151674D02*
X14528301Y-14151674D01*
X14528301Y-14151674D02*
X14509253Y-14161198D01*
X14509253Y-14161198D02*
X14499729Y-14170722D01*
X14499729Y-14170722D02*
X14490206Y-14189769D01*
X14842587Y-14275484D02*
X14842587Y-14075484D01*
X14928301Y-14275484D02*
X14928301Y-14170722D01*
X14928301Y-14170722D02*
X14918777Y-14151674D01*
X14918777Y-14151674D02*
X14899730Y-14142150D01*
X14899730Y-14142150D02*
X14871158Y-14142150D01*
X14871158Y-14142150D02*
X14852110Y-14151674D01*
X14852110Y-14151674D02*
X14842587Y-14161198D01*
X15052110Y-14275484D02*
X15033063Y-14265960D01*
X15033063Y-14265960D02*
X15023539Y-14256436D01*
X15023539Y-14256436D02*
X15014015Y-14237388D01*
X15014015Y-14237388D02*
X15014015Y-14180246D01*
X15014015Y-14180246D02*
X15023539Y-14161198D01*
X15023539Y-14161198D02*
X15033063Y-14151674D01*
X15033063Y-14151674D02*
X15052110Y-14142150D01*
X15052110Y-14142150D02*
X15080682Y-14142150D01*
X15080682Y-14142150D02*
X15099730Y-14151674D01*
X15099730Y-14151674D02*
X15109253Y-14161198D01*
X15109253Y-14161198D02*
X15118777Y-14180246D01*
X15118777Y-14180246D02*
X15118777Y-14237388D01*
X15118777Y-14237388D02*
X15109253Y-14256436D01*
X15109253Y-14256436D02*
X15099730Y-14265960D01*
X15099730Y-14265960D02*
X15080682Y-14275484D01*
X15080682Y-14275484D02*
X15052110Y-14275484D01*
X15233063Y-14275484D02*
X15214015Y-14265960D01*
X15214015Y-14265960D02*
X15204491Y-14246912D01*
X15204491Y-14246912D02*
X15204491Y-14075484D01*
X15385444Y-14265960D02*
X15366396Y-14275484D01*
X15366396Y-14275484D02*
X15328301Y-14275484D01*
X15328301Y-14275484D02*
X15309253Y-14265960D01*
X15309253Y-14265960D02*
X15299730Y-14246912D01*
X15299730Y-14246912D02*
X15299730Y-14170722D01*
X15299730Y-14170722D02*
X15309253Y-14151674D01*
X15309253Y-14151674D02*
X15328301Y-14142150D01*
X15328301Y-14142150D02*
X15366396Y-14142150D01*
X15366396Y-14142150D02*
X15385444Y-14151674D01*
X15385444Y-14151674D02*
X15394968Y-14170722D01*
X15394968Y-14170722D02*
X15394968Y-14189769D01*
X15394968Y-14189769D02*
X15299730Y-14208817D01*
X15471158Y-14265960D02*
X15490206Y-14275484D01*
X15490206Y-14275484D02*
X15528301Y-14275484D01*
X15528301Y-14275484D02*
X15547349Y-14265960D01*
X15547349Y-14265960D02*
X15556872Y-14246912D01*
X15556872Y-14246912D02*
X15556872Y-14237388D01*
X15556872Y-14237388D02*
X15547349Y-14218341D01*
X15547349Y-14218341D02*
X15528301Y-14208817D01*
X15528301Y-14208817D02*
X15499730Y-14208817D01*
X15499730Y-14208817D02*
X15480682Y-14199293D01*
X15480682Y-14199293D02*
X15471158Y-14180246D01*
X15471158Y-14180246D02*
X15471158Y-14170722D01*
X15471158Y-14170722D02*
X15480682Y-14151674D01*
X15480682Y-14151674D02*
X15499730Y-14142150D01*
X15499730Y-14142150D02*
X15528301Y-14142150D01*
X15528301Y-14142150D02*
X15547349Y-14151674D01*
X15623539Y-14351674D02*
X15633063Y-14342150D01*
X15633063Y-14342150D02*
X15652111Y-14313579D01*
X15652111Y-14313579D02*
X15661634Y-14294531D01*
X15661634Y-14294531D02*
X15671158Y-14265960D01*
X15671158Y-14265960D02*
X15680682Y-14218341D01*
X15680682Y-14218341D02*
X15680682Y-14180246D01*
X15680682Y-14180246D02*
X15671158Y-14132627D01*
X15671158Y-14132627D02*
X15661634Y-14104055D01*
X15661634Y-14104055D02*
X15652111Y-14085008D01*
X15652111Y-14085008D02*
X15633063Y-14056436D01*
X15633063Y-14056436D02*
X15623539Y-14046912D01*
M02*
