G04 #@! TF.GenerationSoftware,KiCad,Pcbnew,9.0.3*
G04 #@! TF.CreationDate,2025-07-24T11:03:05+02:00*
G04 #@! TF.ProjectId,USBtoUART,55534274-6f55-4415-9254-2e6b69636164,v1.0*
G04 #@! TF.SameCoordinates,Original*
G04 #@! TF.FileFunction,Profile,NP*
%FSLAX46Y46*%
G04 Gerber Fmt 4.6, Leading zero omitted, Abs format (unit mm)*
G04 Created by KiCad (PCBNEW 9.0.3) date 2025-07-24 11:03:05*
%MOMM*%
%LPD*%
G01*
G04 APERTURE LIST*
%ADD10C,0.100000*%
%ADD11C,0.150000*%
%ADD12C,0.300000*%
%ADD13C,0.400000*%
G04 #@! TA.AperFunction,Profile*
%ADD14C,0.100000*%
G04 #@! TD*
G04 #@! TA.AperFunction,Profile*
%ADD15C,0.120000*%
G04 #@! TD*
G04 APERTURE END LIST*
D10*
D11*
X177002200Y-166007200D02*
X285002200Y-166007200D01*
X285002200Y-198007200D01*
X177002200Y-198007200D01*
X177002200Y-166007200D01*
D10*
D11*
X10000000Y-10000000D02*
X287002200Y-10000000D01*
X287002200Y-200007200D01*
X10000000Y-200007200D01*
X10000000Y-10000000D01*
D10*
D11*
X12000000Y-12000000D02*
X285002200Y-12000000D01*
X285002200Y-198007200D01*
X12000000Y-198007200D01*
X12000000Y-12000000D01*
D10*
D11*
X60000000Y-12000000D02*
X60000000Y-10000000D01*
D10*
D11*
X110000000Y-12000000D02*
X110000000Y-10000000D01*
D10*
D11*
X160000000Y-12000000D02*
X160000000Y-10000000D01*
D10*
D11*
X210000000Y-12000000D02*
X210000000Y-10000000D01*
D10*
D11*
X260000000Y-12000000D02*
X260000000Y-10000000D01*
D10*
D11*
X36089160Y-11593604D02*
X35346303Y-11593604D01*
X35717731Y-11593604D02*
X35717731Y-10293604D01*
X35717731Y-10293604D02*
X35593922Y-10479319D01*
X35593922Y-10479319D02*
X35470112Y-10603128D01*
X35470112Y-10603128D02*
X35346303Y-10665033D01*
D10*
D11*
X85346303Y-10417414D02*
X85408207Y-10355509D01*
X85408207Y-10355509D02*
X85532017Y-10293604D01*
X85532017Y-10293604D02*
X85841541Y-10293604D01*
X85841541Y-10293604D02*
X85965350Y-10355509D01*
X85965350Y-10355509D02*
X86027255Y-10417414D01*
X86027255Y-10417414D02*
X86089160Y-10541223D01*
X86089160Y-10541223D02*
X86089160Y-10665033D01*
X86089160Y-10665033D02*
X86027255Y-10850747D01*
X86027255Y-10850747D02*
X85284398Y-11593604D01*
X85284398Y-11593604D02*
X86089160Y-11593604D01*
D10*
D11*
X135284398Y-10293604D02*
X136089160Y-10293604D01*
X136089160Y-10293604D02*
X135655826Y-10788842D01*
X135655826Y-10788842D02*
X135841541Y-10788842D01*
X135841541Y-10788842D02*
X135965350Y-10850747D01*
X135965350Y-10850747D02*
X136027255Y-10912652D01*
X136027255Y-10912652D02*
X136089160Y-11036461D01*
X136089160Y-11036461D02*
X136089160Y-11345985D01*
X136089160Y-11345985D02*
X136027255Y-11469795D01*
X136027255Y-11469795D02*
X135965350Y-11531700D01*
X135965350Y-11531700D02*
X135841541Y-11593604D01*
X135841541Y-11593604D02*
X135470112Y-11593604D01*
X135470112Y-11593604D02*
X135346303Y-11531700D01*
X135346303Y-11531700D02*
X135284398Y-11469795D01*
D10*
D11*
X185965350Y-10726938D02*
X185965350Y-11593604D01*
X185655826Y-10231700D02*
X185346303Y-11160271D01*
X185346303Y-11160271D02*
X186151064Y-11160271D01*
D10*
D11*
X236027255Y-10293604D02*
X235408207Y-10293604D01*
X235408207Y-10293604D02*
X235346303Y-10912652D01*
X235346303Y-10912652D02*
X235408207Y-10850747D01*
X235408207Y-10850747D02*
X235532017Y-10788842D01*
X235532017Y-10788842D02*
X235841541Y-10788842D01*
X235841541Y-10788842D02*
X235965350Y-10850747D01*
X235965350Y-10850747D02*
X236027255Y-10912652D01*
X236027255Y-10912652D02*
X236089160Y-11036461D01*
X236089160Y-11036461D02*
X236089160Y-11345985D01*
X236089160Y-11345985D02*
X236027255Y-11469795D01*
X236027255Y-11469795D02*
X235965350Y-11531700D01*
X235965350Y-11531700D02*
X235841541Y-11593604D01*
X235841541Y-11593604D02*
X235532017Y-11593604D01*
X235532017Y-11593604D02*
X235408207Y-11531700D01*
X235408207Y-11531700D02*
X235346303Y-11469795D01*
D10*
D11*
X285965350Y-10293604D02*
X285717731Y-10293604D01*
X285717731Y-10293604D02*
X285593922Y-10355509D01*
X285593922Y-10355509D02*
X285532017Y-10417414D01*
X285532017Y-10417414D02*
X285408207Y-10603128D01*
X285408207Y-10603128D02*
X285346303Y-10850747D01*
X285346303Y-10850747D02*
X285346303Y-11345985D01*
X285346303Y-11345985D02*
X285408207Y-11469795D01*
X285408207Y-11469795D02*
X285470112Y-11531700D01*
X285470112Y-11531700D02*
X285593922Y-11593604D01*
X285593922Y-11593604D02*
X285841541Y-11593604D01*
X285841541Y-11593604D02*
X285965350Y-11531700D01*
X285965350Y-11531700D02*
X286027255Y-11469795D01*
X286027255Y-11469795D02*
X286089160Y-11345985D01*
X286089160Y-11345985D02*
X286089160Y-11036461D01*
X286089160Y-11036461D02*
X286027255Y-10912652D01*
X286027255Y-10912652D02*
X285965350Y-10850747D01*
X285965350Y-10850747D02*
X285841541Y-10788842D01*
X285841541Y-10788842D02*
X285593922Y-10788842D01*
X285593922Y-10788842D02*
X285470112Y-10850747D01*
X285470112Y-10850747D02*
X285408207Y-10912652D01*
X285408207Y-10912652D02*
X285346303Y-11036461D01*
D10*
D11*
X60000000Y-198007200D02*
X60000000Y-200007200D01*
D10*
D11*
X110000000Y-198007200D02*
X110000000Y-200007200D01*
D10*
D11*
X160000000Y-198007200D02*
X160000000Y-200007200D01*
D10*
D11*
X210000000Y-198007200D02*
X210000000Y-200007200D01*
D10*
D11*
X260000000Y-198007200D02*
X260000000Y-200007200D01*
D10*
D11*
X36089160Y-199600804D02*
X35346303Y-199600804D01*
X35717731Y-199600804D02*
X35717731Y-198300804D01*
X35717731Y-198300804D02*
X35593922Y-198486519D01*
X35593922Y-198486519D02*
X35470112Y-198610328D01*
X35470112Y-198610328D02*
X35346303Y-198672233D01*
D10*
D11*
X85346303Y-198424614D02*
X85408207Y-198362709D01*
X85408207Y-198362709D02*
X85532017Y-198300804D01*
X85532017Y-198300804D02*
X85841541Y-198300804D01*
X85841541Y-198300804D02*
X85965350Y-198362709D01*
X85965350Y-198362709D02*
X86027255Y-198424614D01*
X86027255Y-198424614D02*
X86089160Y-198548423D01*
X86089160Y-198548423D02*
X86089160Y-198672233D01*
X86089160Y-198672233D02*
X86027255Y-198857947D01*
X86027255Y-198857947D02*
X85284398Y-199600804D01*
X85284398Y-199600804D02*
X86089160Y-199600804D01*
D10*
D11*
X135284398Y-198300804D02*
X136089160Y-198300804D01*
X136089160Y-198300804D02*
X135655826Y-198796042D01*
X135655826Y-198796042D02*
X135841541Y-198796042D01*
X135841541Y-198796042D02*
X135965350Y-198857947D01*
X135965350Y-198857947D02*
X136027255Y-198919852D01*
X136027255Y-198919852D02*
X136089160Y-199043661D01*
X136089160Y-199043661D02*
X136089160Y-199353185D01*
X136089160Y-199353185D02*
X136027255Y-199476995D01*
X136027255Y-199476995D02*
X135965350Y-199538900D01*
X135965350Y-199538900D02*
X135841541Y-199600804D01*
X135841541Y-199600804D02*
X135470112Y-199600804D01*
X135470112Y-199600804D02*
X135346303Y-199538900D01*
X135346303Y-199538900D02*
X135284398Y-199476995D01*
D10*
D11*
X185965350Y-198734138D02*
X185965350Y-199600804D01*
X185655826Y-198238900D02*
X185346303Y-199167471D01*
X185346303Y-199167471D02*
X186151064Y-199167471D01*
D10*
D11*
X236027255Y-198300804D02*
X235408207Y-198300804D01*
X235408207Y-198300804D02*
X235346303Y-198919852D01*
X235346303Y-198919852D02*
X235408207Y-198857947D01*
X235408207Y-198857947D02*
X235532017Y-198796042D01*
X235532017Y-198796042D02*
X235841541Y-198796042D01*
X235841541Y-198796042D02*
X235965350Y-198857947D01*
X235965350Y-198857947D02*
X236027255Y-198919852D01*
X236027255Y-198919852D02*
X236089160Y-199043661D01*
X236089160Y-199043661D02*
X236089160Y-199353185D01*
X236089160Y-199353185D02*
X236027255Y-199476995D01*
X236027255Y-199476995D02*
X235965350Y-199538900D01*
X235965350Y-199538900D02*
X235841541Y-199600804D01*
X235841541Y-199600804D02*
X235532017Y-199600804D01*
X235532017Y-199600804D02*
X235408207Y-199538900D01*
X235408207Y-199538900D02*
X235346303Y-199476995D01*
D10*
D11*
X285965350Y-198300804D02*
X285717731Y-198300804D01*
X285717731Y-198300804D02*
X285593922Y-198362709D01*
X285593922Y-198362709D02*
X285532017Y-198424614D01*
X285532017Y-198424614D02*
X285408207Y-198610328D01*
X285408207Y-198610328D02*
X285346303Y-198857947D01*
X285346303Y-198857947D02*
X285346303Y-199353185D01*
X285346303Y-199353185D02*
X285408207Y-199476995D01*
X285408207Y-199476995D02*
X285470112Y-199538900D01*
X285470112Y-199538900D02*
X285593922Y-199600804D01*
X285593922Y-199600804D02*
X285841541Y-199600804D01*
X285841541Y-199600804D02*
X285965350Y-199538900D01*
X285965350Y-199538900D02*
X286027255Y-199476995D01*
X286027255Y-199476995D02*
X286089160Y-199353185D01*
X286089160Y-199353185D02*
X286089160Y-199043661D01*
X286089160Y-199043661D02*
X286027255Y-198919852D01*
X286027255Y-198919852D02*
X285965350Y-198857947D01*
X285965350Y-198857947D02*
X285841541Y-198796042D01*
X285841541Y-198796042D02*
X285593922Y-198796042D01*
X285593922Y-198796042D02*
X285470112Y-198857947D01*
X285470112Y-198857947D02*
X285408207Y-198919852D01*
X285408207Y-198919852D02*
X285346303Y-199043661D01*
D10*
D11*
X10000000Y-60000000D02*
X12000000Y-60000000D01*
D10*
D11*
X10000000Y-110000000D02*
X12000000Y-110000000D01*
D10*
D11*
X10000000Y-160000000D02*
X12000000Y-160000000D01*
D10*
D11*
X10690476Y-35222176D02*
X11309523Y-35222176D01*
X10566666Y-35593604D02*
X10999999Y-34293604D01*
X10999999Y-34293604D02*
X11433333Y-35593604D01*
D10*
D11*
X11092857Y-84912652D02*
X11278571Y-84974557D01*
X11278571Y-84974557D02*
X11340476Y-85036461D01*
X11340476Y-85036461D02*
X11402380Y-85160271D01*
X11402380Y-85160271D02*
X11402380Y-85345985D01*
X11402380Y-85345985D02*
X11340476Y-85469795D01*
X11340476Y-85469795D02*
X11278571Y-85531700D01*
X11278571Y-85531700D02*
X11154761Y-85593604D01*
X11154761Y-85593604D02*
X10659523Y-85593604D01*
X10659523Y-85593604D02*
X10659523Y-84293604D01*
X10659523Y-84293604D02*
X11092857Y-84293604D01*
X11092857Y-84293604D02*
X11216666Y-84355509D01*
X11216666Y-84355509D02*
X11278571Y-84417414D01*
X11278571Y-84417414D02*
X11340476Y-84541223D01*
X11340476Y-84541223D02*
X11340476Y-84665033D01*
X11340476Y-84665033D02*
X11278571Y-84788842D01*
X11278571Y-84788842D02*
X11216666Y-84850747D01*
X11216666Y-84850747D02*
X11092857Y-84912652D01*
X11092857Y-84912652D02*
X10659523Y-84912652D01*
D10*
D11*
X11402380Y-135469795D02*
X11340476Y-135531700D01*
X11340476Y-135531700D02*
X11154761Y-135593604D01*
X11154761Y-135593604D02*
X11030952Y-135593604D01*
X11030952Y-135593604D02*
X10845238Y-135531700D01*
X10845238Y-135531700D02*
X10721428Y-135407890D01*
X10721428Y-135407890D02*
X10659523Y-135284080D01*
X10659523Y-135284080D02*
X10597619Y-135036461D01*
X10597619Y-135036461D02*
X10597619Y-134850747D01*
X10597619Y-134850747D02*
X10659523Y-134603128D01*
X10659523Y-134603128D02*
X10721428Y-134479319D01*
X10721428Y-134479319D02*
X10845238Y-134355509D01*
X10845238Y-134355509D02*
X11030952Y-134293604D01*
X11030952Y-134293604D02*
X11154761Y-134293604D01*
X11154761Y-134293604D02*
X11340476Y-134355509D01*
X11340476Y-134355509D02*
X11402380Y-134417414D01*
D10*
D11*
X10659523Y-185593604D02*
X10659523Y-184293604D01*
X10659523Y-184293604D02*
X10969047Y-184293604D01*
X10969047Y-184293604D02*
X11154761Y-184355509D01*
X11154761Y-184355509D02*
X11278571Y-184479319D01*
X11278571Y-184479319D02*
X11340476Y-184603128D01*
X11340476Y-184603128D02*
X11402380Y-184850747D01*
X11402380Y-184850747D02*
X11402380Y-185036461D01*
X11402380Y-185036461D02*
X11340476Y-185284080D01*
X11340476Y-185284080D02*
X11278571Y-185407890D01*
X11278571Y-185407890D02*
X11154761Y-185531700D01*
X11154761Y-185531700D02*
X10969047Y-185593604D01*
X10969047Y-185593604D02*
X10659523Y-185593604D01*
D10*
D11*
X287002200Y-60000000D02*
X285002200Y-60000000D01*
D10*
D11*
X287002200Y-110000000D02*
X285002200Y-110000000D01*
D10*
D11*
X287002200Y-160000000D02*
X285002200Y-160000000D01*
D10*
D11*
X285692676Y-35222176D02*
X286311723Y-35222176D01*
X285568866Y-35593604D02*
X286002199Y-34293604D01*
X286002199Y-34293604D02*
X286435533Y-35593604D01*
D10*
D11*
X286095057Y-84912652D02*
X286280771Y-84974557D01*
X286280771Y-84974557D02*
X286342676Y-85036461D01*
X286342676Y-85036461D02*
X286404580Y-85160271D01*
X286404580Y-85160271D02*
X286404580Y-85345985D01*
X286404580Y-85345985D02*
X286342676Y-85469795D01*
X286342676Y-85469795D02*
X286280771Y-85531700D01*
X286280771Y-85531700D02*
X286156961Y-85593604D01*
X286156961Y-85593604D02*
X285661723Y-85593604D01*
X285661723Y-85593604D02*
X285661723Y-84293604D01*
X285661723Y-84293604D02*
X286095057Y-84293604D01*
X286095057Y-84293604D02*
X286218866Y-84355509D01*
X286218866Y-84355509D02*
X286280771Y-84417414D01*
X286280771Y-84417414D02*
X286342676Y-84541223D01*
X286342676Y-84541223D02*
X286342676Y-84665033D01*
X286342676Y-84665033D02*
X286280771Y-84788842D01*
X286280771Y-84788842D02*
X286218866Y-84850747D01*
X286218866Y-84850747D02*
X286095057Y-84912652D01*
X286095057Y-84912652D02*
X285661723Y-84912652D01*
D10*
D11*
X286404580Y-135469795D02*
X286342676Y-135531700D01*
X286342676Y-135531700D02*
X286156961Y-135593604D01*
X286156961Y-135593604D02*
X286033152Y-135593604D01*
X286033152Y-135593604D02*
X285847438Y-135531700D01*
X285847438Y-135531700D02*
X285723628Y-135407890D01*
X285723628Y-135407890D02*
X285661723Y-135284080D01*
X285661723Y-135284080D02*
X285599819Y-135036461D01*
X285599819Y-135036461D02*
X285599819Y-134850747D01*
X285599819Y-134850747D02*
X285661723Y-134603128D01*
X285661723Y-134603128D02*
X285723628Y-134479319D01*
X285723628Y-134479319D02*
X285847438Y-134355509D01*
X285847438Y-134355509D02*
X286033152Y-134293604D01*
X286033152Y-134293604D02*
X286156961Y-134293604D01*
X286156961Y-134293604D02*
X286342676Y-134355509D01*
X286342676Y-134355509D02*
X286404580Y-134417414D01*
D10*
D11*
X285661723Y-185593604D02*
X285661723Y-184293604D01*
X285661723Y-184293604D02*
X285971247Y-184293604D01*
X285971247Y-184293604D02*
X286156961Y-184355509D01*
X286156961Y-184355509D02*
X286280771Y-184479319D01*
X286280771Y-184479319D02*
X286342676Y-184603128D01*
X286342676Y-184603128D02*
X286404580Y-184850747D01*
X286404580Y-184850747D02*
X286404580Y-185036461D01*
X286404580Y-185036461D02*
X286342676Y-185284080D01*
X286342676Y-185284080D02*
X286280771Y-185407890D01*
X286280771Y-185407890D02*
X286156961Y-185531700D01*
X286156961Y-185531700D02*
X285971247Y-185593604D01*
X285971247Y-185593604D02*
X285661723Y-185593604D01*
D10*
D11*
X200458026Y-193793328D02*
X200458026Y-192293328D01*
X200458026Y-192293328D02*
X200815169Y-192293328D01*
X200815169Y-192293328D02*
X201029455Y-192364757D01*
X201029455Y-192364757D02*
X201172312Y-192507614D01*
X201172312Y-192507614D02*
X201243741Y-192650471D01*
X201243741Y-192650471D02*
X201315169Y-192936185D01*
X201315169Y-192936185D02*
X201315169Y-193150471D01*
X201315169Y-193150471D02*
X201243741Y-193436185D01*
X201243741Y-193436185D02*
X201172312Y-193579042D01*
X201172312Y-193579042D02*
X201029455Y-193721900D01*
X201029455Y-193721900D02*
X200815169Y-193793328D01*
X200815169Y-193793328D02*
X200458026Y-193793328D01*
X202600884Y-193793328D02*
X202600884Y-193007614D01*
X202600884Y-193007614D02*
X202529455Y-192864757D01*
X202529455Y-192864757D02*
X202386598Y-192793328D01*
X202386598Y-192793328D02*
X202100884Y-192793328D01*
X202100884Y-192793328D02*
X201958026Y-192864757D01*
X202600884Y-193721900D02*
X202458026Y-193793328D01*
X202458026Y-193793328D02*
X202100884Y-193793328D01*
X202100884Y-193793328D02*
X201958026Y-193721900D01*
X201958026Y-193721900D02*
X201886598Y-193579042D01*
X201886598Y-193579042D02*
X201886598Y-193436185D01*
X201886598Y-193436185D02*
X201958026Y-193293328D01*
X201958026Y-193293328D02*
X202100884Y-193221900D01*
X202100884Y-193221900D02*
X202458026Y-193221900D01*
X202458026Y-193221900D02*
X202600884Y-193150471D01*
X203100884Y-192793328D02*
X203672312Y-192793328D01*
X203315169Y-192293328D02*
X203315169Y-193579042D01*
X203315169Y-193579042D02*
X203386598Y-193721900D01*
X203386598Y-193721900D02*
X203529455Y-193793328D01*
X203529455Y-193793328D02*
X203672312Y-193793328D01*
X204743741Y-193721900D02*
X204600884Y-193793328D01*
X204600884Y-193793328D02*
X204315170Y-193793328D01*
X204315170Y-193793328D02*
X204172312Y-193721900D01*
X204172312Y-193721900D02*
X204100884Y-193579042D01*
X204100884Y-193579042D02*
X204100884Y-193007614D01*
X204100884Y-193007614D02*
X204172312Y-192864757D01*
X204172312Y-192864757D02*
X204315170Y-192793328D01*
X204315170Y-192793328D02*
X204600884Y-192793328D01*
X204600884Y-192793328D02*
X204743741Y-192864757D01*
X204743741Y-192864757D02*
X204815170Y-193007614D01*
X204815170Y-193007614D02*
X204815170Y-193150471D01*
X204815170Y-193150471D02*
X204100884Y-193293328D01*
X205458026Y-193650471D02*
X205529455Y-193721900D01*
X205529455Y-193721900D02*
X205458026Y-193793328D01*
X205458026Y-193793328D02*
X205386598Y-193721900D01*
X205386598Y-193721900D02*
X205458026Y-193650471D01*
X205458026Y-193650471D02*
X205458026Y-193793328D01*
X205458026Y-192864757D02*
X205529455Y-192936185D01*
X205529455Y-192936185D02*
X205458026Y-193007614D01*
X205458026Y-193007614D02*
X205386598Y-192936185D01*
X205386598Y-192936185D02*
X205458026Y-192864757D01*
X205458026Y-192864757D02*
X205458026Y-193007614D01*
X207243741Y-192436185D02*
X207315169Y-192364757D01*
X207315169Y-192364757D02*
X207458027Y-192293328D01*
X207458027Y-192293328D02*
X207815169Y-192293328D01*
X207815169Y-192293328D02*
X207958027Y-192364757D01*
X207958027Y-192364757D02*
X208029455Y-192436185D01*
X208029455Y-192436185D02*
X208100884Y-192579042D01*
X208100884Y-192579042D02*
X208100884Y-192721900D01*
X208100884Y-192721900D02*
X208029455Y-192936185D01*
X208029455Y-192936185D02*
X207172312Y-193793328D01*
X207172312Y-193793328D02*
X208100884Y-193793328D01*
X208600883Y-192293328D02*
X209529455Y-192293328D01*
X209529455Y-192293328D02*
X209029455Y-192864757D01*
X209029455Y-192864757D02*
X209243740Y-192864757D01*
X209243740Y-192864757D02*
X209386598Y-192936185D01*
X209386598Y-192936185D02*
X209458026Y-193007614D01*
X209458026Y-193007614D02*
X209529455Y-193150471D01*
X209529455Y-193150471D02*
X209529455Y-193507614D01*
X209529455Y-193507614D02*
X209458026Y-193650471D01*
X209458026Y-193650471D02*
X209386598Y-193721900D01*
X209386598Y-193721900D02*
X209243740Y-193793328D01*
X209243740Y-193793328D02*
X208815169Y-193793328D01*
X208815169Y-193793328D02*
X208672312Y-193721900D01*
X208672312Y-193721900D02*
X208600883Y-193650471D01*
X210172311Y-193221900D02*
X211315169Y-193221900D01*
X212315169Y-192293328D02*
X212458026Y-192293328D01*
X212458026Y-192293328D02*
X212600883Y-192364757D01*
X212600883Y-192364757D02*
X212672312Y-192436185D01*
X212672312Y-192436185D02*
X212743740Y-192579042D01*
X212743740Y-192579042D02*
X212815169Y-192864757D01*
X212815169Y-192864757D02*
X212815169Y-193221900D01*
X212815169Y-193221900D02*
X212743740Y-193507614D01*
X212743740Y-193507614D02*
X212672312Y-193650471D01*
X212672312Y-193650471D02*
X212600883Y-193721900D01*
X212600883Y-193721900D02*
X212458026Y-193793328D01*
X212458026Y-193793328D02*
X212315169Y-193793328D01*
X212315169Y-193793328D02*
X212172312Y-193721900D01*
X212172312Y-193721900D02*
X212100883Y-193650471D01*
X212100883Y-193650471D02*
X212029454Y-193507614D01*
X212029454Y-193507614D02*
X211958026Y-193221900D01*
X211958026Y-193221900D02*
X211958026Y-192864757D01*
X211958026Y-192864757D02*
X212029454Y-192579042D01*
X212029454Y-192579042D02*
X212100883Y-192436185D01*
X212100883Y-192436185D02*
X212172312Y-192364757D01*
X212172312Y-192364757D02*
X212315169Y-192293328D01*
X213315168Y-192293328D02*
X214315168Y-192293328D01*
X214315168Y-192293328D02*
X213672311Y-193793328D01*
X214886596Y-193221900D02*
X216029454Y-193221900D01*
X216672311Y-192436185D02*
X216743739Y-192364757D01*
X216743739Y-192364757D02*
X216886597Y-192293328D01*
X216886597Y-192293328D02*
X217243739Y-192293328D01*
X217243739Y-192293328D02*
X217386597Y-192364757D01*
X217386597Y-192364757D02*
X217458025Y-192436185D01*
X217458025Y-192436185D02*
X217529454Y-192579042D01*
X217529454Y-192579042D02*
X217529454Y-192721900D01*
X217529454Y-192721900D02*
X217458025Y-192936185D01*
X217458025Y-192936185D02*
X216600882Y-193793328D01*
X216600882Y-193793328D02*
X217529454Y-193793328D01*
X218458025Y-192293328D02*
X218600882Y-192293328D01*
X218600882Y-192293328D02*
X218743739Y-192364757D01*
X218743739Y-192364757D02*
X218815168Y-192436185D01*
X218815168Y-192436185D02*
X218886596Y-192579042D01*
X218886596Y-192579042D02*
X218958025Y-192864757D01*
X218958025Y-192864757D02*
X218958025Y-193221900D01*
X218958025Y-193221900D02*
X218886596Y-193507614D01*
X218886596Y-193507614D02*
X218815168Y-193650471D01*
X218815168Y-193650471D02*
X218743739Y-193721900D01*
X218743739Y-193721900D02*
X218600882Y-193793328D01*
X218600882Y-193793328D02*
X218458025Y-193793328D01*
X218458025Y-193793328D02*
X218315168Y-193721900D01*
X218315168Y-193721900D02*
X218243739Y-193650471D01*
X218243739Y-193650471D02*
X218172310Y-193507614D01*
X218172310Y-193507614D02*
X218100882Y-193221900D01*
X218100882Y-193221900D02*
X218100882Y-192864757D01*
X218100882Y-192864757D02*
X218172310Y-192579042D01*
X218172310Y-192579042D02*
X218243739Y-192436185D01*
X218243739Y-192436185D02*
X218315168Y-192364757D01*
X218315168Y-192364757D02*
X218458025Y-192293328D01*
X219529453Y-192436185D02*
X219600881Y-192364757D01*
X219600881Y-192364757D02*
X219743739Y-192293328D01*
X219743739Y-192293328D02*
X220100881Y-192293328D01*
X220100881Y-192293328D02*
X220243739Y-192364757D01*
X220243739Y-192364757D02*
X220315167Y-192436185D01*
X220315167Y-192436185D02*
X220386596Y-192579042D01*
X220386596Y-192579042D02*
X220386596Y-192721900D01*
X220386596Y-192721900D02*
X220315167Y-192936185D01*
X220315167Y-192936185D02*
X219458024Y-193793328D01*
X219458024Y-193793328D02*
X220386596Y-193793328D01*
X221743738Y-192293328D02*
X221029452Y-192293328D01*
X221029452Y-192293328D02*
X220958024Y-193007614D01*
X220958024Y-193007614D02*
X221029452Y-192936185D01*
X221029452Y-192936185D02*
X221172310Y-192864757D01*
X221172310Y-192864757D02*
X221529452Y-192864757D01*
X221529452Y-192864757D02*
X221672310Y-192936185D01*
X221672310Y-192936185D02*
X221743738Y-193007614D01*
X221743738Y-193007614D02*
X221815167Y-193150471D01*
X221815167Y-193150471D02*
X221815167Y-193507614D01*
X221815167Y-193507614D02*
X221743738Y-193650471D01*
X221743738Y-193650471D02*
X221672310Y-193721900D01*
X221672310Y-193721900D02*
X221529452Y-193793328D01*
X221529452Y-193793328D02*
X221172310Y-193793328D01*
X221172310Y-193793328D02*
X221029452Y-193721900D01*
X221029452Y-193721900D02*
X220958024Y-193650471D01*
D10*
D11*
X177002200Y-194507200D02*
X285002200Y-194507200D01*
D10*
D11*
X178458026Y-196593328D02*
X178458026Y-195093328D01*
X179315169Y-196593328D02*
X178672312Y-195736185D01*
X179315169Y-195093328D02*
X178458026Y-195950471D01*
X179958026Y-196593328D02*
X179958026Y-195593328D01*
X179958026Y-195093328D02*
X179886598Y-195164757D01*
X179886598Y-195164757D02*
X179958026Y-195236185D01*
X179958026Y-195236185D02*
X180029455Y-195164757D01*
X180029455Y-195164757D02*
X179958026Y-195093328D01*
X179958026Y-195093328D02*
X179958026Y-195236185D01*
X181529455Y-196450471D02*
X181458027Y-196521900D01*
X181458027Y-196521900D02*
X181243741Y-196593328D01*
X181243741Y-196593328D02*
X181100884Y-196593328D01*
X181100884Y-196593328D02*
X180886598Y-196521900D01*
X180886598Y-196521900D02*
X180743741Y-196379042D01*
X180743741Y-196379042D02*
X180672312Y-196236185D01*
X180672312Y-196236185D02*
X180600884Y-195950471D01*
X180600884Y-195950471D02*
X180600884Y-195736185D01*
X180600884Y-195736185D02*
X180672312Y-195450471D01*
X180672312Y-195450471D02*
X180743741Y-195307614D01*
X180743741Y-195307614D02*
X180886598Y-195164757D01*
X180886598Y-195164757D02*
X181100884Y-195093328D01*
X181100884Y-195093328D02*
X181243741Y-195093328D01*
X181243741Y-195093328D02*
X181458027Y-195164757D01*
X181458027Y-195164757D02*
X181529455Y-195236185D01*
X182815170Y-196593328D02*
X182815170Y-195807614D01*
X182815170Y-195807614D02*
X182743741Y-195664757D01*
X182743741Y-195664757D02*
X182600884Y-195593328D01*
X182600884Y-195593328D02*
X182315170Y-195593328D01*
X182315170Y-195593328D02*
X182172312Y-195664757D01*
X182815170Y-196521900D02*
X182672312Y-196593328D01*
X182672312Y-196593328D02*
X182315170Y-196593328D01*
X182315170Y-196593328D02*
X182172312Y-196521900D01*
X182172312Y-196521900D02*
X182100884Y-196379042D01*
X182100884Y-196379042D02*
X182100884Y-196236185D01*
X182100884Y-196236185D02*
X182172312Y-196093328D01*
X182172312Y-196093328D02*
X182315170Y-196021900D01*
X182315170Y-196021900D02*
X182672312Y-196021900D01*
X182672312Y-196021900D02*
X182815170Y-195950471D01*
X184172313Y-196593328D02*
X184172313Y-195093328D01*
X184172313Y-196521900D02*
X184029455Y-196593328D01*
X184029455Y-196593328D02*
X183743741Y-196593328D01*
X183743741Y-196593328D02*
X183600884Y-196521900D01*
X183600884Y-196521900D02*
X183529455Y-196450471D01*
X183529455Y-196450471D02*
X183458027Y-196307614D01*
X183458027Y-196307614D02*
X183458027Y-195879042D01*
X183458027Y-195879042D02*
X183529455Y-195736185D01*
X183529455Y-195736185D02*
X183600884Y-195664757D01*
X183600884Y-195664757D02*
X183743741Y-195593328D01*
X183743741Y-195593328D02*
X184029455Y-195593328D01*
X184029455Y-195593328D02*
X184172313Y-195664757D01*
X186029455Y-195807614D02*
X186529455Y-195807614D01*
X186743741Y-196593328D02*
X186029455Y-196593328D01*
X186029455Y-196593328D02*
X186029455Y-195093328D01*
X186029455Y-195093328D02*
X186743741Y-195093328D01*
X187386598Y-196450471D02*
X187458027Y-196521900D01*
X187458027Y-196521900D02*
X187386598Y-196593328D01*
X187386598Y-196593328D02*
X187315170Y-196521900D01*
X187315170Y-196521900D02*
X187386598Y-196450471D01*
X187386598Y-196450471D02*
X187386598Y-196593328D01*
X188100884Y-196593328D02*
X188100884Y-195093328D01*
X188100884Y-195093328D02*
X188458027Y-195093328D01*
X188458027Y-195093328D02*
X188672313Y-195164757D01*
X188672313Y-195164757D02*
X188815170Y-195307614D01*
X188815170Y-195307614D02*
X188886599Y-195450471D01*
X188886599Y-195450471D02*
X188958027Y-195736185D01*
X188958027Y-195736185D02*
X188958027Y-195950471D01*
X188958027Y-195950471D02*
X188886599Y-196236185D01*
X188886599Y-196236185D02*
X188815170Y-196379042D01*
X188815170Y-196379042D02*
X188672313Y-196521900D01*
X188672313Y-196521900D02*
X188458027Y-196593328D01*
X188458027Y-196593328D02*
X188100884Y-196593328D01*
X189600884Y-196450471D02*
X189672313Y-196521900D01*
X189672313Y-196521900D02*
X189600884Y-196593328D01*
X189600884Y-196593328D02*
X189529456Y-196521900D01*
X189529456Y-196521900D02*
X189600884Y-196450471D01*
X189600884Y-196450471D02*
X189600884Y-196593328D01*
X190243742Y-196164757D02*
X190958028Y-196164757D01*
X190100885Y-196593328D02*
X190600885Y-195093328D01*
X190600885Y-195093328D02*
X191100885Y-196593328D01*
X191600884Y-196450471D02*
X191672313Y-196521900D01*
X191672313Y-196521900D02*
X191600884Y-196593328D01*
X191600884Y-196593328D02*
X191529456Y-196521900D01*
X191529456Y-196521900D02*
X191600884Y-196450471D01*
X191600884Y-196450471D02*
X191600884Y-196593328D01*
X193529456Y-196593328D02*
X193815170Y-196593328D01*
X193815170Y-196593328D02*
X193958027Y-196521900D01*
X193958027Y-196521900D02*
X194029456Y-196450471D01*
X194029456Y-196450471D02*
X194172313Y-196236185D01*
X194172313Y-196236185D02*
X194243742Y-195950471D01*
X194243742Y-195950471D02*
X194243742Y-195379042D01*
X194243742Y-195379042D02*
X194172313Y-195236185D01*
X194172313Y-195236185D02*
X194100885Y-195164757D01*
X194100885Y-195164757D02*
X193958027Y-195093328D01*
X193958027Y-195093328D02*
X193672313Y-195093328D01*
X193672313Y-195093328D02*
X193529456Y-195164757D01*
X193529456Y-195164757D02*
X193458027Y-195236185D01*
X193458027Y-195236185D02*
X193386599Y-195379042D01*
X193386599Y-195379042D02*
X193386599Y-195736185D01*
X193386599Y-195736185D02*
X193458027Y-195879042D01*
X193458027Y-195879042D02*
X193529456Y-195950471D01*
X193529456Y-195950471D02*
X193672313Y-196021900D01*
X193672313Y-196021900D02*
X193958027Y-196021900D01*
X193958027Y-196021900D02*
X194100885Y-195950471D01*
X194100885Y-195950471D02*
X194172313Y-195879042D01*
X194172313Y-195879042D02*
X194243742Y-195736185D01*
X194886598Y-196450471D02*
X194958027Y-196521900D01*
X194958027Y-196521900D02*
X194886598Y-196593328D01*
X194886598Y-196593328D02*
X194815170Y-196521900D01*
X194815170Y-196521900D02*
X194886598Y-196450471D01*
X194886598Y-196450471D02*
X194886598Y-196593328D01*
X195886599Y-195093328D02*
X196029456Y-195093328D01*
X196029456Y-195093328D02*
X196172313Y-195164757D01*
X196172313Y-195164757D02*
X196243742Y-195236185D01*
X196243742Y-195236185D02*
X196315170Y-195379042D01*
X196315170Y-195379042D02*
X196386599Y-195664757D01*
X196386599Y-195664757D02*
X196386599Y-196021900D01*
X196386599Y-196021900D02*
X196315170Y-196307614D01*
X196315170Y-196307614D02*
X196243742Y-196450471D01*
X196243742Y-196450471D02*
X196172313Y-196521900D01*
X196172313Y-196521900D02*
X196029456Y-196593328D01*
X196029456Y-196593328D02*
X195886599Y-196593328D01*
X195886599Y-196593328D02*
X195743742Y-196521900D01*
X195743742Y-196521900D02*
X195672313Y-196450471D01*
X195672313Y-196450471D02*
X195600884Y-196307614D01*
X195600884Y-196307614D02*
X195529456Y-196021900D01*
X195529456Y-196021900D02*
X195529456Y-195664757D01*
X195529456Y-195664757D02*
X195600884Y-195379042D01*
X195600884Y-195379042D02*
X195672313Y-195236185D01*
X195672313Y-195236185D02*
X195743742Y-195164757D01*
X195743742Y-195164757D02*
X195886599Y-195093328D01*
X197029455Y-196450471D02*
X197100884Y-196521900D01*
X197100884Y-196521900D02*
X197029455Y-196593328D01*
X197029455Y-196593328D02*
X196958027Y-196521900D01*
X196958027Y-196521900D02*
X197029455Y-196450471D01*
X197029455Y-196450471D02*
X197029455Y-196593328D01*
X197600884Y-195093328D02*
X198529456Y-195093328D01*
X198529456Y-195093328D02*
X198029456Y-195664757D01*
X198029456Y-195664757D02*
X198243741Y-195664757D01*
X198243741Y-195664757D02*
X198386599Y-195736185D01*
X198386599Y-195736185D02*
X198458027Y-195807614D01*
X198458027Y-195807614D02*
X198529456Y-195950471D01*
X198529456Y-195950471D02*
X198529456Y-196307614D01*
X198529456Y-196307614D02*
X198458027Y-196450471D01*
X198458027Y-196450471D02*
X198386599Y-196521900D01*
X198386599Y-196521900D02*
X198243741Y-196593328D01*
X198243741Y-196593328D02*
X197815170Y-196593328D01*
X197815170Y-196593328D02*
X197672313Y-196521900D01*
X197672313Y-196521900D02*
X197600884Y-196450471D01*
D10*
D11*
X177002200Y-191507200D02*
X285002200Y-191507200D01*
D10*
D12*
X264413853Y-193785528D02*
X263913853Y-193071242D01*
X263556710Y-193785528D02*
X263556710Y-192285528D01*
X263556710Y-192285528D02*
X264128139Y-192285528D01*
X264128139Y-192285528D02*
X264270996Y-192356957D01*
X264270996Y-192356957D02*
X264342425Y-192428385D01*
X264342425Y-192428385D02*
X264413853Y-192571242D01*
X264413853Y-192571242D02*
X264413853Y-192785528D01*
X264413853Y-192785528D02*
X264342425Y-192928385D01*
X264342425Y-192928385D02*
X264270996Y-192999814D01*
X264270996Y-192999814D02*
X264128139Y-193071242D01*
X264128139Y-193071242D02*
X263556710Y-193071242D01*
X265628139Y-193714100D02*
X265485282Y-193785528D01*
X265485282Y-193785528D02*
X265199568Y-193785528D01*
X265199568Y-193785528D02*
X265056710Y-193714100D01*
X265056710Y-193714100D02*
X264985282Y-193571242D01*
X264985282Y-193571242D02*
X264985282Y-192999814D01*
X264985282Y-192999814D02*
X265056710Y-192856957D01*
X265056710Y-192856957D02*
X265199568Y-192785528D01*
X265199568Y-192785528D02*
X265485282Y-192785528D01*
X265485282Y-192785528D02*
X265628139Y-192856957D01*
X265628139Y-192856957D02*
X265699568Y-192999814D01*
X265699568Y-192999814D02*
X265699568Y-193142671D01*
X265699568Y-193142671D02*
X264985282Y-193285528D01*
X266199567Y-192785528D02*
X266556710Y-193785528D01*
X266556710Y-193785528D02*
X266913853Y-192785528D01*
X267485281Y-193642671D02*
X267556710Y-193714100D01*
X267556710Y-193714100D02*
X267485281Y-193785528D01*
X267485281Y-193785528D02*
X267413853Y-193714100D01*
X267413853Y-193714100D02*
X267485281Y-193642671D01*
X267485281Y-193642671D02*
X267485281Y-193785528D01*
X267485281Y-192856957D02*
X267556710Y-192928385D01*
X267556710Y-192928385D02*
X267485281Y-192999814D01*
X267485281Y-192999814D02*
X267413853Y-192928385D01*
X267413853Y-192928385D02*
X267485281Y-192856957D01*
X267485281Y-192856957D02*
X267485281Y-192999814D01*
X269199567Y-192785528D02*
X269556710Y-193785528D01*
X269556710Y-193785528D02*
X269913853Y-192785528D01*
X271270996Y-193785528D02*
X270413853Y-193785528D01*
X270842424Y-193785528D02*
X270842424Y-192285528D01*
X270842424Y-192285528D02*
X270699567Y-192499814D01*
X270699567Y-192499814D02*
X270556710Y-192642671D01*
X270556710Y-192642671D02*
X270413853Y-192714100D01*
X271913852Y-193642671D02*
X271985281Y-193714100D01*
X271985281Y-193714100D02*
X271913852Y-193785528D01*
X271913852Y-193785528D02*
X271842424Y-193714100D01*
X271842424Y-193714100D02*
X271913852Y-193642671D01*
X271913852Y-193642671D02*
X271913852Y-193785528D01*
X272913853Y-192285528D02*
X273056710Y-192285528D01*
X273056710Y-192285528D02*
X273199567Y-192356957D01*
X273199567Y-192356957D02*
X273270996Y-192428385D01*
X273270996Y-192428385D02*
X273342424Y-192571242D01*
X273342424Y-192571242D02*
X273413853Y-192856957D01*
X273413853Y-192856957D02*
X273413853Y-193214100D01*
X273413853Y-193214100D02*
X273342424Y-193499814D01*
X273342424Y-193499814D02*
X273270996Y-193642671D01*
X273270996Y-193642671D02*
X273199567Y-193714100D01*
X273199567Y-193714100D02*
X273056710Y-193785528D01*
X273056710Y-193785528D02*
X272913853Y-193785528D01*
X272913853Y-193785528D02*
X272770996Y-193714100D01*
X272770996Y-193714100D02*
X272699567Y-193642671D01*
X272699567Y-193642671D02*
X272628138Y-193499814D01*
X272628138Y-193499814D02*
X272556710Y-193214100D01*
X272556710Y-193214100D02*
X272556710Y-192856957D01*
X272556710Y-192856957D02*
X272628138Y-192571242D01*
X272628138Y-192571242D02*
X272699567Y-192428385D01*
X272699567Y-192428385D02*
X272770996Y-192356957D01*
X272770996Y-192356957D02*
X272913853Y-192285528D01*
D10*
D11*
X178386598Y-193721900D02*
X178600884Y-193793328D01*
X178600884Y-193793328D02*
X178958026Y-193793328D01*
X178958026Y-193793328D02*
X179100884Y-193721900D01*
X179100884Y-193721900D02*
X179172312Y-193650471D01*
X179172312Y-193650471D02*
X179243741Y-193507614D01*
X179243741Y-193507614D02*
X179243741Y-193364757D01*
X179243741Y-193364757D02*
X179172312Y-193221900D01*
X179172312Y-193221900D02*
X179100884Y-193150471D01*
X179100884Y-193150471D02*
X178958026Y-193079042D01*
X178958026Y-193079042D02*
X178672312Y-193007614D01*
X178672312Y-193007614D02*
X178529455Y-192936185D01*
X178529455Y-192936185D02*
X178458026Y-192864757D01*
X178458026Y-192864757D02*
X178386598Y-192721900D01*
X178386598Y-192721900D02*
X178386598Y-192579042D01*
X178386598Y-192579042D02*
X178458026Y-192436185D01*
X178458026Y-192436185D02*
X178529455Y-192364757D01*
X178529455Y-192364757D02*
X178672312Y-192293328D01*
X178672312Y-192293328D02*
X179029455Y-192293328D01*
X179029455Y-192293328D02*
X179243741Y-192364757D01*
X179886597Y-193793328D02*
X179886597Y-192793328D01*
X179886597Y-192293328D02*
X179815169Y-192364757D01*
X179815169Y-192364757D02*
X179886597Y-192436185D01*
X179886597Y-192436185D02*
X179958026Y-192364757D01*
X179958026Y-192364757D02*
X179886597Y-192293328D01*
X179886597Y-192293328D02*
X179886597Y-192436185D01*
X180458026Y-192793328D02*
X181243741Y-192793328D01*
X181243741Y-192793328D02*
X180458026Y-193793328D01*
X180458026Y-193793328D02*
X181243741Y-193793328D01*
X182386598Y-193721900D02*
X182243741Y-193793328D01*
X182243741Y-193793328D02*
X181958027Y-193793328D01*
X181958027Y-193793328D02*
X181815169Y-193721900D01*
X181815169Y-193721900D02*
X181743741Y-193579042D01*
X181743741Y-193579042D02*
X181743741Y-193007614D01*
X181743741Y-193007614D02*
X181815169Y-192864757D01*
X181815169Y-192864757D02*
X181958027Y-192793328D01*
X181958027Y-192793328D02*
X182243741Y-192793328D01*
X182243741Y-192793328D02*
X182386598Y-192864757D01*
X182386598Y-192864757D02*
X182458027Y-193007614D01*
X182458027Y-193007614D02*
X182458027Y-193150471D01*
X182458027Y-193150471D02*
X181743741Y-193293328D01*
X183100883Y-193650471D02*
X183172312Y-193721900D01*
X183172312Y-193721900D02*
X183100883Y-193793328D01*
X183100883Y-193793328D02*
X183029455Y-193721900D01*
X183029455Y-193721900D02*
X183100883Y-193650471D01*
X183100883Y-193650471D02*
X183100883Y-193793328D01*
X183100883Y-192864757D02*
X183172312Y-192936185D01*
X183172312Y-192936185D02*
X183100883Y-193007614D01*
X183100883Y-193007614D02*
X183029455Y-192936185D01*
X183029455Y-192936185D02*
X183100883Y-192864757D01*
X183100883Y-192864757D02*
X183100883Y-193007614D01*
X184886598Y-193364757D02*
X185600884Y-193364757D01*
X184743741Y-193793328D02*
X185243741Y-192293328D01*
X185243741Y-192293328D02*
X185743741Y-193793328D01*
X186886598Y-192793328D02*
X186886598Y-193793328D01*
X186529455Y-192221900D02*
X186172312Y-193293328D01*
X186172312Y-193293328D02*
X187100883Y-193293328D01*
D10*
D11*
X263458026Y-196593328D02*
X263458026Y-195093328D01*
X264815170Y-196593328D02*
X264815170Y-195093328D01*
X264815170Y-196521900D02*
X264672312Y-196593328D01*
X264672312Y-196593328D02*
X264386598Y-196593328D01*
X264386598Y-196593328D02*
X264243741Y-196521900D01*
X264243741Y-196521900D02*
X264172312Y-196450471D01*
X264172312Y-196450471D02*
X264100884Y-196307614D01*
X264100884Y-196307614D02*
X264100884Y-195879042D01*
X264100884Y-195879042D02*
X264172312Y-195736185D01*
X264172312Y-195736185D02*
X264243741Y-195664757D01*
X264243741Y-195664757D02*
X264386598Y-195593328D01*
X264386598Y-195593328D02*
X264672312Y-195593328D01*
X264672312Y-195593328D02*
X264815170Y-195664757D01*
X265529455Y-196450471D02*
X265600884Y-196521900D01*
X265600884Y-196521900D02*
X265529455Y-196593328D01*
X265529455Y-196593328D02*
X265458027Y-196521900D01*
X265458027Y-196521900D02*
X265529455Y-196450471D01*
X265529455Y-196450471D02*
X265529455Y-196593328D01*
X265529455Y-195664757D02*
X265600884Y-195736185D01*
X265600884Y-195736185D02*
X265529455Y-195807614D01*
X265529455Y-195807614D02*
X265458027Y-195736185D01*
X265458027Y-195736185D02*
X265529455Y-195664757D01*
X265529455Y-195664757D02*
X265529455Y-195807614D01*
X267458027Y-196593328D02*
X267743741Y-196593328D01*
X267743741Y-196593328D02*
X267886598Y-196521900D01*
X267886598Y-196521900D02*
X267958027Y-196450471D01*
X267958027Y-196450471D02*
X268100884Y-196236185D01*
X268100884Y-196236185D02*
X268172313Y-195950471D01*
X268172313Y-195950471D02*
X268172313Y-195379042D01*
X268172313Y-195379042D02*
X268100884Y-195236185D01*
X268100884Y-195236185D02*
X268029456Y-195164757D01*
X268029456Y-195164757D02*
X267886598Y-195093328D01*
X267886598Y-195093328D02*
X267600884Y-195093328D01*
X267600884Y-195093328D02*
X267458027Y-195164757D01*
X267458027Y-195164757D02*
X267386598Y-195236185D01*
X267386598Y-195236185D02*
X267315170Y-195379042D01*
X267315170Y-195379042D02*
X267315170Y-195736185D01*
X267315170Y-195736185D02*
X267386598Y-195879042D01*
X267386598Y-195879042D02*
X267458027Y-195950471D01*
X267458027Y-195950471D02*
X267600884Y-196021900D01*
X267600884Y-196021900D02*
X267886598Y-196021900D01*
X267886598Y-196021900D02*
X268029456Y-195950471D01*
X268029456Y-195950471D02*
X268100884Y-195879042D01*
X268100884Y-195879042D02*
X268172313Y-195736185D01*
X269886598Y-195021900D02*
X268600884Y-196950471D01*
X270458027Y-196593328D02*
X270743741Y-196593328D01*
X270743741Y-196593328D02*
X270886598Y-196521900D01*
X270886598Y-196521900D02*
X270958027Y-196450471D01*
X270958027Y-196450471D02*
X271100884Y-196236185D01*
X271100884Y-196236185D02*
X271172313Y-195950471D01*
X271172313Y-195950471D02*
X271172313Y-195379042D01*
X271172313Y-195379042D02*
X271100884Y-195236185D01*
X271100884Y-195236185D02*
X271029456Y-195164757D01*
X271029456Y-195164757D02*
X270886598Y-195093328D01*
X270886598Y-195093328D02*
X270600884Y-195093328D01*
X270600884Y-195093328D02*
X270458027Y-195164757D01*
X270458027Y-195164757D02*
X270386598Y-195236185D01*
X270386598Y-195236185D02*
X270315170Y-195379042D01*
X270315170Y-195379042D02*
X270315170Y-195736185D01*
X270315170Y-195736185D02*
X270386598Y-195879042D01*
X270386598Y-195879042D02*
X270458027Y-195950471D01*
X270458027Y-195950471D02*
X270600884Y-196021900D01*
X270600884Y-196021900D02*
X270886598Y-196021900D01*
X270886598Y-196021900D02*
X271029456Y-195950471D01*
X271029456Y-195950471D02*
X271100884Y-195879042D01*
X271100884Y-195879042D02*
X271172313Y-195736185D01*
D10*
D11*
X177002200Y-187507200D02*
X285002200Y-187507200D01*
D10*
D13*
X178693928Y-188211638D02*
X179836785Y-188211638D01*
X179015357Y-190211638D02*
X179265357Y-188211638D01*
X180253452Y-190211638D02*
X180420119Y-188878304D01*
X180503452Y-188211638D02*
X180396309Y-188306876D01*
X180396309Y-188306876D02*
X180479643Y-188402114D01*
X180479643Y-188402114D02*
X180586786Y-188306876D01*
X180586786Y-188306876D02*
X180503452Y-188211638D01*
X180503452Y-188211638D02*
X180479643Y-188402114D01*
X181086786Y-188878304D02*
X181848690Y-188878304D01*
X181455833Y-188211638D02*
X181241548Y-189925923D01*
X181241548Y-189925923D02*
X181312976Y-190116400D01*
X181312976Y-190116400D02*
X181491548Y-190211638D01*
X181491548Y-190211638D02*
X181682024Y-190211638D01*
X182634405Y-190211638D02*
X182455833Y-190116400D01*
X182455833Y-190116400D02*
X182384405Y-189925923D01*
X182384405Y-189925923D02*
X182598690Y-188211638D01*
X184170119Y-190116400D02*
X183967738Y-190211638D01*
X183967738Y-190211638D02*
X183586785Y-190211638D01*
X183586785Y-190211638D02*
X183408214Y-190116400D01*
X183408214Y-190116400D02*
X183336785Y-189925923D01*
X183336785Y-189925923D02*
X183432024Y-189164019D01*
X183432024Y-189164019D02*
X183551071Y-188973542D01*
X183551071Y-188973542D02*
X183753452Y-188878304D01*
X183753452Y-188878304D02*
X184134404Y-188878304D01*
X184134404Y-188878304D02*
X184312976Y-188973542D01*
X184312976Y-188973542D02*
X184384404Y-189164019D01*
X184384404Y-189164019D02*
X184360595Y-189354495D01*
X184360595Y-189354495D02*
X183384404Y-189544971D01*
X185134405Y-190021161D02*
X185217738Y-190116400D01*
X185217738Y-190116400D02*
X185110595Y-190211638D01*
X185110595Y-190211638D02*
X185027262Y-190116400D01*
X185027262Y-190116400D02*
X185134405Y-190021161D01*
X185134405Y-190021161D02*
X185110595Y-190211638D01*
X185265357Y-188973542D02*
X185348690Y-189068780D01*
X185348690Y-189068780D02*
X185241548Y-189164019D01*
X185241548Y-189164019D02*
X185158214Y-189068780D01*
X185158214Y-189068780D02*
X185265357Y-188973542D01*
X185265357Y-188973542D02*
X185241548Y-189164019D01*
X187836786Y-188211638D02*
X187634405Y-189830685D01*
X187634405Y-189830685D02*
X187705834Y-190021161D01*
X187705834Y-190021161D02*
X187789167Y-190116400D01*
X187789167Y-190116400D02*
X187967739Y-190211638D01*
X187967739Y-190211638D02*
X188348691Y-190211638D01*
X188348691Y-190211638D02*
X188551072Y-190116400D01*
X188551072Y-190116400D02*
X188658215Y-190021161D01*
X188658215Y-190021161D02*
X188777262Y-189830685D01*
X188777262Y-189830685D02*
X188979643Y-188211638D01*
X189598691Y-190116400D02*
X189872500Y-190211638D01*
X189872500Y-190211638D02*
X190348691Y-190211638D01*
X190348691Y-190211638D02*
X190551072Y-190116400D01*
X190551072Y-190116400D02*
X190658215Y-190021161D01*
X190658215Y-190021161D02*
X190777262Y-189830685D01*
X190777262Y-189830685D02*
X190801072Y-189640209D01*
X190801072Y-189640209D02*
X190729643Y-189449733D01*
X190729643Y-189449733D02*
X190646310Y-189354495D01*
X190646310Y-189354495D02*
X190467739Y-189259257D01*
X190467739Y-189259257D02*
X190098691Y-189164019D01*
X190098691Y-189164019D02*
X189920119Y-189068780D01*
X189920119Y-189068780D02*
X189836786Y-188973542D01*
X189836786Y-188973542D02*
X189765358Y-188783066D01*
X189765358Y-188783066D02*
X189789167Y-188592590D01*
X189789167Y-188592590D02*
X189908215Y-188402114D01*
X189908215Y-188402114D02*
X190015358Y-188306876D01*
X190015358Y-188306876D02*
X190217739Y-188211638D01*
X190217739Y-188211638D02*
X190693929Y-188211638D01*
X190693929Y-188211638D02*
X190967739Y-188306876D01*
X192384405Y-189164019D02*
X192658215Y-189259257D01*
X192658215Y-189259257D02*
X192741548Y-189354495D01*
X192741548Y-189354495D02*
X192812977Y-189544971D01*
X192812977Y-189544971D02*
X192777262Y-189830685D01*
X192777262Y-189830685D02*
X192658215Y-190021161D01*
X192658215Y-190021161D02*
X192551072Y-190116400D01*
X192551072Y-190116400D02*
X192348691Y-190211638D01*
X192348691Y-190211638D02*
X191586786Y-190211638D01*
X191586786Y-190211638D02*
X191836786Y-188211638D01*
X191836786Y-188211638D02*
X192503453Y-188211638D01*
X192503453Y-188211638D02*
X192682024Y-188306876D01*
X192682024Y-188306876D02*
X192765358Y-188402114D01*
X192765358Y-188402114D02*
X192836786Y-188592590D01*
X192836786Y-188592590D02*
X192812977Y-188783066D01*
X192812977Y-188783066D02*
X192693929Y-188973542D01*
X192693929Y-188973542D02*
X192586786Y-189068780D01*
X192586786Y-189068780D02*
X192384405Y-189164019D01*
X192384405Y-189164019D02*
X191717739Y-189164019D01*
X193467739Y-188878304D02*
X194229643Y-188878304D01*
X193836786Y-188211638D02*
X193622501Y-189925923D01*
X193622501Y-189925923D02*
X193693929Y-190116400D01*
X193693929Y-190116400D02*
X193872501Y-190211638D01*
X193872501Y-190211638D02*
X194062977Y-190211638D01*
X195015358Y-190211638D02*
X194836786Y-190116400D01*
X194836786Y-190116400D02*
X194753453Y-190021161D01*
X194753453Y-190021161D02*
X194682024Y-189830685D01*
X194682024Y-189830685D02*
X194753453Y-189259257D01*
X194753453Y-189259257D02*
X194872500Y-189068780D01*
X194872500Y-189068780D02*
X194979643Y-188973542D01*
X194979643Y-188973542D02*
X195182024Y-188878304D01*
X195182024Y-188878304D02*
X195467738Y-188878304D01*
X195467738Y-188878304D02*
X195646310Y-188973542D01*
X195646310Y-188973542D02*
X195729643Y-189068780D01*
X195729643Y-189068780D02*
X195801072Y-189259257D01*
X195801072Y-189259257D02*
X195729643Y-189830685D01*
X195729643Y-189830685D02*
X195610596Y-190021161D01*
X195610596Y-190021161D02*
X195503453Y-190116400D01*
X195503453Y-190116400D02*
X195301072Y-190211638D01*
X195301072Y-190211638D02*
X195015358Y-190211638D01*
X196789167Y-188211638D02*
X196586786Y-189830685D01*
X196586786Y-189830685D02*
X196658215Y-190021161D01*
X196658215Y-190021161D02*
X196741548Y-190116400D01*
X196741548Y-190116400D02*
X196920120Y-190211638D01*
X196920120Y-190211638D02*
X197301072Y-190211638D01*
X197301072Y-190211638D02*
X197503453Y-190116400D01*
X197503453Y-190116400D02*
X197610596Y-190021161D01*
X197610596Y-190021161D02*
X197729643Y-189830685D01*
X197729643Y-189830685D02*
X197932024Y-188211638D01*
X198610596Y-189640209D02*
X199562977Y-189640209D01*
X198348691Y-190211638D02*
X199265358Y-188211638D01*
X199265358Y-188211638D02*
X199682024Y-190211638D01*
X201491548Y-190211638D02*
X200943929Y-189259257D01*
X200348691Y-190211638D02*
X200598691Y-188211638D01*
X200598691Y-188211638D02*
X201360596Y-188211638D01*
X201360596Y-188211638D02*
X201539167Y-188306876D01*
X201539167Y-188306876D02*
X201622501Y-188402114D01*
X201622501Y-188402114D02*
X201693929Y-188592590D01*
X201693929Y-188592590D02*
X201658215Y-188878304D01*
X201658215Y-188878304D02*
X201539167Y-189068780D01*
X201539167Y-189068780D02*
X201432025Y-189164019D01*
X201432025Y-189164019D02*
X201229644Y-189259257D01*
X201229644Y-189259257D02*
X200467739Y-189259257D01*
X202312977Y-188211638D02*
X203455834Y-188211638D01*
X202634406Y-190211638D02*
X202884406Y-188211638D01*
D10*
D11*
X178958026Y-185607614D02*
X178458026Y-185607614D01*
X178458026Y-186393328D02*
X178458026Y-184893328D01*
X178458026Y-184893328D02*
X179172312Y-184893328D01*
X179743740Y-186393328D02*
X179743740Y-185393328D01*
X179743740Y-184893328D02*
X179672312Y-184964757D01*
X179672312Y-184964757D02*
X179743740Y-185036185D01*
X179743740Y-185036185D02*
X179815169Y-184964757D01*
X179815169Y-184964757D02*
X179743740Y-184893328D01*
X179743740Y-184893328D02*
X179743740Y-185036185D01*
X180672312Y-186393328D02*
X180529455Y-186321900D01*
X180529455Y-186321900D02*
X180458026Y-186179042D01*
X180458026Y-186179042D02*
X180458026Y-184893328D01*
X181815169Y-186321900D02*
X181672312Y-186393328D01*
X181672312Y-186393328D02*
X181386598Y-186393328D01*
X181386598Y-186393328D02*
X181243740Y-186321900D01*
X181243740Y-186321900D02*
X181172312Y-186179042D01*
X181172312Y-186179042D02*
X181172312Y-185607614D01*
X181172312Y-185607614D02*
X181243740Y-185464757D01*
X181243740Y-185464757D02*
X181386598Y-185393328D01*
X181386598Y-185393328D02*
X181672312Y-185393328D01*
X181672312Y-185393328D02*
X181815169Y-185464757D01*
X181815169Y-185464757D02*
X181886598Y-185607614D01*
X181886598Y-185607614D02*
X181886598Y-185750471D01*
X181886598Y-185750471D02*
X181172312Y-185893328D01*
X182529454Y-186250471D02*
X182600883Y-186321900D01*
X182600883Y-186321900D02*
X182529454Y-186393328D01*
X182529454Y-186393328D02*
X182458026Y-186321900D01*
X182458026Y-186321900D02*
X182529454Y-186250471D01*
X182529454Y-186250471D02*
X182529454Y-186393328D01*
X182529454Y-185464757D02*
X182600883Y-185536185D01*
X182600883Y-185536185D02*
X182529454Y-185607614D01*
X182529454Y-185607614D02*
X182458026Y-185536185D01*
X182458026Y-185536185D02*
X182529454Y-185464757D01*
X182529454Y-185464757D02*
X182529454Y-185607614D01*
X184386597Y-184893328D02*
X184386597Y-186107614D01*
X184386597Y-186107614D02*
X184458026Y-186250471D01*
X184458026Y-186250471D02*
X184529455Y-186321900D01*
X184529455Y-186321900D02*
X184672312Y-186393328D01*
X184672312Y-186393328D02*
X184958026Y-186393328D01*
X184958026Y-186393328D02*
X185100883Y-186321900D01*
X185100883Y-186321900D02*
X185172312Y-186250471D01*
X185172312Y-186250471D02*
X185243740Y-186107614D01*
X185243740Y-186107614D02*
X185243740Y-184893328D01*
X185886598Y-186321900D02*
X186100884Y-186393328D01*
X186100884Y-186393328D02*
X186458026Y-186393328D01*
X186458026Y-186393328D02*
X186600884Y-186321900D01*
X186600884Y-186321900D02*
X186672312Y-186250471D01*
X186672312Y-186250471D02*
X186743741Y-186107614D01*
X186743741Y-186107614D02*
X186743741Y-185964757D01*
X186743741Y-185964757D02*
X186672312Y-185821900D01*
X186672312Y-185821900D02*
X186600884Y-185750471D01*
X186600884Y-185750471D02*
X186458026Y-185679042D01*
X186458026Y-185679042D02*
X186172312Y-185607614D01*
X186172312Y-185607614D02*
X186029455Y-185536185D01*
X186029455Y-185536185D02*
X185958026Y-185464757D01*
X185958026Y-185464757D02*
X185886598Y-185321900D01*
X185886598Y-185321900D02*
X185886598Y-185179042D01*
X185886598Y-185179042D02*
X185958026Y-185036185D01*
X185958026Y-185036185D02*
X186029455Y-184964757D01*
X186029455Y-184964757D02*
X186172312Y-184893328D01*
X186172312Y-184893328D02*
X186529455Y-184893328D01*
X186529455Y-184893328D02*
X186743741Y-184964757D01*
X187886597Y-185607614D02*
X188100883Y-185679042D01*
X188100883Y-185679042D02*
X188172312Y-185750471D01*
X188172312Y-185750471D02*
X188243740Y-185893328D01*
X188243740Y-185893328D02*
X188243740Y-186107614D01*
X188243740Y-186107614D02*
X188172312Y-186250471D01*
X188172312Y-186250471D02*
X188100883Y-186321900D01*
X188100883Y-186321900D02*
X187958026Y-186393328D01*
X187958026Y-186393328D02*
X187386597Y-186393328D01*
X187386597Y-186393328D02*
X187386597Y-184893328D01*
X187386597Y-184893328D02*
X187886597Y-184893328D01*
X187886597Y-184893328D02*
X188029455Y-184964757D01*
X188029455Y-184964757D02*
X188100883Y-185036185D01*
X188100883Y-185036185D02*
X188172312Y-185179042D01*
X188172312Y-185179042D02*
X188172312Y-185321900D01*
X188172312Y-185321900D02*
X188100883Y-185464757D01*
X188100883Y-185464757D02*
X188029455Y-185536185D01*
X188029455Y-185536185D02*
X187886597Y-185607614D01*
X187886597Y-185607614D02*
X187386597Y-185607614D01*
X188672312Y-185393328D02*
X189243740Y-185393328D01*
X188886597Y-184893328D02*
X188886597Y-186179042D01*
X188886597Y-186179042D02*
X188958026Y-186321900D01*
X188958026Y-186321900D02*
X189100883Y-186393328D01*
X189100883Y-186393328D02*
X189243740Y-186393328D01*
X189958026Y-186393328D02*
X189815169Y-186321900D01*
X189815169Y-186321900D02*
X189743740Y-186250471D01*
X189743740Y-186250471D02*
X189672312Y-186107614D01*
X189672312Y-186107614D02*
X189672312Y-185679042D01*
X189672312Y-185679042D02*
X189743740Y-185536185D01*
X189743740Y-185536185D02*
X189815169Y-185464757D01*
X189815169Y-185464757D02*
X189958026Y-185393328D01*
X189958026Y-185393328D02*
X190172312Y-185393328D01*
X190172312Y-185393328D02*
X190315169Y-185464757D01*
X190315169Y-185464757D02*
X190386598Y-185536185D01*
X190386598Y-185536185D02*
X190458026Y-185679042D01*
X190458026Y-185679042D02*
X190458026Y-186107614D01*
X190458026Y-186107614D02*
X190386598Y-186250471D01*
X190386598Y-186250471D02*
X190315169Y-186321900D01*
X190315169Y-186321900D02*
X190172312Y-186393328D01*
X190172312Y-186393328D02*
X189958026Y-186393328D01*
X191100883Y-184893328D02*
X191100883Y-186107614D01*
X191100883Y-186107614D02*
X191172312Y-186250471D01*
X191172312Y-186250471D02*
X191243741Y-186321900D01*
X191243741Y-186321900D02*
X191386598Y-186393328D01*
X191386598Y-186393328D02*
X191672312Y-186393328D01*
X191672312Y-186393328D02*
X191815169Y-186321900D01*
X191815169Y-186321900D02*
X191886598Y-186250471D01*
X191886598Y-186250471D02*
X191958026Y-186107614D01*
X191958026Y-186107614D02*
X191958026Y-184893328D01*
X192600884Y-185964757D02*
X193315170Y-185964757D01*
X192458027Y-186393328D02*
X192958027Y-184893328D01*
X192958027Y-184893328D02*
X193458027Y-186393328D01*
X194815169Y-186393328D02*
X194315169Y-185679042D01*
X193958026Y-186393328D02*
X193958026Y-184893328D01*
X193958026Y-184893328D02*
X194529455Y-184893328D01*
X194529455Y-184893328D02*
X194672312Y-184964757D01*
X194672312Y-184964757D02*
X194743741Y-185036185D01*
X194743741Y-185036185D02*
X194815169Y-185179042D01*
X194815169Y-185179042D02*
X194815169Y-185393328D01*
X194815169Y-185393328D02*
X194743741Y-185536185D01*
X194743741Y-185536185D02*
X194672312Y-185607614D01*
X194672312Y-185607614D02*
X194529455Y-185679042D01*
X194529455Y-185679042D02*
X193958026Y-185679042D01*
X195243741Y-184893328D02*
X196100884Y-184893328D01*
X195672312Y-186393328D02*
X195672312Y-184893328D01*
X196600883Y-186250471D02*
X196672312Y-186321900D01*
X196672312Y-186321900D02*
X196600883Y-186393328D01*
X196600883Y-186393328D02*
X196529455Y-186321900D01*
X196529455Y-186321900D02*
X196600883Y-186250471D01*
X196600883Y-186250471D02*
X196600883Y-186393328D01*
X197315169Y-186393328D02*
X197315169Y-184893328D01*
X197458027Y-185821900D02*
X197886598Y-186393328D01*
X197886598Y-185393328D02*
X197315169Y-185964757D01*
X198529455Y-186393328D02*
X198529455Y-185393328D01*
X198529455Y-184893328D02*
X198458027Y-184964757D01*
X198458027Y-184964757D02*
X198529455Y-185036185D01*
X198529455Y-185036185D02*
X198600884Y-184964757D01*
X198600884Y-184964757D02*
X198529455Y-184893328D01*
X198529455Y-184893328D02*
X198529455Y-185036185D01*
X199886599Y-186321900D02*
X199743741Y-186393328D01*
X199743741Y-186393328D02*
X199458027Y-186393328D01*
X199458027Y-186393328D02*
X199315170Y-186321900D01*
X199315170Y-186321900D02*
X199243741Y-186250471D01*
X199243741Y-186250471D02*
X199172313Y-186107614D01*
X199172313Y-186107614D02*
X199172313Y-185679042D01*
X199172313Y-185679042D02*
X199243741Y-185536185D01*
X199243741Y-185536185D02*
X199315170Y-185464757D01*
X199315170Y-185464757D02*
X199458027Y-185393328D01*
X199458027Y-185393328D02*
X199743741Y-185393328D01*
X199743741Y-185393328D02*
X199886599Y-185464757D01*
X201172313Y-186393328D02*
X201172313Y-185607614D01*
X201172313Y-185607614D02*
X201100884Y-185464757D01*
X201100884Y-185464757D02*
X200958027Y-185393328D01*
X200958027Y-185393328D02*
X200672313Y-185393328D01*
X200672313Y-185393328D02*
X200529455Y-185464757D01*
X201172313Y-186321900D02*
X201029455Y-186393328D01*
X201029455Y-186393328D02*
X200672313Y-186393328D01*
X200672313Y-186393328D02*
X200529455Y-186321900D01*
X200529455Y-186321900D02*
X200458027Y-186179042D01*
X200458027Y-186179042D02*
X200458027Y-186036185D01*
X200458027Y-186036185D02*
X200529455Y-185893328D01*
X200529455Y-185893328D02*
X200672313Y-185821900D01*
X200672313Y-185821900D02*
X201029455Y-185821900D01*
X201029455Y-185821900D02*
X201172313Y-185750471D01*
X202529456Y-186393328D02*
X202529456Y-184893328D01*
X202529456Y-186321900D02*
X202386598Y-186393328D01*
X202386598Y-186393328D02*
X202100884Y-186393328D01*
X202100884Y-186393328D02*
X201958027Y-186321900D01*
X201958027Y-186321900D02*
X201886598Y-186250471D01*
X201886598Y-186250471D02*
X201815170Y-186107614D01*
X201815170Y-186107614D02*
X201815170Y-185679042D01*
X201815170Y-185679042D02*
X201886598Y-185536185D01*
X201886598Y-185536185D02*
X201958027Y-185464757D01*
X201958027Y-185464757D02*
X202100884Y-185393328D01*
X202100884Y-185393328D02*
X202386598Y-185393328D01*
X202386598Y-185393328D02*
X202529456Y-185464757D01*
X202886599Y-186536185D02*
X204029456Y-186536185D01*
X204386598Y-185393328D02*
X204386598Y-186893328D01*
X204386598Y-185464757D02*
X204529456Y-185393328D01*
X204529456Y-185393328D02*
X204815170Y-185393328D01*
X204815170Y-185393328D02*
X204958027Y-185464757D01*
X204958027Y-185464757D02*
X205029456Y-185536185D01*
X205029456Y-185536185D02*
X205100884Y-185679042D01*
X205100884Y-185679042D02*
X205100884Y-186107614D01*
X205100884Y-186107614D02*
X205029456Y-186250471D01*
X205029456Y-186250471D02*
X204958027Y-186321900D01*
X204958027Y-186321900D02*
X204815170Y-186393328D01*
X204815170Y-186393328D02*
X204529456Y-186393328D01*
X204529456Y-186393328D02*
X204386598Y-186321900D01*
X206386599Y-186321900D02*
X206243741Y-186393328D01*
X206243741Y-186393328D02*
X205958027Y-186393328D01*
X205958027Y-186393328D02*
X205815170Y-186321900D01*
X205815170Y-186321900D02*
X205743741Y-186250471D01*
X205743741Y-186250471D02*
X205672313Y-186107614D01*
X205672313Y-186107614D02*
X205672313Y-185679042D01*
X205672313Y-185679042D02*
X205743741Y-185536185D01*
X205743741Y-185536185D02*
X205815170Y-185464757D01*
X205815170Y-185464757D02*
X205958027Y-185393328D01*
X205958027Y-185393328D02*
X206243741Y-185393328D01*
X206243741Y-185393328D02*
X206386599Y-185464757D01*
X207029455Y-186393328D02*
X207029455Y-184893328D01*
X207029455Y-185464757D02*
X207172313Y-185393328D01*
X207172313Y-185393328D02*
X207458027Y-185393328D01*
X207458027Y-185393328D02*
X207600884Y-185464757D01*
X207600884Y-185464757D02*
X207672313Y-185536185D01*
X207672313Y-185536185D02*
X207743741Y-185679042D01*
X207743741Y-185679042D02*
X207743741Y-186107614D01*
X207743741Y-186107614D02*
X207672313Y-186250471D01*
X207672313Y-186250471D02*
X207600884Y-186321900D01*
X207600884Y-186321900D02*
X207458027Y-186393328D01*
X207458027Y-186393328D02*
X207172313Y-186393328D01*
X207172313Y-186393328D02*
X207029455Y-186321900D01*
D10*
D11*
X177002200Y-181507200D02*
X285002200Y-181507200D01*
D10*
D11*
X178386598Y-183621900D02*
X178600884Y-183693328D01*
X178600884Y-183693328D02*
X178958026Y-183693328D01*
X178958026Y-183693328D02*
X179100884Y-183621900D01*
X179100884Y-183621900D02*
X179172312Y-183550471D01*
X179172312Y-183550471D02*
X179243741Y-183407614D01*
X179243741Y-183407614D02*
X179243741Y-183264757D01*
X179243741Y-183264757D02*
X179172312Y-183121900D01*
X179172312Y-183121900D02*
X179100884Y-183050471D01*
X179100884Y-183050471D02*
X178958026Y-182979042D01*
X178958026Y-182979042D02*
X178672312Y-182907614D01*
X178672312Y-182907614D02*
X178529455Y-182836185D01*
X178529455Y-182836185D02*
X178458026Y-182764757D01*
X178458026Y-182764757D02*
X178386598Y-182621900D01*
X178386598Y-182621900D02*
X178386598Y-182479042D01*
X178386598Y-182479042D02*
X178458026Y-182336185D01*
X178458026Y-182336185D02*
X178529455Y-182264757D01*
X178529455Y-182264757D02*
X178672312Y-182193328D01*
X178672312Y-182193328D02*
X179029455Y-182193328D01*
X179029455Y-182193328D02*
X179243741Y-182264757D01*
X179886597Y-183693328D02*
X179886597Y-182193328D01*
X180529455Y-183693328D02*
X180529455Y-182907614D01*
X180529455Y-182907614D02*
X180458026Y-182764757D01*
X180458026Y-182764757D02*
X180315169Y-182693328D01*
X180315169Y-182693328D02*
X180100883Y-182693328D01*
X180100883Y-182693328D02*
X179958026Y-182764757D01*
X179958026Y-182764757D02*
X179886597Y-182836185D01*
X181815169Y-183621900D02*
X181672312Y-183693328D01*
X181672312Y-183693328D02*
X181386598Y-183693328D01*
X181386598Y-183693328D02*
X181243740Y-183621900D01*
X181243740Y-183621900D02*
X181172312Y-183479042D01*
X181172312Y-183479042D02*
X181172312Y-182907614D01*
X181172312Y-182907614D02*
X181243740Y-182764757D01*
X181243740Y-182764757D02*
X181386598Y-182693328D01*
X181386598Y-182693328D02*
X181672312Y-182693328D01*
X181672312Y-182693328D02*
X181815169Y-182764757D01*
X181815169Y-182764757D02*
X181886598Y-182907614D01*
X181886598Y-182907614D02*
X181886598Y-183050471D01*
X181886598Y-183050471D02*
X181172312Y-183193328D01*
X183100883Y-183621900D02*
X182958026Y-183693328D01*
X182958026Y-183693328D02*
X182672312Y-183693328D01*
X182672312Y-183693328D02*
X182529454Y-183621900D01*
X182529454Y-183621900D02*
X182458026Y-183479042D01*
X182458026Y-183479042D02*
X182458026Y-182907614D01*
X182458026Y-182907614D02*
X182529454Y-182764757D01*
X182529454Y-182764757D02*
X182672312Y-182693328D01*
X182672312Y-182693328D02*
X182958026Y-182693328D01*
X182958026Y-182693328D02*
X183100883Y-182764757D01*
X183100883Y-182764757D02*
X183172312Y-182907614D01*
X183172312Y-182907614D02*
X183172312Y-183050471D01*
X183172312Y-183050471D02*
X182458026Y-183193328D01*
X183600883Y-182693328D02*
X184172311Y-182693328D01*
X183815168Y-182193328D02*
X183815168Y-183479042D01*
X183815168Y-183479042D02*
X183886597Y-183621900D01*
X183886597Y-183621900D02*
X184029454Y-183693328D01*
X184029454Y-183693328D02*
X184172311Y-183693328D01*
X184672311Y-183550471D02*
X184743740Y-183621900D01*
X184743740Y-183621900D02*
X184672311Y-183693328D01*
X184672311Y-183693328D02*
X184600883Y-183621900D01*
X184600883Y-183621900D02*
X184672311Y-183550471D01*
X184672311Y-183550471D02*
X184672311Y-183693328D01*
X184672311Y-182764757D02*
X184743740Y-182836185D01*
X184743740Y-182836185D02*
X184672311Y-182907614D01*
X184672311Y-182907614D02*
X184600883Y-182836185D01*
X184600883Y-182836185D02*
X184672311Y-182764757D01*
X184672311Y-182764757D02*
X184672311Y-182907614D01*
D10*
D12*
X179485282Y-179971242D02*
X179413853Y-179899814D01*
X179413853Y-179899814D02*
X179270996Y-179828385D01*
X179270996Y-179828385D02*
X179128139Y-179828385D01*
X179128139Y-179828385D02*
X178985282Y-179899814D01*
X178985282Y-179899814D02*
X178913853Y-179971242D01*
X178913853Y-179971242D02*
X178842425Y-180114100D01*
X178842425Y-180114100D02*
X178842425Y-180256957D01*
X178842425Y-180256957D02*
X178913853Y-180399814D01*
X178913853Y-180399814D02*
X178985282Y-180471242D01*
X178985282Y-180471242D02*
X179128139Y-180542671D01*
X179128139Y-180542671D02*
X179270996Y-180542671D01*
X179270996Y-180542671D02*
X179413853Y-180471242D01*
X179413853Y-180471242D02*
X179485282Y-180399814D01*
X179485282Y-179828385D02*
X179485282Y-180399814D01*
X179485282Y-180399814D02*
X179556710Y-180471242D01*
X179556710Y-180471242D02*
X179628139Y-180471242D01*
X179628139Y-180471242D02*
X179770996Y-180399814D01*
X179770996Y-180399814D02*
X179842425Y-180256957D01*
X179842425Y-180256957D02*
X179842425Y-179899814D01*
X179842425Y-179899814D02*
X179699568Y-179685528D01*
X179699568Y-179685528D02*
X179485282Y-179542671D01*
X179485282Y-179542671D02*
X179199568Y-179471242D01*
X179199568Y-179471242D02*
X178913853Y-179542671D01*
X178913853Y-179542671D02*
X178699568Y-179685528D01*
X178699568Y-179685528D02*
X178556710Y-179899814D01*
X178556710Y-179899814D02*
X178485282Y-180185528D01*
X178485282Y-180185528D02*
X178556710Y-180471242D01*
X178556710Y-180471242D02*
X178699568Y-180685528D01*
X178699568Y-180685528D02*
X178913853Y-180828385D01*
X178913853Y-180828385D02*
X179199568Y-180899814D01*
X179199568Y-180899814D02*
X179485282Y-180828385D01*
X179485282Y-180828385D02*
X179699568Y-180685528D01*
X180485281Y-179685528D02*
X180485281Y-181185528D01*
X180485281Y-179756957D02*
X180628139Y-179685528D01*
X180628139Y-179685528D02*
X180913853Y-179685528D01*
X180913853Y-179685528D02*
X181056710Y-179756957D01*
X181056710Y-179756957D02*
X181128139Y-179828385D01*
X181128139Y-179828385D02*
X181199567Y-179971242D01*
X181199567Y-179971242D02*
X181199567Y-180399814D01*
X181199567Y-180399814D02*
X181128139Y-180542671D01*
X181128139Y-180542671D02*
X181056710Y-180614100D01*
X181056710Y-180614100D02*
X180913853Y-180685528D01*
X180913853Y-180685528D02*
X180628139Y-180685528D01*
X180628139Y-180685528D02*
X180485281Y-180614100D01*
X182485282Y-180685528D02*
X182485282Y-179899814D01*
X182485282Y-179899814D02*
X182413853Y-179756957D01*
X182413853Y-179756957D02*
X182270996Y-179685528D01*
X182270996Y-179685528D02*
X181985282Y-179685528D01*
X181985282Y-179685528D02*
X181842424Y-179756957D01*
X182485282Y-180614100D02*
X182342424Y-180685528D01*
X182342424Y-180685528D02*
X181985282Y-180685528D01*
X181985282Y-180685528D02*
X181842424Y-180614100D01*
X181842424Y-180614100D02*
X181770996Y-180471242D01*
X181770996Y-180471242D02*
X181770996Y-180328385D01*
X181770996Y-180328385D02*
X181842424Y-180185528D01*
X181842424Y-180185528D02*
X181985282Y-180114100D01*
X181985282Y-180114100D02*
X182342424Y-180114100D01*
X182342424Y-180114100D02*
X182485282Y-180042671D01*
X183842425Y-180614100D02*
X183699567Y-180685528D01*
X183699567Y-180685528D02*
X183413853Y-180685528D01*
X183413853Y-180685528D02*
X183270996Y-180614100D01*
X183270996Y-180614100D02*
X183199567Y-180542671D01*
X183199567Y-180542671D02*
X183128139Y-180399814D01*
X183128139Y-180399814D02*
X183128139Y-179971242D01*
X183128139Y-179971242D02*
X183199567Y-179828385D01*
X183199567Y-179828385D02*
X183270996Y-179756957D01*
X183270996Y-179756957D02*
X183413853Y-179685528D01*
X183413853Y-179685528D02*
X183699567Y-179685528D01*
X183699567Y-179685528D02*
X183842425Y-179756957D01*
X184699567Y-180685528D02*
X184556710Y-180614100D01*
X184556710Y-180614100D02*
X184485281Y-180471242D01*
X184485281Y-180471242D02*
X184485281Y-179185528D01*
X185842424Y-180614100D02*
X185699567Y-180685528D01*
X185699567Y-180685528D02*
X185413853Y-180685528D01*
X185413853Y-180685528D02*
X185270995Y-180614100D01*
X185270995Y-180614100D02*
X185199567Y-180471242D01*
X185199567Y-180471242D02*
X185199567Y-179899814D01*
X185199567Y-179899814D02*
X185270995Y-179756957D01*
X185270995Y-179756957D02*
X185413853Y-179685528D01*
X185413853Y-179685528D02*
X185699567Y-179685528D01*
X185699567Y-179685528D02*
X185842424Y-179756957D01*
X185842424Y-179756957D02*
X185913853Y-179899814D01*
X185913853Y-179899814D02*
X185913853Y-180042671D01*
X185913853Y-180042671D02*
X185199567Y-180185528D01*
X186556709Y-180685528D02*
X186556709Y-179685528D01*
X186556709Y-179828385D02*
X186628138Y-179756957D01*
X186628138Y-179756957D02*
X186770995Y-179685528D01*
X186770995Y-179685528D02*
X186985281Y-179685528D01*
X186985281Y-179685528D02*
X187128138Y-179756957D01*
X187128138Y-179756957D02*
X187199567Y-179899814D01*
X187199567Y-179899814D02*
X187199567Y-180685528D01*
X187199567Y-179899814D02*
X187270995Y-179756957D01*
X187270995Y-179756957D02*
X187413852Y-179685528D01*
X187413852Y-179685528D02*
X187628138Y-179685528D01*
X187628138Y-179685528D02*
X187770995Y-179756957D01*
X187770995Y-179756957D02*
X187842424Y-179899814D01*
X187842424Y-179899814D02*
X187842424Y-180685528D01*
X189199567Y-180685528D02*
X189199567Y-179899814D01*
X189199567Y-179899814D02*
X189128138Y-179756957D01*
X189128138Y-179756957D02*
X188985281Y-179685528D01*
X188985281Y-179685528D02*
X188699567Y-179685528D01*
X188699567Y-179685528D02*
X188556709Y-179756957D01*
X189199567Y-180614100D02*
X189056709Y-180685528D01*
X189056709Y-180685528D02*
X188699567Y-180685528D01*
X188699567Y-180685528D02*
X188556709Y-180614100D01*
X188556709Y-180614100D02*
X188485281Y-180471242D01*
X188485281Y-180471242D02*
X188485281Y-180328385D01*
X188485281Y-180328385D02*
X188556709Y-180185528D01*
X188556709Y-180185528D02*
X188699567Y-180114100D01*
X188699567Y-180114100D02*
X189056709Y-180114100D01*
X189056709Y-180114100D02*
X189199567Y-180042671D01*
D10*
D11*
X178458026Y-177693328D02*
X178458026Y-176193328D01*
X178458026Y-176193328D02*
X179029455Y-176193328D01*
X179029455Y-176193328D02*
X179172312Y-176264757D01*
X179172312Y-176264757D02*
X179243741Y-176336185D01*
X179243741Y-176336185D02*
X179315169Y-176479042D01*
X179315169Y-176479042D02*
X179315169Y-176693328D01*
X179315169Y-176693328D02*
X179243741Y-176836185D01*
X179243741Y-176836185D02*
X179172312Y-176907614D01*
X179172312Y-176907614D02*
X179029455Y-176979042D01*
X179029455Y-176979042D02*
X178458026Y-176979042D01*
X180600884Y-177693328D02*
X180600884Y-176907614D01*
X180600884Y-176907614D02*
X180529455Y-176764757D01*
X180529455Y-176764757D02*
X180386598Y-176693328D01*
X180386598Y-176693328D02*
X180100884Y-176693328D01*
X180100884Y-176693328D02*
X179958026Y-176764757D01*
X180600884Y-177621900D02*
X180458026Y-177693328D01*
X180458026Y-177693328D02*
X180100884Y-177693328D01*
X180100884Y-177693328D02*
X179958026Y-177621900D01*
X179958026Y-177621900D02*
X179886598Y-177479042D01*
X179886598Y-177479042D02*
X179886598Y-177336185D01*
X179886598Y-177336185D02*
X179958026Y-177193328D01*
X179958026Y-177193328D02*
X180100884Y-177121900D01*
X180100884Y-177121900D02*
X180458026Y-177121900D01*
X180458026Y-177121900D02*
X180600884Y-177050471D01*
X181315169Y-177693328D02*
X181315169Y-176193328D01*
X181315169Y-176764757D02*
X181458027Y-176693328D01*
X181458027Y-176693328D02*
X181743741Y-176693328D01*
X181743741Y-176693328D02*
X181886598Y-176764757D01*
X181886598Y-176764757D02*
X181958027Y-176836185D01*
X181958027Y-176836185D02*
X182029455Y-176979042D01*
X182029455Y-176979042D02*
X182029455Y-177407614D01*
X182029455Y-177407614D02*
X181958027Y-177550471D01*
X181958027Y-177550471D02*
X181886598Y-177621900D01*
X181886598Y-177621900D02*
X181743741Y-177693328D01*
X181743741Y-177693328D02*
X181458027Y-177693328D01*
X181458027Y-177693328D02*
X181315169Y-177621900D01*
X182886598Y-177693328D02*
X182743741Y-177621900D01*
X182743741Y-177621900D02*
X182672312Y-177479042D01*
X182672312Y-177479042D02*
X182672312Y-176193328D01*
X183672312Y-177693328D02*
X183529455Y-177621900D01*
X183529455Y-177621900D02*
X183458026Y-177550471D01*
X183458026Y-177550471D02*
X183386598Y-177407614D01*
X183386598Y-177407614D02*
X183386598Y-176979042D01*
X183386598Y-176979042D02*
X183458026Y-176836185D01*
X183458026Y-176836185D02*
X183529455Y-176764757D01*
X183529455Y-176764757D02*
X183672312Y-176693328D01*
X183672312Y-176693328D02*
X183886598Y-176693328D01*
X183886598Y-176693328D02*
X184029455Y-176764757D01*
X184029455Y-176764757D02*
X184100884Y-176836185D01*
X184100884Y-176836185D02*
X184172312Y-176979042D01*
X184172312Y-176979042D02*
X184172312Y-177407614D01*
X184172312Y-177407614D02*
X184100884Y-177550471D01*
X184100884Y-177550471D02*
X184029455Y-177621900D01*
X184029455Y-177621900D02*
X183886598Y-177693328D01*
X183886598Y-177693328D02*
X183672312Y-177693328D01*
X186815169Y-177550471D02*
X186743741Y-177621900D01*
X186743741Y-177621900D02*
X186529455Y-177693328D01*
X186529455Y-177693328D02*
X186386598Y-177693328D01*
X186386598Y-177693328D02*
X186172312Y-177621900D01*
X186172312Y-177621900D02*
X186029455Y-177479042D01*
X186029455Y-177479042D02*
X185958026Y-177336185D01*
X185958026Y-177336185D02*
X185886598Y-177050471D01*
X185886598Y-177050471D02*
X185886598Y-176836185D01*
X185886598Y-176836185D02*
X185958026Y-176550471D01*
X185958026Y-176550471D02*
X186029455Y-176407614D01*
X186029455Y-176407614D02*
X186172312Y-176264757D01*
X186172312Y-176264757D02*
X186386598Y-176193328D01*
X186386598Y-176193328D02*
X186529455Y-176193328D01*
X186529455Y-176193328D02*
X186743741Y-176264757D01*
X186743741Y-176264757D02*
X186815169Y-176336185D01*
X187672312Y-177693328D02*
X187529455Y-177621900D01*
X187529455Y-177621900D02*
X187458026Y-177479042D01*
X187458026Y-177479042D02*
X187458026Y-176193328D01*
X188815169Y-177621900D02*
X188672312Y-177693328D01*
X188672312Y-177693328D02*
X188386598Y-177693328D01*
X188386598Y-177693328D02*
X188243740Y-177621900D01*
X188243740Y-177621900D02*
X188172312Y-177479042D01*
X188172312Y-177479042D02*
X188172312Y-176907614D01*
X188172312Y-176907614D02*
X188243740Y-176764757D01*
X188243740Y-176764757D02*
X188386598Y-176693328D01*
X188386598Y-176693328D02*
X188672312Y-176693328D01*
X188672312Y-176693328D02*
X188815169Y-176764757D01*
X188815169Y-176764757D02*
X188886598Y-176907614D01*
X188886598Y-176907614D02*
X188886598Y-177050471D01*
X188886598Y-177050471D02*
X188172312Y-177193328D01*
X189529454Y-177693328D02*
X189529454Y-176693328D01*
X189529454Y-176836185D02*
X189600883Y-176764757D01*
X189600883Y-176764757D02*
X189743740Y-176693328D01*
X189743740Y-176693328D02*
X189958026Y-176693328D01*
X189958026Y-176693328D02*
X190100883Y-176764757D01*
X190100883Y-176764757D02*
X190172312Y-176907614D01*
X190172312Y-176907614D02*
X190172312Y-177693328D01*
X190172312Y-176907614D02*
X190243740Y-176764757D01*
X190243740Y-176764757D02*
X190386597Y-176693328D01*
X190386597Y-176693328D02*
X190600883Y-176693328D01*
X190600883Y-176693328D02*
X190743740Y-176764757D01*
X190743740Y-176764757D02*
X190815169Y-176907614D01*
X190815169Y-176907614D02*
X190815169Y-177693328D01*
X192100883Y-177621900D02*
X191958026Y-177693328D01*
X191958026Y-177693328D02*
X191672312Y-177693328D01*
X191672312Y-177693328D02*
X191529454Y-177621900D01*
X191529454Y-177621900D02*
X191458026Y-177479042D01*
X191458026Y-177479042D02*
X191458026Y-176907614D01*
X191458026Y-176907614D02*
X191529454Y-176764757D01*
X191529454Y-176764757D02*
X191672312Y-176693328D01*
X191672312Y-176693328D02*
X191958026Y-176693328D01*
X191958026Y-176693328D02*
X192100883Y-176764757D01*
X192100883Y-176764757D02*
X192172312Y-176907614D01*
X192172312Y-176907614D02*
X192172312Y-177050471D01*
X192172312Y-177050471D02*
X191458026Y-177193328D01*
X192815168Y-176693328D02*
X192815168Y-177693328D01*
X192815168Y-176836185D02*
X192886597Y-176764757D01*
X192886597Y-176764757D02*
X193029454Y-176693328D01*
X193029454Y-176693328D02*
X193243740Y-176693328D01*
X193243740Y-176693328D02*
X193386597Y-176764757D01*
X193386597Y-176764757D02*
X193458026Y-176907614D01*
X193458026Y-176907614D02*
X193458026Y-177693328D01*
X193958026Y-176693328D02*
X194529454Y-176693328D01*
X194172311Y-176193328D02*
X194172311Y-177479042D01*
X194172311Y-177479042D02*
X194243740Y-177621900D01*
X194243740Y-177621900D02*
X194386597Y-177693328D01*
X194386597Y-177693328D02*
X194529454Y-177693328D01*
X195600883Y-177621900D02*
X195458026Y-177693328D01*
X195458026Y-177693328D02*
X195172312Y-177693328D01*
X195172312Y-177693328D02*
X195029454Y-177621900D01*
X195029454Y-177621900D02*
X194958026Y-177479042D01*
X194958026Y-177479042D02*
X194958026Y-176907614D01*
X194958026Y-176907614D02*
X195029454Y-176764757D01*
X195029454Y-176764757D02*
X195172312Y-176693328D01*
X195172312Y-176693328D02*
X195458026Y-176693328D01*
X195458026Y-176693328D02*
X195600883Y-176764757D01*
X195600883Y-176764757D02*
X195672312Y-176907614D01*
X195672312Y-176907614D02*
X195672312Y-177050471D01*
X195672312Y-177050471D02*
X194958026Y-177193328D01*
X197458025Y-177693328D02*
X197458025Y-176193328D01*
X197458025Y-176193328D02*
X197958025Y-177264757D01*
X197958025Y-177264757D02*
X198458025Y-176193328D01*
X198458025Y-176193328D02*
X198458025Y-177693328D01*
X199815169Y-177693328D02*
X199815169Y-176907614D01*
X199815169Y-176907614D02*
X199743740Y-176764757D01*
X199743740Y-176764757D02*
X199600883Y-176693328D01*
X199600883Y-176693328D02*
X199315169Y-176693328D01*
X199315169Y-176693328D02*
X199172311Y-176764757D01*
X199815169Y-177621900D02*
X199672311Y-177693328D01*
X199672311Y-177693328D02*
X199315169Y-177693328D01*
X199315169Y-177693328D02*
X199172311Y-177621900D01*
X199172311Y-177621900D02*
X199100883Y-177479042D01*
X199100883Y-177479042D02*
X199100883Y-177336185D01*
X199100883Y-177336185D02*
X199172311Y-177193328D01*
X199172311Y-177193328D02*
X199315169Y-177121900D01*
X199315169Y-177121900D02*
X199672311Y-177121900D01*
X199672311Y-177121900D02*
X199815169Y-177050471D01*
X200458026Y-177621900D02*
X200600883Y-177693328D01*
X200600883Y-177693328D02*
X200886597Y-177693328D01*
X200886597Y-177693328D02*
X201029454Y-177621900D01*
X201029454Y-177621900D02*
X201100883Y-177479042D01*
X201100883Y-177479042D02*
X201100883Y-177407614D01*
X201100883Y-177407614D02*
X201029454Y-177264757D01*
X201029454Y-177264757D02*
X200886597Y-177193328D01*
X200886597Y-177193328D02*
X200672312Y-177193328D01*
X200672312Y-177193328D02*
X200529454Y-177121900D01*
X200529454Y-177121900D02*
X200458026Y-176979042D01*
X200458026Y-176979042D02*
X200458026Y-176907614D01*
X200458026Y-176907614D02*
X200529454Y-176764757D01*
X200529454Y-176764757D02*
X200672312Y-176693328D01*
X200672312Y-176693328D02*
X200886597Y-176693328D01*
X200886597Y-176693328D02*
X201029454Y-176764757D01*
X202315169Y-177621900D02*
X202172312Y-177693328D01*
X202172312Y-177693328D02*
X201886598Y-177693328D01*
X201886598Y-177693328D02*
X201743740Y-177621900D01*
X201743740Y-177621900D02*
X201672312Y-177479042D01*
X201672312Y-177479042D02*
X201672312Y-176907614D01*
X201672312Y-176907614D02*
X201743740Y-176764757D01*
X201743740Y-176764757D02*
X201886598Y-176693328D01*
X201886598Y-176693328D02*
X202172312Y-176693328D01*
X202172312Y-176693328D02*
X202315169Y-176764757D01*
X202315169Y-176764757D02*
X202386598Y-176907614D01*
X202386598Y-176907614D02*
X202386598Y-177050471D01*
X202386598Y-177050471D02*
X201672312Y-177193328D01*
X203672312Y-177693328D02*
X203672312Y-176193328D01*
X203672312Y-177621900D02*
X203529454Y-177693328D01*
X203529454Y-177693328D02*
X203243740Y-177693328D01*
X203243740Y-177693328D02*
X203100883Y-177621900D01*
X203100883Y-177621900D02*
X203029454Y-177550471D01*
X203029454Y-177550471D02*
X202958026Y-177407614D01*
X202958026Y-177407614D02*
X202958026Y-176979042D01*
X202958026Y-176979042D02*
X203029454Y-176836185D01*
X203029454Y-176836185D02*
X203100883Y-176764757D01*
X203100883Y-176764757D02*
X203243740Y-176693328D01*
X203243740Y-176693328D02*
X203529454Y-176693328D01*
X203529454Y-176693328D02*
X203672312Y-176764757D01*
X205029455Y-177693328D02*
X205029455Y-176907614D01*
X205029455Y-176907614D02*
X204958026Y-176764757D01*
X204958026Y-176764757D02*
X204815169Y-176693328D01*
X204815169Y-176693328D02*
X204529455Y-176693328D01*
X204529455Y-176693328D02*
X204386597Y-176764757D01*
X205029455Y-177621900D02*
X204886597Y-177693328D01*
X204886597Y-177693328D02*
X204529455Y-177693328D01*
X204529455Y-177693328D02*
X204386597Y-177621900D01*
X204386597Y-177621900D02*
X204315169Y-177479042D01*
X204315169Y-177479042D02*
X204315169Y-177336185D01*
X204315169Y-177336185D02*
X204386597Y-177193328D01*
X204386597Y-177193328D02*
X204529455Y-177121900D01*
X204529455Y-177121900D02*
X204886597Y-177121900D01*
X204886597Y-177121900D02*
X205029455Y-177050471D01*
D10*
D11*
X179100884Y-173693328D02*
X179100884Y-174907614D01*
X179100884Y-174907614D02*
X179029455Y-175050471D01*
X179029455Y-175050471D02*
X178958026Y-175121900D01*
X178958026Y-175121900D02*
X178815169Y-175193328D01*
X178815169Y-175193328D02*
X178600884Y-175193328D01*
X178600884Y-175193328D02*
X178458026Y-175121900D01*
X179100884Y-174621900D02*
X178958026Y-174693328D01*
X178958026Y-174693328D02*
X178672312Y-174693328D01*
X178672312Y-174693328D02*
X178529455Y-174621900D01*
X178529455Y-174621900D02*
X178458026Y-174550471D01*
X178458026Y-174550471D02*
X178386598Y-174407614D01*
X178386598Y-174407614D02*
X178386598Y-173979042D01*
X178386598Y-173979042D02*
X178458026Y-173836185D01*
X178458026Y-173836185D02*
X178529455Y-173764757D01*
X178529455Y-173764757D02*
X178672312Y-173693328D01*
X178672312Y-173693328D02*
X178958026Y-173693328D01*
X178958026Y-173693328D02*
X179100884Y-173764757D01*
X179815169Y-174693328D02*
X179815169Y-173693328D01*
X179815169Y-173193328D02*
X179743741Y-173264757D01*
X179743741Y-173264757D02*
X179815169Y-173336185D01*
X179815169Y-173336185D02*
X179886598Y-173264757D01*
X179886598Y-173264757D02*
X179815169Y-173193328D01*
X179815169Y-173193328D02*
X179815169Y-173336185D01*
X180315170Y-173693328D02*
X180886598Y-173693328D01*
X180529455Y-173193328D02*
X180529455Y-174479042D01*
X180529455Y-174479042D02*
X180600884Y-174621900D01*
X180600884Y-174621900D02*
X180743741Y-174693328D01*
X180743741Y-174693328D02*
X180886598Y-174693328D01*
X181386598Y-174693328D02*
X181386598Y-173193328D01*
X182029456Y-174693328D02*
X182029456Y-173907614D01*
X182029456Y-173907614D02*
X181958027Y-173764757D01*
X181958027Y-173764757D02*
X181815170Y-173693328D01*
X181815170Y-173693328D02*
X181600884Y-173693328D01*
X181600884Y-173693328D02*
X181458027Y-173764757D01*
X181458027Y-173764757D02*
X181386598Y-173836185D01*
X183386599Y-173693328D02*
X183386599Y-174693328D01*
X182743741Y-173693328D02*
X182743741Y-174479042D01*
X182743741Y-174479042D02*
X182815170Y-174621900D01*
X182815170Y-174621900D02*
X182958027Y-174693328D01*
X182958027Y-174693328D02*
X183172313Y-174693328D01*
X183172313Y-174693328D02*
X183315170Y-174621900D01*
X183315170Y-174621900D02*
X183386599Y-174550471D01*
X184100884Y-174693328D02*
X184100884Y-173193328D01*
X184100884Y-173764757D02*
X184243742Y-173693328D01*
X184243742Y-173693328D02*
X184529456Y-173693328D01*
X184529456Y-173693328D02*
X184672313Y-173764757D01*
X184672313Y-173764757D02*
X184743742Y-173836185D01*
X184743742Y-173836185D02*
X184815170Y-173979042D01*
X184815170Y-173979042D02*
X184815170Y-174407614D01*
X184815170Y-174407614D02*
X184743742Y-174550471D01*
X184743742Y-174550471D02*
X184672313Y-174621900D01*
X184672313Y-174621900D02*
X184529456Y-174693328D01*
X184529456Y-174693328D02*
X184243742Y-174693328D01*
X184243742Y-174693328D02*
X184100884Y-174621900D01*
X185458027Y-174550471D02*
X185529456Y-174621900D01*
X185529456Y-174621900D02*
X185458027Y-174693328D01*
X185458027Y-174693328D02*
X185386599Y-174621900D01*
X185386599Y-174621900D02*
X185458027Y-174550471D01*
X185458027Y-174550471D02*
X185458027Y-174693328D01*
X186815171Y-174621900D02*
X186672313Y-174693328D01*
X186672313Y-174693328D02*
X186386599Y-174693328D01*
X186386599Y-174693328D02*
X186243742Y-174621900D01*
X186243742Y-174621900D02*
X186172313Y-174550471D01*
X186172313Y-174550471D02*
X186100885Y-174407614D01*
X186100885Y-174407614D02*
X186100885Y-173979042D01*
X186100885Y-173979042D02*
X186172313Y-173836185D01*
X186172313Y-173836185D02*
X186243742Y-173764757D01*
X186243742Y-173764757D02*
X186386599Y-173693328D01*
X186386599Y-173693328D02*
X186672313Y-173693328D01*
X186672313Y-173693328D02*
X186815171Y-173764757D01*
X187672313Y-174693328D02*
X187529456Y-174621900D01*
X187529456Y-174621900D02*
X187458027Y-174550471D01*
X187458027Y-174550471D02*
X187386599Y-174407614D01*
X187386599Y-174407614D02*
X187386599Y-173979042D01*
X187386599Y-173979042D02*
X187458027Y-173836185D01*
X187458027Y-173836185D02*
X187529456Y-173764757D01*
X187529456Y-173764757D02*
X187672313Y-173693328D01*
X187672313Y-173693328D02*
X187886599Y-173693328D01*
X187886599Y-173693328D02*
X188029456Y-173764757D01*
X188029456Y-173764757D02*
X188100885Y-173836185D01*
X188100885Y-173836185D02*
X188172313Y-173979042D01*
X188172313Y-173979042D02*
X188172313Y-174407614D01*
X188172313Y-174407614D02*
X188100885Y-174550471D01*
X188100885Y-174550471D02*
X188029456Y-174621900D01*
X188029456Y-174621900D02*
X187886599Y-174693328D01*
X187886599Y-174693328D02*
X187672313Y-174693328D01*
X188815170Y-174693328D02*
X188815170Y-173693328D01*
X188815170Y-173836185D02*
X188886599Y-173764757D01*
X188886599Y-173764757D02*
X189029456Y-173693328D01*
X189029456Y-173693328D02*
X189243742Y-173693328D01*
X189243742Y-173693328D02*
X189386599Y-173764757D01*
X189386599Y-173764757D02*
X189458028Y-173907614D01*
X189458028Y-173907614D02*
X189458028Y-174693328D01*
X189458028Y-173907614D02*
X189529456Y-173764757D01*
X189529456Y-173764757D02*
X189672313Y-173693328D01*
X189672313Y-173693328D02*
X189886599Y-173693328D01*
X189886599Y-173693328D02*
X190029456Y-173764757D01*
X190029456Y-173764757D02*
X190100885Y-173907614D01*
X190100885Y-173907614D02*
X190100885Y-174693328D01*
X191886599Y-173121900D02*
X190600885Y-175050471D01*
X192386599Y-173693328D02*
X192386599Y-175193328D01*
X192386599Y-173764757D02*
X192529457Y-173693328D01*
X192529457Y-173693328D02*
X192815171Y-173693328D01*
X192815171Y-173693328D02*
X192958028Y-173764757D01*
X192958028Y-173764757D02*
X193029457Y-173836185D01*
X193029457Y-173836185D02*
X193100885Y-173979042D01*
X193100885Y-173979042D02*
X193100885Y-174407614D01*
X193100885Y-174407614D02*
X193029457Y-174550471D01*
X193029457Y-174550471D02*
X192958028Y-174621900D01*
X192958028Y-174621900D02*
X192815171Y-174693328D01*
X192815171Y-174693328D02*
X192529457Y-174693328D01*
X192529457Y-174693328D02*
X192386599Y-174621900D01*
X194386600Y-174693328D02*
X194386600Y-173907614D01*
X194386600Y-173907614D02*
X194315171Y-173764757D01*
X194315171Y-173764757D02*
X194172314Y-173693328D01*
X194172314Y-173693328D02*
X193886600Y-173693328D01*
X193886600Y-173693328D02*
X193743742Y-173764757D01*
X194386600Y-174621900D02*
X194243742Y-174693328D01*
X194243742Y-174693328D02*
X193886600Y-174693328D01*
X193886600Y-174693328D02*
X193743742Y-174621900D01*
X193743742Y-174621900D02*
X193672314Y-174479042D01*
X193672314Y-174479042D02*
X193672314Y-174336185D01*
X193672314Y-174336185D02*
X193743742Y-174193328D01*
X193743742Y-174193328D02*
X193886600Y-174121900D01*
X193886600Y-174121900D02*
X194243742Y-174121900D01*
X194243742Y-174121900D02*
X194386600Y-174050471D01*
X195743743Y-174621900D02*
X195600885Y-174693328D01*
X195600885Y-174693328D02*
X195315171Y-174693328D01*
X195315171Y-174693328D02*
X195172314Y-174621900D01*
X195172314Y-174621900D02*
X195100885Y-174550471D01*
X195100885Y-174550471D02*
X195029457Y-174407614D01*
X195029457Y-174407614D02*
X195029457Y-173979042D01*
X195029457Y-173979042D02*
X195100885Y-173836185D01*
X195100885Y-173836185D02*
X195172314Y-173764757D01*
X195172314Y-173764757D02*
X195315171Y-173693328D01*
X195315171Y-173693328D02*
X195600885Y-173693328D01*
X195600885Y-173693328D02*
X195743743Y-173764757D01*
X196600885Y-174693328D02*
X196458028Y-174621900D01*
X196458028Y-174621900D02*
X196386599Y-174479042D01*
X196386599Y-174479042D02*
X196386599Y-173193328D01*
X197743742Y-174621900D02*
X197600885Y-174693328D01*
X197600885Y-174693328D02*
X197315171Y-174693328D01*
X197315171Y-174693328D02*
X197172313Y-174621900D01*
X197172313Y-174621900D02*
X197100885Y-174479042D01*
X197100885Y-174479042D02*
X197100885Y-173907614D01*
X197100885Y-173907614D02*
X197172313Y-173764757D01*
X197172313Y-173764757D02*
X197315171Y-173693328D01*
X197315171Y-173693328D02*
X197600885Y-173693328D01*
X197600885Y-173693328D02*
X197743742Y-173764757D01*
X197743742Y-173764757D02*
X197815171Y-173907614D01*
X197815171Y-173907614D02*
X197815171Y-174050471D01*
X197815171Y-174050471D02*
X197100885Y-174193328D01*
X198458027Y-174693328D02*
X198458027Y-173693328D01*
X198458027Y-173836185D02*
X198529456Y-173764757D01*
X198529456Y-173764757D02*
X198672313Y-173693328D01*
X198672313Y-173693328D02*
X198886599Y-173693328D01*
X198886599Y-173693328D02*
X199029456Y-173764757D01*
X199029456Y-173764757D02*
X199100885Y-173907614D01*
X199100885Y-173907614D02*
X199100885Y-174693328D01*
X199100885Y-173907614D02*
X199172313Y-173764757D01*
X199172313Y-173764757D02*
X199315170Y-173693328D01*
X199315170Y-173693328D02*
X199529456Y-173693328D01*
X199529456Y-173693328D02*
X199672313Y-173764757D01*
X199672313Y-173764757D02*
X199743742Y-173907614D01*
X199743742Y-173907614D02*
X199743742Y-174693328D01*
X201100885Y-174693328D02*
X201100885Y-173907614D01*
X201100885Y-173907614D02*
X201029456Y-173764757D01*
X201029456Y-173764757D02*
X200886599Y-173693328D01*
X200886599Y-173693328D02*
X200600885Y-173693328D01*
X200600885Y-173693328D02*
X200458027Y-173764757D01*
X201100885Y-174621900D02*
X200958027Y-174693328D01*
X200958027Y-174693328D02*
X200600885Y-174693328D01*
X200600885Y-174693328D02*
X200458027Y-174621900D01*
X200458027Y-174621900D02*
X200386599Y-174479042D01*
X200386599Y-174479042D02*
X200386599Y-174336185D01*
X200386599Y-174336185D02*
X200458027Y-174193328D01*
X200458027Y-174193328D02*
X200600885Y-174121900D01*
X200600885Y-174121900D02*
X200958027Y-174121900D01*
X200958027Y-174121900D02*
X201100885Y-174050471D01*
X202886599Y-173121900D02*
X201600885Y-175050471D01*
X203386599Y-173193328D02*
X203386599Y-174407614D01*
X203386599Y-174407614D02*
X203458028Y-174550471D01*
X203458028Y-174550471D02*
X203529457Y-174621900D01*
X203529457Y-174621900D02*
X203672314Y-174693328D01*
X203672314Y-174693328D02*
X203958028Y-174693328D01*
X203958028Y-174693328D02*
X204100885Y-174621900D01*
X204100885Y-174621900D02*
X204172314Y-174550471D01*
X204172314Y-174550471D02*
X204243742Y-174407614D01*
X204243742Y-174407614D02*
X204243742Y-173193328D01*
X204886600Y-174621900D02*
X205100886Y-174693328D01*
X205100886Y-174693328D02*
X205458028Y-174693328D01*
X205458028Y-174693328D02*
X205600886Y-174621900D01*
X205600886Y-174621900D02*
X205672314Y-174550471D01*
X205672314Y-174550471D02*
X205743743Y-174407614D01*
X205743743Y-174407614D02*
X205743743Y-174264757D01*
X205743743Y-174264757D02*
X205672314Y-174121900D01*
X205672314Y-174121900D02*
X205600886Y-174050471D01*
X205600886Y-174050471D02*
X205458028Y-173979042D01*
X205458028Y-173979042D02*
X205172314Y-173907614D01*
X205172314Y-173907614D02*
X205029457Y-173836185D01*
X205029457Y-173836185D02*
X204958028Y-173764757D01*
X204958028Y-173764757D02*
X204886600Y-173621900D01*
X204886600Y-173621900D02*
X204886600Y-173479042D01*
X204886600Y-173479042D02*
X204958028Y-173336185D01*
X204958028Y-173336185D02*
X205029457Y-173264757D01*
X205029457Y-173264757D02*
X205172314Y-173193328D01*
X205172314Y-173193328D02*
X205529457Y-173193328D01*
X205529457Y-173193328D02*
X205743743Y-173264757D01*
X206886599Y-173907614D02*
X207100885Y-173979042D01*
X207100885Y-173979042D02*
X207172314Y-174050471D01*
X207172314Y-174050471D02*
X207243742Y-174193328D01*
X207243742Y-174193328D02*
X207243742Y-174407614D01*
X207243742Y-174407614D02*
X207172314Y-174550471D01*
X207172314Y-174550471D02*
X207100885Y-174621900D01*
X207100885Y-174621900D02*
X206958028Y-174693328D01*
X206958028Y-174693328D02*
X206386599Y-174693328D01*
X206386599Y-174693328D02*
X206386599Y-173193328D01*
X206386599Y-173193328D02*
X206886599Y-173193328D01*
X206886599Y-173193328D02*
X207029457Y-173264757D01*
X207029457Y-173264757D02*
X207100885Y-173336185D01*
X207100885Y-173336185D02*
X207172314Y-173479042D01*
X207172314Y-173479042D02*
X207172314Y-173621900D01*
X207172314Y-173621900D02*
X207100885Y-173764757D01*
X207100885Y-173764757D02*
X207029457Y-173836185D01*
X207029457Y-173836185D02*
X206886599Y-173907614D01*
X206886599Y-173907614D02*
X206386599Y-173907614D01*
X207672314Y-173693328D02*
X208243742Y-173693328D01*
X207886599Y-173193328D02*
X207886599Y-174479042D01*
X207886599Y-174479042D02*
X207958028Y-174621900D01*
X207958028Y-174621900D02*
X208100885Y-174693328D01*
X208100885Y-174693328D02*
X208243742Y-174693328D01*
X208958028Y-174693328D02*
X208815171Y-174621900D01*
X208815171Y-174621900D02*
X208743742Y-174550471D01*
X208743742Y-174550471D02*
X208672314Y-174407614D01*
X208672314Y-174407614D02*
X208672314Y-173979042D01*
X208672314Y-173979042D02*
X208743742Y-173836185D01*
X208743742Y-173836185D02*
X208815171Y-173764757D01*
X208815171Y-173764757D02*
X208958028Y-173693328D01*
X208958028Y-173693328D02*
X209172314Y-173693328D01*
X209172314Y-173693328D02*
X209315171Y-173764757D01*
X209315171Y-173764757D02*
X209386600Y-173836185D01*
X209386600Y-173836185D02*
X209458028Y-173979042D01*
X209458028Y-173979042D02*
X209458028Y-174407614D01*
X209458028Y-174407614D02*
X209386600Y-174550471D01*
X209386600Y-174550471D02*
X209315171Y-174621900D01*
X209315171Y-174621900D02*
X209172314Y-174693328D01*
X209172314Y-174693328D02*
X208958028Y-174693328D01*
X210100885Y-173193328D02*
X210100885Y-174407614D01*
X210100885Y-174407614D02*
X210172314Y-174550471D01*
X210172314Y-174550471D02*
X210243743Y-174621900D01*
X210243743Y-174621900D02*
X210386600Y-174693328D01*
X210386600Y-174693328D02*
X210672314Y-174693328D01*
X210672314Y-174693328D02*
X210815171Y-174621900D01*
X210815171Y-174621900D02*
X210886600Y-174550471D01*
X210886600Y-174550471D02*
X210958028Y-174407614D01*
X210958028Y-174407614D02*
X210958028Y-173193328D01*
X211600886Y-174264757D02*
X212315172Y-174264757D01*
X211458029Y-174693328D02*
X211958029Y-173193328D01*
X211958029Y-173193328D02*
X212458029Y-174693328D01*
X213815171Y-174693328D02*
X213315171Y-173979042D01*
X212958028Y-174693328D02*
X212958028Y-173193328D01*
X212958028Y-173193328D02*
X213529457Y-173193328D01*
X213529457Y-173193328D02*
X213672314Y-173264757D01*
X213672314Y-173264757D02*
X213743743Y-173336185D01*
X213743743Y-173336185D02*
X213815171Y-173479042D01*
X213815171Y-173479042D02*
X213815171Y-173693328D01*
X213815171Y-173693328D02*
X213743743Y-173836185D01*
X213743743Y-173836185D02*
X213672314Y-173907614D01*
X213672314Y-173907614D02*
X213529457Y-173979042D01*
X213529457Y-173979042D02*
X212958028Y-173979042D01*
X214243743Y-173193328D02*
X215100886Y-173193328D01*
X214672314Y-174693328D02*
X214672314Y-173193328D01*
D10*
D11*
X197002200Y-191507200D02*
X197002200Y-194507200D01*
D10*
D11*
X261002200Y-191507200D02*
X261002200Y-198007200D01*
D14*
X145320000Y-119550000D02*
X116180000Y-119550000D01*
X106640000Y-115620000D02*
X106640000Y-118340000D01*
X107850000Y-119550000D02*
G75*
G02*
X106640000Y-118340000I0J1210000D01*
G01*
X106640000Y-100100000D02*
G75*
G02*
X107850000Y-98890000I1210000J0D01*
G01*
X106640000Y-100100000D02*
X106640000Y-102820000D01*
X116180000Y-119550000D02*
X107850000Y-119550000D01*
X145320000Y-98890000D02*
G75*
G02*
X146530000Y-100100000I0J-1210000D01*
G01*
X146530000Y-109220000D02*
X146530000Y-100100000D01*
X116180000Y-98890000D02*
X145320000Y-98890000D01*
X146530000Y-118340000D02*
G75*
G02*
X145320000Y-119550000I-1210000J0D01*
G01*
X146530000Y-118340000D02*
X146530000Y-109220000D01*
X107850000Y-98890000D02*
X116180000Y-98890000D01*
G04 #@! TO.C,J1*
X113415000Y-113270000D02*
G75*
G02*
X113340001Y-113839994I-41960J-284410D01*
G01*
X113415000Y-113270000D02*
G75*
G02*
X113240000Y-113120000I1900J179300D01*
G01*
X113340000Y-104600000D02*
G75*
G02*
X113415000Y-105170000I33038J-285587D01*
G01*
X113240000Y-105320000D02*
G75*
G02*
X113415000Y-105170000I176931J-29336D01*
G01*
X113340000Y-113840000D02*
X106640000Y-113840000D01*
X113340000Y-104600000D02*
X106640000Y-104600000D01*
X113240000Y-105320000D02*
X113240000Y-113120000D01*
D15*
X106640000Y-115620000D02*
X106640000Y-113840000D01*
X106640000Y-104600000D02*
X106640000Y-102820000D01*
G04 #@! TD*
M02*
