M48
; DRILL file {KiCad 9.0.3} date 2025-07-24T11:09:01+0200
; FORMAT={-:-/ absolute / metric / decimal}
; #@! TF.CreationDate,2025-07-24T11:09:01+02:00
; #@! TF.GenerationSoftware,Kicad,Pcbnew,9.0.3
; #@! TF.FileFunction,Plated,1,2,PTH
FMAT,2
METRIC
; #@! TA.AperFunction,Plated,PTH,ComponentDrill
T1C0.200
; #@! TA.AperFunction,Plated,PTH,ViaDrill
T2C0.400
; #@! TA.AperFunction,Plated,PTH,ViaDrill
T3C0.600
; #@! TA.AperFunction,Plated,PTH,ComponentDrill
T4C0.600
; #@! TA.AperFunction,Plated,PTH,ViaDrill
T5C0.800
; #@! TA.AperFunction,Plated,PTH,ViaDrill
T6C1.000
; #@! TA.AperFunction,Plated,PTH,ComponentDrill
T7C1.000
%
G90
G05
T1
X129.12Y-106.86
X129.12Y-107.86
X129.12Y-108.86
X130.12Y-106.86
X130.12Y-107.86
X130.12Y-108.86
X131.12Y-106.86
X131.12Y-107.86
X131.12Y-108.86
T2
X110.87Y-102.79
X114.93Y-102.79
X115.04Y-107.725
X115.18Y-110.65
X116.22Y-105.53
X116.84Y-106.4
X118.342Y-108.72
X119.338Y-108.64
X123.35Y-109.92
X123.65Y-106.28
X128.644Y-104.08
X129.55Y-102.98
X129.55Y-111.6
X130.093Y-103.95
X130.62Y-111.6
X131.66Y-111.6
X131.93Y-103.33
X132.76Y-111.6
X132.76Y-112.694
X132.843Y-103.736
X132.85Y-102.69
X133.08Y-115.37
X133.21Y-113.76
X133.474Y-104.721
X134.135Y-106.18
X134.18Y-115.37
X134.533Y-107.097
X135.2Y-115.37
X137.106Y-110.76
X137.62Y-105.89
X138.501Y-104.103
X138.57Y-103.009
X138.678Y-106.036
X138.95Y-110.76
X139.312Y-105.402
X140.87Y-108.95
T3
X121.404Y-106.881
X125.87Y-113.2
T5
X115.65Y-112.11
X116.62Y-104.162
T6
X126.52Y-110.857
X142.61Y-109.54
T7
X117.965Y-100.33
X117.965Y-118.11
X120.505Y-100.33
X120.505Y-118.11
X123.045Y-100.33
X123.045Y-118.11
X125.585Y-100.33
X125.585Y-118.11
X128.125Y-100.33
X128.125Y-118.11
X130.665Y-100.33
X130.665Y-118.11
X133.205Y-100.33
X133.205Y-118.11
X135.745Y-100.33
X135.745Y-118.11
X138.285Y-100.33
X138.285Y-118.11
X140.825Y-100.33
X140.825Y-118.11
X145.1Y-102.86
X145.1Y-105.4
X145.1Y-107.94
X145.1Y-110.48
X145.1Y-113.02
X145.1Y-115.56
T4
G00X109.34Y-103.6
M15
G01X108.14Y-103.6
M16
G05
G00X109.34Y-114.84
M15
G01X108.14Y-114.84
M16
G05
G00X113.14Y-103.6
M15
G01X112.34Y-103.6
M16
G05
G00X113.14Y-114.84
M15
G01X112.34Y-114.84
M16
G05
M30
