G04 #@! TF.GenerationSoftware,KiCad,Pcbnew,9.0.3*
G04 #@! TF.CreationDate,2025-07-24T11:03:05+02:00*
G04 #@! TF.ProjectId,USBtoUART,55534274-6f55-4415-9254-2e6b69636164,v1.0*
G04 #@! TF.SameCoordinates,Original*
G04 #@! TF.FileFunction,Legend,Bot*
G04 #@! TF.FilePolarity,Positive*
%FSLAX46Y46*%
G04 Gerber Fmt 4.6, Leading zero omitted, Abs format (unit mm)*
G04 Created by KiCad (PCBNEW 9.0.3) date 2025-07-24 11:03:05*
%MOMM*%
%LPD*%
G01*
G04 APERTURE LIST*
%ADD10C,0.100000*%
%ADD11C,0.150000*%
%ADD12C,0.300000*%
%ADD13C,0.400000*%
%ADD14C,0.200000*%
%ADD15C,0.350000*%
%ADD16C,0.280000*%
%ADD17C,0.120000*%
G04 APERTURE END LIST*
D10*
D11*
X177002200Y-166007200D02*
X285002200Y-166007200D01*
X285002200Y-198007200D01*
X177002200Y-198007200D01*
X177002200Y-166007200D01*
D10*
D11*
X10000000Y-10000000D02*
X287002200Y-10000000D01*
X287002200Y-200007200D01*
X10000000Y-200007200D01*
X10000000Y-10000000D01*
D10*
D11*
X12000000Y-12000000D02*
X285002200Y-12000000D01*
X285002200Y-198007200D01*
X12000000Y-198007200D01*
X12000000Y-12000000D01*
D10*
D11*
X60000000Y-12000000D02*
X60000000Y-10000000D01*
D10*
D11*
X110000000Y-12000000D02*
X110000000Y-10000000D01*
D10*
D11*
X160000000Y-12000000D02*
X160000000Y-10000000D01*
D10*
D11*
X210000000Y-12000000D02*
X210000000Y-10000000D01*
D10*
D11*
X260000000Y-12000000D02*
X260000000Y-10000000D01*
D10*
D11*
X36089160Y-11593604D02*
X35346303Y-11593604D01*
X35717731Y-11593604D02*
X35717731Y-10293604D01*
X35717731Y-10293604D02*
X35593922Y-10479319D01*
X35593922Y-10479319D02*
X35470112Y-10603128D01*
X35470112Y-10603128D02*
X35346303Y-10665033D01*
D10*
D11*
X85346303Y-10417414D02*
X85408207Y-10355509D01*
X85408207Y-10355509D02*
X85532017Y-10293604D01*
X85532017Y-10293604D02*
X85841541Y-10293604D01*
X85841541Y-10293604D02*
X85965350Y-10355509D01*
X85965350Y-10355509D02*
X86027255Y-10417414D01*
X86027255Y-10417414D02*
X86089160Y-10541223D01*
X86089160Y-10541223D02*
X86089160Y-10665033D01*
X86089160Y-10665033D02*
X86027255Y-10850747D01*
X86027255Y-10850747D02*
X85284398Y-11593604D01*
X85284398Y-11593604D02*
X86089160Y-11593604D01*
D10*
D11*
X135284398Y-10293604D02*
X136089160Y-10293604D01*
X136089160Y-10293604D02*
X135655826Y-10788842D01*
X135655826Y-10788842D02*
X135841541Y-10788842D01*
X135841541Y-10788842D02*
X135965350Y-10850747D01*
X135965350Y-10850747D02*
X136027255Y-10912652D01*
X136027255Y-10912652D02*
X136089160Y-11036461D01*
X136089160Y-11036461D02*
X136089160Y-11345985D01*
X136089160Y-11345985D02*
X136027255Y-11469795D01*
X136027255Y-11469795D02*
X135965350Y-11531700D01*
X135965350Y-11531700D02*
X135841541Y-11593604D01*
X135841541Y-11593604D02*
X135470112Y-11593604D01*
X135470112Y-11593604D02*
X135346303Y-11531700D01*
X135346303Y-11531700D02*
X135284398Y-11469795D01*
D10*
D11*
X185965350Y-10726938D02*
X185965350Y-11593604D01*
X185655826Y-10231700D02*
X185346303Y-11160271D01*
X185346303Y-11160271D02*
X186151064Y-11160271D01*
D10*
D11*
X236027255Y-10293604D02*
X235408207Y-10293604D01*
X235408207Y-10293604D02*
X235346303Y-10912652D01*
X235346303Y-10912652D02*
X235408207Y-10850747D01*
X235408207Y-10850747D02*
X235532017Y-10788842D01*
X235532017Y-10788842D02*
X235841541Y-10788842D01*
X235841541Y-10788842D02*
X235965350Y-10850747D01*
X235965350Y-10850747D02*
X236027255Y-10912652D01*
X236027255Y-10912652D02*
X236089160Y-11036461D01*
X236089160Y-11036461D02*
X236089160Y-11345985D01*
X236089160Y-11345985D02*
X236027255Y-11469795D01*
X236027255Y-11469795D02*
X235965350Y-11531700D01*
X235965350Y-11531700D02*
X235841541Y-11593604D01*
X235841541Y-11593604D02*
X235532017Y-11593604D01*
X235532017Y-11593604D02*
X235408207Y-11531700D01*
X235408207Y-11531700D02*
X235346303Y-11469795D01*
D10*
D11*
X285965350Y-10293604D02*
X285717731Y-10293604D01*
X285717731Y-10293604D02*
X285593922Y-10355509D01*
X285593922Y-10355509D02*
X285532017Y-10417414D01*
X285532017Y-10417414D02*
X285408207Y-10603128D01*
X285408207Y-10603128D02*
X285346303Y-10850747D01*
X285346303Y-10850747D02*
X285346303Y-11345985D01*
X285346303Y-11345985D02*
X285408207Y-11469795D01*
X285408207Y-11469795D02*
X285470112Y-11531700D01*
X285470112Y-11531700D02*
X285593922Y-11593604D01*
X285593922Y-11593604D02*
X285841541Y-11593604D01*
X285841541Y-11593604D02*
X285965350Y-11531700D01*
X285965350Y-11531700D02*
X286027255Y-11469795D01*
X286027255Y-11469795D02*
X286089160Y-11345985D01*
X286089160Y-11345985D02*
X286089160Y-11036461D01*
X286089160Y-11036461D02*
X286027255Y-10912652D01*
X286027255Y-10912652D02*
X285965350Y-10850747D01*
X285965350Y-10850747D02*
X285841541Y-10788842D01*
X285841541Y-10788842D02*
X285593922Y-10788842D01*
X285593922Y-10788842D02*
X285470112Y-10850747D01*
X285470112Y-10850747D02*
X285408207Y-10912652D01*
X285408207Y-10912652D02*
X285346303Y-11036461D01*
D10*
D11*
X60000000Y-198007200D02*
X60000000Y-200007200D01*
D10*
D11*
X110000000Y-198007200D02*
X110000000Y-200007200D01*
D10*
D11*
X160000000Y-198007200D02*
X160000000Y-200007200D01*
D10*
D11*
X210000000Y-198007200D02*
X210000000Y-200007200D01*
D10*
D11*
X260000000Y-198007200D02*
X260000000Y-200007200D01*
D10*
D11*
X36089160Y-199600804D02*
X35346303Y-199600804D01*
X35717731Y-199600804D02*
X35717731Y-198300804D01*
X35717731Y-198300804D02*
X35593922Y-198486519D01*
X35593922Y-198486519D02*
X35470112Y-198610328D01*
X35470112Y-198610328D02*
X35346303Y-198672233D01*
D10*
D11*
X85346303Y-198424614D02*
X85408207Y-198362709D01*
X85408207Y-198362709D02*
X85532017Y-198300804D01*
X85532017Y-198300804D02*
X85841541Y-198300804D01*
X85841541Y-198300804D02*
X85965350Y-198362709D01*
X85965350Y-198362709D02*
X86027255Y-198424614D01*
X86027255Y-198424614D02*
X86089160Y-198548423D01*
X86089160Y-198548423D02*
X86089160Y-198672233D01*
X86089160Y-198672233D02*
X86027255Y-198857947D01*
X86027255Y-198857947D02*
X85284398Y-199600804D01*
X85284398Y-199600804D02*
X86089160Y-199600804D01*
D10*
D11*
X135284398Y-198300804D02*
X136089160Y-198300804D01*
X136089160Y-198300804D02*
X135655826Y-198796042D01*
X135655826Y-198796042D02*
X135841541Y-198796042D01*
X135841541Y-198796042D02*
X135965350Y-198857947D01*
X135965350Y-198857947D02*
X136027255Y-198919852D01*
X136027255Y-198919852D02*
X136089160Y-199043661D01*
X136089160Y-199043661D02*
X136089160Y-199353185D01*
X136089160Y-199353185D02*
X136027255Y-199476995D01*
X136027255Y-199476995D02*
X135965350Y-199538900D01*
X135965350Y-199538900D02*
X135841541Y-199600804D01*
X135841541Y-199600804D02*
X135470112Y-199600804D01*
X135470112Y-199600804D02*
X135346303Y-199538900D01*
X135346303Y-199538900D02*
X135284398Y-199476995D01*
D10*
D11*
X185965350Y-198734138D02*
X185965350Y-199600804D01*
X185655826Y-198238900D02*
X185346303Y-199167471D01*
X185346303Y-199167471D02*
X186151064Y-199167471D01*
D10*
D11*
X236027255Y-198300804D02*
X235408207Y-198300804D01*
X235408207Y-198300804D02*
X235346303Y-198919852D01*
X235346303Y-198919852D02*
X235408207Y-198857947D01*
X235408207Y-198857947D02*
X235532017Y-198796042D01*
X235532017Y-198796042D02*
X235841541Y-198796042D01*
X235841541Y-198796042D02*
X235965350Y-198857947D01*
X235965350Y-198857947D02*
X236027255Y-198919852D01*
X236027255Y-198919852D02*
X236089160Y-199043661D01*
X236089160Y-199043661D02*
X236089160Y-199353185D01*
X236089160Y-199353185D02*
X236027255Y-199476995D01*
X236027255Y-199476995D02*
X235965350Y-199538900D01*
X235965350Y-199538900D02*
X235841541Y-199600804D01*
X235841541Y-199600804D02*
X235532017Y-199600804D01*
X235532017Y-199600804D02*
X235408207Y-199538900D01*
X235408207Y-199538900D02*
X235346303Y-199476995D01*
D10*
D11*
X285965350Y-198300804D02*
X285717731Y-198300804D01*
X285717731Y-198300804D02*
X285593922Y-198362709D01*
X285593922Y-198362709D02*
X285532017Y-198424614D01*
X285532017Y-198424614D02*
X285408207Y-198610328D01*
X285408207Y-198610328D02*
X285346303Y-198857947D01*
X285346303Y-198857947D02*
X285346303Y-199353185D01*
X285346303Y-199353185D02*
X285408207Y-199476995D01*
X285408207Y-199476995D02*
X285470112Y-199538900D01*
X285470112Y-199538900D02*
X285593922Y-199600804D01*
X285593922Y-199600804D02*
X285841541Y-199600804D01*
X285841541Y-199600804D02*
X285965350Y-199538900D01*
X285965350Y-199538900D02*
X286027255Y-199476995D01*
X286027255Y-199476995D02*
X286089160Y-199353185D01*
X286089160Y-199353185D02*
X286089160Y-199043661D01*
X286089160Y-199043661D02*
X286027255Y-198919852D01*
X286027255Y-198919852D02*
X285965350Y-198857947D01*
X285965350Y-198857947D02*
X285841541Y-198796042D01*
X285841541Y-198796042D02*
X285593922Y-198796042D01*
X285593922Y-198796042D02*
X285470112Y-198857947D01*
X285470112Y-198857947D02*
X285408207Y-198919852D01*
X285408207Y-198919852D02*
X285346303Y-199043661D01*
D10*
D11*
X10000000Y-60000000D02*
X12000000Y-60000000D01*
D10*
D11*
X10000000Y-110000000D02*
X12000000Y-110000000D01*
D10*
D11*
X10000000Y-160000000D02*
X12000000Y-160000000D01*
D10*
D11*
X10690476Y-35222176D02*
X11309523Y-35222176D01*
X10566666Y-35593604D02*
X10999999Y-34293604D01*
X10999999Y-34293604D02*
X11433333Y-35593604D01*
D10*
D11*
X11092857Y-84912652D02*
X11278571Y-84974557D01*
X11278571Y-84974557D02*
X11340476Y-85036461D01*
X11340476Y-85036461D02*
X11402380Y-85160271D01*
X11402380Y-85160271D02*
X11402380Y-85345985D01*
X11402380Y-85345985D02*
X11340476Y-85469795D01*
X11340476Y-85469795D02*
X11278571Y-85531700D01*
X11278571Y-85531700D02*
X11154761Y-85593604D01*
X11154761Y-85593604D02*
X10659523Y-85593604D01*
X10659523Y-85593604D02*
X10659523Y-84293604D01*
X10659523Y-84293604D02*
X11092857Y-84293604D01*
X11092857Y-84293604D02*
X11216666Y-84355509D01*
X11216666Y-84355509D02*
X11278571Y-84417414D01*
X11278571Y-84417414D02*
X11340476Y-84541223D01*
X11340476Y-84541223D02*
X11340476Y-84665033D01*
X11340476Y-84665033D02*
X11278571Y-84788842D01*
X11278571Y-84788842D02*
X11216666Y-84850747D01*
X11216666Y-84850747D02*
X11092857Y-84912652D01*
X11092857Y-84912652D02*
X10659523Y-84912652D01*
D10*
D11*
X11402380Y-135469795D02*
X11340476Y-135531700D01*
X11340476Y-135531700D02*
X11154761Y-135593604D01*
X11154761Y-135593604D02*
X11030952Y-135593604D01*
X11030952Y-135593604D02*
X10845238Y-135531700D01*
X10845238Y-135531700D02*
X10721428Y-135407890D01*
X10721428Y-135407890D02*
X10659523Y-135284080D01*
X10659523Y-135284080D02*
X10597619Y-135036461D01*
X10597619Y-135036461D02*
X10597619Y-134850747D01*
X10597619Y-134850747D02*
X10659523Y-134603128D01*
X10659523Y-134603128D02*
X10721428Y-134479319D01*
X10721428Y-134479319D02*
X10845238Y-134355509D01*
X10845238Y-134355509D02*
X11030952Y-134293604D01*
X11030952Y-134293604D02*
X11154761Y-134293604D01*
X11154761Y-134293604D02*
X11340476Y-134355509D01*
X11340476Y-134355509D02*
X11402380Y-134417414D01*
D10*
D11*
X10659523Y-185593604D02*
X10659523Y-184293604D01*
X10659523Y-184293604D02*
X10969047Y-184293604D01*
X10969047Y-184293604D02*
X11154761Y-184355509D01*
X11154761Y-184355509D02*
X11278571Y-184479319D01*
X11278571Y-184479319D02*
X11340476Y-184603128D01*
X11340476Y-184603128D02*
X11402380Y-184850747D01*
X11402380Y-184850747D02*
X11402380Y-185036461D01*
X11402380Y-185036461D02*
X11340476Y-185284080D01*
X11340476Y-185284080D02*
X11278571Y-185407890D01*
X11278571Y-185407890D02*
X11154761Y-185531700D01*
X11154761Y-185531700D02*
X10969047Y-185593604D01*
X10969047Y-185593604D02*
X10659523Y-185593604D01*
D10*
D11*
X287002200Y-60000000D02*
X285002200Y-60000000D01*
D10*
D11*
X287002200Y-110000000D02*
X285002200Y-110000000D01*
D10*
D11*
X287002200Y-160000000D02*
X285002200Y-160000000D01*
D10*
D11*
X285692676Y-35222176D02*
X286311723Y-35222176D01*
X285568866Y-35593604D02*
X286002199Y-34293604D01*
X286002199Y-34293604D02*
X286435533Y-35593604D01*
D10*
D11*
X286095057Y-84912652D02*
X286280771Y-84974557D01*
X286280771Y-84974557D02*
X286342676Y-85036461D01*
X286342676Y-85036461D02*
X286404580Y-85160271D01*
X286404580Y-85160271D02*
X286404580Y-85345985D01*
X286404580Y-85345985D02*
X286342676Y-85469795D01*
X286342676Y-85469795D02*
X286280771Y-85531700D01*
X286280771Y-85531700D02*
X286156961Y-85593604D01*
X286156961Y-85593604D02*
X285661723Y-85593604D01*
X285661723Y-85593604D02*
X285661723Y-84293604D01*
X285661723Y-84293604D02*
X286095057Y-84293604D01*
X286095057Y-84293604D02*
X286218866Y-84355509D01*
X286218866Y-84355509D02*
X286280771Y-84417414D01*
X286280771Y-84417414D02*
X286342676Y-84541223D01*
X286342676Y-84541223D02*
X286342676Y-84665033D01*
X286342676Y-84665033D02*
X286280771Y-84788842D01*
X286280771Y-84788842D02*
X286218866Y-84850747D01*
X286218866Y-84850747D02*
X286095057Y-84912652D01*
X286095057Y-84912652D02*
X285661723Y-84912652D01*
D10*
D11*
X286404580Y-135469795D02*
X286342676Y-135531700D01*
X286342676Y-135531700D02*
X286156961Y-135593604D01*
X286156961Y-135593604D02*
X286033152Y-135593604D01*
X286033152Y-135593604D02*
X285847438Y-135531700D01*
X285847438Y-135531700D02*
X285723628Y-135407890D01*
X285723628Y-135407890D02*
X285661723Y-135284080D01*
X285661723Y-135284080D02*
X285599819Y-135036461D01*
X285599819Y-135036461D02*
X285599819Y-134850747D01*
X285599819Y-134850747D02*
X285661723Y-134603128D01*
X285661723Y-134603128D02*
X285723628Y-134479319D01*
X285723628Y-134479319D02*
X285847438Y-134355509D01*
X285847438Y-134355509D02*
X286033152Y-134293604D01*
X286033152Y-134293604D02*
X286156961Y-134293604D01*
X286156961Y-134293604D02*
X286342676Y-134355509D01*
X286342676Y-134355509D02*
X286404580Y-134417414D01*
D10*
D11*
X285661723Y-185593604D02*
X285661723Y-184293604D01*
X285661723Y-184293604D02*
X285971247Y-184293604D01*
X285971247Y-184293604D02*
X286156961Y-184355509D01*
X286156961Y-184355509D02*
X286280771Y-184479319D01*
X286280771Y-184479319D02*
X286342676Y-184603128D01*
X286342676Y-184603128D02*
X286404580Y-184850747D01*
X286404580Y-184850747D02*
X286404580Y-185036461D01*
X286404580Y-185036461D02*
X286342676Y-185284080D01*
X286342676Y-185284080D02*
X286280771Y-185407890D01*
X286280771Y-185407890D02*
X286156961Y-185531700D01*
X286156961Y-185531700D02*
X285971247Y-185593604D01*
X285971247Y-185593604D02*
X285661723Y-185593604D01*
D10*
D11*
X200458026Y-193793328D02*
X200458026Y-192293328D01*
X200458026Y-192293328D02*
X200815169Y-192293328D01*
X200815169Y-192293328D02*
X201029455Y-192364757D01*
X201029455Y-192364757D02*
X201172312Y-192507614D01*
X201172312Y-192507614D02*
X201243741Y-192650471D01*
X201243741Y-192650471D02*
X201315169Y-192936185D01*
X201315169Y-192936185D02*
X201315169Y-193150471D01*
X201315169Y-193150471D02*
X201243741Y-193436185D01*
X201243741Y-193436185D02*
X201172312Y-193579042D01*
X201172312Y-193579042D02*
X201029455Y-193721900D01*
X201029455Y-193721900D02*
X200815169Y-193793328D01*
X200815169Y-193793328D02*
X200458026Y-193793328D01*
X202600884Y-193793328D02*
X202600884Y-193007614D01*
X202600884Y-193007614D02*
X202529455Y-192864757D01*
X202529455Y-192864757D02*
X202386598Y-192793328D01*
X202386598Y-192793328D02*
X202100884Y-192793328D01*
X202100884Y-192793328D02*
X201958026Y-192864757D01*
X202600884Y-193721900D02*
X202458026Y-193793328D01*
X202458026Y-193793328D02*
X202100884Y-193793328D01*
X202100884Y-193793328D02*
X201958026Y-193721900D01*
X201958026Y-193721900D02*
X201886598Y-193579042D01*
X201886598Y-193579042D02*
X201886598Y-193436185D01*
X201886598Y-193436185D02*
X201958026Y-193293328D01*
X201958026Y-193293328D02*
X202100884Y-193221900D01*
X202100884Y-193221900D02*
X202458026Y-193221900D01*
X202458026Y-193221900D02*
X202600884Y-193150471D01*
X203100884Y-192793328D02*
X203672312Y-192793328D01*
X203315169Y-192293328D02*
X203315169Y-193579042D01*
X203315169Y-193579042D02*
X203386598Y-193721900D01*
X203386598Y-193721900D02*
X203529455Y-193793328D01*
X203529455Y-193793328D02*
X203672312Y-193793328D01*
X204743741Y-193721900D02*
X204600884Y-193793328D01*
X204600884Y-193793328D02*
X204315170Y-193793328D01*
X204315170Y-193793328D02*
X204172312Y-193721900D01*
X204172312Y-193721900D02*
X204100884Y-193579042D01*
X204100884Y-193579042D02*
X204100884Y-193007614D01*
X204100884Y-193007614D02*
X204172312Y-192864757D01*
X204172312Y-192864757D02*
X204315170Y-192793328D01*
X204315170Y-192793328D02*
X204600884Y-192793328D01*
X204600884Y-192793328D02*
X204743741Y-192864757D01*
X204743741Y-192864757D02*
X204815170Y-193007614D01*
X204815170Y-193007614D02*
X204815170Y-193150471D01*
X204815170Y-193150471D02*
X204100884Y-193293328D01*
X205458026Y-193650471D02*
X205529455Y-193721900D01*
X205529455Y-193721900D02*
X205458026Y-193793328D01*
X205458026Y-193793328D02*
X205386598Y-193721900D01*
X205386598Y-193721900D02*
X205458026Y-193650471D01*
X205458026Y-193650471D02*
X205458026Y-193793328D01*
X205458026Y-192864757D02*
X205529455Y-192936185D01*
X205529455Y-192936185D02*
X205458026Y-193007614D01*
X205458026Y-193007614D02*
X205386598Y-192936185D01*
X205386598Y-192936185D02*
X205458026Y-192864757D01*
X205458026Y-192864757D02*
X205458026Y-193007614D01*
X207243741Y-192436185D02*
X207315169Y-192364757D01*
X207315169Y-192364757D02*
X207458027Y-192293328D01*
X207458027Y-192293328D02*
X207815169Y-192293328D01*
X207815169Y-192293328D02*
X207958027Y-192364757D01*
X207958027Y-192364757D02*
X208029455Y-192436185D01*
X208029455Y-192436185D02*
X208100884Y-192579042D01*
X208100884Y-192579042D02*
X208100884Y-192721900D01*
X208100884Y-192721900D02*
X208029455Y-192936185D01*
X208029455Y-192936185D02*
X207172312Y-193793328D01*
X207172312Y-193793328D02*
X208100884Y-193793328D01*
X208600883Y-192293328D02*
X209529455Y-192293328D01*
X209529455Y-192293328D02*
X209029455Y-192864757D01*
X209029455Y-192864757D02*
X209243740Y-192864757D01*
X209243740Y-192864757D02*
X209386598Y-192936185D01*
X209386598Y-192936185D02*
X209458026Y-193007614D01*
X209458026Y-193007614D02*
X209529455Y-193150471D01*
X209529455Y-193150471D02*
X209529455Y-193507614D01*
X209529455Y-193507614D02*
X209458026Y-193650471D01*
X209458026Y-193650471D02*
X209386598Y-193721900D01*
X209386598Y-193721900D02*
X209243740Y-193793328D01*
X209243740Y-193793328D02*
X208815169Y-193793328D01*
X208815169Y-193793328D02*
X208672312Y-193721900D01*
X208672312Y-193721900D02*
X208600883Y-193650471D01*
X210172311Y-193221900D02*
X211315169Y-193221900D01*
X212315169Y-192293328D02*
X212458026Y-192293328D01*
X212458026Y-192293328D02*
X212600883Y-192364757D01*
X212600883Y-192364757D02*
X212672312Y-192436185D01*
X212672312Y-192436185D02*
X212743740Y-192579042D01*
X212743740Y-192579042D02*
X212815169Y-192864757D01*
X212815169Y-192864757D02*
X212815169Y-193221900D01*
X212815169Y-193221900D02*
X212743740Y-193507614D01*
X212743740Y-193507614D02*
X212672312Y-193650471D01*
X212672312Y-193650471D02*
X212600883Y-193721900D01*
X212600883Y-193721900D02*
X212458026Y-193793328D01*
X212458026Y-193793328D02*
X212315169Y-193793328D01*
X212315169Y-193793328D02*
X212172312Y-193721900D01*
X212172312Y-193721900D02*
X212100883Y-193650471D01*
X212100883Y-193650471D02*
X212029454Y-193507614D01*
X212029454Y-193507614D02*
X211958026Y-193221900D01*
X211958026Y-193221900D02*
X211958026Y-192864757D01*
X211958026Y-192864757D02*
X212029454Y-192579042D01*
X212029454Y-192579042D02*
X212100883Y-192436185D01*
X212100883Y-192436185D02*
X212172312Y-192364757D01*
X212172312Y-192364757D02*
X212315169Y-192293328D01*
X213315168Y-192293328D02*
X214315168Y-192293328D01*
X214315168Y-192293328D02*
X213672311Y-193793328D01*
X214886596Y-193221900D02*
X216029454Y-193221900D01*
X216672311Y-192436185D02*
X216743739Y-192364757D01*
X216743739Y-192364757D02*
X216886597Y-192293328D01*
X216886597Y-192293328D02*
X217243739Y-192293328D01*
X217243739Y-192293328D02*
X217386597Y-192364757D01*
X217386597Y-192364757D02*
X217458025Y-192436185D01*
X217458025Y-192436185D02*
X217529454Y-192579042D01*
X217529454Y-192579042D02*
X217529454Y-192721900D01*
X217529454Y-192721900D02*
X217458025Y-192936185D01*
X217458025Y-192936185D02*
X216600882Y-193793328D01*
X216600882Y-193793328D02*
X217529454Y-193793328D01*
X218458025Y-192293328D02*
X218600882Y-192293328D01*
X218600882Y-192293328D02*
X218743739Y-192364757D01*
X218743739Y-192364757D02*
X218815168Y-192436185D01*
X218815168Y-192436185D02*
X218886596Y-192579042D01*
X218886596Y-192579042D02*
X218958025Y-192864757D01*
X218958025Y-192864757D02*
X218958025Y-193221900D01*
X218958025Y-193221900D02*
X218886596Y-193507614D01*
X218886596Y-193507614D02*
X218815168Y-193650471D01*
X218815168Y-193650471D02*
X218743739Y-193721900D01*
X218743739Y-193721900D02*
X218600882Y-193793328D01*
X218600882Y-193793328D02*
X218458025Y-193793328D01*
X218458025Y-193793328D02*
X218315168Y-193721900D01*
X218315168Y-193721900D02*
X218243739Y-193650471D01*
X218243739Y-193650471D02*
X218172310Y-193507614D01*
X218172310Y-193507614D02*
X218100882Y-193221900D01*
X218100882Y-193221900D02*
X218100882Y-192864757D01*
X218100882Y-192864757D02*
X218172310Y-192579042D01*
X218172310Y-192579042D02*
X218243739Y-192436185D01*
X218243739Y-192436185D02*
X218315168Y-192364757D01*
X218315168Y-192364757D02*
X218458025Y-192293328D01*
X219529453Y-192436185D02*
X219600881Y-192364757D01*
X219600881Y-192364757D02*
X219743739Y-192293328D01*
X219743739Y-192293328D02*
X220100881Y-192293328D01*
X220100881Y-192293328D02*
X220243739Y-192364757D01*
X220243739Y-192364757D02*
X220315167Y-192436185D01*
X220315167Y-192436185D02*
X220386596Y-192579042D01*
X220386596Y-192579042D02*
X220386596Y-192721900D01*
X220386596Y-192721900D02*
X220315167Y-192936185D01*
X220315167Y-192936185D02*
X219458024Y-193793328D01*
X219458024Y-193793328D02*
X220386596Y-193793328D01*
X221743738Y-192293328D02*
X221029452Y-192293328D01*
X221029452Y-192293328D02*
X220958024Y-193007614D01*
X220958024Y-193007614D02*
X221029452Y-192936185D01*
X221029452Y-192936185D02*
X221172310Y-192864757D01*
X221172310Y-192864757D02*
X221529452Y-192864757D01*
X221529452Y-192864757D02*
X221672310Y-192936185D01*
X221672310Y-192936185D02*
X221743738Y-193007614D01*
X221743738Y-193007614D02*
X221815167Y-193150471D01*
X221815167Y-193150471D02*
X221815167Y-193507614D01*
X221815167Y-193507614D02*
X221743738Y-193650471D01*
X221743738Y-193650471D02*
X221672310Y-193721900D01*
X221672310Y-193721900D02*
X221529452Y-193793328D01*
X221529452Y-193793328D02*
X221172310Y-193793328D01*
X221172310Y-193793328D02*
X221029452Y-193721900D01*
X221029452Y-193721900D02*
X220958024Y-193650471D01*
D10*
D11*
X177002200Y-194507200D02*
X285002200Y-194507200D01*
D10*
D11*
X178458026Y-196593328D02*
X178458026Y-195093328D01*
X179315169Y-196593328D02*
X178672312Y-195736185D01*
X179315169Y-195093328D02*
X178458026Y-195950471D01*
X179958026Y-196593328D02*
X179958026Y-195593328D01*
X179958026Y-195093328D02*
X179886598Y-195164757D01*
X179886598Y-195164757D02*
X179958026Y-195236185D01*
X179958026Y-195236185D02*
X180029455Y-195164757D01*
X180029455Y-195164757D02*
X179958026Y-195093328D01*
X179958026Y-195093328D02*
X179958026Y-195236185D01*
X181529455Y-196450471D02*
X181458027Y-196521900D01*
X181458027Y-196521900D02*
X181243741Y-196593328D01*
X181243741Y-196593328D02*
X181100884Y-196593328D01*
X181100884Y-196593328D02*
X180886598Y-196521900D01*
X180886598Y-196521900D02*
X180743741Y-196379042D01*
X180743741Y-196379042D02*
X180672312Y-196236185D01*
X180672312Y-196236185D02*
X180600884Y-195950471D01*
X180600884Y-195950471D02*
X180600884Y-195736185D01*
X180600884Y-195736185D02*
X180672312Y-195450471D01*
X180672312Y-195450471D02*
X180743741Y-195307614D01*
X180743741Y-195307614D02*
X180886598Y-195164757D01*
X180886598Y-195164757D02*
X181100884Y-195093328D01*
X181100884Y-195093328D02*
X181243741Y-195093328D01*
X181243741Y-195093328D02*
X181458027Y-195164757D01*
X181458027Y-195164757D02*
X181529455Y-195236185D01*
X182815170Y-196593328D02*
X182815170Y-195807614D01*
X182815170Y-195807614D02*
X182743741Y-195664757D01*
X182743741Y-195664757D02*
X182600884Y-195593328D01*
X182600884Y-195593328D02*
X182315170Y-195593328D01*
X182315170Y-195593328D02*
X182172312Y-195664757D01*
X182815170Y-196521900D02*
X182672312Y-196593328D01*
X182672312Y-196593328D02*
X182315170Y-196593328D01*
X182315170Y-196593328D02*
X182172312Y-196521900D01*
X182172312Y-196521900D02*
X182100884Y-196379042D01*
X182100884Y-196379042D02*
X182100884Y-196236185D01*
X182100884Y-196236185D02*
X182172312Y-196093328D01*
X182172312Y-196093328D02*
X182315170Y-196021900D01*
X182315170Y-196021900D02*
X182672312Y-196021900D01*
X182672312Y-196021900D02*
X182815170Y-195950471D01*
X184172313Y-196593328D02*
X184172313Y-195093328D01*
X184172313Y-196521900D02*
X184029455Y-196593328D01*
X184029455Y-196593328D02*
X183743741Y-196593328D01*
X183743741Y-196593328D02*
X183600884Y-196521900D01*
X183600884Y-196521900D02*
X183529455Y-196450471D01*
X183529455Y-196450471D02*
X183458027Y-196307614D01*
X183458027Y-196307614D02*
X183458027Y-195879042D01*
X183458027Y-195879042D02*
X183529455Y-195736185D01*
X183529455Y-195736185D02*
X183600884Y-195664757D01*
X183600884Y-195664757D02*
X183743741Y-195593328D01*
X183743741Y-195593328D02*
X184029455Y-195593328D01*
X184029455Y-195593328D02*
X184172313Y-195664757D01*
X186029455Y-195807614D02*
X186529455Y-195807614D01*
X186743741Y-196593328D02*
X186029455Y-196593328D01*
X186029455Y-196593328D02*
X186029455Y-195093328D01*
X186029455Y-195093328D02*
X186743741Y-195093328D01*
X187386598Y-196450471D02*
X187458027Y-196521900D01*
X187458027Y-196521900D02*
X187386598Y-196593328D01*
X187386598Y-196593328D02*
X187315170Y-196521900D01*
X187315170Y-196521900D02*
X187386598Y-196450471D01*
X187386598Y-196450471D02*
X187386598Y-196593328D01*
X188100884Y-196593328D02*
X188100884Y-195093328D01*
X188100884Y-195093328D02*
X188458027Y-195093328D01*
X188458027Y-195093328D02*
X188672313Y-195164757D01*
X188672313Y-195164757D02*
X188815170Y-195307614D01*
X188815170Y-195307614D02*
X188886599Y-195450471D01*
X188886599Y-195450471D02*
X188958027Y-195736185D01*
X188958027Y-195736185D02*
X188958027Y-195950471D01*
X188958027Y-195950471D02*
X188886599Y-196236185D01*
X188886599Y-196236185D02*
X188815170Y-196379042D01*
X188815170Y-196379042D02*
X188672313Y-196521900D01*
X188672313Y-196521900D02*
X188458027Y-196593328D01*
X188458027Y-196593328D02*
X188100884Y-196593328D01*
X189600884Y-196450471D02*
X189672313Y-196521900D01*
X189672313Y-196521900D02*
X189600884Y-196593328D01*
X189600884Y-196593328D02*
X189529456Y-196521900D01*
X189529456Y-196521900D02*
X189600884Y-196450471D01*
X189600884Y-196450471D02*
X189600884Y-196593328D01*
X190243742Y-196164757D02*
X190958028Y-196164757D01*
X190100885Y-196593328D02*
X190600885Y-195093328D01*
X190600885Y-195093328D02*
X191100885Y-196593328D01*
X191600884Y-196450471D02*
X191672313Y-196521900D01*
X191672313Y-196521900D02*
X191600884Y-196593328D01*
X191600884Y-196593328D02*
X191529456Y-196521900D01*
X191529456Y-196521900D02*
X191600884Y-196450471D01*
X191600884Y-196450471D02*
X191600884Y-196593328D01*
X193529456Y-196593328D02*
X193815170Y-196593328D01*
X193815170Y-196593328D02*
X193958027Y-196521900D01*
X193958027Y-196521900D02*
X194029456Y-196450471D01*
X194029456Y-196450471D02*
X194172313Y-196236185D01*
X194172313Y-196236185D02*
X194243742Y-195950471D01*
X194243742Y-195950471D02*
X194243742Y-195379042D01*
X194243742Y-195379042D02*
X194172313Y-195236185D01*
X194172313Y-195236185D02*
X194100885Y-195164757D01*
X194100885Y-195164757D02*
X193958027Y-195093328D01*
X193958027Y-195093328D02*
X193672313Y-195093328D01*
X193672313Y-195093328D02*
X193529456Y-195164757D01*
X193529456Y-195164757D02*
X193458027Y-195236185D01*
X193458027Y-195236185D02*
X193386599Y-195379042D01*
X193386599Y-195379042D02*
X193386599Y-195736185D01*
X193386599Y-195736185D02*
X193458027Y-195879042D01*
X193458027Y-195879042D02*
X193529456Y-195950471D01*
X193529456Y-195950471D02*
X193672313Y-196021900D01*
X193672313Y-196021900D02*
X193958027Y-196021900D01*
X193958027Y-196021900D02*
X194100885Y-195950471D01*
X194100885Y-195950471D02*
X194172313Y-195879042D01*
X194172313Y-195879042D02*
X194243742Y-195736185D01*
X194886598Y-196450471D02*
X194958027Y-196521900D01*
X194958027Y-196521900D02*
X194886598Y-196593328D01*
X194886598Y-196593328D02*
X194815170Y-196521900D01*
X194815170Y-196521900D02*
X194886598Y-196450471D01*
X194886598Y-196450471D02*
X194886598Y-196593328D01*
X195886599Y-195093328D02*
X196029456Y-195093328D01*
X196029456Y-195093328D02*
X196172313Y-195164757D01*
X196172313Y-195164757D02*
X196243742Y-195236185D01*
X196243742Y-195236185D02*
X196315170Y-195379042D01*
X196315170Y-195379042D02*
X196386599Y-195664757D01*
X196386599Y-195664757D02*
X196386599Y-196021900D01*
X196386599Y-196021900D02*
X196315170Y-196307614D01*
X196315170Y-196307614D02*
X196243742Y-196450471D01*
X196243742Y-196450471D02*
X196172313Y-196521900D01*
X196172313Y-196521900D02*
X196029456Y-196593328D01*
X196029456Y-196593328D02*
X195886599Y-196593328D01*
X195886599Y-196593328D02*
X195743742Y-196521900D01*
X195743742Y-196521900D02*
X195672313Y-196450471D01*
X195672313Y-196450471D02*
X195600884Y-196307614D01*
X195600884Y-196307614D02*
X195529456Y-196021900D01*
X195529456Y-196021900D02*
X195529456Y-195664757D01*
X195529456Y-195664757D02*
X195600884Y-195379042D01*
X195600884Y-195379042D02*
X195672313Y-195236185D01*
X195672313Y-195236185D02*
X195743742Y-195164757D01*
X195743742Y-195164757D02*
X195886599Y-195093328D01*
X197029455Y-196450471D02*
X197100884Y-196521900D01*
X197100884Y-196521900D02*
X197029455Y-196593328D01*
X197029455Y-196593328D02*
X196958027Y-196521900D01*
X196958027Y-196521900D02*
X197029455Y-196450471D01*
X197029455Y-196450471D02*
X197029455Y-196593328D01*
X197600884Y-195093328D02*
X198529456Y-195093328D01*
X198529456Y-195093328D02*
X198029456Y-195664757D01*
X198029456Y-195664757D02*
X198243741Y-195664757D01*
X198243741Y-195664757D02*
X198386599Y-195736185D01*
X198386599Y-195736185D02*
X198458027Y-195807614D01*
X198458027Y-195807614D02*
X198529456Y-195950471D01*
X198529456Y-195950471D02*
X198529456Y-196307614D01*
X198529456Y-196307614D02*
X198458027Y-196450471D01*
X198458027Y-196450471D02*
X198386599Y-196521900D01*
X198386599Y-196521900D02*
X198243741Y-196593328D01*
X198243741Y-196593328D02*
X197815170Y-196593328D01*
X197815170Y-196593328D02*
X197672313Y-196521900D01*
X197672313Y-196521900D02*
X197600884Y-196450471D01*
D10*
D11*
X177002200Y-191507200D02*
X285002200Y-191507200D01*
D10*
D12*
X264413853Y-193785528D02*
X263913853Y-193071242D01*
X263556710Y-193785528D02*
X263556710Y-192285528D01*
X263556710Y-192285528D02*
X264128139Y-192285528D01*
X264128139Y-192285528D02*
X264270996Y-192356957D01*
X264270996Y-192356957D02*
X264342425Y-192428385D01*
X264342425Y-192428385D02*
X264413853Y-192571242D01*
X264413853Y-192571242D02*
X264413853Y-192785528D01*
X264413853Y-192785528D02*
X264342425Y-192928385D01*
X264342425Y-192928385D02*
X264270996Y-192999814D01*
X264270996Y-192999814D02*
X264128139Y-193071242D01*
X264128139Y-193071242D02*
X263556710Y-193071242D01*
X265628139Y-193714100D02*
X265485282Y-193785528D01*
X265485282Y-193785528D02*
X265199568Y-193785528D01*
X265199568Y-193785528D02*
X265056710Y-193714100D01*
X265056710Y-193714100D02*
X264985282Y-193571242D01*
X264985282Y-193571242D02*
X264985282Y-192999814D01*
X264985282Y-192999814D02*
X265056710Y-192856957D01*
X265056710Y-192856957D02*
X265199568Y-192785528D01*
X265199568Y-192785528D02*
X265485282Y-192785528D01*
X265485282Y-192785528D02*
X265628139Y-192856957D01*
X265628139Y-192856957D02*
X265699568Y-192999814D01*
X265699568Y-192999814D02*
X265699568Y-193142671D01*
X265699568Y-193142671D02*
X264985282Y-193285528D01*
X266199567Y-192785528D02*
X266556710Y-193785528D01*
X266556710Y-193785528D02*
X266913853Y-192785528D01*
X267485281Y-193642671D02*
X267556710Y-193714100D01*
X267556710Y-193714100D02*
X267485281Y-193785528D01*
X267485281Y-193785528D02*
X267413853Y-193714100D01*
X267413853Y-193714100D02*
X267485281Y-193642671D01*
X267485281Y-193642671D02*
X267485281Y-193785528D01*
X267485281Y-192856957D02*
X267556710Y-192928385D01*
X267556710Y-192928385D02*
X267485281Y-192999814D01*
X267485281Y-192999814D02*
X267413853Y-192928385D01*
X267413853Y-192928385D02*
X267485281Y-192856957D01*
X267485281Y-192856957D02*
X267485281Y-192999814D01*
X269199567Y-192785528D02*
X269556710Y-193785528D01*
X269556710Y-193785528D02*
X269913853Y-192785528D01*
X271270996Y-193785528D02*
X270413853Y-193785528D01*
X270842424Y-193785528D02*
X270842424Y-192285528D01*
X270842424Y-192285528D02*
X270699567Y-192499814D01*
X270699567Y-192499814D02*
X270556710Y-192642671D01*
X270556710Y-192642671D02*
X270413853Y-192714100D01*
X271913852Y-193642671D02*
X271985281Y-193714100D01*
X271985281Y-193714100D02*
X271913852Y-193785528D01*
X271913852Y-193785528D02*
X271842424Y-193714100D01*
X271842424Y-193714100D02*
X271913852Y-193642671D01*
X271913852Y-193642671D02*
X271913852Y-193785528D01*
X272913853Y-192285528D02*
X273056710Y-192285528D01*
X273056710Y-192285528D02*
X273199567Y-192356957D01*
X273199567Y-192356957D02*
X273270996Y-192428385D01*
X273270996Y-192428385D02*
X273342424Y-192571242D01*
X273342424Y-192571242D02*
X273413853Y-192856957D01*
X273413853Y-192856957D02*
X273413853Y-193214100D01*
X273413853Y-193214100D02*
X273342424Y-193499814D01*
X273342424Y-193499814D02*
X273270996Y-193642671D01*
X273270996Y-193642671D02*
X273199567Y-193714100D01*
X273199567Y-193714100D02*
X273056710Y-193785528D01*
X273056710Y-193785528D02*
X272913853Y-193785528D01*
X272913853Y-193785528D02*
X272770996Y-193714100D01*
X272770996Y-193714100D02*
X272699567Y-193642671D01*
X272699567Y-193642671D02*
X272628138Y-193499814D01*
X272628138Y-193499814D02*
X272556710Y-193214100D01*
X272556710Y-193214100D02*
X272556710Y-192856957D01*
X272556710Y-192856957D02*
X272628138Y-192571242D01*
X272628138Y-192571242D02*
X272699567Y-192428385D01*
X272699567Y-192428385D02*
X272770996Y-192356957D01*
X272770996Y-192356957D02*
X272913853Y-192285528D01*
D10*
D11*
X178386598Y-193721900D02*
X178600884Y-193793328D01*
X178600884Y-193793328D02*
X178958026Y-193793328D01*
X178958026Y-193793328D02*
X179100884Y-193721900D01*
X179100884Y-193721900D02*
X179172312Y-193650471D01*
X179172312Y-193650471D02*
X179243741Y-193507614D01*
X179243741Y-193507614D02*
X179243741Y-193364757D01*
X179243741Y-193364757D02*
X179172312Y-193221900D01*
X179172312Y-193221900D02*
X179100884Y-193150471D01*
X179100884Y-193150471D02*
X178958026Y-193079042D01*
X178958026Y-193079042D02*
X178672312Y-193007614D01*
X178672312Y-193007614D02*
X178529455Y-192936185D01*
X178529455Y-192936185D02*
X178458026Y-192864757D01*
X178458026Y-192864757D02*
X178386598Y-192721900D01*
X178386598Y-192721900D02*
X178386598Y-192579042D01*
X178386598Y-192579042D02*
X178458026Y-192436185D01*
X178458026Y-192436185D02*
X178529455Y-192364757D01*
X178529455Y-192364757D02*
X178672312Y-192293328D01*
X178672312Y-192293328D02*
X179029455Y-192293328D01*
X179029455Y-192293328D02*
X179243741Y-192364757D01*
X179886597Y-193793328D02*
X179886597Y-192793328D01*
X179886597Y-192293328D02*
X179815169Y-192364757D01*
X179815169Y-192364757D02*
X179886597Y-192436185D01*
X179886597Y-192436185D02*
X179958026Y-192364757D01*
X179958026Y-192364757D02*
X179886597Y-192293328D01*
X179886597Y-192293328D02*
X179886597Y-192436185D01*
X180458026Y-192793328D02*
X181243741Y-192793328D01*
X181243741Y-192793328D02*
X180458026Y-193793328D01*
X180458026Y-193793328D02*
X181243741Y-193793328D01*
X182386598Y-193721900D02*
X182243741Y-193793328D01*
X182243741Y-193793328D02*
X181958027Y-193793328D01*
X181958027Y-193793328D02*
X181815169Y-193721900D01*
X181815169Y-193721900D02*
X181743741Y-193579042D01*
X181743741Y-193579042D02*
X181743741Y-193007614D01*
X181743741Y-193007614D02*
X181815169Y-192864757D01*
X181815169Y-192864757D02*
X181958027Y-192793328D01*
X181958027Y-192793328D02*
X182243741Y-192793328D01*
X182243741Y-192793328D02*
X182386598Y-192864757D01*
X182386598Y-192864757D02*
X182458027Y-193007614D01*
X182458027Y-193007614D02*
X182458027Y-193150471D01*
X182458027Y-193150471D02*
X181743741Y-193293328D01*
X183100883Y-193650471D02*
X183172312Y-193721900D01*
X183172312Y-193721900D02*
X183100883Y-193793328D01*
X183100883Y-193793328D02*
X183029455Y-193721900D01*
X183029455Y-193721900D02*
X183100883Y-193650471D01*
X183100883Y-193650471D02*
X183100883Y-193793328D01*
X183100883Y-192864757D02*
X183172312Y-192936185D01*
X183172312Y-192936185D02*
X183100883Y-193007614D01*
X183100883Y-193007614D02*
X183029455Y-192936185D01*
X183029455Y-192936185D02*
X183100883Y-192864757D01*
X183100883Y-192864757D02*
X183100883Y-193007614D01*
X184886598Y-193364757D02*
X185600884Y-193364757D01*
X184743741Y-193793328D02*
X185243741Y-192293328D01*
X185243741Y-192293328D02*
X185743741Y-193793328D01*
X186886598Y-192793328D02*
X186886598Y-193793328D01*
X186529455Y-192221900D02*
X186172312Y-193293328D01*
X186172312Y-193293328D02*
X187100883Y-193293328D01*
D10*
D11*
X263458026Y-196593328D02*
X263458026Y-195093328D01*
X264815170Y-196593328D02*
X264815170Y-195093328D01*
X264815170Y-196521900D02*
X264672312Y-196593328D01*
X264672312Y-196593328D02*
X264386598Y-196593328D01*
X264386598Y-196593328D02*
X264243741Y-196521900D01*
X264243741Y-196521900D02*
X264172312Y-196450471D01*
X264172312Y-196450471D02*
X264100884Y-196307614D01*
X264100884Y-196307614D02*
X264100884Y-195879042D01*
X264100884Y-195879042D02*
X264172312Y-195736185D01*
X264172312Y-195736185D02*
X264243741Y-195664757D01*
X264243741Y-195664757D02*
X264386598Y-195593328D01*
X264386598Y-195593328D02*
X264672312Y-195593328D01*
X264672312Y-195593328D02*
X264815170Y-195664757D01*
X265529455Y-196450471D02*
X265600884Y-196521900D01*
X265600884Y-196521900D02*
X265529455Y-196593328D01*
X265529455Y-196593328D02*
X265458027Y-196521900D01*
X265458027Y-196521900D02*
X265529455Y-196450471D01*
X265529455Y-196450471D02*
X265529455Y-196593328D01*
X265529455Y-195664757D02*
X265600884Y-195736185D01*
X265600884Y-195736185D02*
X265529455Y-195807614D01*
X265529455Y-195807614D02*
X265458027Y-195736185D01*
X265458027Y-195736185D02*
X265529455Y-195664757D01*
X265529455Y-195664757D02*
X265529455Y-195807614D01*
X268029456Y-195093328D02*
X267743741Y-195093328D01*
X267743741Y-195093328D02*
X267600884Y-195164757D01*
X267600884Y-195164757D02*
X267529456Y-195236185D01*
X267529456Y-195236185D02*
X267386598Y-195450471D01*
X267386598Y-195450471D02*
X267315170Y-195736185D01*
X267315170Y-195736185D02*
X267315170Y-196307614D01*
X267315170Y-196307614D02*
X267386598Y-196450471D01*
X267386598Y-196450471D02*
X267458027Y-196521900D01*
X267458027Y-196521900D02*
X267600884Y-196593328D01*
X267600884Y-196593328D02*
X267886598Y-196593328D01*
X267886598Y-196593328D02*
X268029456Y-196521900D01*
X268029456Y-196521900D02*
X268100884Y-196450471D01*
X268100884Y-196450471D02*
X268172313Y-196307614D01*
X268172313Y-196307614D02*
X268172313Y-195950471D01*
X268172313Y-195950471D02*
X268100884Y-195807614D01*
X268100884Y-195807614D02*
X268029456Y-195736185D01*
X268029456Y-195736185D02*
X267886598Y-195664757D01*
X267886598Y-195664757D02*
X267600884Y-195664757D01*
X267600884Y-195664757D02*
X267458027Y-195736185D01*
X267458027Y-195736185D02*
X267386598Y-195807614D01*
X267386598Y-195807614D02*
X267315170Y-195950471D01*
X269886598Y-195021900D02*
X268600884Y-196950471D01*
X270458027Y-196593328D02*
X270743741Y-196593328D01*
X270743741Y-196593328D02*
X270886598Y-196521900D01*
X270886598Y-196521900D02*
X270958027Y-196450471D01*
X270958027Y-196450471D02*
X271100884Y-196236185D01*
X271100884Y-196236185D02*
X271172313Y-195950471D01*
X271172313Y-195950471D02*
X271172313Y-195379042D01*
X271172313Y-195379042D02*
X271100884Y-195236185D01*
X271100884Y-195236185D02*
X271029456Y-195164757D01*
X271029456Y-195164757D02*
X270886598Y-195093328D01*
X270886598Y-195093328D02*
X270600884Y-195093328D01*
X270600884Y-195093328D02*
X270458027Y-195164757D01*
X270458027Y-195164757D02*
X270386598Y-195236185D01*
X270386598Y-195236185D02*
X270315170Y-195379042D01*
X270315170Y-195379042D02*
X270315170Y-195736185D01*
X270315170Y-195736185D02*
X270386598Y-195879042D01*
X270386598Y-195879042D02*
X270458027Y-195950471D01*
X270458027Y-195950471D02*
X270600884Y-196021900D01*
X270600884Y-196021900D02*
X270886598Y-196021900D01*
X270886598Y-196021900D02*
X271029456Y-195950471D01*
X271029456Y-195950471D02*
X271100884Y-195879042D01*
X271100884Y-195879042D02*
X271172313Y-195736185D01*
D10*
D11*
X177002200Y-187507200D02*
X285002200Y-187507200D01*
D10*
D13*
X178693928Y-188211638D02*
X179836785Y-188211638D01*
X179015357Y-190211638D02*
X179265357Y-188211638D01*
X180253452Y-190211638D02*
X180420119Y-188878304D01*
X180503452Y-188211638D02*
X180396309Y-188306876D01*
X180396309Y-188306876D02*
X180479643Y-188402114D01*
X180479643Y-188402114D02*
X180586786Y-188306876D01*
X180586786Y-188306876D02*
X180503452Y-188211638D01*
X180503452Y-188211638D02*
X180479643Y-188402114D01*
X181086786Y-188878304D02*
X181848690Y-188878304D01*
X181455833Y-188211638D02*
X181241548Y-189925923D01*
X181241548Y-189925923D02*
X181312976Y-190116400D01*
X181312976Y-190116400D02*
X181491548Y-190211638D01*
X181491548Y-190211638D02*
X181682024Y-190211638D01*
X182634405Y-190211638D02*
X182455833Y-190116400D01*
X182455833Y-190116400D02*
X182384405Y-189925923D01*
X182384405Y-189925923D02*
X182598690Y-188211638D01*
X184170119Y-190116400D02*
X183967738Y-190211638D01*
X183967738Y-190211638D02*
X183586785Y-190211638D01*
X183586785Y-190211638D02*
X183408214Y-190116400D01*
X183408214Y-190116400D02*
X183336785Y-189925923D01*
X183336785Y-189925923D02*
X183432024Y-189164019D01*
X183432024Y-189164019D02*
X183551071Y-188973542D01*
X183551071Y-188973542D02*
X183753452Y-188878304D01*
X183753452Y-188878304D02*
X184134404Y-188878304D01*
X184134404Y-188878304D02*
X184312976Y-188973542D01*
X184312976Y-188973542D02*
X184384404Y-189164019D01*
X184384404Y-189164019D02*
X184360595Y-189354495D01*
X184360595Y-189354495D02*
X183384404Y-189544971D01*
X185134405Y-190021161D02*
X185217738Y-190116400D01*
X185217738Y-190116400D02*
X185110595Y-190211638D01*
X185110595Y-190211638D02*
X185027262Y-190116400D01*
X185027262Y-190116400D02*
X185134405Y-190021161D01*
X185134405Y-190021161D02*
X185110595Y-190211638D01*
X185265357Y-188973542D02*
X185348690Y-189068780D01*
X185348690Y-189068780D02*
X185241548Y-189164019D01*
X185241548Y-189164019D02*
X185158214Y-189068780D01*
X185158214Y-189068780D02*
X185265357Y-188973542D01*
X185265357Y-188973542D02*
X185241548Y-189164019D01*
X187836786Y-188211638D02*
X187634405Y-189830685D01*
X187634405Y-189830685D02*
X187705834Y-190021161D01*
X187705834Y-190021161D02*
X187789167Y-190116400D01*
X187789167Y-190116400D02*
X187967739Y-190211638D01*
X187967739Y-190211638D02*
X188348691Y-190211638D01*
X188348691Y-190211638D02*
X188551072Y-190116400D01*
X188551072Y-190116400D02*
X188658215Y-190021161D01*
X188658215Y-190021161D02*
X188777262Y-189830685D01*
X188777262Y-189830685D02*
X188979643Y-188211638D01*
X189598691Y-190116400D02*
X189872500Y-190211638D01*
X189872500Y-190211638D02*
X190348691Y-190211638D01*
X190348691Y-190211638D02*
X190551072Y-190116400D01*
X190551072Y-190116400D02*
X190658215Y-190021161D01*
X190658215Y-190021161D02*
X190777262Y-189830685D01*
X190777262Y-189830685D02*
X190801072Y-189640209D01*
X190801072Y-189640209D02*
X190729643Y-189449733D01*
X190729643Y-189449733D02*
X190646310Y-189354495D01*
X190646310Y-189354495D02*
X190467739Y-189259257D01*
X190467739Y-189259257D02*
X190098691Y-189164019D01*
X190098691Y-189164019D02*
X189920119Y-189068780D01*
X189920119Y-189068780D02*
X189836786Y-188973542D01*
X189836786Y-188973542D02*
X189765358Y-188783066D01*
X189765358Y-188783066D02*
X189789167Y-188592590D01*
X189789167Y-188592590D02*
X189908215Y-188402114D01*
X189908215Y-188402114D02*
X190015358Y-188306876D01*
X190015358Y-188306876D02*
X190217739Y-188211638D01*
X190217739Y-188211638D02*
X190693929Y-188211638D01*
X190693929Y-188211638D02*
X190967739Y-188306876D01*
X192384405Y-189164019D02*
X192658215Y-189259257D01*
X192658215Y-189259257D02*
X192741548Y-189354495D01*
X192741548Y-189354495D02*
X192812977Y-189544971D01*
X192812977Y-189544971D02*
X192777262Y-189830685D01*
X192777262Y-189830685D02*
X192658215Y-190021161D01*
X192658215Y-190021161D02*
X192551072Y-190116400D01*
X192551072Y-190116400D02*
X192348691Y-190211638D01*
X192348691Y-190211638D02*
X191586786Y-190211638D01*
X191586786Y-190211638D02*
X191836786Y-188211638D01*
X191836786Y-188211638D02*
X192503453Y-188211638D01*
X192503453Y-188211638D02*
X192682024Y-188306876D01*
X192682024Y-188306876D02*
X192765358Y-188402114D01*
X192765358Y-188402114D02*
X192836786Y-188592590D01*
X192836786Y-188592590D02*
X192812977Y-188783066D01*
X192812977Y-188783066D02*
X192693929Y-188973542D01*
X192693929Y-188973542D02*
X192586786Y-189068780D01*
X192586786Y-189068780D02*
X192384405Y-189164019D01*
X192384405Y-189164019D02*
X191717739Y-189164019D01*
X193467739Y-188878304D02*
X194229643Y-188878304D01*
X193836786Y-188211638D02*
X193622501Y-189925923D01*
X193622501Y-189925923D02*
X193693929Y-190116400D01*
X193693929Y-190116400D02*
X193872501Y-190211638D01*
X193872501Y-190211638D02*
X194062977Y-190211638D01*
X195015358Y-190211638D02*
X194836786Y-190116400D01*
X194836786Y-190116400D02*
X194753453Y-190021161D01*
X194753453Y-190021161D02*
X194682024Y-189830685D01*
X194682024Y-189830685D02*
X194753453Y-189259257D01*
X194753453Y-189259257D02*
X194872500Y-189068780D01*
X194872500Y-189068780D02*
X194979643Y-188973542D01*
X194979643Y-188973542D02*
X195182024Y-188878304D01*
X195182024Y-188878304D02*
X195467738Y-188878304D01*
X195467738Y-188878304D02*
X195646310Y-188973542D01*
X195646310Y-188973542D02*
X195729643Y-189068780D01*
X195729643Y-189068780D02*
X195801072Y-189259257D01*
X195801072Y-189259257D02*
X195729643Y-189830685D01*
X195729643Y-189830685D02*
X195610596Y-190021161D01*
X195610596Y-190021161D02*
X195503453Y-190116400D01*
X195503453Y-190116400D02*
X195301072Y-190211638D01*
X195301072Y-190211638D02*
X195015358Y-190211638D01*
X196789167Y-188211638D02*
X196586786Y-189830685D01*
X196586786Y-189830685D02*
X196658215Y-190021161D01*
X196658215Y-190021161D02*
X196741548Y-190116400D01*
X196741548Y-190116400D02*
X196920120Y-190211638D01*
X196920120Y-190211638D02*
X197301072Y-190211638D01*
X197301072Y-190211638D02*
X197503453Y-190116400D01*
X197503453Y-190116400D02*
X197610596Y-190021161D01*
X197610596Y-190021161D02*
X197729643Y-189830685D01*
X197729643Y-189830685D02*
X197932024Y-188211638D01*
X198610596Y-189640209D02*
X199562977Y-189640209D01*
X198348691Y-190211638D02*
X199265358Y-188211638D01*
X199265358Y-188211638D02*
X199682024Y-190211638D01*
X201491548Y-190211638D02*
X200943929Y-189259257D01*
X200348691Y-190211638D02*
X200598691Y-188211638D01*
X200598691Y-188211638D02*
X201360596Y-188211638D01*
X201360596Y-188211638D02*
X201539167Y-188306876D01*
X201539167Y-188306876D02*
X201622501Y-188402114D01*
X201622501Y-188402114D02*
X201693929Y-188592590D01*
X201693929Y-188592590D02*
X201658215Y-188878304D01*
X201658215Y-188878304D02*
X201539167Y-189068780D01*
X201539167Y-189068780D02*
X201432025Y-189164019D01*
X201432025Y-189164019D02*
X201229644Y-189259257D01*
X201229644Y-189259257D02*
X200467739Y-189259257D01*
X202312977Y-188211638D02*
X203455834Y-188211638D01*
X202634406Y-190211638D02*
X202884406Y-188211638D01*
D10*
D11*
X178958026Y-185607614D02*
X178458026Y-185607614D01*
X178458026Y-186393328D02*
X178458026Y-184893328D01*
X178458026Y-184893328D02*
X179172312Y-184893328D01*
X179743740Y-186393328D02*
X179743740Y-185393328D01*
X179743740Y-184893328D02*
X179672312Y-184964757D01*
X179672312Y-184964757D02*
X179743740Y-185036185D01*
X179743740Y-185036185D02*
X179815169Y-184964757D01*
X179815169Y-184964757D02*
X179743740Y-184893328D01*
X179743740Y-184893328D02*
X179743740Y-185036185D01*
X180672312Y-186393328D02*
X180529455Y-186321900D01*
X180529455Y-186321900D02*
X180458026Y-186179042D01*
X180458026Y-186179042D02*
X180458026Y-184893328D01*
X181815169Y-186321900D02*
X181672312Y-186393328D01*
X181672312Y-186393328D02*
X181386598Y-186393328D01*
X181386598Y-186393328D02*
X181243740Y-186321900D01*
X181243740Y-186321900D02*
X181172312Y-186179042D01*
X181172312Y-186179042D02*
X181172312Y-185607614D01*
X181172312Y-185607614D02*
X181243740Y-185464757D01*
X181243740Y-185464757D02*
X181386598Y-185393328D01*
X181386598Y-185393328D02*
X181672312Y-185393328D01*
X181672312Y-185393328D02*
X181815169Y-185464757D01*
X181815169Y-185464757D02*
X181886598Y-185607614D01*
X181886598Y-185607614D02*
X181886598Y-185750471D01*
X181886598Y-185750471D02*
X181172312Y-185893328D01*
X182529454Y-186250471D02*
X182600883Y-186321900D01*
X182600883Y-186321900D02*
X182529454Y-186393328D01*
X182529454Y-186393328D02*
X182458026Y-186321900D01*
X182458026Y-186321900D02*
X182529454Y-186250471D01*
X182529454Y-186250471D02*
X182529454Y-186393328D01*
X182529454Y-185464757D02*
X182600883Y-185536185D01*
X182600883Y-185536185D02*
X182529454Y-185607614D01*
X182529454Y-185607614D02*
X182458026Y-185536185D01*
X182458026Y-185536185D02*
X182529454Y-185464757D01*
X182529454Y-185464757D02*
X182529454Y-185607614D01*
X184386597Y-184893328D02*
X184386597Y-186107614D01*
X184386597Y-186107614D02*
X184458026Y-186250471D01*
X184458026Y-186250471D02*
X184529455Y-186321900D01*
X184529455Y-186321900D02*
X184672312Y-186393328D01*
X184672312Y-186393328D02*
X184958026Y-186393328D01*
X184958026Y-186393328D02*
X185100883Y-186321900D01*
X185100883Y-186321900D02*
X185172312Y-186250471D01*
X185172312Y-186250471D02*
X185243740Y-186107614D01*
X185243740Y-186107614D02*
X185243740Y-184893328D01*
X185886598Y-186321900D02*
X186100884Y-186393328D01*
X186100884Y-186393328D02*
X186458026Y-186393328D01*
X186458026Y-186393328D02*
X186600884Y-186321900D01*
X186600884Y-186321900D02*
X186672312Y-186250471D01*
X186672312Y-186250471D02*
X186743741Y-186107614D01*
X186743741Y-186107614D02*
X186743741Y-185964757D01*
X186743741Y-185964757D02*
X186672312Y-185821900D01*
X186672312Y-185821900D02*
X186600884Y-185750471D01*
X186600884Y-185750471D02*
X186458026Y-185679042D01*
X186458026Y-185679042D02*
X186172312Y-185607614D01*
X186172312Y-185607614D02*
X186029455Y-185536185D01*
X186029455Y-185536185D02*
X185958026Y-185464757D01*
X185958026Y-185464757D02*
X185886598Y-185321900D01*
X185886598Y-185321900D02*
X185886598Y-185179042D01*
X185886598Y-185179042D02*
X185958026Y-185036185D01*
X185958026Y-185036185D02*
X186029455Y-184964757D01*
X186029455Y-184964757D02*
X186172312Y-184893328D01*
X186172312Y-184893328D02*
X186529455Y-184893328D01*
X186529455Y-184893328D02*
X186743741Y-184964757D01*
X187886597Y-185607614D02*
X188100883Y-185679042D01*
X188100883Y-185679042D02*
X188172312Y-185750471D01*
X188172312Y-185750471D02*
X188243740Y-185893328D01*
X188243740Y-185893328D02*
X188243740Y-186107614D01*
X188243740Y-186107614D02*
X188172312Y-186250471D01*
X188172312Y-186250471D02*
X188100883Y-186321900D01*
X188100883Y-186321900D02*
X187958026Y-186393328D01*
X187958026Y-186393328D02*
X187386597Y-186393328D01*
X187386597Y-186393328D02*
X187386597Y-184893328D01*
X187386597Y-184893328D02*
X187886597Y-184893328D01*
X187886597Y-184893328D02*
X188029455Y-184964757D01*
X188029455Y-184964757D02*
X188100883Y-185036185D01*
X188100883Y-185036185D02*
X188172312Y-185179042D01*
X188172312Y-185179042D02*
X188172312Y-185321900D01*
X188172312Y-185321900D02*
X188100883Y-185464757D01*
X188100883Y-185464757D02*
X188029455Y-185536185D01*
X188029455Y-185536185D02*
X187886597Y-185607614D01*
X187886597Y-185607614D02*
X187386597Y-185607614D01*
X188672312Y-185393328D02*
X189243740Y-185393328D01*
X188886597Y-184893328D02*
X188886597Y-186179042D01*
X188886597Y-186179042D02*
X188958026Y-186321900D01*
X188958026Y-186321900D02*
X189100883Y-186393328D01*
X189100883Y-186393328D02*
X189243740Y-186393328D01*
X189958026Y-186393328D02*
X189815169Y-186321900D01*
X189815169Y-186321900D02*
X189743740Y-186250471D01*
X189743740Y-186250471D02*
X189672312Y-186107614D01*
X189672312Y-186107614D02*
X189672312Y-185679042D01*
X189672312Y-185679042D02*
X189743740Y-185536185D01*
X189743740Y-185536185D02*
X189815169Y-185464757D01*
X189815169Y-185464757D02*
X189958026Y-185393328D01*
X189958026Y-185393328D02*
X190172312Y-185393328D01*
X190172312Y-185393328D02*
X190315169Y-185464757D01*
X190315169Y-185464757D02*
X190386598Y-185536185D01*
X190386598Y-185536185D02*
X190458026Y-185679042D01*
X190458026Y-185679042D02*
X190458026Y-186107614D01*
X190458026Y-186107614D02*
X190386598Y-186250471D01*
X190386598Y-186250471D02*
X190315169Y-186321900D01*
X190315169Y-186321900D02*
X190172312Y-186393328D01*
X190172312Y-186393328D02*
X189958026Y-186393328D01*
X191100883Y-184893328D02*
X191100883Y-186107614D01*
X191100883Y-186107614D02*
X191172312Y-186250471D01*
X191172312Y-186250471D02*
X191243741Y-186321900D01*
X191243741Y-186321900D02*
X191386598Y-186393328D01*
X191386598Y-186393328D02*
X191672312Y-186393328D01*
X191672312Y-186393328D02*
X191815169Y-186321900D01*
X191815169Y-186321900D02*
X191886598Y-186250471D01*
X191886598Y-186250471D02*
X191958026Y-186107614D01*
X191958026Y-186107614D02*
X191958026Y-184893328D01*
X192600884Y-185964757D02*
X193315170Y-185964757D01*
X192458027Y-186393328D02*
X192958027Y-184893328D01*
X192958027Y-184893328D02*
X193458027Y-186393328D01*
X194815169Y-186393328D02*
X194315169Y-185679042D01*
X193958026Y-186393328D02*
X193958026Y-184893328D01*
X193958026Y-184893328D02*
X194529455Y-184893328D01*
X194529455Y-184893328D02*
X194672312Y-184964757D01*
X194672312Y-184964757D02*
X194743741Y-185036185D01*
X194743741Y-185036185D02*
X194815169Y-185179042D01*
X194815169Y-185179042D02*
X194815169Y-185393328D01*
X194815169Y-185393328D02*
X194743741Y-185536185D01*
X194743741Y-185536185D02*
X194672312Y-185607614D01*
X194672312Y-185607614D02*
X194529455Y-185679042D01*
X194529455Y-185679042D02*
X193958026Y-185679042D01*
X195243741Y-184893328D02*
X196100884Y-184893328D01*
X195672312Y-186393328D02*
X195672312Y-184893328D01*
X196600883Y-186250471D02*
X196672312Y-186321900D01*
X196672312Y-186321900D02*
X196600883Y-186393328D01*
X196600883Y-186393328D02*
X196529455Y-186321900D01*
X196529455Y-186321900D02*
X196600883Y-186250471D01*
X196600883Y-186250471D02*
X196600883Y-186393328D01*
X197315169Y-186393328D02*
X197315169Y-184893328D01*
X197458027Y-185821900D02*
X197886598Y-186393328D01*
X197886598Y-185393328D02*
X197315169Y-185964757D01*
X198529455Y-186393328D02*
X198529455Y-185393328D01*
X198529455Y-184893328D02*
X198458027Y-184964757D01*
X198458027Y-184964757D02*
X198529455Y-185036185D01*
X198529455Y-185036185D02*
X198600884Y-184964757D01*
X198600884Y-184964757D02*
X198529455Y-184893328D01*
X198529455Y-184893328D02*
X198529455Y-185036185D01*
X199886599Y-186321900D02*
X199743741Y-186393328D01*
X199743741Y-186393328D02*
X199458027Y-186393328D01*
X199458027Y-186393328D02*
X199315170Y-186321900D01*
X199315170Y-186321900D02*
X199243741Y-186250471D01*
X199243741Y-186250471D02*
X199172313Y-186107614D01*
X199172313Y-186107614D02*
X199172313Y-185679042D01*
X199172313Y-185679042D02*
X199243741Y-185536185D01*
X199243741Y-185536185D02*
X199315170Y-185464757D01*
X199315170Y-185464757D02*
X199458027Y-185393328D01*
X199458027Y-185393328D02*
X199743741Y-185393328D01*
X199743741Y-185393328D02*
X199886599Y-185464757D01*
X201172313Y-186393328D02*
X201172313Y-185607614D01*
X201172313Y-185607614D02*
X201100884Y-185464757D01*
X201100884Y-185464757D02*
X200958027Y-185393328D01*
X200958027Y-185393328D02*
X200672313Y-185393328D01*
X200672313Y-185393328D02*
X200529455Y-185464757D01*
X201172313Y-186321900D02*
X201029455Y-186393328D01*
X201029455Y-186393328D02*
X200672313Y-186393328D01*
X200672313Y-186393328D02*
X200529455Y-186321900D01*
X200529455Y-186321900D02*
X200458027Y-186179042D01*
X200458027Y-186179042D02*
X200458027Y-186036185D01*
X200458027Y-186036185D02*
X200529455Y-185893328D01*
X200529455Y-185893328D02*
X200672313Y-185821900D01*
X200672313Y-185821900D02*
X201029455Y-185821900D01*
X201029455Y-185821900D02*
X201172313Y-185750471D01*
X202529456Y-186393328D02*
X202529456Y-184893328D01*
X202529456Y-186321900D02*
X202386598Y-186393328D01*
X202386598Y-186393328D02*
X202100884Y-186393328D01*
X202100884Y-186393328D02*
X201958027Y-186321900D01*
X201958027Y-186321900D02*
X201886598Y-186250471D01*
X201886598Y-186250471D02*
X201815170Y-186107614D01*
X201815170Y-186107614D02*
X201815170Y-185679042D01*
X201815170Y-185679042D02*
X201886598Y-185536185D01*
X201886598Y-185536185D02*
X201958027Y-185464757D01*
X201958027Y-185464757D02*
X202100884Y-185393328D01*
X202100884Y-185393328D02*
X202386598Y-185393328D01*
X202386598Y-185393328D02*
X202529456Y-185464757D01*
X202886599Y-186536185D02*
X204029456Y-186536185D01*
X204386598Y-185393328D02*
X204386598Y-186893328D01*
X204386598Y-185464757D02*
X204529456Y-185393328D01*
X204529456Y-185393328D02*
X204815170Y-185393328D01*
X204815170Y-185393328D02*
X204958027Y-185464757D01*
X204958027Y-185464757D02*
X205029456Y-185536185D01*
X205029456Y-185536185D02*
X205100884Y-185679042D01*
X205100884Y-185679042D02*
X205100884Y-186107614D01*
X205100884Y-186107614D02*
X205029456Y-186250471D01*
X205029456Y-186250471D02*
X204958027Y-186321900D01*
X204958027Y-186321900D02*
X204815170Y-186393328D01*
X204815170Y-186393328D02*
X204529456Y-186393328D01*
X204529456Y-186393328D02*
X204386598Y-186321900D01*
X206386599Y-186321900D02*
X206243741Y-186393328D01*
X206243741Y-186393328D02*
X205958027Y-186393328D01*
X205958027Y-186393328D02*
X205815170Y-186321900D01*
X205815170Y-186321900D02*
X205743741Y-186250471D01*
X205743741Y-186250471D02*
X205672313Y-186107614D01*
X205672313Y-186107614D02*
X205672313Y-185679042D01*
X205672313Y-185679042D02*
X205743741Y-185536185D01*
X205743741Y-185536185D02*
X205815170Y-185464757D01*
X205815170Y-185464757D02*
X205958027Y-185393328D01*
X205958027Y-185393328D02*
X206243741Y-185393328D01*
X206243741Y-185393328D02*
X206386599Y-185464757D01*
X207029455Y-186393328D02*
X207029455Y-184893328D01*
X207029455Y-185464757D02*
X207172313Y-185393328D01*
X207172313Y-185393328D02*
X207458027Y-185393328D01*
X207458027Y-185393328D02*
X207600884Y-185464757D01*
X207600884Y-185464757D02*
X207672313Y-185536185D01*
X207672313Y-185536185D02*
X207743741Y-185679042D01*
X207743741Y-185679042D02*
X207743741Y-186107614D01*
X207743741Y-186107614D02*
X207672313Y-186250471D01*
X207672313Y-186250471D02*
X207600884Y-186321900D01*
X207600884Y-186321900D02*
X207458027Y-186393328D01*
X207458027Y-186393328D02*
X207172313Y-186393328D01*
X207172313Y-186393328D02*
X207029455Y-186321900D01*
D10*
D11*
X177002200Y-181507200D02*
X285002200Y-181507200D01*
D10*
D11*
X178386598Y-183621900D02*
X178600884Y-183693328D01*
X178600884Y-183693328D02*
X178958026Y-183693328D01*
X178958026Y-183693328D02*
X179100884Y-183621900D01*
X179100884Y-183621900D02*
X179172312Y-183550471D01*
X179172312Y-183550471D02*
X179243741Y-183407614D01*
X179243741Y-183407614D02*
X179243741Y-183264757D01*
X179243741Y-183264757D02*
X179172312Y-183121900D01*
X179172312Y-183121900D02*
X179100884Y-183050471D01*
X179100884Y-183050471D02*
X178958026Y-182979042D01*
X178958026Y-182979042D02*
X178672312Y-182907614D01*
X178672312Y-182907614D02*
X178529455Y-182836185D01*
X178529455Y-182836185D02*
X178458026Y-182764757D01*
X178458026Y-182764757D02*
X178386598Y-182621900D01*
X178386598Y-182621900D02*
X178386598Y-182479042D01*
X178386598Y-182479042D02*
X178458026Y-182336185D01*
X178458026Y-182336185D02*
X178529455Y-182264757D01*
X178529455Y-182264757D02*
X178672312Y-182193328D01*
X178672312Y-182193328D02*
X179029455Y-182193328D01*
X179029455Y-182193328D02*
X179243741Y-182264757D01*
X179886597Y-183693328D02*
X179886597Y-182193328D01*
X180529455Y-183693328D02*
X180529455Y-182907614D01*
X180529455Y-182907614D02*
X180458026Y-182764757D01*
X180458026Y-182764757D02*
X180315169Y-182693328D01*
X180315169Y-182693328D02*
X180100883Y-182693328D01*
X180100883Y-182693328D02*
X179958026Y-182764757D01*
X179958026Y-182764757D02*
X179886597Y-182836185D01*
X181815169Y-183621900D02*
X181672312Y-183693328D01*
X181672312Y-183693328D02*
X181386598Y-183693328D01*
X181386598Y-183693328D02*
X181243740Y-183621900D01*
X181243740Y-183621900D02*
X181172312Y-183479042D01*
X181172312Y-183479042D02*
X181172312Y-182907614D01*
X181172312Y-182907614D02*
X181243740Y-182764757D01*
X181243740Y-182764757D02*
X181386598Y-182693328D01*
X181386598Y-182693328D02*
X181672312Y-182693328D01*
X181672312Y-182693328D02*
X181815169Y-182764757D01*
X181815169Y-182764757D02*
X181886598Y-182907614D01*
X181886598Y-182907614D02*
X181886598Y-183050471D01*
X181886598Y-183050471D02*
X181172312Y-183193328D01*
X183100883Y-183621900D02*
X182958026Y-183693328D01*
X182958026Y-183693328D02*
X182672312Y-183693328D01*
X182672312Y-183693328D02*
X182529454Y-183621900D01*
X182529454Y-183621900D02*
X182458026Y-183479042D01*
X182458026Y-183479042D02*
X182458026Y-182907614D01*
X182458026Y-182907614D02*
X182529454Y-182764757D01*
X182529454Y-182764757D02*
X182672312Y-182693328D01*
X182672312Y-182693328D02*
X182958026Y-182693328D01*
X182958026Y-182693328D02*
X183100883Y-182764757D01*
X183100883Y-182764757D02*
X183172312Y-182907614D01*
X183172312Y-182907614D02*
X183172312Y-183050471D01*
X183172312Y-183050471D02*
X182458026Y-183193328D01*
X183600883Y-182693328D02*
X184172311Y-182693328D01*
X183815168Y-182193328D02*
X183815168Y-183479042D01*
X183815168Y-183479042D02*
X183886597Y-183621900D01*
X183886597Y-183621900D02*
X184029454Y-183693328D01*
X184029454Y-183693328D02*
X184172311Y-183693328D01*
X184672311Y-183550471D02*
X184743740Y-183621900D01*
X184743740Y-183621900D02*
X184672311Y-183693328D01*
X184672311Y-183693328D02*
X184600883Y-183621900D01*
X184600883Y-183621900D02*
X184672311Y-183550471D01*
X184672311Y-183550471D02*
X184672311Y-183693328D01*
X184672311Y-182764757D02*
X184743740Y-182836185D01*
X184743740Y-182836185D02*
X184672311Y-182907614D01*
X184672311Y-182907614D02*
X184600883Y-182836185D01*
X184600883Y-182836185D02*
X184672311Y-182764757D01*
X184672311Y-182764757D02*
X184672311Y-182907614D01*
D10*
D12*
X179485282Y-179971242D02*
X179413853Y-179899814D01*
X179413853Y-179899814D02*
X179270996Y-179828385D01*
X179270996Y-179828385D02*
X179128139Y-179828385D01*
X179128139Y-179828385D02*
X178985282Y-179899814D01*
X178985282Y-179899814D02*
X178913853Y-179971242D01*
X178913853Y-179971242D02*
X178842425Y-180114100D01*
X178842425Y-180114100D02*
X178842425Y-180256957D01*
X178842425Y-180256957D02*
X178913853Y-180399814D01*
X178913853Y-180399814D02*
X178985282Y-180471242D01*
X178985282Y-180471242D02*
X179128139Y-180542671D01*
X179128139Y-180542671D02*
X179270996Y-180542671D01*
X179270996Y-180542671D02*
X179413853Y-180471242D01*
X179413853Y-180471242D02*
X179485282Y-180399814D01*
X179485282Y-179828385D02*
X179485282Y-180399814D01*
X179485282Y-180399814D02*
X179556710Y-180471242D01*
X179556710Y-180471242D02*
X179628139Y-180471242D01*
X179628139Y-180471242D02*
X179770996Y-180399814D01*
X179770996Y-180399814D02*
X179842425Y-180256957D01*
X179842425Y-180256957D02*
X179842425Y-179899814D01*
X179842425Y-179899814D02*
X179699568Y-179685528D01*
X179699568Y-179685528D02*
X179485282Y-179542671D01*
X179485282Y-179542671D02*
X179199568Y-179471242D01*
X179199568Y-179471242D02*
X178913853Y-179542671D01*
X178913853Y-179542671D02*
X178699568Y-179685528D01*
X178699568Y-179685528D02*
X178556710Y-179899814D01*
X178556710Y-179899814D02*
X178485282Y-180185528D01*
X178485282Y-180185528D02*
X178556710Y-180471242D01*
X178556710Y-180471242D02*
X178699568Y-180685528D01*
X178699568Y-180685528D02*
X178913853Y-180828385D01*
X178913853Y-180828385D02*
X179199568Y-180899814D01*
X179199568Y-180899814D02*
X179485282Y-180828385D01*
X179485282Y-180828385D02*
X179699568Y-180685528D01*
X180485281Y-179685528D02*
X180485281Y-181185528D01*
X180485281Y-179756957D02*
X180628139Y-179685528D01*
X180628139Y-179685528D02*
X180913853Y-179685528D01*
X180913853Y-179685528D02*
X181056710Y-179756957D01*
X181056710Y-179756957D02*
X181128139Y-179828385D01*
X181128139Y-179828385D02*
X181199567Y-179971242D01*
X181199567Y-179971242D02*
X181199567Y-180399814D01*
X181199567Y-180399814D02*
X181128139Y-180542671D01*
X181128139Y-180542671D02*
X181056710Y-180614100D01*
X181056710Y-180614100D02*
X180913853Y-180685528D01*
X180913853Y-180685528D02*
X180628139Y-180685528D01*
X180628139Y-180685528D02*
X180485281Y-180614100D01*
X182485282Y-180685528D02*
X182485282Y-179899814D01*
X182485282Y-179899814D02*
X182413853Y-179756957D01*
X182413853Y-179756957D02*
X182270996Y-179685528D01*
X182270996Y-179685528D02*
X181985282Y-179685528D01*
X181985282Y-179685528D02*
X181842424Y-179756957D01*
X182485282Y-180614100D02*
X182342424Y-180685528D01*
X182342424Y-180685528D02*
X181985282Y-180685528D01*
X181985282Y-180685528D02*
X181842424Y-180614100D01*
X181842424Y-180614100D02*
X181770996Y-180471242D01*
X181770996Y-180471242D02*
X181770996Y-180328385D01*
X181770996Y-180328385D02*
X181842424Y-180185528D01*
X181842424Y-180185528D02*
X181985282Y-180114100D01*
X181985282Y-180114100D02*
X182342424Y-180114100D01*
X182342424Y-180114100D02*
X182485282Y-180042671D01*
X183842425Y-180614100D02*
X183699567Y-180685528D01*
X183699567Y-180685528D02*
X183413853Y-180685528D01*
X183413853Y-180685528D02*
X183270996Y-180614100D01*
X183270996Y-180614100D02*
X183199567Y-180542671D01*
X183199567Y-180542671D02*
X183128139Y-180399814D01*
X183128139Y-180399814D02*
X183128139Y-179971242D01*
X183128139Y-179971242D02*
X183199567Y-179828385D01*
X183199567Y-179828385D02*
X183270996Y-179756957D01*
X183270996Y-179756957D02*
X183413853Y-179685528D01*
X183413853Y-179685528D02*
X183699567Y-179685528D01*
X183699567Y-179685528D02*
X183842425Y-179756957D01*
X184699567Y-180685528D02*
X184556710Y-180614100D01*
X184556710Y-180614100D02*
X184485281Y-180471242D01*
X184485281Y-180471242D02*
X184485281Y-179185528D01*
X185842424Y-180614100D02*
X185699567Y-180685528D01*
X185699567Y-180685528D02*
X185413853Y-180685528D01*
X185413853Y-180685528D02*
X185270995Y-180614100D01*
X185270995Y-180614100D02*
X185199567Y-180471242D01*
X185199567Y-180471242D02*
X185199567Y-179899814D01*
X185199567Y-179899814D02*
X185270995Y-179756957D01*
X185270995Y-179756957D02*
X185413853Y-179685528D01*
X185413853Y-179685528D02*
X185699567Y-179685528D01*
X185699567Y-179685528D02*
X185842424Y-179756957D01*
X185842424Y-179756957D02*
X185913853Y-179899814D01*
X185913853Y-179899814D02*
X185913853Y-180042671D01*
X185913853Y-180042671D02*
X185199567Y-180185528D01*
X186556709Y-180685528D02*
X186556709Y-179685528D01*
X186556709Y-179828385D02*
X186628138Y-179756957D01*
X186628138Y-179756957D02*
X186770995Y-179685528D01*
X186770995Y-179685528D02*
X186985281Y-179685528D01*
X186985281Y-179685528D02*
X187128138Y-179756957D01*
X187128138Y-179756957D02*
X187199567Y-179899814D01*
X187199567Y-179899814D02*
X187199567Y-180685528D01*
X187199567Y-179899814D02*
X187270995Y-179756957D01*
X187270995Y-179756957D02*
X187413852Y-179685528D01*
X187413852Y-179685528D02*
X187628138Y-179685528D01*
X187628138Y-179685528D02*
X187770995Y-179756957D01*
X187770995Y-179756957D02*
X187842424Y-179899814D01*
X187842424Y-179899814D02*
X187842424Y-180685528D01*
X189199567Y-180685528D02*
X189199567Y-179899814D01*
X189199567Y-179899814D02*
X189128138Y-179756957D01*
X189128138Y-179756957D02*
X188985281Y-179685528D01*
X188985281Y-179685528D02*
X188699567Y-179685528D01*
X188699567Y-179685528D02*
X188556709Y-179756957D01*
X189199567Y-180614100D02*
X189056709Y-180685528D01*
X189056709Y-180685528D02*
X188699567Y-180685528D01*
X188699567Y-180685528D02*
X188556709Y-180614100D01*
X188556709Y-180614100D02*
X188485281Y-180471242D01*
X188485281Y-180471242D02*
X188485281Y-180328385D01*
X188485281Y-180328385D02*
X188556709Y-180185528D01*
X188556709Y-180185528D02*
X188699567Y-180114100D01*
X188699567Y-180114100D02*
X189056709Y-180114100D01*
X189056709Y-180114100D02*
X189199567Y-180042671D01*
D10*
D11*
X178458026Y-177693328D02*
X178458026Y-176193328D01*
X178458026Y-176193328D02*
X179029455Y-176193328D01*
X179029455Y-176193328D02*
X179172312Y-176264757D01*
X179172312Y-176264757D02*
X179243741Y-176336185D01*
X179243741Y-176336185D02*
X179315169Y-176479042D01*
X179315169Y-176479042D02*
X179315169Y-176693328D01*
X179315169Y-176693328D02*
X179243741Y-176836185D01*
X179243741Y-176836185D02*
X179172312Y-176907614D01*
X179172312Y-176907614D02*
X179029455Y-176979042D01*
X179029455Y-176979042D02*
X178458026Y-176979042D01*
X180600884Y-177693328D02*
X180600884Y-176907614D01*
X180600884Y-176907614D02*
X180529455Y-176764757D01*
X180529455Y-176764757D02*
X180386598Y-176693328D01*
X180386598Y-176693328D02*
X180100884Y-176693328D01*
X180100884Y-176693328D02*
X179958026Y-176764757D01*
X180600884Y-177621900D02*
X180458026Y-177693328D01*
X180458026Y-177693328D02*
X180100884Y-177693328D01*
X180100884Y-177693328D02*
X179958026Y-177621900D01*
X179958026Y-177621900D02*
X179886598Y-177479042D01*
X179886598Y-177479042D02*
X179886598Y-177336185D01*
X179886598Y-177336185D02*
X179958026Y-177193328D01*
X179958026Y-177193328D02*
X180100884Y-177121900D01*
X180100884Y-177121900D02*
X180458026Y-177121900D01*
X180458026Y-177121900D02*
X180600884Y-177050471D01*
X181315169Y-177693328D02*
X181315169Y-176193328D01*
X181315169Y-176764757D02*
X181458027Y-176693328D01*
X181458027Y-176693328D02*
X181743741Y-176693328D01*
X181743741Y-176693328D02*
X181886598Y-176764757D01*
X181886598Y-176764757D02*
X181958027Y-176836185D01*
X181958027Y-176836185D02*
X182029455Y-176979042D01*
X182029455Y-176979042D02*
X182029455Y-177407614D01*
X182029455Y-177407614D02*
X181958027Y-177550471D01*
X181958027Y-177550471D02*
X181886598Y-177621900D01*
X181886598Y-177621900D02*
X181743741Y-177693328D01*
X181743741Y-177693328D02*
X181458027Y-177693328D01*
X181458027Y-177693328D02*
X181315169Y-177621900D01*
X182886598Y-177693328D02*
X182743741Y-177621900D01*
X182743741Y-177621900D02*
X182672312Y-177479042D01*
X182672312Y-177479042D02*
X182672312Y-176193328D01*
X183672312Y-177693328D02*
X183529455Y-177621900D01*
X183529455Y-177621900D02*
X183458026Y-177550471D01*
X183458026Y-177550471D02*
X183386598Y-177407614D01*
X183386598Y-177407614D02*
X183386598Y-176979042D01*
X183386598Y-176979042D02*
X183458026Y-176836185D01*
X183458026Y-176836185D02*
X183529455Y-176764757D01*
X183529455Y-176764757D02*
X183672312Y-176693328D01*
X183672312Y-176693328D02*
X183886598Y-176693328D01*
X183886598Y-176693328D02*
X184029455Y-176764757D01*
X184029455Y-176764757D02*
X184100884Y-176836185D01*
X184100884Y-176836185D02*
X184172312Y-176979042D01*
X184172312Y-176979042D02*
X184172312Y-177407614D01*
X184172312Y-177407614D02*
X184100884Y-177550471D01*
X184100884Y-177550471D02*
X184029455Y-177621900D01*
X184029455Y-177621900D02*
X183886598Y-177693328D01*
X183886598Y-177693328D02*
X183672312Y-177693328D01*
X186815169Y-177550471D02*
X186743741Y-177621900D01*
X186743741Y-177621900D02*
X186529455Y-177693328D01*
X186529455Y-177693328D02*
X186386598Y-177693328D01*
X186386598Y-177693328D02*
X186172312Y-177621900D01*
X186172312Y-177621900D02*
X186029455Y-177479042D01*
X186029455Y-177479042D02*
X185958026Y-177336185D01*
X185958026Y-177336185D02*
X185886598Y-177050471D01*
X185886598Y-177050471D02*
X185886598Y-176836185D01*
X185886598Y-176836185D02*
X185958026Y-176550471D01*
X185958026Y-176550471D02*
X186029455Y-176407614D01*
X186029455Y-176407614D02*
X186172312Y-176264757D01*
X186172312Y-176264757D02*
X186386598Y-176193328D01*
X186386598Y-176193328D02*
X186529455Y-176193328D01*
X186529455Y-176193328D02*
X186743741Y-176264757D01*
X186743741Y-176264757D02*
X186815169Y-176336185D01*
X187672312Y-177693328D02*
X187529455Y-177621900D01*
X187529455Y-177621900D02*
X187458026Y-177479042D01*
X187458026Y-177479042D02*
X187458026Y-176193328D01*
X188815169Y-177621900D02*
X188672312Y-177693328D01*
X188672312Y-177693328D02*
X188386598Y-177693328D01*
X188386598Y-177693328D02*
X188243740Y-177621900D01*
X188243740Y-177621900D02*
X188172312Y-177479042D01*
X188172312Y-177479042D02*
X188172312Y-176907614D01*
X188172312Y-176907614D02*
X188243740Y-176764757D01*
X188243740Y-176764757D02*
X188386598Y-176693328D01*
X188386598Y-176693328D02*
X188672312Y-176693328D01*
X188672312Y-176693328D02*
X188815169Y-176764757D01*
X188815169Y-176764757D02*
X188886598Y-176907614D01*
X188886598Y-176907614D02*
X188886598Y-177050471D01*
X188886598Y-177050471D02*
X188172312Y-177193328D01*
X189529454Y-177693328D02*
X189529454Y-176693328D01*
X189529454Y-176836185D02*
X189600883Y-176764757D01*
X189600883Y-176764757D02*
X189743740Y-176693328D01*
X189743740Y-176693328D02*
X189958026Y-176693328D01*
X189958026Y-176693328D02*
X190100883Y-176764757D01*
X190100883Y-176764757D02*
X190172312Y-176907614D01*
X190172312Y-176907614D02*
X190172312Y-177693328D01*
X190172312Y-176907614D02*
X190243740Y-176764757D01*
X190243740Y-176764757D02*
X190386597Y-176693328D01*
X190386597Y-176693328D02*
X190600883Y-176693328D01*
X190600883Y-176693328D02*
X190743740Y-176764757D01*
X190743740Y-176764757D02*
X190815169Y-176907614D01*
X190815169Y-176907614D02*
X190815169Y-177693328D01*
X192100883Y-177621900D02*
X191958026Y-177693328D01*
X191958026Y-177693328D02*
X191672312Y-177693328D01*
X191672312Y-177693328D02*
X191529454Y-177621900D01*
X191529454Y-177621900D02*
X191458026Y-177479042D01*
X191458026Y-177479042D02*
X191458026Y-176907614D01*
X191458026Y-176907614D02*
X191529454Y-176764757D01*
X191529454Y-176764757D02*
X191672312Y-176693328D01*
X191672312Y-176693328D02*
X191958026Y-176693328D01*
X191958026Y-176693328D02*
X192100883Y-176764757D01*
X192100883Y-176764757D02*
X192172312Y-176907614D01*
X192172312Y-176907614D02*
X192172312Y-177050471D01*
X192172312Y-177050471D02*
X191458026Y-177193328D01*
X192815168Y-176693328D02*
X192815168Y-177693328D01*
X192815168Y-176836185D02*
X192886597Y-176764757D01*
X192886597Y-176764757D02*
X193029454Y-176693328D01*
X193029454Y-176693328D02*
X193243740Y-176693328D01*
X193243740Y-176693328D02*
X193386597Y-176764757D01*
X193386597Y-176764757D02*
X193458026Y-176907614D01*
X193458026Y-176907614D02*
X193458026Y-177693328D01*
X193958026Y-176693328D02*
X194529454Y-176693328D01*
X194172311Y-176193328D02*
X194172311Y-177479042D01*
X194172311Y-177479042D02*
X194243740Y-177621900D01*
X194243740Y-177621900D02*
X194386597Y-177693328D01*
X194386597Y-177693328D02*
X194529454Y-177693328D01*
X195600883Y-177621900D02*
X195458026Y-177693328D01*
X195458026Y-177693328D02*
X195172312Y-177693328D01*
X195172312Y-177693328D02*
X195029454Y-177621900D01*
X195029454Y-177621900D02*
X194958026Y-177479042D01*
X194958026Y-177479042D02*
X194958026Y-176907614D01*
X194958026Y-176907614D02*
X195029454Y-176764757D01*
X195029454Y-176764757D02*
X195172312Y-176693328D01*
X195172312Y-176693328D02*
X195458026Y-176693328D01*
X195458026Y-176693328D02*
X195600883Y-176764757D01*
X195600883Y-176764757D02*
X195672312Y-176907614D01*
X195672312Y-176907614D02*
X195672312Y-177050471D01*
X195672312Y-177050471D02*
X194958026Y-177193328D01*
X197458025Y-177693328D02*
X197458025Y-176193328D01*
X197458025Y-176193328D02*
X197958025Y-177264757D01*
X197958025Y-177264757D02*
X198458025Y-176193328D01*
X198458025Y-176193328D02*
X198458025Y-177693328D01*
X199815169Y-177693328D02*
X199815169Y-176907614D01*
X199815169Y-176907614D02*
X199743740Y-176764757D01*
X199743740Y-176764757D02*
X199600883Y-176693328D01*
X199600883Y-176693328D02*
X199315169Y-176693328D01*
X199315169Y-176693328D02*
X199172311Y-176764757D01*
X199815169Y-177621900D02*
X199672311Y-177693328D01*
X199672311Y-177693328D02*
X199315169Y-177693328D01*
X199315169Y-177693328D02*
X199172311Y-177621900D01*
X199172311Y-177621900D02*
X199100883Y-177479042D01*
X199100883Y-177479042D02*
X199100883Y-177336185D01*
X199100883Y-177336185D02*
X199172311Y-177193328D01*
X199172311Y-177193328D02*
X199315169Y-177121900D01*
X199315169Y-177121900D02*
X199672311Y-177121900D01*
X199672311Y-177121900D02*
X199815169Y-177050471D01*
X200458026Y-177621900D02*
X200600883Y-177693328D01*
X200600883Y-177693328D02*
X200886597Y-177693328D01*
X200886597Y-177693328D02*
X201029454Y-177621900D01*
X201029454Y-177621900D02*
X201100883Y-177479042D01*
X201100883Y-177479042D02*
X201100883Y-177407614D01*
X201100883Y-177407614D02*
X201029454Y-177264757D01*
X201029454Y-177264757D02*
X200886597Y-177193328D01*
X200886597Y-177193328D02*
X200672312Y-177193328D01*
X200672312Y-177193328D02*
X200529454Y-177121900D01*
X200529454Y-177121900D02*
X200458026Y-176979042D01*
X200458026Y-176979042D02*
X200458026Y-176907614D01*
X200458026Y-176907614D02*
X200529454Y-176764757D01*
X200529454Y-176764757D02*
X200672312Y-176693328D01*
X200672312Y-176693328D02*
X200886597Y-176693328D01*
X200886597Y-176693328D02*
X201029454Y-176764757D01*
X202315169Y-177621900D02*
X202172312Y-177693328D01*
X202172312Y-177693328D02*
X201886598Y-177693328D01*
X201886598Y-177693328D02*
X201743740Y-177621900D01*
X201743740Y-177621900D02*
X201672312Y-177479042D01*
X201672312Y-177479042D02*
X201672312Y-176907614D01*
X201672312Y-176907614D02*
X201743740Y-176764757D01*
X201743740Y-176764757D02*
X201886598Y-176693328D01*
X201886598Y-176693328D02*
X202172312Y-176693328D01*
X202172312Y-176693328D02*
X202315169Y-176764757D01*
X202315169Y-176764757D02*
X202386598Y-176907614D01*
X202386598Y-176907614D02*
X202386598Y-177050471D01*
X202386598Y-177050471D02*
X201672312Y-177193328D01*
X203672312Y-177693328D02*
X203672312Y-176193328D01*
X203672312Y-177621900D02*
X203529454Y-177693328D01*
X203529454Y-177693328D02*
X203243740Y-177693328D01*
X203243740Y-177693328D02*
X203100883Y-177621900D01*
X203100883Y-177621900D02*
X203029454Y-177550471D01*
X203029454Y-177550471D02*
X202958026Y-177407614D01*
X202958026Y-177407614D02*
X202958026Y-176979042D01*
X202958026Y-176979042D02*
X203029454Y-176836185D01*
X203029454Y-176836185D02*
X203100883Y-176764757D01*
X203100883Y-176764757D02*
X203243740Y-176693328D01*
X203243740Y-176693328D02*
X203529454Y-176693328D01*
X203529454Y-176693328D02*
X203672312Y-176764757D01*
X205029455Y-177693328D02*
X205029455Y-176907614D01*
X205029455Y-176907614D02*
X204958026Y-176764757D01*
X204958026Y-176764757D02*
X204815169Y-176693328D01*
X204815169Y-176693328D02*
X204529455Y-176693328D01*
X204529455Y-176693328D02*
X204386597Y-176764757D01*
X205029455Y-177621900D02*
X204886597Y-177693328D01*
X204886597Y-177693328D02*
X204529455Y-177693328D01*
X204529455Y-177693328D02*
X204386597Y-177621900D01*
X204386597Y-177621900D02*
X204315169Y-177479042D01*
X204315169Y-177479042D02*
X204315169Y-177336185D01*
X204315169Y-177336185D02*
X204386597Y-177193328D01*
X204386597Y-177193328D02*
X204529455Y-177121900D01*
X204529455Y-177121900D02*
X204886597Y-177121900D01*
X204886597Y-177121900D02*
X205029455Y-177050471D01*
D10*
D11*
X179100884Y-173693328D02*
X179100884Y-174907614D01*
X179100884Y-174907614D02*
X179029455Y-175050471D01*
X179029455Y-175050471D02*
X178958026Y-175121900D01*
X178958026Y-175121900D02*
X178815169Y-175193328D01*
X178815169Y-175193328D02*
X178600884Y-175193328D01*
X178600884Y-175193328D02*
X178458026Y-175121900D01*
X179100884Y-174621900D02*
X178958026Y-174693328D01*
X178958026Y-174693328D02*
X178672312Y-174693328D01*
X178672312Y-174693328D02*
X178529455Y-174621900D01*
X178529455Y-174621900D02*
X178458026Y-174550471D01*
X178458026Y-174550471D02*
X178386598Y-174407614D01*
X178386598Y-174407614D02*
X178386598Y-173979042D01*
X178386598Y-173979042D02*
X178458026Y-173836185D01*
X178458026Y-173836185D02*
X178529455Y-173764757D01*
X178529455Y-173764757D02*
X178672312Y-173693328D01*
X178672312Y-173693328D02*
X178958026Y-173693328D01*
X178958026Y-173693328D02*
X179100884Y-173764757D01*
X179815169Y-174693328D02*
X179815169Y-173693328D01*
X179815169Y-173193328D02*
X179743741Y-173264757D01*
X179743741Y-173264757D02*
X179815169Y-173336185D01*
X179815169Y-173336185D02*
X179886598Y-173264757D01*
X179886598Y-173264757D02*
X179815169Y-173193328D01*
X179815169Y-173193328D02*
X179815169Y-173336185D01*
X180315170Y-173693328D02*
X180886598Y-173693328D01*
X180529455Y-173193328D02*
X180529455Y-174479042D01*
X180529455Y-174479042D02*
X180600884Y-174621900D01*
X180600884Y-174621900D02*
X180743741Y-174693328D01*
X180743741Y-174693328D02*
X180886598Y-174693328D01*
X181386598Y-174693328D02*
X181386598Y-173193328D01*
X182029456Y-174693328D02*
X182029456Y-173907614D01*
X182029456Y-173907614D02*
X181958027Y-173764757D01*
X181958027Y-173764757D02*
X181815170Y-173693328D01*
X181815170Y-173693328D02*
X181600884Y-173693328D01*
X181600884Y-173693328D02*
X181458027Y-173764757D01*
X181458027Y-173764757D02*
X181386598Y-173836185D01*
X183386599Y-173693328D02*
X183386599Y-174693328D01*
X182743741Y-173693328D02*
X182743741Y-174479042D01*
X182743741Y-174479042D02*
X182815170Y-174621900D01*
X182815170Y-174621900D02*
X182958027Y-174693328D01*
X182958027Y-174693328D02*
X183172313Y-174693328D01*
X183172313Y-174693328D02*
X183315170Y-174621900D01*
X183315170Y-174621900D02*
X183386599Y-174550471D01*
X184100884Y-174693328D02*
X184100884Y-173193328D01*
X184100884Y-173764757D02*
X184243742Y-173693328D01*
X184243742Y-173693328D02*
X184529456Y-173693328D01*
X184529456Y-173693328D02*
X184672313Y-173764757D01*
X184672313Y-173764757D02*
X184743742Y-173836185D01*
X184743742Y-173836185D02*
X184815170Y-173979042D01*
X184815170Y-173979042D02*
X184815170Y-174407614D01*
X184815170Y-174407614D02*
X184743742Y-174550471D01*
X184743742Y-174550471D02*
X184672313Y-174621900D01*
X184672313Y-174621900D02*
X184529456Y-174693328D01*
X184529456Y-174693328D02*
X184243742Y-174693328D01*
X184243742Y-174693328D02*
X184100884Y-174621900D01*
X185458027Y-174550471D02*
X185529456Y-174621900D01*
X185529456Y-174621900D02*
X185458027Y-174693328D01*
X185458027Y-174693328D02*
X185386599Y-174621900D01*
X185386599Y-174621900D02*
X185458027Y-174550471D01*
X185458027Y-174550471D02*
X185458027Y-174693328D01*
X186815171Y-174621900D02*
X186672313Y-174693328D01*
X186672313Y-174693328D02*
X186386599Y-174693328D01*
X186386599Y-174693328D02*
X186243742Y-174621900D01*
X186243742Y-174621900D02*
X186172313Y-174550471D01*
X186172313Y-174550471D02*
X186100885Y-174407614D01*
X186100885Y-174407614D02*
X186100885Y-173979042D01*
X186100885Y-173979042D02*
X186172313Y-173836185D01*
X186172313Y-173836185D02*
X186243742Y-173764757D01*
X186243742Y-173764757D02*
X186386599Y-173693328D01*
X186386599Y-173693328D02*
X186672313Y-173693328D01*
X186672313Y-173693328D02*
X186815171Y-173764757D01*
X187672313Y-174693328D02*
X187529456Y-174621900D01*
X187529456Y-174621900D02*
X187458027Y-174550471D01*
X187458027Y-174550471D02*
X187386599Y-174407614D01*
X187386599Y-174407614D02*
X187386599Y-173979042D01*
X187386599Y-173979042D02*
X187458027Y-173836185D01*
X187458027Y-173836185D02*
X187529456Y-173764757D01*
X187529456Y-173764757D02*
X187672313Y-173693328D01*
X187672313Y-173693328D02*
X187886599Y-173693328D01*
X187886599Y-173693328D02*
X188029456Y-173764757D01*
X188029456Y-173764757D02*
X188100885Y-173836185D01*
X188100885Y-173836185D02*
X188172313Y-173979042D01*
X188172313Y-173979042D02*
X188172313Y-174407614D01*
X188172313Y-174407614D02*
X188100885Y-174550471D01*
X188100885Y-174550471D02*
X188029456Y-174621900D01*
X188029456Y-174621900D02*
X187886599Y-174693328D01*
X187886599Y-174693328D02*
X187672313Y-174693328D01*
X188815170Y-174693328D02*
X188815170Y-173693328D01*
X188815170Y-173836185D02*
X188886599Y-173764757D01*
X188886599Y-173764757D02*
X189029456Y-173693328D01*
X189029456Y-173693328D02*
X189243742Y-173693328D01*
X189243742Y-173693328D02*
X189386599Y-173764757D01*
X189386599Y-173764757D02*
X189458028Y-173907614D01*
X189458028Y-173907614D02*
X189458028Y-174693328D01*
X189458028Y-173907614D02*
X189529456Y-173764757D01*
X189529456Y-173764757D02*
X189672313Y-173693328D01*
X189672313Y-173693328D02*
X189886599Y-173693328D01*
X189886599Y-173693328D02*
X190029456Y-173764757D01*
X190029456Y-173764757D02*
X190100885Y-173907614D01*
X190100885Y-173907614D02*
X190100885Y-174693328D01*
X191886599Y-173121900D02*
X190600885Y-175050471D01*
X192386599Y-173693328D02*
X192386599Y-175193328D01*
X192386599Y-173764757D02*
X192529457Y-173693328D01*
X192529457Y-173693328D02*
X192815171Y-173693328D01*
X192815171Y-173693328D02*
X192958028Y-173764757D01*
X192958028Y-173764757D02*
X193029457Y-173836185D01*
X193029457Y-173836185D02*
X193100885Y-173979042D01*
X193100885Y-173979042D02*
X193100885Y-174407614D01*
X193100885Y-174407614D02*
X193029457Y-174550471D01*
X193029457Y-174550471D02*
X192958028Y-174621900D01*
X192958028Y-174621900D02*
X192815171Y-174693328D01*
X192815171Y-174693328D02*
X192529457Y-174693328D01*
X192529457Y-174693328D02*
X192386599Y-174621900D01*
X194386600Y-174693328D02*
X194386600Y-173907614D01*
X194386600Y-173907614D02*
X194315171Y-173764757D01*
X194315171Y-173764757D02*
X194172314Y-173693328D01*
X194172314Y-173693328D02*
X193886600Y-173693328D01*
X193886600Y-173693328D02*
X193743742Y-173764757D01*
X194386600Y-174621900D02*
X194243742Y-174693328D01*
X194243742Y-174693328D02*
X193886600Y-174693328D01*
X193886600Y-174693328D02*
X193743742Y-174621900D01*
X193743742Y-174621900D02*
X193672314Y-174479042D01*
X193672314Y-174479042D02*
X193672314Y-174336185D01*
X193672314Y-174336185D02*
X193743742Y-174193328D01*
X193743742Y-174193328D02*
X193886600Y-174121900D01*
X193886600Y-174121900D02*
X194243742Y-174121900D01*
X194243742Y-174121900D02*
X194386600Y-174050471D01*
X195743743Y-174621900D02*
X195600885Y-174693328D01*
X195600885Y-174693328D02*
X195315171Y-174693328D01*
X195315171Y-174693328D02*
X195172314Y-174621900D01*
X195172314Y-174621900D02*
X195100885Y-174550471D01*
X195100885Y-174550471D02*
X195029457Y-174407614D01*
X195029457Y-174407614D02*
X195029457Y-173979042D01*
X195029457Y-173979042D02*
X195100885Y-173836185D01*
X195100885Y-173836185D02*
X195172314Y-173764757D01*
X195172314Y-173764757D02*
X195315171Y-173693328D01*
X195315171Y-173693328D02*
X195600885Y-173693328D01*
X195600885Y-173693328D02*
X195743743Y-173764757D01*
X196600885Y-174693328D02*
X196458028Y-174621900D01*
X196458028Y-174621900D02*
X196386599Y-174479042D01*
X196386599Y-174479042D02*
X196386599Y-173193328D01*
X197743742Y-174621900D02*
X197600885Y-174693328D01*
X197600885Y-174693328D02*
X197315171Y-174693328D01*
X197315171Y-174693328D02*
X197172313Y-174621900D01*
X197172313Y-174621900D02*
X197100885Y-174479042D01*
X197100885Y-174479042D02*
X197100885Y-173907614D01*
X197100885Y-173907614D02*
X197172313Y-173764757D01*
X197172313Y-173764757D02*
X197315171Y-173693328D01*
X197315171Y-173693328D02*
X197600885Y-173693328D01*
X197600885Y-173693328D02*
X197743742Y-173764757D01*
X197743742Y-173764757D02*
X197815171Y-173907614D01*
X197815171Y-173907614D02*
X197815171Y-174050471D01*
X197815171Y-174050471D02*
X197100885Y-174193328D01*
X198458027Y-174693328D02*
X198458027Y-173693328D01*
X198458027Y-173836185D02*
X198529456Y-173764757D01*
X198529456Y-173764757D02*
X198672313Y-173693328D01*
X198672313Y-173693328D02*
X198886599Y-173693328D01*
X198886599Y-173693328D02*
X199029456Y-173764757D01*
X199029456Y-173764757D02*
X199100885Y-173907614D01*
X199100885Y-173907614D02*
X199100885Y-174693328D01*
X199100885Y-173907614D02*
X199172313Y-173764757D01*
X199172313Y-173764757D02*
X199315170Y-173693328D01*
X199315170Y-173693328D02*
X199529456Y-173693328D01*
X199529456Y-173693328D02*
X199672313Y-173764757D01*
X199672313Y-173764757D02*
X199743742Y-173907614D01*
X199743742Y-173907614D02*
X199743742Y-174693328D01*
X201100885Y-174693328D02*
X201100885Y-173907614D01*
X201100885Y-173907614D02*
X201029456Y-173764757D01*
X201029456Y-173764757D02*
X200886599Y-173693328D01*
X200886599Y-173693328D02*
X200600885Y-173693328D01*
X200600885Y-173693328D02*
X200458027Y-173764757D01*
X201100885Y-174621900D02*
X200958027Y-174693328D01*
X200958027Y-174693328D02*
X200600885Y-174693328D01*
X200600885Y-174693328D02*
X200458027Y-174621900D01*
X200458027Y-174621900D02*
X200386599Y-174479042D01*
X200386599Y-174479042D02*
X200386599Y-174336185D01*
X200386599Y-174336185D02*
X200458027Y-174193328D01*
X200458027Y-174193328D02*
X200600885Y-174121900D01*
X200600885Y-174121900D02*
X200958027Y-174121900D01*
X200958027Y-174121900D02*
X201100885Y-174050471D01*
X202886599Y-173121900D02*
X201600885Y-175050471D01*
X203386599Y-173193328D02*
X203386599Y-174407614D01*
X203386599Y-174407614D02*
X203458028Y-174550471D01*
X203458028Y-174550471D02*
X203529457Y-174621900D01*
X203529457Y-174621900D02*
X203672314Y-174693328D01*
X203672314Y-174693328D02*
X203958028Y-174693328D01*
X203958028Y-174693328D02*
X204100885Y-174621900D01*
X204100885Y-174621900D02*
X204172314Y-174550471D01*
X204172314Y-174550471D02*
X204243742Y-174407614D01*
X204243742Y-174407614D02*
X204243742Y-173193328D01*
X204886600Y-174621900D02*
X205100886Y-174693328D01*
X205100886Y-174693328D02*
X205458028Y-174693328D01*
X205458028Y-174693328D02*
X205600886Y-174621900D01*
X205600886Y-174621900D02*
X205672314Y-174550471D01*
X205672314Y-174550471D02*
X205743743Y-174407614D01*
X205743743Y-174407614D02*
X205743743Y-174264757D01*
X205743743Y-174264757D02*
X205672314Y-174121900D01*
X205672314Y-174121900D02*
X205600886Y-174050471D01*
X205600886Y-174050471D02*
X205458028Y-173979042D01*
X205458028Y-173979042D02*
X205172314Y-173907614D01*
X205172314Y-173907614D02*
X205029457Y-173836185D01*
X205029457Y-173836185D02*
X204958028Y-173764757D01*
X204958028Y-173764757D02*
X204886600Y-173621900D01*
X204886600Y-173621900D02*
X204886600Y-173479042D01*
X204886600Y-173479042D02*
X204958028Y-173336185D01*
X204958028Y-173336185D02*
X205029457Y-173264757D01*
X205029457Y-173264757D02*
X205172314Y-173193328D01*
X205172314Y-173193328D02*
X205529457Y-173193328D01*
X205529457Y-173193328D02*
X205743743Y-173264757D01*
X206886599Y-173907614D02*
X207100885Y-173979042D01*
X207100885Y-173979042D02*
X207172314Y-174050471D01*
X207172314Y-174050471D02*
X207243742Y-174193328D01*
X207243742Y-174193328D02*
X207243742Y-174407614D01*
X207243742Y-174407614D02*
X207172314Y-174550471D01*
X207172314Y-174550471D02*
X207100885Y-174621900D01*
X207100885Y-174621900D02*
X206958028Y-174693328D01*
X206958028Y-174693328D02*
X206386599Y-174693328D01*
X206386599Y-174693328D02*
X206386599Y-173193328D01*
X206386599Y-173193328D02*
X206886599Y-173193328D01*
X206886599Y-173193328D02*
X207029457Y-173264757D01*
X207029457Y-173264757D02*
X207100885Y-173336185D01*
X207100885Y-173336185D02*
X207172314Y-173479042D01*
X207172314Y-173479042D02*
X207172314Y-173621900D01*
X207172314Y-173621900D02*
X207100885Y-173764757D01*
X207100885Y-173764757D02*
X207029457Y-173836185D01*
X207029457Y-173836185D02*
X206886599Y-173907614D01*
X206886599Y-173907614D02*
X206386599Y-173907614D01*
X207672314Y-173693328D02*
X208243742Y-173693328D01*
X207886599Y-173193328D02*
X207886599Y-174479042D01*
X207886599Y-174479042D02*
X207958028Y-174621900D01*
X207958028Y-174621900D02*
X208100885Y-174693328D01*
X208100885Y-174693328D02*
X208243742Y-174693328D01*
X208958028Y-174693328D02*
X208815171Y-174621900D01*
X208815171Y-174621900D02*
X208743742Y-174550471D01*
X208743742Y-174550471D02*
X208672314Y-174407614D01*
X208672314Y-174407614D02*
X208672314Y-173979042D01*
X208672314Y-173979042D02*
X208743742Y-173836185D01*
X208743742Y-173836185D02*
X208815171Y-173764757D01*
X208815171Y-173764757D02*
X208958028Y-173693328D01*
X208958028Y-173693328D02*
X209172314Y-173693328D01*
X209172314Y-173693328D02*
X209315171Y-173764757D01*
X209315171Y-173764757D02*
X209386600Y-173836185D01*
X209386600Y-173836185D02*
X209458028Y-173979042D01*
X209458028Y-173979042D02*
X209458028Y-174407614D01*
X209458028Y-174407614D02*
X209386600Y-174550471D01*
X209386600Y-174550471D02*
X209315171Y-174621900D01*
X209315171Y-174621900D02*
X209172314Y-174693328D01*
X209172314Y-174693328D02*
X208958028Y-174693328D01*
X210100885Y-173193328D02*
X210100885Y-174407614D01*
X210100885Y-174407614D02*
X210172314Y-174550471D01*
X210172314Y-174550471D02*
X210243743Y-174621900D01*
X210243743Y-174621900D02*
X210386600Y-174693328D01*
X210386600Y-174693328D02*
X210672314Y-174693328D01*
X210672314Y-174693328D02*
X210815171Y-174621900D01*
X210815171Y-174621900D02*
X210886600Y-174550471D01*
X210886600Y-174550471D02*
X210958028Y-174407614D01*
X210958028Y-174407614D02*
X210958028Y-173193328D01*
X211600886Y-174264757D02*
X212315172Y-174264757D01*
X211458029Y-174693328D02*
X211958029Y-173193328D01*
X211958029Y-173193328D02*
X212458029Y-174693328D01*
X213815171Y-174693328D02*
X213315171Y-173979042D01*
X212958028Y-174693328D02*
X212958028Y-173193328D01*
X212958028Y-173193328D02*
X213529457Y-173193328D01*
X213529457Y-173193328D02*
X213672314Y-173264757D01*
X213672314Y-173264757D02*
X213743743Y-173336185D01*
X213743743Y-173336185D02*
X213815171Y-173479042D01*
X213815171Y-173479042D02*
X213815171Y-173693328D01*
X213815171Y-173693328D02*
X213743743Y-173836185D01*
X213743743Y-173836185D02*
X213672314Y-173907614D01*
X213672314Y-173907614D02*
X213529457Y-173979042D01*
X213529457Y-173979042D02*
X212958028Y-173979042D01*
X214243743Y-173193328D02*
X215100886Y-173193328D01*
X214672314Y-174693328D02*
X214672314Y-173193328D01*
D10*
D11*
X197002200Y-191507200D02*
X197002200Y-194507200D01*
D10*
D11*
X261002200Y-191507200D02*
X261002200Y-198007200D01*
X133205000Y-116765000D02*
X133205000Y-116115000D01*
X132707438Y-111770840D02*
X132659819Y-111675602D01*
X132659819Y-111675602D02*
X132659819Y-111532745D01*
X132659819Y-111532745D02*
X132707438Y-111389888D01*
X132707438Y-111389888D02*
X132802676Y-111294650D01*
X132802676Y-111294650D02*
X132897914Y-111247031D01*
X132897914Y-111247031D02*
X133088390Y-111199412D01*
X133088390Y-111199412D02*
X133231247Y-111199412D01*
X133231247Y-111199412D02*
X133421723Y-111247031D01*
X133421723Y-111247031D02*
X133516961Y-111294650D01*
X133516961Y-111294650D02*
X133612200Y-111389888D01*
X133612200Y-111389888D02*
X133659819Y-111532745D01*
X133659819Y-111532745D02*
X133659819Y-111627983D01*
X133659819Y-111627983D02*
X133612200Y-111770840D01*
X133612200Y-111770840D02*
X133564580Y-111818459D01*
X133564580Y-111818459D02*
X133231247Y-111818459D01*
X133231247Y-111818459D02*
X133231247Y-111627983D01*
X133659819Y-112247031D02*
X132659819Y-112247031D01*
X132659819Y-112247031D02*
X132659819Y-112627983D01*
X132659819Y-112627983D02*
X132707438Y-112723221D01*
X132707438Y-112723221D02*
X132755057Y-112770840D01*
X132755057Y-112770840D02*
X132850295Y-112818459D01*
X132850295Y-112818459D02*
X132993152Y-112818459D01*
X132993152Y-112818459D02*
X133088390Y-112770840D01*
X133088390Y-112770840D02*
X133136009Y-112723221D01*
X133136009Y-112723221D02*
X133183628Y-112627983D01*
X133183628Y-112627983D02*
X133183628Y-112247031D01*
X133659819Y-113247031D02*
X132659819Y-113247031D01*
X132659819Y-113913697D02*
X132659819Y-114104173D01*
X132659819Y-114104173D02*
X132707438Y-114199411D01*
X132707438Y-114199411D02*
X132802676Y-114294649D01*
X132802676Y-114294649D02*
X132993152Y-114342268D01*
X132993152Y-114342268D02*
X133326485Y-114342268D01*
X133326485Y-114342268D02*
X133516961Y-114294649D01*
X133516961Y-114294649D02*
X133612200Y-114199411D01*
X133612200Y-114199411D02*
X133659819Y-114104173D01*
X133659819Y-114104173D02*
X133659819Y-113913697D01*
X133659819Y-113913697D02*
X133612200Y-113818459D01*
X133612200Y-113818459D02*
X133516961Y-113723221D01*
X133516961Y-113723221D02*
X133326485Y-113675602D01*
X133326485Y-113675602D02*
X132993152Y-113675602D01*
X132993152Y-113675602D02*
X132802676Y-113723221D01*
X132802676Y-113723221D02*
X132707438Y-113818459D01*
X132707438Y-113818459D02*
X132659819Y-113913697D01*
X133564580Y-114770840D02*
X133612200Y-114818459D01*
X133612200Y-114818459D02*
X133659819Y-114770840D01*
X133659819Y-114770840D02*
X133612200Y-114723221D01*
X133612200Y-114723221D02*
X133564580Y-114770840D01*
X133564580Y-114770840D02*
X133659819Y-114770840D01*
X132755057Y-115199411D02*
X132707438Y-115247030D01*
X132707438Y-115247030D02*
X132659819Y-115342268D01*
X132659819Y-115342268D02*
X132659819Y-115580363D01*
X132659819Y-115580363D02*
X132707438Y-115675601D01*
X132707438Y-115675601D02*
X132755057Y-115723220D01*
X132755057Y-115723220D02*
X132850295Y-115770839D01*
X132850295Y-115770839D02*
X132945533Y-115770839D01*
X132945533Y-115770839D02*
X133088390Y-115723220D01*
X133088390Y-115723220D02*
X133659819Y-115151792D01*
X133659819Y-115151792D02*
X133659819Y-115770839D01*
X140898866Y-102711779D02*
X140898866Y-103473684D01*
X141279819Y-103092731D02*
X140517914Y-103092731D01*
X140279819Y-104426064D02*
X140279819Y-103949874D01*
X140279819Y-103949874D02*
X140756009Y-103902255D01*
X140756009Y-103902255D02*
X140708390Y-103949874D01*
X140708390Y-103949874D02*
X140660771Y-104045112D01*
X140660771Y-104045112D02*
X140660771Y-104283207D01*
X140660771Y-104283207D02*
X140708390Y-104378445D01*
X140708390Y-104378445D02*
X140756009Y-104426064D01*
X140756009Y-104426064D02*
X140851247Y-104473683D01*
X140851247Y-104473683D02*
X141089342Y-104473683D01*
X141089342Y-104473683D02*
X141184580Y-104426064D01*
X141184580Y-104426064D02*
X141232200Y-104378445D01*
X141232200Y-104378445D02*
X141279819Y-104283207D01*
X141279819Y-104283207D02*
X141279819Y-104045112D01*
X141279819Y-104045112D02*
X141232200Y-103949874D01*
X141232200Y-103949874D02*
X141184580Y-103902255D01*
X140279819Y-104759398D02*
X141279819Y-105092731D01*
X141279819Y-105092731D02*
X140279819Y-105426064D01*
X140825000Y-102325000D02*
X140825000Y-101675000D01*
X126039819Y-102711779D02*
X125039819Y-102711779D01*
X125039819Y-102711779D02*
X125039819Y-102949874D01*
X125039819Y-102949874D02*
X125087438Y-103092731D01*
X125087438Y-103092731D02*
X125182676Y-103187969D01*
X125182676Y-103187969D02*
X125277914Y-103235588D01*
X125277914Y-103235588D02*
X125468390Y-103283207D01*
X125468390Y-103283207D02*
X125611247Y-103283207D01*
X125611247Y-103283207D02*
X125801723Y-103235588D01*
X125801723Y-103235588D02*
X125896961Y-103187969D01*
X125896961Y-103187969D02*
X125992200Y-103092731D01*
X125992200Y-103092731D02*
X126039819Y-102949874D01*
X126039819Y-102949874D02*
X126039819Y-102711779D01*
X125039819Y-103568922D02*
X125039819Y-104140350D01*
X126039819Y-103854636D02*
X125039819Y-103854636D01*
X126039819Y-105045112D02*
X125563628Y-104711779D01*
X126039819Y-104473684D02*
X125039819Y-104473684D01*
X125039819Y-104473684D02*
X125039819Y-104854636D01*
X125039819Y-104854636D02*
X125087438Y-104949874D01*
X125087438Y-104949874D02*
X125135057Y-104997493D01*
X125135057Y-104997493D02*
X125230295Y-105045112D01*
X125230295Y-105045112D02*
X125373152Y-105045112D01*
X125373152Y-105045112D02*
X125468390Y-104997493D01*
X125468390Y-104997493D02*
X125516009Y-104949874D01*
X125516009Y-104949874D02*
X125563628Y-104854636D01*
X125563628Y-104854636D02*
X125563628Y-104473684D01*
X125585000Y-102325000D02*
X125585000Y-101675000D01*
X117467438Y-103235588D02*
X117419819Y-103140350D01*
X117419819Y-103140350D02*
X117419819Y-102997493D01*
X117419819Y-102997493D02*
X117467438Y-102854636D01*
X117467438Y-102854636D02*
X117562676Y-102759398D01*
X117562676Y-102759398D02*
X117657914Y-102711779D01*
X117657914Y-102711779D02*
X117848390Y-102664160D01*
X117848390Y-102664160D02*
X117991247Y-102664160D01*
X117991247Y-102664160D02*
X118181723Y-102711779D01*
X118181723Y-102711779D02*
X118276961Y-102759398D01*
X118276961Y-102759398D02*
X118372200Y-102854636D01*
X118372200Y-102854636D02*
X118419819Y-102997493D01*
X118419819Y-102997493D02*
X118419819Y-103092731D01*
X118419819Y-103092731D02*
X118372200Y-103235588D01*
X118372200Y-103235588D02*
X118324580Y-103283207D01*
X118324580Y-103283207D02*
X117991247Y-103283207D01*
X117991247Y-103283207D02*
X117991247Y-103092731D01*
X118419819Y-103711779D02*
X117419819Y-103711779D01*
X117419819Y-103711779D02*
X118419819Y-104283207D01*
X118419819Y-104283207D02*
X117419819Y-104283207D01*
X118419819Y-104759398D02*
X117419819Y-104759398D01*
X117419819Y-104759398D02*
X117419819Y-104997493D01*
X117419819Y-104997493D02*
X117467438Y-105140350D01*
X117467438Y-105140350D02*
X117562676Y-105235588D01*
X117562676Y-105235588D02*
X117657914Y-105283207D01*
X117657914Y-105283207D02*
X117848390Y-105330826D01*
X117848390Y-105330826D02*
X117991247Y-105330826D01*
X117991247Y-105330826D02*
X118181723Y-105283207D01*
X118181723Y-105283207D02*
X118276961Y-105235588D01*
X118276961Y-105235588D02*
X118372200Y-105140350D01*
X118372200Y-105140350D02*
X118419819Y-104997493D01*
X118419819Y-104997493D02*
X118419819Y-104759398D01*
X117965000Y-102325000D02*
X117965000Y-101675000D01*
X131024580Y-103283207D02*
X131072200Y-103235588D01*
X131072200Y-103235588D02*
X131119819Y-103092731D01*
X131119819Y-103092731D02*
X131119819Y-102997493D01*
X131119819Y-102997493D02*
X131072200Y-102854636D01*
X131072200Y-102854636D02*
X130976961Y-102759398D01*
X130976961Y-102759398D02*
X130881723Y-102711779D01*
X130881723Y-102711779D02*
X130691247Y-102664160D01*
X130691247Y-102664160D02*
X130548390Y-102664160D01*
X130548390Y-102664160D02*
X130357914Y-102711779D01*
X130357914Y-102711779D02*
X130262676Y-102759398D01*
X130262676Y-102759398D02*
X130167438Y-102854636D01*
X130167438Y-102854636D02*
X130119819Y-102997493D01*
X130119819Y-102997493D02*
X130119819Y-103092731D01*
X130119819Y-103092731D02*
X130167438Y-103235588D01*
X130167438Y-103235588D02*
X130215057Y-103283207D01*
X130119819Y-103568922D02*
X130119819Y-104140350D01*
X131119819Y-103854636D02*
X130119819Y-103854636D01*
X131072200Y-104426065D02*
X131119819Y-104568922D01*
X131119819Y-104568922D02*
X131119819Y-104807017D01*
X131119819Y-104807017D02*
X131072200Y-104902255D01*
X131072200Y-104902255D02*
X131024580Y-104949874D01*
X131024580Y-104949874D02*
X130929342Y-104997493D01*
X130929342Y-104997493D02*
X130834104Y-104997493D01*
X130834104Y-104997493D02*
X130738866Y-104949874D01*
X130738866Y-104949874D02*
X130691247Y-104902255D01*
X130691247Y-104902255D02*
X130643628Y-104807017D01*
X130643628Y-104807017D02*
X130596009Y-104616541D01*
X130596009Y-104616541D02*
X130548390Y-104521303D01*
X130548390Y-104521303D02*
X130500771Y-104473684D01*
X130500771Y-104473684D02*
X130405533Y-104426065D01*
X130405533Y-104426065D02*
X130310295Y-104426065D01*
X130310295Y-104426065D02*
X130215057Y-104473684D01*
X130215057Y-104473684D02*
X130167438Y-104521303D01*
X130167438Y-104521303D02*
X130119819Y-104616541D01*
X130119819Y-104616541D02*
X130119819Y-104854636D01*
X130119819Y-104854636D02*
X130167438Y-104997493D01*
X130665000Y-102325000D02*
X130665000Y-101675000D01*
X128579819Y-102711779D02*
X127579819Y-102711779D01*
X127579819Y-102711779D02*
X127579819Y-102949874D01*
X127579819Y-102949874D02*
X127627438Y-103092731D01*
X127627438Y-103092731D02*
X127722676Y-103187969D01*
X127722676Y-103187969D02*
X127817914Y-103235588D01*
X127817914Y-103235588D02*
X128008390Y-103283207D01*
X128008390Y-103283207D02*
X128151247Y-103283207D01*
X128151247Y-103283207D02*
X128341723Y-103235588D01*
X128341723Y-103235588D02*
X128436961Y-103187969D01*
X128436961Y-103187969D02*
X128532200Y-103092731D01*
X128532200Y-103092731D02*
X128579819Y-102949874D01*
X128579819Y-102949874D02*
X128579819Y-102711779D01*
X128532200Y-103664160D02*
X128579819Y-103807017D01*
X128579819Y-103807017D02*
X128579819Y-104045112D01*
X128579819Y-104045112D02*
X128532200Y-104140350D01*
X128532200Y-104140350D02*
X128484580Y-104187969D01*
X128484580Y-104187969D02*
X128389342Y-104235588D01*
X128389342Y-104235588D02*
X128294104Y-104235588D01*
X128294104Y-104235588D02*
X128198866Y-104187969D01*
X128198866Y-104187969D02*
X128151247Y-104140350D01*
X128151247Y-104140350D02*
X128103628Y-104045112D01*
X128103628Y-104045112D02*
X128056009Y-103854636D01*
X128056009Y-103854636D02*
X128008390Y-103759398D01*
X128008390Y-103759398D02*
X127960771Y-103711779D01*
X127960771Y-103711779D02*
X127865533Y-103664160D01*
X127865533Y-103664160D02*
X127770295Y-103664160D01*
X127770295Y-103664160D02*
X127675057Y-103711779D01*
X127675057Y-103711779D02*
X127627438Y-103759398D01*
X127627438Y-103759398D02*
X127579819Y-103854636D01*
X127579819Y-103854636D02*
X127579819Y-104092731D01*
X127579819Y-104092731D02*
X127627438Y-104235588D01*
X128579819Y-105235588D02*
X128103628Y-104902255D01*
X128579819Y-104664160D02*
X127579819Y-104664160D01*
X127579819Y-104664160D02*
X127579819Y-105045112D01*
X127579819Y-105045112D02*
X127627438Y-105140350D01*
X127627438Y-105140350D02*
X127675057Y-105187969D01*
X127675057Y-105187969D02*
X127770295Y-105235588D01*
X127770295Y-105235588D02*
X127913152Y-105235588D01*
X127913152Y-105235588D02*
X128008390Y-105187969D01*
X128008390Y-105187969D02*
X128056009Y-105140350D01*
X128056009Y-105140350D02*
X128103628Y-105045112D01*
X128103628Y-105045112D02*
X128103628Y-104664160D01*
X128125000Y-102325000D02*
X128125000Y-101675000D01*
D14*
X146038094Y-100252219D02*
X145419047Y-100252219D01*
X145419047Y-100252219D02*
X145752380Y-100633171D01*
X145752380Y-100633171D02*
X145609523Y-100633171D01*
X145609523Y-100633171D02*
X145514285Y-100680790D01*
X145514285Y-100680790D02*
X145466666Y-100728409D01*
X145466666Y-100728409D02*
X145419047Y-100823647D01*
X145419047Y-100823647D02*
X145419047Y-101061742D01*
X145419047Y-101061742D02*
X145466666Y-101156980D01*
X145466666Y-101156980D02*
X145514285Y-101204600D01*
X145514285Y-101204600D02*
X145609523Y-101252219D01*
X145609523Y-101252219D02*
X145895237Y-101252219D01*
X145895237Y-101252219D02*
X145990475Y-101204600D01*
X145990475Y-101204600D02*
X146038094Y-101156980D01*
X145133332Y-100252219D02*
X144799999Y-101252219D01*
X144799999Y-101252219D02*
X144466666Y-100252219D01*
X144228570Y-100252219D02*
X143609523Y-100252219D01*
X143609523Y-100252219D02*
X143942856Y-100633171D01*
X143942856Y-100633171D02*
X143799999Y-100633171D01*
X143799999Y-100633171D02*
X143704761Y-100680790D01*
X143704761Y-100680790D02*
X143657142Y-100728409D01*
X143657142Y-100728409D02*
X143609523Y-100823647D01*
X143609523Y-100823647D02*
X143609523Y-101061742D01*
X143609523Y-101061742D02*
X143657142Y-101156980D01*
X143657142Y-101156980D02*
X143704761Y-101204600D01*
X143704761Y-101204600D02*
X143799999Y-101252219D01*
X143799999Y-101252219D02*
X144085713Y-101252219D01*
X144085713Y-101252219D02*
X144180951Y-101204600D01*
X144180951Y-101204600D02*
X144228570Y-101156980D01*
X145461904Y-117199838D02*
X145557142Y-117152219D01*
X145557142Y-117152219D02*
X145699999Y-117152219D01*
X145699999Y-117152219D02*
X145842856Y-117199838D01*
X145842856Y-117199838D02*
X145938094Y-117295076D01*
X145938094Y-117295076D02*
X145985713Y-117390314D01*
X145985713Y-117390314D02*
X146033332Y-117580790D01*
X146033332Y-117580790D02*
X146033332Y-117723647D01*
X146033332Y-117723647D02*
X145985713Y-117914123D01*
X145985713Y-117914123D02*
X145938094Y-118009361D01*
X145938094Y-118009361D02*
X145842856Y-118104600D01*
X145842856Y-118104600D02*
X145699999Y-118152219D01*
X145699999Y-118152219D02*
X145604761Y-118152219D01*
X145604761Y-118152219D02*
X145461904Y-118104600D01*
X145461904Y-118104600D02*
X145414285Y-118056980D01*
X145414285Y-118056980D02*
X145414285Y-117723647D01*
X145414285Y-117723647D02*
X145604761Y-117723647D01*
X144985713Y-118152219D02*
X144985713Y-117152219D01*
X144985713Y-117152219D02*
X144414285Y-118152219D01*
X144414285Y-118152219D02*
X144414285Y-117152219D01*
X143938094Y-118152219D02*
X143938094Y-117152219D01*
X143938094Y-117152219D02*
X143699999Y-117152219D01*
X143699999Y-117152219D02*
X143557142Y-117199838D01*
X143557142Y-117199838D02*
X143461904Y-117295076D01*
X143461904Y-117295076D02*
X143414285Y-117390314D01*
X143414285Y-117390314D02*
X143366666Y-117580790D01*
X143366666Y-117580790D02*
X143366666Y-117723647D01*
X143366666Y-117723647D02*
X143414285Y-117914123D01*
X143414285Y-117914123D02*
X143461904Y-118009361D01*
X143461904Y-118009361D02*
X143557142Y-118104600D01*
X143557142Y-118104600D02*
X143699999Y-118152219D01*
X143699999Y-118152219D02*
X143938094Y-118152219D01*
D11*
X113361544Y-100526914D02*
X113332972Y-100498342D01*
X113332972Y-100498342D02*
X113275830Y-100469771D01*
X113275830Y-100469771D02*
X113132972Y-100469771D01*
X113132972Y-100469771D02*
X113075830Y-100498342D01*
X113075830Y-100498342D02*
X113047258Y-100526914D01*
X113047258Y-100526914D02*
X113018687Y-100584057D01*
X113018687Y-100584057D02*
X113018687Y-100641200D01*
X113018687Y-100641200D02*
X113047258Y-100726914D01*
X113047258Y-100726914D02*
X113390115Y-101069771D01*
X113390115Y-101069771D02*
X113018687Y-101069771D01*
X112818686Y-100469771D02*
X112447258Y-100469771D01*
X112447258Y-100469771D02*
X112647258Y-100698342D01*
X112647258Y-100698342D02*
X112561543Y-100698342D01*
X112561543Y-100698342D02*
X112504401Y-100726914D01*
X112504401Y-100726914D02*
X112475829Y-100755485D01*
X112475829Y-100755485D02*
X112447258Y-100812628D01*
X112447258Y-100812628D02*
X112447258Y-100955485D01*
X112447258Y-100955485D02*
X112475829Y-101012628D01*
X112475829Y-101012628D02*
X112504401Y-101041200D01*
X112504401Y-101041200D02*
X112561543Y-101069771D01*
X112561543Y-101069771D02*
X112732972Y-101069771D01*
X112732972Y-101069771D02*
X112790115Y-101041200D01*
X112790115Y-101041200D02*
X112818686Y-101012628D01*
X112190114Y-100841200D02*
X111732972Y-100841200D01*
X111332972Y-100469771D02*
X111275829Y-100469771D01*
X111275829Y-100469771D02*
X111218686Y-100498342D01*
X111218686Y-100498342D02*
X111190115Y-100526914D01*
X111190115Y-100526914D02*
X111161543Y-100584057D01*
X111161543Y-100584057D02*
X111132972Y-100698342D01*
X111132972Y-100698342D02*
X111132972Y-100841200D01*
X111132972Y-100841200D02*
X111161543Y-100955485D01*
X111161543Y-100955485D02*
X111190115Y-101012628D01*
X111190115Y-101012628D02*
X111218686Y-101041200D01*
X111218686Y-101041200D02*
X111275829Y-101069771D01*
X111275829Y-101069771D02*
X111332972Y-101069771D01*
X111332972Y-101069771D02*
X111390115Y-101041200D01*
X111390115Y-101041200D02*
X111418686Y-101012628D01*
X111418686Y-101012628D02*
X111447257Y-100955485D01*
X111447257Y-100955485D02*
X111475829Y-100841200D01*
X111475829Y-100841200D02*
X111475829Y-100698342D01*
X111475829Y-100698342D02*
X111447257Y-100584057D01*
X111447257Y-100584057D02*
X111418686Y-100526914D01*
X111418686Y-100526914D02*
X111390115Y-100498342D01*
X111390115Y-100498342D02*
X111332972Y-100469771D01*
X110932971Y-100469771D02*
X110532971Y-100469771D01*
X110532971Y-100469771D02*
X110790114Y-101069771D01*
X110304399Y-100841200D02*
X109847257Y-100841200D01*
X109590114Y-100526914D02*
X109561542Y-100498342D01*
X109561542Y-100498342D02*
X109504400Y-100469771D01*
X109504400Y-100469771D02*
X109361542Y-100469771D01*
X109361542Y-100469771D02*
X109304400Y-100498342D01*
X109304400Y-100498342D02*
X109275828Y-100526914D01*
X109275828Y-100526914D02*
X109247257Y-100584057D01*
X109247257Y-100584057D02*
X109247257Y-100641200D01*
X109247257Y-100641200D02*
X109275828Y-100726914D01*
X109275828Y-100726914D02*
X109618685Y-101069771D01*
X109618685Y-101069771D02*
X109247257Y-101069771D01*
X108875828Y-100469771D02*
X108818685Y-100469771D01*
X108818685Y-100469771D02*
X108761542Y-100498342D01*
X108761542Y-100498342D02*
X108732971Y-100526914D01*
X108732971Y-100526914D02*
X108704399Y-100584057D01*
X108704399Y-100584057D02*
X108675828Y-100698342D01*
X108675828Y-100698342D02*
X108675828Y-100841200D01*
X108675828Y-100841200D02*
X108704399Y-100955485D01*
X108704399Y-100955485D02*
X108732971Y-101012628D01*
X108732971Y-101012628D02*
X108761542Y-101041200D01*
X108761542Y-101041200D02*
X108818685Y-101069771D01*
X108818685Y-101069771D02*
X108875828Y-101069771D01*
X108875828Y-101069771D02*
X108932971Y-101041200D01*
X108932971Y-101041200D02*
X108961542Y-101012628D01*
X108961542Y-101012628D02*
X108990113Y-100955485D01*
X108990113Y-100955485D02*
X109018685Y-100841200D01*
X109018685Y-100841200D02*
X109018685Y-100698342D01*
X109018685Y-100698342D02*
X108990113Y-100584057D01*
X108990113Y-100584057D02*
X108961542Y-100526914D01*
X108961542Y-100526914D02*
X108932971Y-100498342D01*
X108932971Y-100498342D02*
X108875828Y-100469771D01*
X108447256Y-100526914D02*
X108418684Y-100498342D01*
X108418684Y-100498342D02*
X108361542Y-100469771D01*
X108361542Y-100469771D02*
X108218684Y-100469771D01*
X108218684Y-100469771D02*
X108161542Y-100498342D01*
X108161542Y-100498342D02*
X108132970Y-100526914D01*
X108132970Y-100526914D02*
X108104399Y-100584057D01*
X108104399Y-100584057D02*
X108104399Y-100641200D01*
X108104399Y-100641200D02*
X108132970Y-100726914D01*
X108132970Y-100726914D02*
X108475827Y-101069771D01*
X108475827Y-101069771D02*
X108104399Y-101069771D01*
X107561541Y-100469771D02*
X107847255Y-100469771D01*
X107847255Y-100469771D02*
X107875827Y-100755485D01*
X107875827Y-100755485D02*
X107847255Y-100726914D01*
X107847255Y-100726914D02*
X107790113Y-100698342D01*
X107790113Y-100698342D02*
X107647255Y-100698342D01*
X107647255Y-100698342D02*
X107590113Y-100726914D01*
X107590113Y-100726914D02*
X107561541Y-100755485D01*
X107561541Y-100755485D02*
X107532970Y-100812628D01*
X107532970Y-100812628D02*
X107532970Y-100955485D01*
X107532970Y-100955485D02*
X107561541Y-101012628D01*
X107561541Y-101012628D02*
X107590113Y-101041200D01*
X107590113Y-101041200D02*
X107647255Y-101069771D01*
X107647255Y-101069771D02*
X107790113Y-101069771D01*
X107790113Y-101069771D02*
X107847255Y-101041200D01*
X107847255Y-101041200D02*
X107875827Y-101012628D01*
D14*
X143280952Y-110252219D02*
X142709524Y-110252219D01*
X142995238Y-111252219D02*
X142995238Y-110252219D01*
X142471428Y-110252219D02*
X141804762Y-111252219D01*
X141804762Y-110252219D02*
X142471428Y-111252219D01*
D11*
X144000000Y-105400000D02*
X143500000Y-105400000D01*
X143500000Y-113020000D02*
X144000000Y-113020000D01*
X144000000Y-107940000D02*
X143500000Y-107940000D01*
X144000000Y-110480000D02*
X143500000Y-110700000D01*
X130374999Y-107328628D02*
X130416666Y-107281009D01*
X130416666Y-107281009D02*
X130505952Y-107233390D01*
X130505952Y-107233390D02*
X130601190Y-107233390D01*
X130601190Y-107233390D02*
X130702380Y-107281009D01*
X130702380Y-107281009D02*
X130755952Y-107328628D01*
X130755952Y-107328628D02*
X130815475Y-107423866D01*
X130815475Y-107423866D02*
X130827380Y-107519104D01*
X130827380Y-107519104D02*
X130791666Y-107614342D01*
X130791666Y-107614342D02*
X130749999Y-107661961D01*
X130749999Y-107661961D02*
X130660714Y-107709580D01*
X130660714Y-107709580D02*
X130565475Y-107709580D01*
X130565475Y-107709580D02*
X130464285Y-107661961D01*
X130464285Y-107661961D02*
X130410714Y-107614342D01*
X130363094Y-107233390D02*
X130410714Y-107614342D01*
X130410714Y-107614342D02*
X130369047Y-107661961D01*
X130369047Y-107661961D02*
X130321428Y-107661961D01*
X130321428Y-107661961D02*
X130220237Y-107614342D01*
X130220237Y-107614342D02*
X130160714Y-107519104D01*
X130160714Y-107519104D02*
X130130952Y-107281009D01*
X130130952Y-107281009D02*
X130208333Y-107138152D01*
X130208333Y-107138152D02*
X130339285Y-107042914D01*
X130339285Y-107042914D02*
X130523809Y-106995295D01*
X130523809Y-106995295D02*
X130720237Y-107042914D01*
X130720237Y-107042914D02*
X130874999Y-107138152D01*
X130874999Y-107138152D02*
X130988094Y-107281009D01*
X130988094Y-107281009D02*
X131059523Y-107471485D01*
X131059523Y-107471485D02*
X131035714Y-107661961D01*
X131035714Y-107661961D02*
X130958333Y-107804819D01*
X130958333Y-107804819D02*
X130827380Y-107900057D01*
X130827380Y-107900057D02*
X130642856Y-107947676D01*
X130642856Y-107947676D02*
X130446428Y-107900057D01*
X130446428Y-107900057D02*
X130291666Y-107804819D01*
X129684523Y-107138152D02*
X129809523Y-108138152D01*
X129690476Y-107185771D02*
X129589285Y-107138152D01*
X129589285Y-107138152D02*
X129398809Y-107138152D01*
X129398809Y-107138152D02*
X129309523Y-107185771D01*
X129309523Y-107185771D02*
X129267857Y-107233390D01*
X129267857Y-107233390D02*
X129232142Y-107328628D01*
X129232142Y-107328628D02*
X129267857Y-107614342D01*
X129267857Y-107614342D02*
X129327380Y-107709580D01*
X129327380Y-107709580D02*
X129380952Y-107757200D01*
X129380952Y-107757200D02*
X129482142Y-107804819D01*
X129482142Y-107804819D02*
X129672619Y-107804819D01*
X129672619Y-107804819D02*
X129761904Y-107757200D01*
X128434523Y-107804819D02*
X128369047Y-107281009D01*
X128369047Y-107281009D02*
X128404761Y-107185771D01*
X128404761Y-107185771D02*
X128494047Y-107138152D01*
X128494047Y-107138152D02*
X128684523Y-107138152D01*
X128684523Y-107138152D02*
X128785714Y-107185771D01*
X128428571Y-107757200D02*
X128529761Y-107804819D01*
X128529761Y-107804819D02*
X128767857Y-107804819D01*
X128767857Y-107804819D02*
X128857142Y-107757200D01*
X128857142Y-107757200D02*
X128892857Y-107661961D01*
X128892857Y-107661961D02*
X128880952Y-107566723D01*
X128880952Y-107566723D02*
X128821428Y-107471485D01*
X128821428Y-107471485D02*
X128720238Y-107423866D01*
X128720238Y-107423866D02*
X128482142Y-107423866D01*
X128482142Y-107423866D02*
X128380952Y-107376247D01*
X127523809Y-107757200D02*
X127624999Y-107804819D01*
X127624999Y-107804819D02*
X127815476Y-107804819D01*
X127815476Y-107804819D02*
X127904761Y-107757200D01*
X127904761Y-107757200D02*
X127946428Y-107709580D01*
X127946428Y-107709580D02*
X127982142Y-107614342D01*
X127982142Y-107614342D02*
X127946428Y-107328628D01*
X127946428Y-107328628D02*
X127886904Y-107233390D01*
X127886904Y-107233390D02*
X127833333Y-107185771D01*
X127833333Y-107185771D02*
X127732142Y-107138152D01*
X127732142Y-107138152D02*
X127541666Y-107138152D01*
X127541666Y-107138152D02*
X127452380Y-107185771D01*
X126958333Y-107804819D02*
X127047618Y-107757200D01*
X127047618Y-107757200D02*
X127083333Y-107661961D01*
X127083333Y-107661961D02*
X126976190Y-106804819D01*
X126190475Y-107757200D02*
X126291665Y-107804819D01*
X126291665Y-107804819D02*
X126482142Y-107804819D01*
X126482142Y-107804819D02*
X126571427Y-107757200D01*
X126571427Y-107757200D02*
X126607142Y-107661961D01*
X126607142Y-107661961D02*
X126559523Y-107281009D01*
X126559523Y-107281009D02*
X126499999Y-107185771D01*
X126499999Y-107185771D02*
X126398808Y-107138152D01*
X126398808Y-107138152D02*
X126208332Y-107138152D01*
X126208332Y-107138152D02*
X126119046Y-107185771D01*
X126119046Y-107185771D02*
X126083332Y-107281009D01*
X126083332Y-107281009D02*
X126095237Y-107376247D01*
X126095237Y-107376247D02*
X126583332Y-107471485D01*
X125720237Y-107804819D02*
X125636903Y-107138152D01*
X125648808Y-107233390D02*
X125595237Y-107185771D01*
X125595237Y-107185771D02*
X125494046Y-107138152D01*
X125494046Y-107138152D02*
X125351189Y-107138152D01*
X125351189Y-107138152D02*
X125261903Y-107185771D01*
X125261903Y-107185771D02*
X125226189Y-107281009D01*
X125226189Y-107281009D02*
X125291665Y-107804819D01*
X125226189Y-107281009D02*
X125166665Y-107185771D01*
X125166665Y-107185771D02*
X125065475Y-107138152D01*
X125065475Y-107138152D02*
X124922618Y-107138152D01*
X124922618Y-107138152D02*
X124833332Y-107185771D01*
X124833332Y-107185771D02*
X124797618Y-107281009D01*
X124797618Y-107281009D02*
X124863094Y-107804819D01*
X123958332Y-107804819D02*
X123892856Y-107281009D01*
X123892856Y-107281009D02*
X123928570Y-107185771D01*
X123928570Y-107185771D02*
X124017856Y-107138152D01*
X124017856Y-107138152D02*
X124208332Y-107138152D01*
X124208332Y-107138152D02*
X124309523Y-107185771D01*
X123952380Y-107757200D02*
X124053570Y-107804819D01*
X124053570Y-107804819D02*
X124291666Y-107804819D01*
X124291666Y-107804819D02*
X124380951Y-107757200D01*
X124380951Y-107757200D02*
X124416666Y-107661961D01*
X124416666Y-107661961D02*
X124404761Y-107566723D01*
X124404761Y-107566723D02*
X124345237Y-107471485D01*
X124345237Y-107471485D02*
X124244047Y-107423866D01*
X124244047Y-107423866D02*
X124005951Y-107423866D01*
X124005951Y-107423866D02*
X123904761Y-107376247D01*
D14*
X111961578Y-117164742D02*
X111675864Y-117964742D01*
X111675864Y-117964742D02*
X111390149Y-117164742D01*
X110304435Y-117964742D02*
X110990149Y-117964742D01*
X110647292Y-117964742D02*
X110647292Y-116764742D01*
X110647292Y-116764742D02*
X110761578Y-116936171D01*
X110761578Y-116936171D02*
X110875863Y-117050457D01*
X110875863Y-117050457D02*
X110990149Y-117107600D01*
X109790149Y-117850457D02*
X109733006Y-117907600D01*
X109733006Y-117907600D02*
X109790149Y-117964742D01*
X109790149Y-117964742D02*
X109847292Y-117907600D01*
X109847292Y-117907600D02*
X109790149Y-117850457D01*
X109790149Y-117850457D02*
X109790149Y-117964742D01*
X108990149Y-116764742D02*
X108875863Y-116764742D01*
X108875863Y-116764742D02*
X108761577Y-116821885D01*
X108761577Y-116821885D02*
X108704435Y-116879028D01*
X108704435Y-116879028D02*
X108647292Y-116993314D01*
X108647292Y-116993314D02*
X108590149Y-117221885D01*
X108590149Y-117221885D02*
X108590149Y-117507600D01*
X108590149Y-117507600D02*
X108647292Y-117736171D01*
X108647292Y-117736171D02*
X108704435Y-117850457D01*
X108704435Y-117850457D02*
X108761577Y-117907600D01*
X108761577Y-117907600D02*
X108875863Y-117964742D01*
X108875863Y-117964742D02*
X108990149Y-117964742D01*
X108990149Y-117964742D02*
X109104435Y-117907600D01*
X109104435Y-117907600D02*
X109161577Y-117850457D01*
X109161577Y-117850457D02*
X109218720Y-117736171D01*
X109218720Y-117736171D02*
X109275863Y-117507600D01*
X109275863Y-117507600D02*
X109275863Y-117221885D01*
X109275863Y-117221885D02*
X109218720Y-116993314D01*
X109218720Y-116993314D02*
X109161577Y-116879028D01*
X109161577Y-116879028D02*
X109104435Y-116821885D01*
X109104435Y-116821885D02*
X108990149Y-116764742D01*
X142566666Y-113472219D02*
X142899999Y-112996028D01*
X143138094Y-113472219D02*
X143138094Y-112472219D01*
X143138094Y-112472219D02*
X142757142Y-112472219D01*
X142757142Y-112472219D02*
X142661904Y-112519838D01*
X142661904Y-112519838D02*
X142614285Y-112567457D01*
X142614285Y-112567457D02*
X142566666Y-112662695D01*
X142566666Y-112662695D02*
X142566666Y-112805552D01*
X142566666Y-112805552D02*
X142614285Y-112900790D01*
X142614285Y-112900790D02*
X142661904Y-112948409D01*
X142661904Y-112948409D02*
X142757142Y-112996028D01*
X142757142Y-112996028D02*
X143138094Y-112996028D01*
X142233332Y-112472219D02*
X141566666Y-113472219D01*
X141566666Y-112472219D02*
X142233332Y-113472219D01*
X142614286Y-107439838D02*
X142709524Y-107392219D01*
X142709524Y-107392219D02*
X142852381Y-107392219D01*
X142852381Y-107392219D02*
X142995238Y-107439838D01*
X142995238Y-107439838D02*
X143090476Y-107535076D01*
X143090476Y-107535076D02*
X143138095Y-107630314D01*
X143138095Y-107630314D02*
X143185714Y-107820790D01*
X143185714Y-107820790D02*
X143185714Y-107963647D01*
X143185714Y-107963647D02*
X143138095Y-108154123D01*
X143138095Y-108154123D02*
X143090476Y-108249361D01*
X143090476Y-108249361D02*
X142995238Y-108344600D01*
X142995238Y-108344600D02*
X142852381Y-108392219D01*
X142852381Y-108392219D02*
X142757143Y-108392219D01*
X142757143Y-108392219D02*
X142614286Y-108344600D01*
X142614286Y-108344600D02*
X142566667Y-108296980D01*
X142566667Y-108296980D02*
X142566667Y-107963647D01*
X142566667Y-107963647D02*
X142757143Y-107963647D01*
X142138095Y-108392219D02*
X142138095Y-107392219D01*
X142138095Y-107392219D02*
X141757143Y-107392219D01*
X141757143Y-107392219D02*
X141661905Y-107439838D01*
X141661905Y-107439838D02*
X141614286Y-107487457D01*
X141614286Y-107487457D02*
X141566667Y-107582695D01*
X141566667Y-107582695D02*
X141566667Y-107725552D01*
X141566667Y-107725552D02*
X141614286Y-107820790D01*
X141614286Y-107820790D02*
X141661905Y-107868409D01*
X141661905Y-107868409D02*
X141757143Y-107916028D01*
X141757143Y-107916028D02*
X142138095Y-107916028D01*
X141138095Y-108392219D02*
X141138095Y-107392219D01*
X140471429Y-107392219D02*
X140280953Y-107392219D01*
X140280953Y-107392219D02*
X140185715Y-107439838D01*
X140185715Y-107439838D02*
X140090477Y-107535076D01*
X140090477Y-107535076D02*
X140042858Y-107725552D01*
X140042858Y-107725552D02*
X140042858Y-108058885D01*
X140042858Y-108058885D02*
X140090477Y-108249361D01*
X140090477Y-108249361D02*
X140185715Y-108344600D01*
X140185715Y-108344600D02*
X140280953Y-108392219D01*
X140280953Y-108392219D02*
X140471429Y-108392219D01*
X140471429Y-108392219D02*
X140566667Y-108344600D01*
X140566667Y-108344600D02*
X140661905Y-108249361D01*
X140661905Y-108249361D02*
X140709524Y-108058885D01*
X140709524Y-108058885D02*
X140709524Y-107725552D01*
X140709524Y-107725552D02*
X140661905Y-107535076D01*
X140661905Y-107535076D02*
X140566667Y-107439838D01*
X140566667Y-107439838D02*
X140471429Y-107392219D01*
X139423810Y-107392219D02*
X139328572Y-107392219D01*
X139328572Y-107392219D02*
X139233334Y-107439838D01*
X139233334Y-107439838D02*
X139185715Y-107487457D01*
X139185715Y-107487457D02*
X139138096Y-107582695D01*
X139138096Y-107582695D02*
X139090477Y-107773171D01*
X139090477Y-107773171D02*
X139090477Y-108011266D01*
X139090477Y-108011266D02*
X139138096Y-108201742D01*
X139138096Y-108201742D02*
X139185715Y-108296980D01*
X139185715Y-108296980D02*
X139233334Y-108344600D01*
X139233334Y-108344600D02*
X139328572Y-108392219D01*
X139328572Y-108392219D02*
X139423810Y-108392219D01*
X139423810Y-108392219D02*
X139519048Y-108344600D01*
X139519048Y-108344600D02*
X139566667Y-108296980D01*
X139566667Y-108296980D02*
X139614286Y-108201742D01*
X139614286Y-108201742D02*
X139661905Y-108011266D01*
X139661905Y-108011266D02*
X139661905Y-107773171D01*
X139661905Y-107773171D02*
X139614286Y-107582695D01*
X139614286Y-107582695D02*
X139566667Y-107487457D01*
X139566667Y-107487457D02*
X139519048Y-107439838D01*
X139519048Y-107439838D02*
X139423810Y-107392219D01*
D15*
X136603333Y-108341990D02*
X136603333Y-109637228D01*
X136603333Y-109637228D02*
X136527143Y-109789609D01*
X136527143Y-109789609D02*
X136450952Y-109865800D01*
X136450952Y-109865800D02*
X136298571Y-109941990D01*
X136298571Y-109941990D02*
X135993809Y-109941990D01*
X135993809Y-109941990D02*
X135841428Y-109865800D01*
X135841428Y-109865800D02*
X135765238Y-109789609D01*
X135765238Y-109789609D02*
X135689047Y-109637228D01*
X135689047Y-109637228D02*
X135689047Y-108341990D01*
X135003334Y-109865800D02*
X134774762Y-109941990D01*
X134774762Y-109941990D02*
X134393810Y-109941990D01*
X134393810Y-109941990D02*
X134241429Y-109865800D01*
X134241429Y-109865800D02*
X134165238Y-109789609D01*
X134165238Y-109789609D02*
X134089048Y-109637228D01*
X134089048Y-109637228D02*
X134089048Y-109484847D01*
X134089048Y-109484847D02*
X134165238Y-109332466D01*
X134165238Y-109332466D02*
X134241429Y-109256276D01*
X134241429Y-109256276D02*
X134393810Y-109180085D01*
X134393810Y-109180085D02*
X134698572Y-109103895D01*
X134698572Y-109103895D02*
X134850953Y-109027704D01*
X134850953Y-109027704D02*
X134927143Y-108951514D01*
X134927143Y-108951514D02*
X135003334Y-108799133D01*
X135003334Y-108799133D02*
X135003334Y-108646752D01*
X135003334Y-108646752D02*
X134927143Y-108494371D01*
X134927143Y-108494371D02*
X134850953Y-108418180D01*
X134850953Y-108418180D02*
X134698572Y-108341990D01*
X134698572Y-108341990D02*
X134317619Y-108341990D01*
X134317619Y-108341990D02*
X134089048Y-108418180D01*
X132870000Y-109103895D02*
X132641428Y-109180085D01*
X132641428Y-109180085D02*
X132565238Y-109256276D01*
X132565238Y-109256276D02*
X132489047Y-109408657D01*
X132489047Y-109408657D02*
X132489047Y-109637228D01*
X132489047Y-109637228D02*
X132565238Y-109789609D01*
X132565238Y-109789609D02*
X132641428Y-109865800D01*
X132641428Y-109865800D02*
X132793809Y-109941990D01*
X132793809Y-109941990D02*
X133403333Y-109941990D01*
X133403333Y-109941990D02*
X133403333Y-108341990D01*
X133403333Y-108341990D02*
X132870000Y-108341990D01*
X132870000Y-108341990D02*
X132717619Y-108418180D01*
X132717619Y-108418180D02*
X132641428Y-108494371D01*
X132641428Y-108494371D02*
X132565238Y-108646752D01*
X132565238Y-108646752D02*
X132565238Y-108799133D01*
X132565238Y-108799133D02*
X132641428Y-108951514D01*
X132641428Y-108951514D02*
X132717619Y-109027704D01*
X132717619Y-109027704D02*
X132870000Y-109103895D01*
X132870000Y-109103895D02*
X133403333Y-109103895D01*
X132031905Y-108875323D02*
X131422381Y-108875323D01*
X131803333Y-108341990D02*
X131803333Y-109713419D01*
X131803333Y-109713419D02*
X131727143Y-109865800D01*
X131727143Y-109865800D02*
X131574762Y-109941990D01*
X131574762Y-109941990D02*
X131422381Y-109941990D01*
X130660476Y-109941990D02*
X130812857Y-109865800D01*
X130812857Y-109865800D02*
X130889047Y-109789609D01*
X130889047Y-109789609D02*
X130965238Y-109637228D01*
X130965238Y-109637228D02*
X130965238Y-109180085D01*
X130965238Y-109180085D02*
X130889047Y-109027704D01*
X130889047Y-109027704D02*
X130812857Y-108951514D01*
X130812857Y-108951514D02*
X130660476Y-108875323D01*
X130660476Y-108875323D02*
X130431904Y-108875323D01*
X130431904Y-108875323D02*
X130279523Y-108951514D01*
X130279523Y-108951514D02*
X130203333Y-109027704D01*
X130203333Y-109027704D02*
X130127142Y-109180085D01*
X130127142Y-109180085D02*
X130127142Y-109637228D01*
X130127142Y-109637228D02*
X130203333Y-109789609D01*
X130203333Y-109789609D02*
X130279523Y-109865800D01*
X130279523Y-109865800D02*
X130431904Y-109941990D01*
X130431904Y-109941990D02*
X130660476Y-109941990D01*
X129441428Y-108341990D02*
X129441428Y-109637228D01*
X129441428Y-109637228D02*
X129365238Y-109789609D01*
X129365238Y-109789609D02*
X129289047Y-109865800D01*
X129289047Y-109865800D02*
X129136666Y-109941990D01*
X129136666Y-109941990D02*
X128831904Y-109941990D01*
X128831904Y-109941990D02*
X128679523Y-109865800D01*
X128679523Y-109865800D02*
X128603333Y-109789609D01*
X128603333Y-109789609D02*
X128527142Y-109637228D01*
X128527142Y-109637228D02*
X128527142Y-108341990D01*
X127841429Y-109484847D02*
X127079524Y-109484847D01*
X127993810Y-109941990D02*
X127460476Y-108341990D01*
X127460476Y-108341990D02*
X126927143Y-109941990D01*
X125479523Y-109941990D02*
X126012857Y-109180085D01*
X126393809Y-109941990D02*
X126393809Y-108341990D01*
X126393809Y-108341990D02*
X125784285Y-108341990D01*
X125784285Y-108341990D02*
X125631904Y-108418180D01*
X125631904Y-108418180D02*
X125555714Y-108494371D01*
X125555714Y-108494371D02*
X125479523Y-108646752D01*
X125479523Y-108646752D02*
X125479523Y-108875323D01*
X125479523Y-108875323D02*
X125555714Y-109027704D01*
X125555714Y-109027704D02*
X125631904Y-109103895D01*
X125631904Y-109103895D02*
X125784285Y-109180085D01*
X125784285Y-109180085D02*
X126393809Y-109180085D01*
X125022381Y-108341990D02*
X124108095Y-108341990D01*
X124565238Y-109941990D02*
X124565238Y-108341990D01*
D14*
X143138094Y-105328409D02*
X142804761Y-105328409D01*
X142661904Y-105852219D02*
X143138094Y-105852219D01*
X143138094Y-105852219D02*
X143138094Y-104852219D01*
X143138094Y-104852219D02*
X142661904Y-104852219D01*
X142233332Y-105852219D02*
X142233332Y-104852219D01*
X142233332Y-104852219D02*
X141661904Y-105852219D01*
X141661904Y-105852219D02*
X141661904Y-104852219D01*
D11*
X137787438Y-103235588D02*
X137739819Y-103140350D01*
X137739819Y-103140350D02*
X137739819Y-102997493D01*
X137739819Y-102997493D02*
X137787438Y-102854636D01*
X137787438Y-102854636D02*
X137882676Y-102759398D01*
X137882676Y-102759398D02*
X137977914Y-102711779D01*
X137977914Y-102711779D02*
X138168390Y-102664160D01*
X138168390Y-102664160D02*
X138311247Y-102664160D01*
X138311247Y-102664160D02*
X138501723Y-102711779D01*
X138501723Y-102711779D02*
X138596961Y-102759398D01*
X138596961Y-102759398D02*
X138692200Y-102854636D01*
X138692200Y-102854636D02*
X138739819Y-102997493D01*
X138739819Y-102997493D02*
X138739819Y-103092731D01*
X138739819Y-103092731D02*
X138692200Y-103235588D01*
X138692200Y-103235588D02*
X138644580Y-103283207D01*
X138644580Y-103283207D02*
X138311247Y-103283207D01*
X138311247Y-103283207D02*
X138311247Y-103092731D01*
X138739819Y-103711779D02*
X137739819Y-103711779D01*
X137739819Y-103711779D02*
X137739819Y-104092731D01*
X137739819Y-104092731D02*
X137787438Y-104187969D01*
X137787438Y-104187969D02*
X137835057Y-104235588D01*
X137835057Y-104235588D02*
X137930295Y-104283207D01*
X137930295Y-104283207D02*
X138073152Y-104283207D01*
X138073152Y-104283207D02*
X138168390Y-104235588D01*
X138168390Y-104235588D02*
X138216009Y-104187969D01*
X138216009Y-104187969D02*
X138263628Y-104092731D01*
X138263628Y-104092731D02*
X138263628Y-103711779D01*
X138739819Y-104711779D02*
X137739819Y-104711779D01*
X137739819Y-105378445D02*
X137739819Y-105568921D01*
X137739819Y-105568921D02*
X137787438Y-105664159D01*
X137787438Y-105664159D02*
X137882676Y-105759397D01*
X137882676Y-105759397D02*
X138073152Y-105807016D01*
X138073152Y-105807016D02*
X138406485Y-105807016D01*
X138406485Y-105807016D02*
X138596961Y-105759397D01*
X138596961Y-105759397D02*
X138692200Y-105664159D01*
X138692200Y-105664159D02*
X138739819Y-105568921D01*
X138739819Y-105568921D02*
X138739819Y-105378445D01*
X138739819Y-105378445D02*
X138692200Y-105283207D01*
X138692200Y-105283207D02*
X138596961Y-105187969D01*
X138596961Y-105187969D02*
X138406485Y-105140350D01*
X138406485Y-105140350D02*
X138073152Y-105140350D01*
X138073152Y-105140350D02*
X137882676Y-105187969D01*
X137882676Y-105187969D02*
X137787438Y-105283207D01*
X137787438Y-105283207D02*
X137739819Y-105378445D01*
X138644580Y-106235588D02*
X138692200Y-106283207D01*
X138692200Y-106283207D02*
X138739819Y-106235588D01*
X138739819Y-106235588D02*
X138692200Y-106187969D01*
X138692200Y-106187969D02*
X138644580Y-106235588D01*
X138644580Y-106235588D02*
X138739819Y-106235588D01*
X137739819Y-107187968D02*
X137739819Y-106711778D01*
X137739819Y-106711778D02*
X138216009Y-106664159D01*
X138216009Y-106664159D02*
X138168390Y-106711778D01*
X138168390Y-106711778D02*
X138120771Y-106807016D01*
X138120771Y-106807016D02*
X138120771Y-107045111D01*
X138120771Y-107045111D02*
X138168390Y-107140349D01*
X138168390Y-107140349D02*
X138216009Y-107187968D01*
X138216009Y-107187968D02*
X138311247Y-107235587D01*
X138311247Y-107235587D02*
X138549342Y-107235587D01*
X138549342Y-107235587D02*
X138644580Y-107187968D01*
X138644580Y-107187968D02*
X138692200Y-107140349D01*
X138692200Y-107140349D02*
X138739819Y-107045111D01*
X138739819Y-107045111D02*
X138739819Y-106807016D01*
X138739819Y-106807016D02*
X138692200Y-106711778D01*
X138692200Y-106711778D02*
X138644580Y-106664159D01*
X138285000Y-102325000D02*
X138285000Y-101675000D01*
X128125000Y-116765000D02*
X128125000Y-116115000D01*
X128484580Y-112770839D02*
X128532200Y-112723220D01*
X128532200Y-112723220D02*
X128579819Y-112580363D01*
X128579819Y-112580363D02*
X128579819Y-112485125D01*
X128579819Y-112485125D02*
X128532200Y-112342268D01*
X128532200Y-112342268D02*
X128436961Y-112247030D01*
X128436961Y-112247030D02*
X128341723Y-112199411D01*
X128341723Y-112199411D02*
X128151247Y-112151792D01*
X128151247Y-112151792D02*
X128008390Y-112151792D01*
X128008390Y-112151792D02*
X127817914Y-112199411D01*
X127817914Y-112199411D02*
X127722676Y-112247030D01*
X127722676Y-112247030D02*
X127627438Y-112342268D01*
X127627438Y-112342268D02*
X127579819Y-112485125D01*
X127579819Y-112485125D02*
X127579819Y-112580363D01*
X127579819Y-112580363D02*
X127627438Y-112723220D01*
X127627438Y-112723220D02*
X127675057Y-112770839D01*
X128579819Y-113199411D02*
X127579819Y-113199411D01*
X128056009Y-113199411D02*
X128056009Y-113770839D01*
X128579819Y-113770839D02*
X127579819Y-113770839D01*
X128579819Y-114818458D02*
X128103628Y-114485125D01*
X128579819Y-114247030D02*
X127579819Y-114247030D01*
X127579819Y-114247030D02*
X127579819Y-114627982D01*
X127579819Y-114627982D02*
X127627438Y-114723220D01*
X127627438Y-114723220D02*
X127675057Y-114770839D01*
X127675057Y-114770839D02*
X127770295Y-114818458D01*
X127770295Y-114818458D02*
X127913152Y-114818458D01*
X127913152Y-114818458D02*
X128008390Y-114770839D01*
X128008390Y-114770839D02*
X128056009Y-114723220D01*
X128056009Y-114723220D02*
X128103628Y-114627982D01*
X128103628Y-114627982D02*
X128103628Y-114247030D01*
X127579819Y-115437506D02*
X127579819Y-115532744D01*
X127579819Y-115532744D02*
X127627438Y-115627982D01*
X127627438Y-115627982D02*
X127675057Y-115675601D01*
X127675057Y-115675601D02*
X127770295Y-115723220D01*
X127770295Y-115723220D02*
X127960771Y-115770839D01*
X127960771Y-115770839D02*
X128198866Y-115770839D01*
X128198866Y-115770839D02*
X128389342Y-115723220D01*
X128389342Y-115723220D02*
X128484580Y-115675601D01*
X128484580Y-115675601D02*
X128532200Y-115627982D01*
X128532200Y-115627982D02*
X128579819Y-115532744D01*
X128579819Y-115532744D02*
X128579819Y-115437506D01*
X128579819Y-115437506D02*
X128532200Y-115342268D01*
X128532200Y-115342268D02*
X128484580Y-115294649D01*
X128484580Y-115294649D02*
X128389342Y-115247030D01*
X128389342Y-115247030D02*
X128198866Y-115199411D01*
X128198866Y-115199411D02*
X127960771Y-115199411D01*
X127960771Y-115199411D02*
X127770295Y-115247030D01*
X127770295Y-115247030D02*
X127675057Y-115294649D01*
X127675057Y-115294649D02*
X127627438Y-115342268D01*
X127627438Y-115342268D02*
X127579819Y-115437506D01*
X123404580Y-111770839D02*
X123452200Y-111723220D01*
X123452200Y-111723220D02*
X123499819Y-111580363D01*
X123499819Y-111580363D02*
X123499819Y-111485125D01*
X123499819Y-111485125D02*
X123452200Y-111342268D01*
X123452200Y-111342268D02*
X123356961Y-111247030D01*
X123356961Y-111247030D02*
X123261723Y-111199411D01*
X123261723Y-111199411D02*
X123071247Y-111151792D01*
X123071247Y-111151792D02*
X122928390Y-111151792D01*
X122928390Y-111151792D02*
X122737914Y-111199411D01*
X122737914Y-111199411D02*
X122642676Y-111247030D01*
X122642676Y-111247030D02*
X122547438Y-111342268D01*
X122547438Y-111342268D02*
X122499819Y-111485125D01*
X122499819Y-111485125D02*
X122499819Y-111580363D01*
X122499819Y-111580363D02*
X122547438Y-111723220D01*
X122547438Y-111723220D02*
X122595057Y-111770839D01*
X123499819Y-112199411D02*
X122499819Y-112199411D01*
X122976009Y-112199411D02*
X122976009Y-112770839D01*
X123499819Y-112770839D02*
X122499819Y-112770839D01*
X123499819Y-113818458D02*
X123023628Y-113485125D01*
X123499819Y-113247030D02*
X122499819Y-113247030D01*
X122499819Y-113247030D02*
X122499819Y-113627982D01*
X122499819Y-113627982D02*
X122547438Y-113723220D01*
X122547438Y-113723220D02*
X122595057Y-113770839D01*
X122595057Y-113770839D02*
X122690295Y-113818458D01*
X122690295Y-113818458D02*
X122833152Y-113818458D01*
X122833152Y-113818458D02*
X122928390Y-113770839D01*
X122928390Y-113770839D02*
X122976009Y-113723220D01*
X122976009Y-113723220D02*
X123023628Y-113627982D01*
X123023628Y-113627982D02*
X123023628Y-113247030D01*
X122976009Y-114247030D02*
X122976009Y-114580363D01*
X123499819Y-114723220D02*
X123499819Y-114247030D01*
X123499819Y-114247030D02*
X122499819Y-114247030D01*
X122499819Y-114247030D02*
X122499819Y-114723220D01*
X123499819Y-115151792D02*
X122499819Y-115151792D01*
X122499819Y-115151792D02*
X123499819Y-115723220D01*
X123499819Y-115723220D02*
X122499819Y-115723220D01*
X123045000Y-116765000D02*
X123045000Y-116115000D01*
X120864580Y-103283207D02*
X120912200Y-103235588D01*
X120912200Y-103235588D02*
X120959819Y-103092731D01*
X120959819Y-103092731D02*
X120959819Y-102997493D01*
X120959819Y-102997493D02*
X120912200Y-102854636D01*
X120912200Y-102854636D02*
X120816961Y-102759398D01*
X120816961Y-102759398D02*
X120721723Y-102711779D01*
X120721723Y-102711779D02*
X120531247Y-102664160D01*
X120531247Y-102664160D02*
X120388390Y-102664160D01*
X120388390Y-102664160D02*
X120197914Y-102711779D01*
X120197914Y-102711779D02*
X120102676Y-102759398D01*
X120102676Y-102759398D02*
X120007438Y-102854636D01*
X120007438Y-102854636D02*
X119959819Y-102997493D01*
X119959819Y-102997493D02*
X119959819Y-103092731D01*
X119959819Y-103092731D02*
X120007438Y-103235588D01*
X120007438Y-103235588D02*
X120055057Y-103283207D01*
X120959819Y-104187969D02*
X120959819Y-103711779D01*
X120959819Y-103711779D02*
X119959819Y-103711779D01*
X120959819Y-104521303D02*
X119959819Y-104521303D01*
X120959819Y-105092731D02*
X120388390Y-104664160D01*
X119959819Y-105092731D02*
X120531247Y-104521303D01*
X120505000Y-102325000D02*
X120505000Y-101675000D01*
X123045000Y-102325000D02*
X123045000Y-101675000D01*
X123499819Y-102711779D02*
X122499819Y-102711779D01*
X122499819Y-102711779D02*
X122499819Y-102949874D01*
X122499819Y-102949874D02*
X122547438Y-103092731D01*
X122547438Y-103092731D02*
X122642676Y-103187969D01*
X122642676Y-103187969D02*
X122737914Y-103235588D01*
X122737914Y-103235588D02*
X122928390Y-103283207D01*
X122928390Y-103283207D02*
X123071247Y-103283207D01*
X123071247Y-103283207D02*
X123261723Y-103235588D01*
X123261723Y-103235588D02*
X123356961Y-103187969D01*
X123356961Y-103187969D02*
X123452200Y-103092731D01*
X123452200Y-103092731D02*
X123499819Y-102949874D01*
X123499819Y-102949874D02*
X123499819Y-102711779D01*
X123404580Y-104283207D02*
X123452200Y-104235588D01*
X123452200Y-104235588D02*
X123499819Y-104092731D01*
X123499819Y-104092731D02*
X123499819Y-103997493D01*
X123499819Y-103997493D02*
X123452200Y-103854636D01*
X123452200Y-103854636D02*
X123356961Y-103759398D01*
X123356961Y-103759398D02*
X123261723Y-103711779D01*
X123261723Y-103711779D02*
X123071247Y-103664160D01*
X123071247Y-103664160D02*
X122928390Y-103664160D01*
X122928390Y-103664160D02*
X122737914Y-103711779D01*
X122737914Y-103711779D02*
X122642676Y-103759398D01*
X122642676Y-103759398D02*
X122547438Y-103854636D01*
X122547438Y-103854636D02*
X122499819Y-103997493D01*
X122499819Y-103997493D02*
X122499819Y-104092731D01*
X122499819Y-104092731D02*
X122547438Y-104235588D01*
X122547438Y-104235588D02*
X122595057Y-104283207D01*
X123499819Y-104711779D02*
X122499819Y-104711779D01*
X122499819Y-104711779D02*
X122499819Y-104949874D01*
X122499819Y-104949874D02*
X122547438Y-105092731D01*
X122547438Y-105092731D02*
X122642676Y-105187969D01*
X122642676Y-105187969D02*
X122737914Y-105235588D01*
X122737914Y-105235588D02*
X122928390Y-105283207D01*
X122928390Y-105283207D02*
X123071247Y-105283207D01*
X123071247Y-105283207D02*
X123261723Y-105235588D01*
X123261723Y-105235588D02*
X123356961Y-105187969D01*
X123356961Y-105187969D02*
X123452200Y-105092731D01*
X123452200Y-105092731D02*
X123499819Y-104949874D01*
X123499819Y-104949874D02*
X123499819Y-104711779D01*
X135745000Y-116765000D02*
X135745000Y-116115000D01*
X135247438Y-111770840D02*
X135199819Y-111675602D01*
X135199819Y-111675602D02*
X135199819Y-111532745D01*
X135199819Y-111532745D02*
X135247438Y-111389888D01*
X135247438Y-111389888D02*
X135342676Y-111294650D01*
X135342676Y-111294650D02*
X135437914Y-111247031D01*
X135437914Y-111247031D02*
X135628390Y-111199412D01*
X135628390Y-111199412D02*
X135771247Y-111199412D01*
X135771247Y-111199412D02*
X135961723Y-111247031D01*
X135961723Y-111247031D02*
X136056961Y-111294650D01*
X136056961Y-111294650D02*
X136152200Y-111389888D01*
X136152200Y-111389888D02*
X136199819Y-111532745D01*
X136199819Y-111532745D02*
X136199819Y-111627983D01*
X136199819Y-111627983D02*
X136152200Y-111770840D01*
X136152200Y-111770840D02*
X136104580Y-111818459D01*
X136104580Y-111818459D02*
X135771247Y-111818459D01*
X135771247Y-111818459D02*
X135771247Y-111627983D01*
X136199819Y-112247031D02*
X135199819Y-112247031D01*
X135199819Y-112247031D02*
X135199819Y-112627983D01*
X135199819Y-112627983D02*
X135247438Y-112723221D01*
X135247438Y-112723221D02*
X135295057Y-112770840D01*
X135295057Y-112770840D02*
X135390295Y-112818459D01*
X135390295Y-112818459D02*
X135533152Y-112818459D01*
X135533152Y-112818459D02*
X135628390Y-112770840D01*
X135628390Y-112770840D02*
X135676009Y-112723221D01*
X135676009Y-112723221D02*
X135723628Y-112627983D01*
X135723628Y-112627983D02*
X135723628Y-112247031D01*
X136199819Y-113247031D02*
X135199819Y-113247031D01*
X135199819Y-113913697D02*
X135199819Y-114104173D01*
X135199819Y-114104173D02*
X135247438Y-114199411D01*
X135247438Y-114199411D02*
X135342676Y-114294649D01*
X135342676Y-114294649D02*
X135533152Y-114342268D01*
X135533152Y-114342268D02*
X135866485Y-114342268D01*
X135866485Y-114342268D02*
X136056961Y-114294649D01*
X136056961Y-114294649D02*
X136152200Y-114199411D01*
X136152200Y-114199411D02*
X136199819Y-114104173D01*
X136199819Y-114104173D02*
X136199819Y-113913697D01*
X136199819Y-113913697D02*
X136152200Y-113818459D01*
X136152200Y-113818459D02*
X136056961Y-113723221D01*
X136056961Y-113723221D02*
X135866485Y-113675602D01*
X135866485Y-113675602D02*
X135533152Y-113675602D01*
X135533152Y-113675602D02*
X135342676Y-113723221D01*
X135342676Y-113723221D02*
X135247438Y-113818459D01*
X135247438Y-113818459D02*
X135199819Y-113913697D01*
X136104580Y-114770840D02*
X136152200Y-114818459D01*
X136152200Y-114818459D02*
X136199819Y-114770840D01*
X136199819Y-114770840D02*
X136152200Y-114723221D01*
X136152200Y-114723221D02*
X136104580Y-114770840D01*
X136104580Y-114770840D02*
X136199819Y-114770840D01*
X136199819Y-115770839D02*
X136199819Y-115199411D01*
X136199819Y-115485125D02*
X135199819Y-115485125D01*
X135199819Y-115485125D02*
X135342676Y-115389887D01*
X135342676Y-115389887D02*
X135437914Y-115294649D01*
X135437914Y-115294649D02*
X135485533Y-115199411D01*
X133659819Y-103283207D02*
X133183628Y-102949874D01*
X133659819Y-102711779D02*
X132659819Y-102711779D01*
X132659819Y-102711779D02*
X132659819Y-103092731D01*
X132659819Y-103092731D02*
X132707438Y-103187969D01*
X132707438Y-103187969D02*
X132755057Y-103235588D01*
X132755057Y-103235588D02*
X132850295Y-103283207D01*
X132850295Y-103283207D02*
X132993152Y-103283207D01*
X132993152Y-103283207D02*
X133088390Y-103235588D01*
X133088390Y-103235588D02*
X133136009Y-103187969D01*
X133136009Y-103187969D02*
X133183628Y-103092731D01*
X133183628Y-103092731D02*
X133183628Y-102711779D01*
X132659819Y-103568922D02*
X132659819Y-104140350D01*
X133659819Y-103854636D02*
X132659819Y-103854636D01*
X133612200Y-104426065D02*
X133659819Y-104568922D01*
X133659819Y-104568922D02*
X133659819Y-104807017D01*
X133659819Y-104807017D02*
X133612200Y-104902255D01*
X133612200Y-104902255D02*
X133564580Y-104949874D01*
X133564580Y-104949874D02*
X133469342Y-104997493D01*
X133469342Y-104997493D02*
X133374104Y-104997493D01*
X133374104Y-104997493D02*
X133278866Y-104949874D01*
X133278866Y-104949874D02*
X133231247Y-104902255D01*
X133231247Y-104902255D02*
X133183628Y-104807017D01*
X133183628Y-104807017D02*
X133136009Y-104616541D01*
X133136009Y-104616541D02*
X133088390Y-104521303D01*
X133088390Y-104521303D02*
X133040771Y-104473684D01*
X133040771Y-104473684D02*
X132945533Y-104426065D01*
X132945533Y-104426065D02*
X132850295Y-104426065D01*
X132850295Y-104426065D02*
X132755057Y-104473684D01*
X132755057Y-104473684D02*
X132707438Y-104521303D01*
X132707438Y-104521303D02*
X132659819Y-104616541D01*
X132659819Y-104616541D02*
X132659819Y-104854636D01*
X132659819Y-104854636D02*
X132707438Y-104997493D01*
X133205000Y-102325000D02*
X133205000Y-101675000D01*
X130167438Y-111770840D02*
X130119819Y-111675602D01*
X130119819Y-111675602D02*
X130119819Y-111532745D01*
X130119819Y-111532745D02*
X130167438Y-111389888D01*
X130167438Y-111389888D02*
X130262676Y-111294650D01*
X130262676Y-111294650D02*
X130357914Y-111247031D01*
X130357914Y-111247031D02*
X130548390Y-111199412D01*
X130548390Y-111199412D02*
X130691247Y-111199412D01*
X130691247Y-111199412D02*
X130881723Y-111247031D01*
X130881723Y-111247031D02*
X130976961Y-111294650D01*
X130976961Y-111294650D02*
X131072200Y-111389888D01*
X131072200Y-111389888D02*
X131119819Y-111532745D01*
X131119819Y-111532745D02*
X131119819Y-111627983D01*
X131119819Y-111627983D02*
X131072200Y-111770840D01*
X131072200Y-111770840D02*
X131024580Y-111818459D01*
X131024580Y-111818459D02*
X130691247Y-111818459D01*
X130691247Y-111818459D02*
X130691247Y-111627983D01*
X131119819Y-112247031D02*
X130119819Y-112247031D01*
X130119819Y-112247031D02*
X130119819Y-112627983D01*
X130119819Y-112627983D02*
X130167438Y-112723221D01*
X130167438Y-112723221D02*
X130215057Y-112770840D01*
X130215057Y-112770840D02*
X130310295Y-112818459D01*
X130310295Y-112818459D02*
X130453152Y-112818459D01*
X130453152Y-112818459D02*
X130548390Y-112770840D01*
X130548390Y-112770840D02*
X130596009Y-112723221D01*
X130596009Y-112723221D02*
X130643628Y-112627983D01*
X130643628Y-112627983D02*
X130643628Y-112247031D01*
X131119819Y-113247031D02*
X130119819Y-113247031D01*
X130119819Y-113913697D02*
X130119819Y-114104173D01*
X130119819Y-114104173D02*
X130167438Y-114199411D01*
X130167438Y-114199411D02*
X130262676Y-114294649D01*
X130262676Y-114294649D02*
X130453152Y-114342268D01*
X130453152Y-114342268D02*
X130786485Y-114342268D01*
X130786485Y-114342268D02*
X130976961Y-114294649D01*
X130976961Y-114294649D02*
X131072200Y-114199411D01*
X131072200Y-114199411D02*
X131119819Y-114104173D01*
X131119819Y-114104173D02*
X131119819Y-113913697D01*
X131119819Y-113913697D02*
X131072200Y-113818459D01*
X131072200Y-113818459D02*
X130976961Y-113723221D01*
X130976961Y-113723221D02*
X130786485Y-113675602D01*
X130786485Y-113675602D02*
X130453152Y-113675602D01*
X130453152Y-113675602D02*
X130262676Y-113723221D01*
X130262676Y-113723221D02*
X130167438Y-113818459D01*
X130167438Y-113818459D02*
X130119819Y-113913697D01*
X131024580Y-114770840D02*
X131072200Y-114818459D01*
X131072200Y-114818459D02*
X131119819Y-114770840D01*
X131119819Y-114770840D02*
X131072200Y-114723221D01*
X131072200Y-114723221D02*
X131024580Y-114770840D01*
X131024580Y-114770840D02*
X131119819Y-114770840D01*
X130119819Y-115151792D02*
X130119819Y-115770839D01*
X130119819Y-115770839D02*
X130500771Y-115437506D01*
X130500771Y-115437506D02*
X130500771Y-115580363D01*
X130500771Y-115580363D02*
X130548390Y-115675601D01*
X130548390Y-115675601D02*
X130596009Y-115723220D01*
X130596009Y-115723220D02*
X130691247Y-115770839D01*
X130691247Y-115770839D02*
X130929342Y-115770839D01*
X130929342Y-115770839D02*
X131024580Y-115723220D01*
X131024580Y-115723220D02*
X131072200Y-115675601D01*
X131072200Y-115675601D02*
X131119819Y-115580363D01*
X131119819Y-115580363D02*
X131119819Y-115294649D01*
X131119819Y-115294649D02*
X131072200Y-115199411D01*
X131072200Y-115199411D02*
X131024580Y-115151792D01*
X130665000Y-116765000D02*
X130665000Y-116115000D01*
X135247438Y-103235588D02*
X135199819Y-103140350D01*
X135199819Y-103140350D02*
X135199819Y-102997493D01*
X135199819Y-102997493D02*
X135247438Y-102854636D01*
X135247438Y-102854636D02*
X135342676Y-102759398D01*
X135342676Y-102759398D02*
X135437914Y-102711779D01*
X135437914Y-102711779D02*
X135628390Y-102664160D01*
X135628390Y-102664160D02*
X135771247Y-102664160D01*
X135771247Y-102664160D02*
X135961723Y-102711779D01*
X135961723Y-102711779D02*
X136056961Y-102759398D01*
X136056961Y-102759398D02*
X136152200Y-102854636D01*
X136152200Y-102854636D02*
X136199819Y-102997493D01*
X136199819Y-102997493D02*
X136199819Y-103092731D01*
X136199819Y-103092731D02*
X136152200Y-103235588D01*
X136152200Y-103235588D02*
X136104580Y-103283207D01*
X136104580Y-103283207D02*
X135771247Y-103283207D01*
X135771247Y-103283207D02*
X135771247Y-103092731D01*
X136199819Y-103711779D02*
X135199819Y-103711779D01*
X135199819Y-103711779D02*
X135199819Y-104092731D01*
X135199819Y-104092731D02*
X135247438Y-104187969D01*
X135247438Y-104187969D02*
X135295057Y-104235588D01*
X135295057Y-104235588D02*
X135390295Y-104283207D01*
X135390295Y-104283207D02*
X135533152Y-104283207D01*
X135533152Y-104283207D02*
X135628390Y-104235588D01*
X135628390Y-104235588D02*
X135676009Y-104187969D01*
X135676009Y-104187969D02*
X135723628Y-104092731D01*
X135723628Y-104092731D02*
X135723628Y-103711779D01*
X136199819Y-104711779D02*
X135199819Y-104711779D01*
X135199819Y-105378445D02*
X135199819Y-105568921D01*
X135199819Y-105568921D02*
X135247438Y-105664159D01*
X135247438Y-105664159D02*
X135342676Y-105759397D01*
X135342676Y-105759397D02*
X135533152Y-105807016D01*
X135533152Y-105807016D02*
X135866485Y-105807016D01*
X135866485Y-105807016D02*
X136056961Y-105759397D01*
X136056961Y-105759397D02*
X136152200Y-105664159D01*
X136152200Y-105664159D02*
X136199819Y-105568921D01*
X136199819Y-105568921D02*
X136199819Y-105378445D01*
X136199819Y-105378445D02*
X136152200Y-105283207D01*
X136152200Y-105283207D02*
X136056961Y-105187969D01*
X136056961Y-105187969D02*
X135866485Y-105140350D01*
X135866485Y-105140350D02*
X135533152Y-105140350D01*
X135533152Y-105140350D02*
X135342676Y-105187969D01*
X135342676Y-105187969D02*
X135247438Y-105283207D01*
X135247438Y-105283207D02*
X135199819Y-105378445D01*
X136104580Y-106235588D02*
X136152200Y-106283207D01*
X136152200Y-106283207D02*
X136199819Y-106235588D01*
X136199819Y-106235588D02*
X136152200Y-106187969D01*
X136152200Y-106187969D02*
X136104580Y-106235588D01*
X136104580Y-106235588D02*
X136199819Y-106235588D01*
X135533152Y-107140349D02*
X136199819Y-107140349D01*
X135152200Y-106902254D02*
X135866485Y-106664159D01*
X135866485Y-106664159D02*
X135866485Y-107283206D01*
X135745000Y-102325000D02*
X135745000Y-101675000D01*
X137787438Y-111770840D02*
X137739819Y-111675602D01*
X137739819Y-111675602D02*
X137739819Y-111532745D01*
X137739819Y-111532745D02*
X137787438Y-111389888D01*
X137787438Y-111389888D02*
X137882676Y-111294650D01*
X137882676Y-111294650D02*
X137977914Y-111247031D01*
X137977914Y-111247031D02*
X138168390Y-111199412D01*
X138168390Y-111199412D02*
X138311247Y-111199412D01*
X138311247Y-111199412D02*
X138501723Y-111247031D01*
X138501723Y-111247031D02*
X138596961Y-111294650D01*
X138596961Y-111294650D02*
X138692200Y-111389888D01*
X138692200Y-111389888D02*
X138739819Y-111532745D01*
X138739819Y-111532745D02*
X138739819Y-111627983D01*
X138739819Y-111627983D02*
X138692200Y-111770840D01*
X138692200Y-111770840D02*
X138644580Y-111818459D01*
X138644580Y-111818459D02*
X138311247Y-111818459D01*
X138311247Y-111818459D02*
X138311247Y-111627983D01*
X138739819Y-112247031D02*
X137739819Y-112247031D01*
X137739819Y-112247031D02*
X137739819Y-112627983D01*
X137739819Y-112627983D02*
X137787438Y-112723221D01*
X137787438Y-112723221D02*
X137835057Y-112770840D01*
X137835057Y-112770840D02*
X137930295Y-112818459D01*
X137930295Y-112818459D02*
X138073152Y-112818459D01*
X138073152Y-112818459D02*
X138168390Y-112770840D01*
X138168390Y-112770840D02*
X138216009Y-112723221D01*
X138216009Y-112723221D02*
X138263628Y-112627983D01*
X138263628Y-112627983D02*
X138263628Y-112247031D01*
X138739819Y-113247031D02*
X137739819Y-113247031D01*
X137739819Y-113913697D02*
X137739819Y-114104173D01*
X137739819Y-114104173D02*
X137787438Y-114199411D01*
X137787438Y-114199411D02*
X137882676Y-114294649D01*
X137882676Y-114294649D02*
X138073152Y-114342268D01*
X138073152Y-114342268D02*
X138406485Y-114342268D01*
X138406485Y-114342268D02*
X138596961Y-114294649D01*
X138596961Y-114294649D02*
X138692200Y-114199411D01*
X138692200Y-114199411D02*
X138739819Y-114104173D01*
X138739819Y-114104173D02*
X138739819Y-113913697D01*
X138739819Y-113913697D02*
X138692200Y-113818459D01*
X138692200Y-113818459D02*
X138596961Y-113723221D01*
X138596961Y-113723221D02*
X138406485Y-113675602D01*
X138406485Y-113675602D02*
X138073152Y-113675602D01*
X138073152Y-113675602D02*
X137882676Y-113723221D01*
X137882676Y-113723221D02*
X137787438Y-113818459D01*
X137787438Y-113818459D02*
X137739819Y-113913697D01*
X138644580Y-114770840D02*
X138692200Y-114818459D01*
X138692200Y-114818459D02*
X138739819Y-114770840D01*
X138739819Y-114770840D02*
X138692200Y-114723221D01*
X138692200Y-114723221D02*
X138644580Y-114770840D01*
X138644580Y-114770840D02*
X138739819Y-114770840D01*
X137739819Y-115437506D02*
X137739819Y-115532744D01*
X137739819Y-115532744D02*
X137787438Y-115627982D01*
X137787438Y-115627982D02*
X137835057Y-115675601D01*
X137835057Y-115675601D02*
X137930295Y-115723220D01*
X137930295Y-115723220D02*
X138120771Y-115770839D01*
X138120771Y-115770839D02*
X138358866Y-115770839D01*
X138358866Y-115770839D02*
X138549342Y-115723220D01*
X138549342Y-115723220D02*
X138644580Y-115675601D01*
X138644580Y-115675601D02*
X138692200Y-115627982D01*
X138692200Y-115627982D02*
X138739819Y-115532744D01*
X138739819Y-115532744D02*
X138739819Y-115437506D01*
X138739819Y-115437506D02*
X138692200Y-115342268D01*
X138692200Y-115342268D02*
X138644580Y-115294649D01*
X138644580Y-115294649D02*
X138549342Y-115247030D01*
X138549342Y-115247030D02*
X138358866Y-115199411D01*
X138358866Y-115199411D02*
X138120771Y-115199411D01*
X138120771Y-115199411D02*
X137930295Y-115247030D01*
X137930295Y-115247030D02*
X137835057Y-115294649D01*
X137835057Y-115294649D02*
X137787438Y-115342268D01*
X137787438Y-115342268D02*
X137739819Y-115437506D01*
X138285000Y-116765000D02*
X138285000Y-116115000D01*
X125585000Y-116765000D02*
X125585000Y-116115000D01*
X125944580Y-112770839D02*
X125992200Y-112723220D01*
X125992200Y-112723220D02*
X126039819Y-112580363D01*
X126039819Y-112580363D02*
X126039819Y-112485125D01*
X126039819Y-112485125D02*
X125992200Y-112342268D01*
X125992200Y-112342268D02*
X125896961Y-112247030D01*
X125896961Y-112247030D02*
X125801723Y-112199411D01*
X125801723Y-112199411D02*
X125611247Y-112151792D01*
X125611247Y-112151792D02*
X125468390Y-112151792D01*
X125468390Y-112151792D02*
X125277914Y-112199411D01*
X125277914Y-112199411D02*
X125182676Y-112247030D01*
X125182676Y-112247030D02*
X125087438Y-112342268D01*
X125087438Y-112342268D02*
X125039819Y-112485125D01*
X125039819Y-112485125D02*
X125039819Y-112580363D01*
X125039819Y-112580363D02*
X125087438Y-112723220D01*
X125087438Y-112723220D02*
X125135057Y-112770839D01*
X126039819Y-113199411D02*
X125039819Y-113199411D01*
X125516009Y-113199411D02*
X125516009Y-113770839D01*
X126039819Y-113770839D02*
X125039819Y-113770839D01*
X126039819Y-114818458D02*
X125563628Y-114485125D01*
X126039819Y-114247030D02*
X125039819Y-114247030D01*
X125039819Y-114247030D02*
X125039819Y-114627982D01*
X125039819Y-114627982D02*
X125087438Y-114723220D01*
X125087438Y-114723220D02*
X125135057Y-114770839D01*
X125135057Y-114770839D02*
X125230295Y-114818458D01*
X125230295Y-114818458D02*
X125373152Y-114818458D01*
X125373152Y-114818458D02*
X125468390Y-114770839D01*
X125468390Y-114770839D02*
X125516009Y-114723220D01*
X125516009Y-114723220D02*
X125563628Y-114627982D01*
X125563628Y-114627982D02*
X125563628Y-114247030D01*
X126039819Y-115770839D02*
X126039819Y-115199411D01*
X126039819Y-115485125D02*
X125039819Y-115485125D01*
X125039819Y-115485125D02*
X125182676Y-115389887D01*
X125182676Y-115389887D02*
X125277914Y-115294649D01*
X125277914Y-115294649D02*
X125325533Y-115199411D01*
X120505000Y-116765000D02*
X120505000Y-116115000D01*
X120912200Y-109247030D02*
X120959819Y-109389887D01*
X120959819Y-109389887D02*
X120959819Y-109627982D01*
X120959819Y-109627982D02*
X120912200Y-109723220D01*
X120912200Y-109723220D02*
X120864580Y-109770839D01*
X120864580Y-109770839D02*
X120769342Y-109818458D01*
X120769342Y-109818458D02*
X120674104Y-109818458D01*
X120674104Y-109818458D02*
X120578866Y-109770839D01*
X120578866Y-109770839D02*
X120531247Y-109723220D01*
X120531247Y-109723220D02*
X120483628Y-109627982D01*
X120483628Y-109627982D02*
X120436009Y-109437506D01*
X120436009Y-109437506D02*
X120388390Y-109342268D01*
X120388390Y-109342268D02*
X120340771Y-109294649D01*
X120340771Y-109294649D02*
X120245533Y-109247030D01*
X120245533Y-109247030D02*
X120150295Y-109247030D01*
X120150295Y-109247030D02*
X120055057Y-109294649D01*
X120055057Y-109294649D02*
X120007438Y-109342268D01*
X120007438Y-109342268D02*
X119959819Y-109437506D01*
X119959819Y-109437506D02*
X119959819Y-109675601D01*
X119959819Y-109675601D02*
X120007438Y-109818458D01*
X119959819Y-110247030D02*
X120769342Y-110247030D01*
X120769342Y-110247030D02*
X120864580Y-110294649D01*
X120864580Y-110294649D02*
X120912200Y-110342268D01*
X120912200Y-110342268D02*
X120959819Y-110437506D01*
X120959819Y-110437506D02*
X120959819Y-110627982D01*
X120959819Y-110627982D02*
X120912200Y-110723220D01*
X120912200Y-110723220D02*
X120864580Y-110770839D01*
X120864580Y-110770839D02*
X120769342Y-110818458D01*
X120769342Y-110818458D02*
X119959819Y-110818458D01*
X120912200Y-111247030D02*
X120959819Y-111389887D01*
X120959819Y-111389887D02*
X120959819Y-111627982D01*
X120959819Y-111627982D02*
X120912200Y-111723220D01*
X120912200Y-111723220D02*
X120864580Y-111770839D01*
X120864580Y-111770839D02*
X120769342Y-111818458D01*
X120769342Y-111818458D02*
X120674104Y-111818458D01*
X120674104Y-111818458D02*
X120578866Y-111770839D01*
X120578866Y-111770839D02*
X120531247Y-111723220D01*
X120531247Y-111723220D02*
X120483628Y-111627982D01*
X120483628Y-111627982D02*
X120436009Y-111437506D01*
X120436009Y-111437506D02*
X120388390Y-111342268D01*
X120388390Y-111342268D02*
X120340771Y-111294649D01*
X120340771Y-111294649D02*
X120245533Y-111247030D01*
X120245533Y-111247030D02*
X120150295Y-111247030D01*
X120150295Y-111247030D02*
X120055057Y-111294649D01*
X120055057Y-111294649D02*
X120007438Y-111342268D01*
X120007438Y-111342268D02*
X119959819Y-111437506D01*
X119959819Y-111437506D02*
X119959819Y-111675601D01*
X119959819Y-111675601D02*
X120007438Y-111818458D01*
X120959819Y-112247030D02*
X119959819Y-112247030D01*
X119959819Y-112247030D02*
X119959819Y-112627982D01*
X119959819Y-112627982D02*
X120007438Y-112723220D01*
X120007438Y-112723220D02*
X120055057Y-112770839D01*
X120055057Y-112770839D02*
X120150295Y-112818458D01*
X120150295Y-112818458D02*
X120293152Y-112818458D01*
X120293152Y-112818458D02*
X120388390Y-112770839D01*
X120388390Y-112770839D02*
X120436009Y-112723220D01*
X120436009Y-112723220D02*
X120483628Y-112627982D01*
X120483628Y-112627982D02*
X120483628Y-112247030D01*
X120436009Y-113247030D02*
X120436009Y-113580363D01*
X120959819Y-113723220D02*
X120959819Y-113247030D01*
X120959819Y-113247030D02*
X119959819Y-113247030D01*
X119959819Y-113247030D02*
X119959819Y-113723220D01*
X120959819Y-114151792D02*
X119959819Y-114151792D01*
X119959819Y-114151792D02*
X120959819Y-114723220D01*
X120959819Y-114723220D02*
X119959819Y-114723220D01*
X120959819Y-115199411D02*
X119959819Y-115199411D01*
X119959819Y-115199411D02*
X119959819Y-115437506D01*
X119959819Y-115437506D02*
X120007438Y-115580363D01*
X120007438Y-115580363D02*
X120102676Y-115675601D01*
X120102676Y-115675601D02*
X120197914Y-115723220D01*
X120197914Y-115723220D02*
X120388390Y-115770839D01*
X120388390Y-115770839D02*
X120531247Y-115770839D01*
X120531247Y-115770839D02*
X120721723Y-115723220D01*
X120721723Y-115723220D02*
X120816961Y-115675601D01*
X120816961Y-115675601D02*
X120912200Y-115580363D01*
X120912200Y-115580363D02*
X120959819Y-115437506D01*
X120959819Y-115437506D02*
X120959819Y-115199411D01*
X140825000Y-116765000D02*
X140825000Y-116115000D01*
X140327438Y-111770840D02*
X140279819Y-111675602D01*
X140279819Y-111675602D02*
X140279819Y-111532745D01*
X140279819Y-111532745D02*
X140327438Y-111389888D01*
X140327438Y-111389888D02*
X140422676Y-111294650D01*
X140422676Y-111294650D02*
X140517914Y-111247031D01*
X140517914Y-111247031D02*
X140708390Y-111199412D01*
X140708390Y-111199412D02*
X140851247Y-111199412D01*
X140851247Y-111199412D02*
X141041723Y-111247031D01*
X141041723Y-111247031D02*
X141136961Y-111294650D01*
X141136961Y-111294650D02*
X141232200Y-111389888D01*
X141232200Y-111389888D02*
X141279819Y-111532745D01*
X141279819Y-111532745D02*
X141279819Y-111627983D01*
X141279819Y-111627983D02*
X141232200Y-111770840D01*
X141232200Y-111770840D02*
X141184580Y-111818459D01*
X141184580Y-111818459D02*
X140851247Y-111818459D01*
X140851247Y-111818459D02*
X140851247Y-111627983D01*
X141279819Y-112247031D02*
X140279819Y-112247031D01*
X140279819Y-112247031D02*
X140279819Y-112627983D01*
X140279819Y-112627983D02*
X140327438Y-112723221D01*
X140327438Y-112723221D02*
X140375057Y-112770840D01*
X140375057Y-112770840D02*
X140470295Y-112818459D01*
X140470295Y-112818459D02*
X140613152Y-112818459D01*
X140613152Y-112818459D02*
X140708390Y-112770840D01*
X140708390Y-112770840D02*
X140756009Y-112723221D01*
X140756009Y-112723221D02*
X140803628Y-112627983D01*
X140803628Y-112627983D02*
X140803628Y-112247031D01*
X141279819Y-113247031D02*
X140279819Y-113247031D01*
X140279819Y-113913697D02*
X140279819Y-114104173D01*
X140279819Y-114104173D02*
X140327438Y-114199411D01*
X140327438Y-114199411D02*
X140422676Y-114294649D01*
X140422676Y-114294649D02*
X140613152Y-114342268D01*
X140613152Y-114342268D02*
X140946485Y-114342268D01*
X140946485Y-114342268D02*
X141136961Y-114294649D01*
X141136961Y-114294649D02*
X141232200Y-114199411D01*
X141232200Y-114199411D02*
X141279819Y-114104173D01*
X141279819Y-114104173D02*
X141279819Y-113913697D01*
X141279819Y-113913697D02*
X141232200Y-113818459D01*
X141232200Y-113818459D02*
X141136961Y-113723221D01*
X141136961Y-113723221D02*
X140946485Y-113675602D01*
X140946485Y-113675602D02*
X140613152Y-113675602D01*
X140613152Y-113675602D02*
X140422676Y-113723221D01*
X140422676Y-113723221D02*
X140327438Y-113818459D01*
X140327438Y-113818459D02*
X140279819Y-113913697D01*
X141184580Y-114770840D02*
X141232200Y-114818459D01*
X141232200Y-114818459D02*
X141279819Y-114770840D01*
X141279819Y-114770840D02*
X141232200Y-114723221D01*
X141232200Y-114723221D02*
X141184580Y-114770840D01*
X141184580Y-114770840D02*
X141279819Y-114770840D01*
X140279819Y-115675601D02*
X140279819Y-115485125D01*
X140279819Y-115485125D02*
X140327438Y-115389887D01*
X140327438Y-115389887D02*
X140375057Y-115342268D01*
X140375057Y-115342268D02*
X140517914Y-115247030D01*
X140517914Y-115247030D02*
X140708390Y-115199411D01*
X140708390Y-115199411D02*
X141089342Y-115199411D01*
X141089342Y-115199411D02*
X141184580Y-115247030D01*
X141184580Y-115247030D02*
X141232200Y-115294649D01*
X141232200Y-115294649D02*
X141279819Y-115389887D01*
X141279819Y-115389887D02*
X141279819Y-115580363D01*
X141279819Y-115580363D02*
X141232200Y-115675601D01*
X141232200Y-115675601D02*
X141184580Y-115723220D01*
X141184580Y-115723220D02*
X141089342Y-115770839D01*
X141089342Y-115770839D02*
X140851247Y-115770839D01*
X140851247Y-115770839D02*
X140756009Y-115723220D01*
X140756009Y-115723220D02*
X140708390Y-115675601D01*
X140708390Y-115675601D02*
X140660771Y-115580363D01*
X140660771Y-115580363D02*
X140660771Y-115389887D01*
X140660771Y-115389887D02*
X140708390Y-115294649D01*
X140708390Y-115294649D02*
X140756009Y-115247030D01*
X140756009Y-115247030D02*
X140851247Y-115199411D01*
X117965000Y-116765000D02*
X117965000Y-116115000D01*
X117372200Y-108961315D02*
X118657914Y-108104173D01*
X118372200Y-109247030D02*
X118419819Y-109389887D01*
X118419819Y-109389887D02*
X118419819Y-109627982D01*
X118419819Y-109627982D02*
X118372200Y-109723220D01*
X118372200Y-109723220D02*
X118324580Y-109770839D01*
X118324580Y-109770839D02*
X118229342Y-109818458D01*
X118229342Y-109818458D02*
X118134104Y-109818458D01*
X118134104Y-109818458D02*
X118038866Y-109770839D01*
X118038866Y-109770839D02*
X117991247Y-109723220D01*
X117991247Y-109723220D02*
X117943628Y-109627982D01*
X117943628Y-109627982D02*
X117896009Y-109437506D01*
X117896009Y-109437506D02*
X117848390Y-109342268D01*
X117848390Y-109342268D02*
X117800771Y-109294649D01*
X117800771Y-109294649D02*
X117705533Y-109247030D01*
X117705533Y-109247030D02*
X117610295Y-109247030D01*
X117610295Y-109247030D02*
X117515057Y-109294649D01*
X117515057Y-109294649D02*
X117467438Y-109342268D01*
X117467438Y-109342268D02*
X117419819Y-109437506D01*
X117419819Y-109437506D02*
X117419819Y-109675601D01*
X117419819Y-109675601D02*
X117467438Y-109818458D01*
X117419819Y-110247030D02*
X118229342Y-110247030D01*
X118229342Y-110247030D02*
X118324580Y-110294649D01*
X118324580Y-110294649D02*
X118372200Y-110342268D01*
X118372200Y-110342268D02*
X118419819Y-110437506D01*
X118419819Y-110437506D02*
X118419819Y-110627982D01*
X118419819Y-110627982D02*
X118372200Y-110723220D01*
X118372200Y-110723220D02*
X118324580Y-110770839D01*
X118324580Y-110770839D02*
X118229342Y-110818458D01*
X118229342Y-110818458D02*
X117419819Y-110818458D01*
X118372200Y-111247030D02*
X118419819Y-111389887D01*
X118419819Y-111389887D02*
X118419819Y-111627982D01*
X118419819Y-111627982D02*
X118372200Y-111723220D01*
X118372200Y-111723220D02*
X118324580Y-111770839D01*
X118324580Y-111770839D02*
X118229342Y-111818458D01*
X118229342Y-111818458D02*
X118134104Y-111818458D01*
X118134104Y-111818458D02*
X118038866Y-111770839D01*
X118038866Y-111770839D02*
X117991247Y-111723220D01*
X117991247Y-111723220D02*
X117943628Y-111627982D01*
X117943628Y-111627982D02*
X117896009Y-111437506D01*
X117896009Y-111437506D02*
X117848390Y-111342268D01*
X117848390Y-111342268D02*
X117800771Y-111294649D01*
X117800771Y-111294649D02*
X117705533Y-111247030D01*
X117705533Y-111247030D02*
X117610295Y-111247030D01*
X117610295Y-111247030D02*
X117515057Y-111294649D01*
X117515057Y-111294649D02*
X117467438Y-111342268D01*
X117467438Y-111342268D02*
X117419819Y-111437506D01*
X117419819Y-111437506D02*
X117419819Y-111675601D01*
X117419819Y-111675601D02*
X117467438Y-111818458D01*
X118419819Y-112247030D02*
X117419819Y-112247030D01*
X117419819Y-112247030D02*
X117419819Y-112627982D01*
X117419819Y-112627982D02*
X117467438Y-112723220D01*
X117467438Y-112723220D02*
X117515057Y-112770839D01*
X117515057Y-112770839D02*
X117610295Y-112818458D01*
X117610295Y-112818458D02*
X117753152Y-112818458D01*
X117753152Y-112818458D02*
X117848390Y-112770839D01*
X117848390Y-112770839D02*
X117896009Y-112723220D01*
X117896009Y-112723220D02*
X117943628Y-112627982D01*
X117943628Y-112627982D02*
X117943628Y-112247030D01*
X117896009Y-113247030D02*
X117896009Y-113580363D01*
X118419819Y-113723220D02*
X118419819Y-113247030D01*
X118419819Y-113247030D02*
X117419819Y-113247030D01*
X117419819Y-113247030D02*
X117419819Y-113723220D01*
X118419819Y-114151792D02*
X117419819Y-114151792D01*
X117419819Y-114151792D02*
X118419819Y-114723220D01*
X118419819Y-114723220D02*
X117419819Y-114723220D01*
X118419819Y-115199411D02*
X117419819Y-115199411D01*
X117419819Y-115199411D02*
X117419819Y-115437506D01*
X117419819Y-115437506D02*
X117467438Y-115580363D01*
X117467438Y-115580363D02*
X117562676Y-115675601D01*
X117562676Y-115675601D02*
X117657914Y-115723220D01*
X117657914Y-115723220D02*
X117848390Y-115770839D01*
X117848390Y-115770839D02*
X117991247Y-115770839D01*
X117991247Y-115770839D02*
X118181723Y-115723220D01*
X118181723Y-115723220D02*
X118276961Y-115675601D01*
X118276961Y-115675601D02*
X118372200Y-115580363D01*
X118372200Y-115580363D02*
X118419819Y-115437506D01*
X118419819Y-115437506D02*
X118419819Y-115199411D01*
D16*
X115865582Y-99321428D02*
X114665582Y-99471428D01*
X114665582Y-99471428D02*
X114665582Y-99928571D01*
X114665582Y-99928571D02*
X114722725Y-100035714D01*
X114722725Y-100035714D02*
X114779868Y-100085714D01*
X114779868Y-100085714D02*
X114894154Y-100128571D01*
X114894154Y-100128571D02*
X115065582Y-100107142D01*
X115065582Y-100107142D02*
X115179868Y-100035714D01*
X115179868Y-100035714D02*
X115237011Y-99971428D01*
X115237011Y-99971428D02*
X115294154Y-99849999D01*
X115294154Y-99849999D02*
X115294154Y-99392857D01*
X114665582Y-100899999D02*
X114665582Y-101128571D01*
X114665582Y-101128571D02*
X114722725Y-101235714D01*
X114722725Y-101235714D02*
X114837011Y-101335714D01*
X114837011Y-101335714D02*
X115065582Y-101364285D01*
X115065582Y-101364285D02*
X115465582Y-101314285D01*
X115465582Y-101314285D02*
X115694154Y-101228571D01*
X115694154Y-101228571D02*
X115808440Y-101099999D01*
X115808440Y-101099999D02*
X115865582Y-100978571D01*
X115865582Y-100978571D02*
X115865582Y-100749999D01*
X115865582Y-100749999D02*
X115808440Y-100642857D01*
X115808440Y-100642857D02*
X115694154Y-100542857D01*
X115694154Y-100542857D02*
X115465582Y-100514285D01*
X115465582Y-100514285D02*
X115065582Y-100564285D01*
X115065582Y-100564285D02*
X114837011Y-100649999D01*
X114837011Y-100649999D02*
X114722725Y-100778571D01*
X114722725Y-100778571D02*
X114665582Y-100899999D01*
X115865582Y-102464285D02*
X115294154Y-102135714D01*
X115865582Y-101778571D02*
X114665582Y-101928571D01*
X114665582Y-101928571D02*
X114665582Y-102385714D01*
X114665582Y-102385714D02*
X114722725Y-102492857D01*
X114722725Y-102492857D02*
X114779868Y-102542857D01*
X114779868Y-102542857D02*
X114894154Y-102585714D01*
X114894154Y-102585714D02*
X115065582Y-102564285D01*
X115065582Y-102564285D02*
X115179868Y-102492857D01*
X115179868Y-102492857D02*
X115237011Y-102428571D01*
X115237011Y-102428571D02*
X115294154Y-102307142D01*
X115294154Y-102307142D02*
X115294154Y-101850000D01*
X114665582Y-102957142D02*
X114665582Y-103642857D01*
X115865582Y-103150000D02*
X114665582Y-103300000D01*
X114779868Y-103971428D02*
X114722725Y-104035714D01*
X114722725Y-104035714D02*
X114665582Y-104157143D01*
X114665582Y-104157143D02*
X114665582Y-104442857D01*
X114665582Y-104442857D02*
X114722725Y-104550000D01*
X114722725Y-104550000D02*
X114779868Y-104600000D01*
X114779868Y-104600000D02*
X114894154Y-104642857D01*
X114894154Y-104642857D02*
X115008440Y-104628571D01*
X115008440Y-104628571D02*
X115179868Y-104550000D01*
X115179868Y-104550000D02*
X115865582Y-103778571D01*
X115865582Y-103778571D02*
X115865582Y-104521428D01*
X115865582Y-114171428D02*
X114665582Y-114321428D01*
X114665582Y-114321428D02*
X114665582Y-114778571D01*
X114665582Y-114778571D02*
X114722725Y-114885714D01*
X114722725Y-114885714D02*
X114779868Y-114935714D01*
X114779868Y-114935714D02*
X114894154Y-114978571D01*
X114894154Y-114978571D02*
X115065582Y-114957142D01*
X115065582Y-114957142D02*
X115179868Y-114885714D01*
X115179868Y-114885714D02*
X115237011Y-114821428D01*
X115237011Y-114821428D02*
X115294154Y-114699999D01*
X115294154Y-114699999D02*
X115294154Y-114242857D01*
X114665582Y-115749999D02*
X114665582Y-115978571D01*
X114665582Y-115978571D02*
X114722725Y-116085714D01*
X114722725Y-116085714D02*
X114837011Y-116185714D01*
X114837011Y-116185714D02*
X115065582Y-116214285D01*
X115065582Y-116214285D02*
X115465582Y-116164285D01*
X115465582Y-116164285D02*
X115694154Y-116078571D01*
X115694154Y-116078571D02*
X115808440Y-115949999D01*
X115808440Y-115949999D02*
X115865582Y-115828571D01*
X115865582Y-115828571D02*
X115865582Y-115599999D01*
X115865582Y-115599999D02*
X115808440Y-115492857D01*
X115808440Y-115492857D02*
X115694154Y-115392857D01*
X115694154Y-115392857D02*
X115465582Y-115364285D01*
X115465582Y-115364285D02*
X115065582Y-115414285D01*
X115065582Y-115414285D02*
X114837011Y-115499999D01*
X114837011Y-115499999D02*
X114722725Y-115628571D01*
X114722725Y-115628571D02*
X114665582Y-115749999D01*
X115865582Y-117314285D02*
X115294154Y-116985714D01*
X115865582Y-116628571D02*
X114665582Y-116778571D01*
X114665582Y-116778571D02*
X114665582Y-117235714D01*
X114665582Y-117235714D02*
X114722725Y-117342857D01*
X114722725Y-117342857D02*
X114779868Y-117392857D01*
X114779868Y-117392857D02*
X114894154Y-117435714D01*
X114894154Y-117435714D02*
X115065582Y-117414285D01*
X115065582Y-117414285D02*
X115179868Y-117342857D01*
X115179868Y-117342857D02*
X115237011Y-117278571D01*
X115237011Y-117278571D02*
X115294154Y-117157142D01*
X115294154Y-117157142D02*
X115294154Y-116700000D01*
X114665582Y-117807142D02*
X114665582Y-118492857D01*
X115865582Y-118000000D02*
X114665582Y-118150000D01*
X115865582Y-119371428D02*
X115865582Y-118685714D01*
X115865582Y-119028571D02*
X114665582Y-119178571D01*
X114665582Y-119178571D02*
X114837011Y-119042857D01*
X114837011Y-119042857D02*
X114951297Y-118914286D01*
X114951297Y-118914286D02*
X115008440Y-118792857D01*
D17*
G04 #@! TO.C,J4*
X142155000Y-101660000D02*
X142155000Y-100330000D01*
X140825000Y-101660000D02*
X142155000Y-101660000D01*
X139555000Y-101660000D02*
X139555000Y-99000000D01*
X139555000Y-101660000D02*
X116635000Y-101660000D01*
X139555000Y-99000000D02*
X116635000Y-99000000D01*
X116635000Y-101660000D02*
X116635000Y-99000000D01*
G04 #@! TO.C,J2*
X142155000Y-119440000D02*
X142155000Y-118110000D01*
X140825000Y-119440000D02*
X142155000Y-119440000D01*
X139555000Y-119440000D02*
X139555000Y-116780000D01*
X139555000Y-119440000D02*
X116635000Y-119440000D01*
X139555000Y-116780000D02*
X116635000Y-116780000D01*
X116635000Y-119440000D02*
X116635000Y-116780000D01*
G04 #@! TD*
M02*
